<?xml version="1.0" encoding="UTF-8" standalone="no"?>
<!-- Created with matplotlib (http://matplotlib.org/) -->

<svg
   xmlns:dc="http://purl.org/dc/elements/1.1/"
   xmlns:cc="http://creativecommons.org/ns#"
   xmlns:rdf="http://www.w3.org/1999/02/22-rdf-syntax-ns#"
   xmlns:svg="http://www.w3.org/2000/svg"
   xmlns="http://www.w3.org/2000/svg"
   xmlns:xlink="http://www.w3.org/1999/xlink"
   xmlns:sodipodi="http://sodipodi.sourceforge.net/DTD/sodipodi-0.dtd"
   xmlns:inkscape="http://www.inkscape.org/namespaces/inkscape"
   height="260.80972pt"
   version="1.1"
   viewBox="0 0 120.37247 260.80972"
   width="120.37247pt"
   id="svg2"
   inkscape:version="0.91 r13725"
   sodipodi:docname="measures-correlations2.svg">
  <metadata
     id="metadata1932">
    <rdf:RDF>
      <cc:Work
         rdf:about="">
        <dc:format>image/svg+xml</dc:format>
        <dc:type
           rdf:resource="http://purl.org/dc/dcmitype/StillImage" />
        <dc:title></dc:title>
      </cc:Work>
    </rdf:RDF>
  </metadata>
  <sodipodi:namedview
     pagecolor="#ffffff"
     bordercolor="#666666"
     borderopacity="1"
     objecttolerance="10"
     gridtolerance="10"
     guidetolerance="10"
     inkscape:pageopacity="0"
     inkscape:pageshadow="2"
     inkscape:window-width="1920"
     inkscape:window-height="1136"
     id="namedview1930"
     showgrid="false"
     fit-margin-top="0"
     fit-margin-left="0"
     fit-margin-right="0"
     fit-margin-bottom="0"
     inkscape:zoom="1.2306139"
     inkscape:cx="32.0792"
     inkscape:cy="230.22841"
     inkscape:window-x="0"
     inkscape:window-y="27"
     inkscape:window-maximized="1"
     inkscape:current-layer="svg2" />
  <defs
     id="defs4"
     style="stroke-linecap:butt;stroke-linejoin:round;stroke-miterlimit:100000">
    <style
       type="text/css"
       id="style6">
*{stroke-linecap:butt;stroke-linejoin:round;stroke-miterlimit:100000;}
  </style>
    <clipPath
       id="pf0e3563428"
       style="stroke-linecap:butt;stroke-linejoin:round;stroke-miterlimit:100000">
      <rect
         height="225.16364"
         width="11.258182"
         x="686.57031"
         y="61.919998"
         id="rect1568"
         style="stroke-linecap:butt;stroke-linejoin:round;stroke-miterlimit:100000" />
    </clipPath>
    <clipPath
       id="pf0e3563428-1"
       style="stroke-linecap:butt;stroke-linejoin:round;stroke-miterlimit:100000">
      <rect
         height="225.16364"
         width="11.258182"
         x="686.57031"
         y="61.919998"
         id="rect1568-2"
         style="stroke-linecap:butt;stroke-linejoin:round;stroke-miterlimit:100000" />
    </clipPath>
    <clipPath
       id="pf0e3563428-1-3"
       style="stroke-linecap:butt;stroke-linejoin:round;stroke-miterlimit:100000">
      <rect
         height="225.16364"
         width="11.258182"
         x="686.57031"
         y="61.919998"
         id="rect1568-0"
         style="stroke-linecap:butt;stroke-linejoin:round;stroke-miterlimit:100000" />
    </clipPath>
  </defs>
  <g
     id="patch_2"
     style="stroke-linecap:butt;stroke-linejoin:round;stroke-miterlimit:100000"
     transform="translate(-55.003137,-18.4056)">
    <path
       d="m 71.325,136.44818 104.05059,0 0,-107.01818 -104.05059,0 z"
       style="fill:#eaeaf2;stroke-linecap:butt;stroke-linejoin:round;stroke-miterlimit:100000"
       id="path14"
       inkscape:connector-curvature="0" />
  </g>
  <g
     id="matplotlib.axis_2"
     style="stroke-linecap:butt;stroke-linejoin:round;stroke-miterlimit:100000"
     transform="translate(-55.003137,-18.4056)">
    <g
       id="ytick_1"
       style="stroke-linecap:butt;stroke-linejoin:round;stroke-miterlimit:100000">
      <g
         id="line2d_4"
         style="stroke-linecap:butt;stroke-linejoin:round;stroke-miterlimit:100000" />
      <g
         id="text_4"
         style="stroke-linecap:butt;stroke-linejoin:round;stroke-miterlimit:100000">
        <!-- Euclid -->
        <g
           style="fill:#262626;stroke-linecap:butt;stroke-linejoin:round;stroke-miterlimit:100000"
           transform="matrix(0,-0.1,-0.1,0,62.25,132.22979)"
           id="g84">
          <path
             style="stroke-linecap:butt;stroke-linejoin:round;stroke-miterlimit:100000"
             inkscape:connector-curvature="0"
             id="use86"
             d="m 8.203125,0 0,68.796875 52.203125,0 0,-7.609375 -42.875,0 0,-22.078125 39.9375,0 0,-7.515625 -39.9375,0 0,-23.96875 44.875,0 0,-7.625 z" />
          <path
             style="stroke-linecap:butt;stroke-linejoin:round;stroke-miterlimit:100000"
             inkscape:connector-curvature="0"
             id="use88"
             d="m 82.027344,52.828125 0,-33.484375 q 0,-3.859375 0.5625,-6.453125 0.5625,-2.59375 1.828125,-4.1875 1.28125,-1.578125 3.34375,-2.234375 2.078125,-0.65625 5.15625,-0.65625 3.125,0 5.640625,1.09375 2.515626,1.109375 4.296876,3.171875 1.78125,2.078125 2.75,5.125 0.98437,3.0625 0.98437,7.015625 l 0,30.609375 8.79688,0 0,-41.546875 q 0,-1.65625 0.0156,-3.5 0.0312,-1.828125 0.0781,-3.46875 0.0469,-1.625 0.0937,-2.796875 Q 115.62109,0.34375 115.66797,0 l -8.29688,0 q -0.0469,0.25 -0.0937,1.3125 -0.0469,1.078125 -0.125,2.46875 -0.0781,1.390625 -0.125,2.828125 -0.0469,1.453125 -0.0469,2.421875 l -0.14063,0 q -1.26562,-2.296875 -2.78125,-4.15625 -1.51562,-1.84375 -3.51562,-3.140625 -2.000001,-1.296875 -4.593751,-2 -2.59375,-0.71875 -6,-0.71875 -4.40625,0 -7.578125,1.078125 -3.171875,1.078125 -5.21875,3.328125 -2.046875,2.25 -3,5.765625 -0.953125,3.515625 -0.953125,8.4375 l 0,35.203125 z" />
          <path
             style="stroke-linecap:butt;stroke-linejoin:round;stroke-miterlimit:100000"
             inkscape:connector-curvature="0"
             id="use90"
             d="m 135.73633,26.65625 q 0,-4.53125 0.65625,-8.34375 0.67187,-3.8125 2.23437,-6.578125 1.5625,-2.75 4.125,-4.265625 2.5625,-1.515625 6.32813,-1.515625 4.6875,0 7.82812,2.53125 3.15625,2.546875 3.89063,7.828125 l 8.875,-0.59375 q -0.4375,-3.265625 -1.90625,-6.296875 -1.45313,-3.03125 -3.96875,-5.328125 -2.51563,-2.28125 -6.14063,-3.6875 -3.60937,-1.390625 -8.34375,-1.390625 -6.20312,0 -10.54687,2.09375 -4.34375,2.109375 -7.0625,5.796875 -2.70313,3.6875 -3.92188,8.6875 -1.21875,5.015625 -1.21875,10.875 0,5.3125 0.875,9.390625 0.875,4.078125 2.46875,7.125 1.59375,3.0625 3.73438,5.140625 2.15625,2.078125 4.65625,3.3125 2.51562,1.25 5.29687,1.8125 2.79688,0.5625 5.625,0.5625 4.4375,0 7.90625,-1.21875 3.46875,-1.21875 5.98438,-3.34375 2.51562,-2.125 4.07812,-5.015625 1.5625,-2.875 2.20313,-6.203125 l -9.04688,-0.671875 q -0.67187,4.390625 -3.46875,6.96875 -2.78125,2.59375 -7.90625,2.59375 -3.75,0 -6.26562,-1.25 -2.51563,-1.234375 -4.07813,-3.75 -1.5625,-2.515625 -2.23437,-6.328125 -0.65625,-3.8125 -0.65625,-8.9375" />
          <path
             style="stroke-linecap:butt;stroke-linejoin:round;stroke-miterlimit:100000"
             inkscape:connector-curvature="0"
             id="use92"
             d="m 179.04883,0 0,72.46875 8.79687,0 0,-72.46875 z" />
          <path
             style="stroke-linecap:butt;stroke-linejoin:round;stroke-miterlimit:100000"
             inkscape:connector-curvature="0"
             id="use94"
             d="m 201.21875,64.0625 0,8.40625 8.79687,0 0,-8.40625 z m 0,-64.0625 0,52.828125 8.79687,0 0,-52.828125 z" />
          <path
             style="stroke-linecap:butt;stroke-linejoin:round;stroke-miterlimit:100000"
             inkscape:connector-curvature="0"
             id="use96"
             d="m 256.8418,8.5 q -2.45313,-5.078125 -6.48438,-7.28125 -4.01562,-2.203125 -9.96875,-2.203125 -10.01562,0 -14.73437,6.734375 -4.70313,6.75 -4.70313,20.421875 0,27.640625 19.4375,27.640625 6,0 10,-2.203125 4,-2.1875 6.45313,-6.984375 l 0.0937,0 q 0,0.5 -0.0312,1.546875 -0.0156,1.046875 -0.0469,2.1875 -0.0156,1.15625 -0.0156,2.171875 0,1.03125 0,1.46875 l 0,20.46875 8.78125,0 0,-61.578125 q 0,-1.90625 0.0156,-3.671875 0.0312,-1.75 0.0781,-3.21875 0.0625,-1.453125 0.10937,-2.515625 Q 265.87305,0.4375 265.91992,0 l -8.40625,0 q -0.0937,0.484375 -0.17187,1.390625 -0.0625,0.90625 -0.14063,2.078125 -0.0781,1.171875 -0.125,2.46875 -0.0469,1.296875 -0.0469,2.5625 z m -26.67188,17.96875 q 0,-5.46875 0.6875,-9.375 0.6875,-3.90625 2.20313,-6.421875 1.51562,-2.515625 3.85937,-3.6875 2.34375,-1.171875 5.70313,-1.171875 3.46875,0 6.125,1.125 2.67187,1.125 4.45312,3.640625 1.78125,2.515625 2.70313,6.5625 0.9375,4.046875 0.9375,9.90625 0,5.625 -0.9375,9.5 -0.92188,3.890625 -2.73438,6.28125 -1.79687,2.390625 -4.42187,3.4375 -2.60938,1.046875 -6.01563,1.046875 -3.23437,0 -5.57812,-1.125 -2.34375,-1.125 -3.90625,-3.609375 -1.5625,-2.484375 -2.32813,-6.46875 -0.75,-3.984375 -0.75,-9.640625" />
        </g>
      </g>
    </g>
    <g
       id="ytick_2"
       style="stroke-linecap:butt;stroke-linejoin:round;stroke-miterlimit:100000">
      <g
         id="line2d_5"
         style="stroke-linecap:butt;stroke-linejoin:round;stroke-miterlimit:100000" />
      <g
         id="text_5"
         style="stroke-linecap:butt;stroke-linejoin:round;stroke-miterlimit:100000">
        <!-- Pearson -->
        <g
           style="fill:#262626;stroke-linecap:butt;stroke-linejoin:round;stroke-miterlimit:100000"
           transform="matrix(0,-0.1,-0.1,0,62.25,101.56097)"
           id="g101">
          <path
             style="stroke-linecap:butt;stroke-linejoin:round;stroke-miterlimit:100000"
             inkscape:connector-curvature="0"
             id="use103"
             d="m 61.421875,48.09375 q 0,-4.484375 -1.484375,-8.375 Q 58.453125,35.84375 55.5,32.984375 52.546875,30.125 48.09375,28.46875 43.65625,26.8125 37.75,26.8125 l -20.21875,0 0,-26.8125 -9.328125,0 0,68.796875 28.953125,0 q 6.109375,0 10.640625,-1.484375 4.546875,-1.484375 7.578125,-4.203125 3.03125,-2.703125 4.53125,-6.546875 1.515625,-3.828125 1.515625,-8.46875 M 52.046875,48 q 0,6.546875 -4,9.9375 -4,3.390625 -12.015625,3.390625 l -18.5,0 0,-27.140625 18.890625,0 q 8.0625,0 11.84375,3.5625 3.78125,3.5625 3.78125,10.25" />
          <path
             style="stroke-linecap:butt;stroke-linejoin:round;stroke-miterlimit:100000"
             inkscape:connector-curvature="0"
             id="use105"
             d="m 80.183594,24.5625 q 0,-4.15625 0.84375,-7.65625 0.859375,-3.484375 2.640625,-6 1.78125,-2.5 4.5625,-3.90625 2.78125,-1.390625 6.6875,-1.390625 5.718751,0 9.156251,2.296875 3.45312,2.296875 4.67187,5.8125 l 7.70313,-2.1875 q -0.82813,-2.203125 -2.3125,-4.421875 -1.48438,-2.21875 -3.98438,-4.015625 -2.48437,-1.78125 -6.21875,-2.9375 -3.73437,-1.140625 -9.015621,-1.140625 -11.71875,0 -17.84375,6.984375 -6.125,6.984375 -6.125,20.765625 0,7.421875 1.84375,12.5625 1.859375,5.15625 5.078125,8.375 3.234375,3.21875 7.53125,4.65625 4.296875,1.453125 9.171875,1.453125 6.640621,0 11.109371,-2.15625 4.46875,-2.140625 7.17188,-5.9375 2.71875,-3.78125 3.85937,-8.90625 1.15625,-5.125 1.15625,-11.078125 l 0,-1.171875 z m 28.609376,6.734375 q -0.73438,8.359375 -4.25,12.1875 -3.51563,3.828125 -10.109376,3.828125 -2.203125,0 -4.625,-0.703125 -2.40625,-0.703125 -4.453125,-2.515625 -2.046875,-1.8125 -3.46875,-4.921875 -1.421875,-3.09375 -1.609375,-7.875 z" />
          <path
             style="stroke-linecap:butt;stroke-linejoin:round;stroke-miterlimit:100000"
             inkscape:connector-curvature="0"
             id="use107"
             d="m 142.5332,-0.984375 q -7.96875,0 -11.96875,4.203125 -4,4.203125 -4,11.53125 0,5.21875 1.96875,8.5625 1.98438,3.34375 5.17188,5.25 3.20312,1.90625 7.29687,2.640625 4.10938,0.734375 8.35938,0.828125 l 11.875,0.203125 0,2.875 q 0,3.265625 -0.6875,5.5625 -0.6875,2.296875 -2.10938,3.703125 -1.40625,1.421875 -3.53125,2.078125 -2.125,0.671875 -5,0.671875 -2.54687,0 -4.59375,-0.375 -2.04687,-0.359375 -3.5625,-1.3125 -1.51562,-0.953125 -2.45312,-2.59375 -0.92188,-1.625 -1.21875,-4.125 l -9.17188,0.828125 q 0.48438,3.125 1.84375,5.734375 1.375,2.625 3.89063,4.515625 2.51562,1.90625 6.29687,2.953125 3.78125,1.0625 9.15625,1.0625 9.96875,0 14.98438,-4.578125 5.03125,-4.5625 5.03125,-13.203125 l 0,-22.75 q 0,-3.90625 1.03125,-5.890625 1.03125,-1.96875 3.90625,-1.96875 0.73437,0 1.46875,0.09375 0.73437,0.09375 1.40625,0.25 l 0,-5.46875 q -1.65625,-0.390625 -3.29688,-0.578125 -1.625,-0.203125 -3.48437,-0.203125 -2.48438,0 -4.26563,0.65625 -1.78125,0.65625 -2.90625,2 -1.125,1.34375 -1.71875,3.3125 -0.57812,1.984375 -0.73437,4.625 l -0.28125,0 q -1.42188,-2.546875 -3.10938,-4.59375 -1.6875,-2.046875 -3.9375,-3.484375 -2.23437,-1.4375 -5.09375,-2.21875 -2.85937,-0.796875 -6.5625,-0.796875 m 2,6.59375 q 4.20313,0 7.34375,1.53125 3.15625,1.546875 5.21875,3.9375 2.07813,2.40625 3.10938,5.234375 1.03125,2.828125 1.03125,5.421875 l 0,4.34375 -9.625,-0.203125 q -3.21875,-0.04687 -6.125,-0.46875 -2.90625,-0.40625 -5.10938,-1.625 -2.1875,-1.21875 -3.48437,-3.421875 -1.29688,-2.1875 -1.29688,-5.765625 0,-4.296875 2.3125,-6.640625 2.32813,-2.34375 6.625,-2.34375" />
          <path
             style="stroke-linecap:butt;stroke-linejoin:round;stroke-miterlimit:100000"
             inkscape:connector-curvature="0"
             id="use109"
             d="m 184.86719,0 0,40.53125 q 0,1.65625 -0.0312,3.390625 -0.0156,1.734375 -0.0781,3.34375 -0.0469,1.609375 -0.0937,3.015625 -0.0469,1.421875 -0.0937,2.546875 l 8.29688,0 q 0.0469,-1.125 0.125,-2.5625 0.0781,-1.4375 0.14062,-2.953125 0.0781,-1.515625 0.0937,-2.90625 0.0312,-1.390625 0.0312,-2.359375 l 0.20313,0 q 0.92187,3.015625 1.96875,5.234375 1.0625,2.234375 2.46875,3.671875 1.42187,1.4375 3.375,2.140625 1.95312,0.71875 4.73437,0.71875 1.07813,0 2.04688,-0.171875 0.98437,-0.171875 1.51562,-0.3125 l 0,-8.0625 q -0.875,0.25 -2.04687,0.359375 -1.17188,0.125 -2.64063,0.125 -3.03125,0 -5.15625,-1.375 -2.125,-1.359375 -3.46875,-3.78125 -1.32812,-2.40625 -1.96875,-5.75 -0.6407,-3.34375 -0.6407,-7.296875 L 193.64844,0 Z" />
          <path
             style="stroke-linecap:butt;stroke-linejoin:round;stroke-miterlimit:100000"
             inkscape:connector-curvature="0"
             id="use111"
             d="m 257.62109,14.59375 q 0,-3.703125 -1.45312,-6.609375 -1.4375,-2.90625 -4.17188,-4.890625 -2.73437,-1.96875 -6.71875,-3.03125 -3.96875,-1.046875 -9.09375,-1.046875 -4.59375,0 -8.28125,0.71875 Q 224.21484,0.4375 221.43359,2 q -2.78125,1.5625 -4.67187,4.125 -1.875,2.5625 -2.75,6.28125 l 7.76562,1.515625 q 1.125,-4.25 4.64063,-6.234375 3.51562,-1.96875 9.76562,-1.96875 2.82813,0 5.1875,0.390625 2.375,0.390625 4.07813,1.34375 1.71875,0.953125 2.67187,2.53125 0.95313,1.59375 0.95313,3.9375 0,2.390625 -1.125,3.921875 -1.125,1.546875 -3.125,2.5625 -2,1.03125 -4.85938,1.78125 -2.85937,0.765625 -6.26562,1.6875 -3.1875,0.828125 -6.3125,1.859375 -3.125,1.03125 -5.64063,2.703125 -2.5,1.6875 -4.0625,4.171875 -1.5625,2.5 -1.5625,6.265625 0,7.21875 5.14063,11 5.15625,3.78125 15.01562,3.78125 8.75,0 13.89063,-3.078125 5.15625,-3.0625 6.51562,-9.859375 L 248.77734,39.75 q -0.4375,2.046875 -1.60937,3.4375 -1.17188,1.390625 -2.82813,2.25 -1.65625,0.859375 -3.73437,1.21875 -2.07813,0.359375 -4.32813,0.359375 -5.95312,0 -8.79687,-1.8125 -2.82813,-1.796875 -2.82813,-5.453125 0,-2.15625 1.04688,-3.546875 1.0625,-1.390625 2.9375,-2.34375 1.875,-0.953125 4.51562,-1.65625 2.64063,-0.703125 5.8125,-1.484375 2.09375,-0.546875 4.29688,-1.15625 2.20312,-0.609375 4.26562,-1.46875 2.07813,-0.84375 3.90625,-2 1.84375,-1.140625 3.20313,-2.75 1.375,-1.609375 2.17187,-3.765625 0.8125,-2.140625 0.8125,-4.984375" />
          <path
             style="stroke-linecap:butt;stroke-linejoin:round;stroke-miterlimit:100000"
             inkscape:connector-curvature="0"
             id="use113"
             d="m 312.65234,26.46875 q 0,-13.875 -6.10937,-20.671875 -6.10938,-6.78125 -17.71875,-6.78125 -5.51563,0 -9.875,1.65625 -4.34375,1.671875 -7.34375,5.09375 -3,3.421875 -4.59375,8.5625 -1.57813,5.15625 -1.57813,12.140625 0,27.34375 23.67188,27.34375 6.15625,0 10.625,-1.71875 4.46875,-1.703125 7.32812,-5.125 2.85938,-3.40625 4.21875,-8.546875 1.375,-5.125 1.375,-11.953125 m -9.23437,0 q 0,6.15625 -0.95313,10.15625 -0.95312,4 -2.78125,6.390625 -1.82812,2.390625 -4.46875,3.34375 -2.64062,0.953125 -5.95312,0.953125 -3.375,0 -6.09375,-1 -2.70313,-1 -4.60938,-3.421875 -1.89062,-2.40625 -2.90625,-6.421875 -1,-4 -1,-10 0,-6.15625 1.07813,-10.1875 1.07812,-4.03125 2.95312,-6.421875 1.89063,-2.390625 4.45313,-3.375 2.5625,-0.96875 5.57812,-0.96875 3.375,0 6.10938,0.953125 2.73437,0.953125 4.64062,3.34375 1.90625,2.390625 2.92188,6.4375 1.03125,4.0625 1.03125,10.21875" />
          <path
             style="stroke-linecap:butt;stroke-linejoin:round;stroke-miterlimit:100000"
             inkscape:connector-curvature="0"
             id="use115"
             d="m 357.12695,0 0,33.5 q 0,3.859375 -0.5625,6.4375 -0.5625,2.59375 -1.82812,4.171875 -1.26563,1.59375 -3.34375,2.25 -2.07813,0.65625 -5.15625,0.65625 -3.125,0 -5.64063,-1.09375 -2.51562,-1.09375 -4.29687,-3.171875 -1.78125,-2.078125 -2.76563,-5.125 -0.96875,-3.046875 -0.96875,-7.015625 l 0,-30.609375 -8.78125,0 0,41.546875 q 0,1.671875 -0.0312,3.5 -0.0156,1.828125 -0.0781,3.453125 -0.0469,1.640625 -0.0937,2.8125 -0.0469,1.171875 -0.0937,1.515625 l 8.29687,0 q 0.0469,-0.234375 0.0937,-1.3125 0.0625,-1.078125 0.125,-2.46875 0.0781,-1.390625 0.125,-2.828125 0.0469,-1.4375 0.0469,-2.421875 l 0.15625,0 q 1.26563,2.296875 2.78125,4.15625 1.51563,1.859375 3.51563,3.140625 2,1.296875 4.57812,2 2.59375,0.71875 6.01563,0.71875 4.39062,0 7.5625,-1.078125 3.17187,-1.078125 5.21875,-3.328125 2.0625,-2.234375 3.01562,-5.78125 0.95313,-3.53125 0.95313,-8.421875 L 365.9707,0 Z" />
        </g>
      </g>
    </g>
    <g
       id="ytick_3"
       style="stroke-linecap:butt;stroke-linejoin:round;stroke-miterlimit:100000">
      <g
         id="line2d_6"
         style="stroke-linecap:butt;stroke-linejoin:round;stroke-miterlimit:100000" />
      <g
         id="text_6"
         style="stroke-linecap:butt;stroke-linejoin:round;stroke-miterlimit:100000">
        <!-- - -->
        <g
           style="fill:#262626;stroke-linecap:butt;stroke-linejoin:round;stroke-miterlimit:100000"
           transform="matrix(0,-0.1,-0.1,0,62.25,48.931207)"
           id="g120">
          <path
             style="stroke-linecap:butt;stroke-linejoin:round;stroke-miterlimit:100000"
             inkscape:connector-curvature="0"
             id="use122"
             d="m 4.4375,22.65625 0,7.8125 24.421875,0 0,-7.8125 z" />
        </g>
      </g>
    </g>
  </g>
  <g
     id="QuadMesh_1"
     style="stroke-linecap:butt;stroke-linejoin:round;stroke-miterlimit:100000"
     transform="translate(-55.003137,-18.4056)">
    <path
       clip-path="url(#pa76775e3fb)"
       d="m 71.325,136.44818 34.68353,0 0,-35.67273 -34.68353,0 0,35.67273"
       style="fill:#643a6b;stroke-linecap:butt;stroke-linejoin:round;stroke-miterlimit:100000"
       id="path125"
       inkscape:connector-curvature="0" />
    <path
       clip-path="url(#pa76775e3fb)"
       d="m 106.00853,136.44818 34.68353,0 0,-35.67273 -34.68353,0 0,35.67273"
       style="fill:#5b3665;stroke-linecap:butt;stroke-linejoin:round;stroke-miterlimit:100000"
       id="path127"
       inkscape:connector-curvature="0" />
    <path
       clip-path="url(#pa76775e3fb)"
       d="m 140.69206,136.44818 34.68353,0 0,-35.67273 -34.68353,0 0,35.67273"
       style="fill:#2d1e3e;stroke-linecap:butt;stroke-linejoin:round;stroke-miterlimit:100000"
       id="path129"
       inkscape:connector-curvature="0" />
    <path
       clip-path="url(#pa76775e3fb)"
       d="m 71.325,100.77545 34.68353,0 0,-35.672723 -34.68353,0 0,35.672723"
       style="fill:#4f305c;stroke-linecap:butt;stroke-linejoin:round;stroke-miterlimit:100000"
       id="path131"
       inkscape:connector-curvature="0" />
    <path
       clip-path="url(#pa76775e3fb)"
       d="m 106.00853,100.77545 34.68353,0 0,-35.672723 -34.68353,0 0,35.672723"
       style="fill:#2d1e3e;stroke-linecap:butt;stroke-linejoin:round;stroke-miterlimit:100000"
       id="path133"
       inkscape:connector-curvature="0" />
    <path
       clip-path="url(#pa76775e3fb)"
       d="m 140.69206,100.77545 34.68353,0 0,-35.672723 -34.68353,0 0,35.672723"
       style="fill:#5b3665;stroke-linecap:butt;stroke-linejoin:round;stroke-miterlimit:100000"
       id="path135"
       inkscape:connector-curvature="0" />
    <path
       clip-path="url(#pa76775e3fb)"
       d="m 71.325,65.102727 34.68353,0 0,-35.672727 -34.68353,0 0,35.672727"
       style="fill:#2d1e3e;stroke-linecap:butt;stroke-linejoin:round;stroke-miterlimit:100000"
       id="path137"
       inkscape:connector-curvature="0" />
    <path
       clip-path="url(#pa76775e3fb)"
       d="m 106.00853,65.102727 34.68353,0 0,-35.672727 -34.68353,0 0,35.672727"
       style="fill:#4f305c;stroke-linecap:butt;stroke-linejoin:round;stroke-miterlimit:100000"
       id="path139"
       inkscape:connector-curvature="0" />
    <path
       clip-path="url(#pa76775e3fb)"
       d="m 140.69206,65.102727 34.68353,0 0,-35.672727 -34.68353,0 0,35.672727"
       style="fill:#643a6b;stroke-linecap:butt;stroke-linejoin:round;stroke-miterlimit:100000"
       id="path141"
       inkscape:connector-curvature="0" />
  </g>
  <g
     id="text_7"
     style="stroke-linecap:butt;stroke-linejoin:round;stroke-miterlimit:100000"
     transform="translate(-55.003137,-18.4056)">
    <!-- 0.81 -->
    <defs
       id="defs144">
      <path
         d="m 7.625,0 0,7.46875 17.515625,0 0,52.9375 L 9.625,49.3125 l 0,8.3125 16.25,11.171875 8.109375,0 0,-61.328125 16.75,0 0,-7.46875 z"
         id="LiberationSans-31"
         inkscape:connector-curvature="0"
         style="stroke-linecap:butt;stroke-linejoin:round;stroke-miterlimit:100000" />
      <path
         d="m 51.265625,19.1875 q 0,-4.390625 -1.390625,-8.078125 -1.390625,-3.6875 -4.25,-6.375 -2.84375,-2.6875 -7.296875,-4.203125 -4.4375,-1.515625 -10.5,-1.515625 -6.046875,0 -10.46875,1.515625 Q 12.9375,2.046875 10.03125,4.703125 7.125,7.375 5.734375,11.0625 4.34375,14.75 4.34375,19.09375 q 0,3.765625 1.140625,6.6875 1.15625,2.9375 3.078125,5.046875 1.9375,2.125 4.40625,3.421875 2.46875,1.296875 5.09375,1.734375 l 0,0.203125 q -2.875,0.671875 -5.15625,2.1875 -2.265625,1.515625 -3.8125,3.640625 -1.53125,2.125 -2.34375,4.703125 -0.796875,2.59375 -0.796875,5.484375 0,3.609375 1.390625,6.796875 1.390625,3.203125 4.125,5.625 2.734375,2.421875 6.78125,3.8125 4.0625,1.390625 9.390625,1.390625 5.609375,0 9.734375,-1.421875 Q 41.5,67 44.203125,64.578125 46.921875,62.15625 48.234375,58.9375 49.5625,55.71875 49.5625,52.09375 q 0,-2.828125 -0.8125,-5.421875 -0.796875,-2.578125 -2.34375,-4.703125 -1.53125,-2.125 -3.8125,-3.625 -2.265625,-1.484375 -5.234375,-2.0625 l 0,-0.203125 q 2.96875,-0.484375 5.5,-1.78125 2.546875,-1.28125 4.40625,-3.40625 1.859375,-2.125 2.921875,-5.0625 1.078125,-2.921875 1.078125,-6.640625 M 40.4375,51.609375 q 0,2.59375 -0.671875,4.734375 -0.65625,2.15625 -2.171875,3.6875 -1.515625,1.546875 -3.953125,2.390625 -2.4375,0.859375 -6,0.859375 -3.46875,0 -5.859375,-0.859375 -2.390625,-0.84375 -3.9375,-2.390625 Q 16.3125,58.5 15.625,56.34375 q -0.6875,-2.140625 -0.6875,-4.734375 0,-2.046875 0.53125,-4.203125 0.546875,-2.140625 1.953125,-3.90625 1.421875,-1.75 3.90625,-2.875 2.5,-1.125 6.40625,-1.125 4.15625,0 6.671875,1.125 2.515625,1.125 3.84375,2.875 1.34375,1.765625 1.765625,3.90625 0.421875,2.15625 0.421875,4.203125 m 1.703125,-31.59375 q 0,2.5 -0.6875,4.8125 -0.6875,2.328125 -2.34375,4.109375 -1.65625,1.78125 -4.46875,2.875 -2.796875,1.09375 -7,1.09375 -3.859375,0 -6.578125,-1.09375 -2.703125,-1.09375 -4.390625,-2.90625 -1.6875,-1.8125 -2.46875,-4.1875 -0.78125,-2.359375 -0.78125,-4.890625 0,-3.171875 0.78125,-5.796875 0.78125,-2.609375 2.484375,-4.484375 1.71875,-1.875 4.5,-2.90625 2.78125,-1.03125 6.75,-1.03125 4,0 6.734375,1.03125 2.734375,1.03125 4.390625,2.90625 1.65625,1.875 2.359375,4.53125 0.71875,2.671875 0.71875,5.9375"
         id="LiberationSans-38"
         inkscape:connector-curvature="0"
         style="stroke-linecap:butt;stroke-linejoin:round;stroke-miterlimit:100000" />
      <path
         d="m 51.703125,34.421875 q 0,-9.90625 -1.875,-16.671875 -1.875,-6.765625 -5.125,-10.9375 -3.25,-4.171875 -7.640625,-5.984375 -4.390625,-1.8125 -9.375,-1.8125 -5.03125,0 -9.375,1.8125 -4.34375,1.8125 -7.546875,5.953125 Q 7.5625,10.9375 5.734375,17.703125 3.90625,24.46875 3.90625,34.421875 q 0,10.40625 1.828125,17.21875 1.828125,6.8125 5.046875,10.859375 3.234375,4.046875 7.625,5.6875 4.390625,1.640625 9.578125,1.640625 4.921875,0 9.234375,-1.640625 Q 41.546875,66.546875 44.765625,62.5 48,58.453125 49.84375,51.640625 q 1.859375,-6.8125 1.859375,-17.21875 m -8.921875,0 q 0,8.203125 -0.984375,13.640625 -0.96875,5.453125 -2.875,8.703125 -1.90625,3.25 -4.671875,4.59375 -2.75,1.34375 -6.265625,1.34375 -3.71875,0 -6.546875,-1.375 -2.828125,-1.359375 -4.765625,-4.609375 -1.921875,-3.25 -2.90625,-8.703125 -0.96875,-5.4375 -0.96875,-13.59375 0,-7.90625 1,-13.328125 1,-5.421875 2.921875,-8.71875 1.9375,-3.296875 4.71875,-4.734375 2.78125,-1.4375 6.34375,-1.4375 3.46875,0 6.25,1.4375 2.78125,1.4375 4.703125,4.734375 1.9375,3.296875 2.984375,8.71875 1.0625,5.421875 1.0625,13.328125"
         id="LiberationSans-30"
         inkscape:connector-curvature="0"
         style="stroke-linecap:butt;stroke-linejoin:round;stroke-miterlimit:100000" />
      <path
         d="m 9.125,0 0,10.6875 9.53125,0 0,-10.6875 z"
         id="LiberationSans-2e"
         inkscape:connector-curvature="0"
         style="stroke-linecap:butt;stroke-linejoin:round;stroke-miterlimit:100000" />
    </defs>
    <g
       style="fill:#ffffff;stroke-linecap:butt;stroke-linejoin:round;stroke-miterlimit:100000"
       transform="matrix(0.12,0,0,-0.12,76.990202,121.71494)"
       id="g150">
      <use
         xlink:href="#LiberationSans-30"
         id="use152"
         style="stroke-linecap:butt;stroke-linejoin:round;stroke-miterlimit:100000"
         x="0"
         y="0"
         width="100%"
         height="100%" />
      <use
         x="55.615234"
         xlink:href="#LiberationSans-2e"
         id="use154"
         style="stroke-linecap:butt;stroke-linejoin:round;stroke-miterlimit:100000"
         y="0"
         width="100%"
         height="100%" />
      <use
         x="83.398438"
         xlink:href="#LiberationSans-38"
         id="use156"
         style="stroke-linecap:butt;stroke-linejoin:round;stroke-miterlimit:100000"
         y="0"
         width="100%"
         height="100%" />
      <use
         x="139.01367"
         xlink:href="#LiberationSans-31"
         id="use158"
         style="stroke-linecap:butt;stroke-linejoin:round;stroke-miterlimit:100000"
         y="0"
         width="100%"
         height="100%" />
    </g>
  </g>
  <g
     id="text_8"
     style="stroke-linecap:butt;stroke-linejoin:round;stroke-miterlimit:100000"
     transform="translate(-55.003137,-18.4056)">
    <!-- 0.84 -->
    <defs
       id="defs161">
      <path
         d="m 43.015625,15.578125 0,-15.578125 -8.296875,0 0,15.578125 -32.421875,0 0,6.828125 31.5,46.390625 9.21875,0 0,-46.28125 9.671875,0 0,-6.9375 z m -8.296875,43.3125 q -0.09375,-0.25 -0.484375,-0.953125 -0.390625,-0.703125 -0.890625,-1.59375 -0.484375,-0.875 -1,-1.78125 -0.5,-0.90625 -0.890625,-1.484375 L 13.8125,27.09375 Q 13.578125,26.703125 13.109375,26.0625 12.640625,25.4375 12.15625,24.78125 11.671875,24.125 11.171875,23.484375 10.6875,22.859375 10.40625,22.515625 l 24.3125,0 z"
         id="LiberationSans-34"
         inkscape:connector-curvature="0"
         style="stroke-linecap:butt;stroke-linejoin:round;stroke-miterlimit:100000" />
    </defs>
    <g
       style="fill:#ffffff;stroke-linecap:butt;stroke-linejoin:round;stroke-miterlimit:100000"
       transform="matrix(0.12,0,0,-0.12,111.67373,121.71494)"
       id="g164">
      <use
         xlink:href="#LiberationSans-30"
         id="use166"
         style="stroke-linecap:butt;stroke-linejoin:round;stroke-miterlimit:100000"
         x="0"
         y="0"
         width="100%"
         height="100%" />
      <use
         x="55.615234"
         xlink:href="#LiberationSans-2e"
         id="use168"
         style="stroke-linecap:butt;stroke-linejoin:round;stroke-miterlimit:100000"
         y="0"
         width="100%"
         height="100%" />
      <use
         x="83.398438"
         xlink:href="#LiberationSans-38"
         id="use170"
         style="stroke-linecap:butt;stroke-linejoin:round;stroke-miterlimit:100000"
         y="0"
         width="100%"
         height="100%" />
      <use
         x="139.01367"
         xlink:href="#LiberationSans-34"
         id="use172"
         style="stroke-linecap:butt;stroke-linejoin:round;stroke-miterlimit:100000"
         y="0"
         width="100%"
         height="100%" />
    </g>
  </g>
  <g
     id="text_9"
     style="stroke-linecap:butt;stroke-linejoin:round;stroke-miterlimit:100000"
     transform="translate(-55.003137,-18.4056)">
    <!-- 1 -->
    <g
       style="fill:#ffffff;stroke-linecap:butt;stroke-linejoin:round;stroke-miterlimit:100000"
       transform="matrix(0.12,0,0,-0.12,154.69726,121.71494)"
       id="g175">
      <use
         xlink:href="#LiberationSans-31"
         id="use177"
         style="stroke-linecap:butt;stroke-linejoin:round;stroke-miterlimit:100000"
         x="0"
         y="0"
         width="100%"
         height="100%" />
    </g>
  </g>
  <g
     id="text_10"
     style="stroke-linecap:butt;stroke-linejoin:round;stroke-miterlimit:100000"
     transform="translate(-55.003137,-18.4056)">
    <!-- 0.88 -->
    <g
       style="fill:#ffffff;stroke-linecap:butt;stroke-linejoin:round;stroke-miterlimit:100000"
       transform="matrix(0.12,0,0,-0.12,76.990202,86.042216)"
       id="g180">
      <use
         xlink:href="#LiberationSans-30"
         id="use182"
         style="stroke-linecap:butt;stroke-linejoin:round;stroke-miterlimit:100000"
         x="0"
         y="0"
         width="100%"
         height="100%" />
      <use
         x="55.615234"
         xlink:href="#LiberationSans-2e"
         id="use184"
         style="stroke-linecap:butt;stroke-linejoin:round;stroke-miterlimit:100000"
         y="0"
         width="100%"
         height="100%" />
      <use
         x="83.398438"
         xlink:href="#LiberationSans-38"
         id="use186"
         style="stroke-linecap:butt;stroke-linejoin:round;stroke-miterlimit:100000"
         y="0"
         width="100%"
         height="100%" />
      <use
         x="139.01367"
         xlink:href="#LiberationSans-38"
         id="use188"
         style="stroke-linecap:butt;stroke-linejoin:round;stroke-miterlimit:100000"
         y="0"
         width="100%"
         height="100%" />
    </g>
  </g>
  <g
     id="text_11"
     style="stroke-linecap:butt;stroke-linejoin:round;stroke-miterlimit:100000"
     transform="translate(-55.003137,-18.4056)">
    <!-- 1 -->
    <g
       style="fill:#ffffff;stroke-linecap:butt;stroke-linejoin:round;stroke-miterlimit:100000"
       transform="matrix(0.12,0,0,-0.12,120.01373,86.042216)"
       id="g191">
      <use
         xlink:href="#LiberationSans-31"
         id="use193"
         style="stroke-linecap:butt;stroke-linejoin:round;stroke-miterlimit:100000"
         x="0"
         y="0"
         width="100%"
         height="100%" />
    </g>
  </g>
  <g
     id="text_12"
     style="stroke-linecap:butt;stroke-linejoin:round;stroke-miterlimit:100000"
     transform="translate(-55.003137,-18.4056)">
    <!-- 0.84 -->
    <g
       style="fill:#ffffff;stroke-linecap:butt;stroke-linejoin:round;stroke-miterlimit:100000"
       transform="matrix(0.12,0,0,-0.12,146.35726,86.042216)"
       id="g196">
      <use
         xlink:href="#LiberationSans-30"
         id="use198"
         style="stroke-linecap:butt;stroke-linejoin:round;stroke-miterlimit:100000"
         x="0"
         y="0"
         width="100%"
         height="100%" />
      <use
         x="55.615234"
         xlink:href="#LiberationSans-2e"
         id="use200"
         style="stroke-linecap:butt;stroke-linejoin:round;stroke-miterlimit:100000"
         y="0"
         width="100%"
         height="100%" />
      <use
         x="83.398438"
         xlink:href="#LiberationSans-38"
         id="use202"
         style="stroke-linecap:butt;stroke-linejoin:round;stroke-miterlimit:100000"
         y="0"
         width="100%"
         height="100%" />
      <use
         x="139.01367"
         xlink:href="#LiberationSans-34"
         id="use204"
         style="stroke-linecap:butt;stroke-linejoin:round;stroke-miterlimit:100000"
         y="0"
         width="100%"
         height="100%" />
    </g>
  </g>
  <g
     id="text_13"
     style="stroke-linecap:butt;stroke-linejoin:round;stroke-miterlimit:100000"
     transform="translate(-55.003137,-18.4056)">
    <!-- 1 -->
    <g
       style="fill:#ffffff;stroke-linecap:butt;stroke-linejoin:round;stroke-miterlimit:100000"
       transform="matrix(0.12,0,0,-0.12,85.330202,50.369489)"
       id="g207">
      <use
         xlink:href="#LiberationSans-31"
         id="use209"
         style="stroke-linecap:butt;stroke-linejoin:round;stroke-miterlimit:100000"
         x="0"
         y="0"
         width="100%"
         height="100%" />
    </g>
  </g>
  <g
     id="text_14"
     style="stroke-linecap:butt;stroke-linejoin:round;stroke-miterlimit:100000"
     transform="translate(-55.003137,-18.4056)">
    <!-- 0.88 -->
    <g
       style="fill:#ffffff;stroke-linecap:butt;stroke-linejoin:round;stroke-miterlimit:100000"
       transform="matrix(0.12,0,0,-0.12,111.67373,50.369489)"
       id="g212">
      <use
         xlink:href="#LiberationSans-30"
         id="use214"
         style="stroke-linecap:butt;stroke-linejoin:round;stroke-miterlimit:100000"
         x="0"
         y="0"
         width="100%"
         height="100%" />
      <use
         x="55.615234"
         xlink:href="#LiberationSans-2e"
         id="use216"
         style="stroke-linecap:butt;stroke-linejoin:round;stroke-miterlimit:100000"
         y="0"
         width="100%"
         height="100%" />
      <use
         x="83.398438"
         xlink:href="#LiberationSans-38"
         id="use218"
         style="stroke-linecap:butt;stroke-linejoin:round;stroke-miterlimit:100000"
         y="0"
         width="100%"
         height="100%" />
      <use
         x="139.01367"
         xlink:href="#LiberationSans-38"
         id="use220"
         style="stroke-linecap:butt;stroke-linejoin:round;stroke-miterlimit:100000"
         y="0"
         width="100%"
         height="100%" />
    </g>
  </g>
  <g
     id="text_15"
     style="stroke-linecap:butt;stroke-linejoin:round;stroke-miterlimit:100000"
     transform="translate(-55.003137,-18.4056)">
    <!-- 0.81 -->
    <g
       style="fill:#ffffff;stroke-linecap:butt;stroke-linejoin:round;stroke-miterlimit:100000"
       transform="matrix(0.12,0,0,-0.12,146.35726,50.369489)"
       id="g223">
      <use
         xlink:href="#LiberationSans-30"
         id="use225"
         style="stroke-linecap:butt;stroke-linejoin:round;stroke-miterlimit:100000"
         x="0"
         y="0"
         width="100%"
         height="100%" />
      <use
         x="55.615234"
         xlink:href="#LiberationSans-2e"
         id="use227"
         style="stroke-linecap:butt;stroke-linejoin:round;stroke-miterlimit:100000"
         y="0"
         width="100%"
         height="100%" />
      <use
         x="83.398438"
         xlink:href="#LiberationSans-38"
         id="use229"
         style="stroke-linecap:butt;stroke-linejoin:round;stroke-miterlimit:100000"
         y="0"
         width="100%"
         height="100%" />
      <use
         x="139.01367"
         xlink:href="#LiberationSans-31"
         id="use231"
         style="stroke-linecap:butt;stroke-linejoin:round;stroke-miterlimit:100000"
         y="0"
         width="100%"
         height="100%" />
    </g>
  </g>
  <g
     id="matplotlib.axis_6"
     style="stroke-linecap:butt;stroke-linejoin:round;stroke-miterlimit:100000"
     transform="translate(-138.20313,-18.4056)" />
  <g
     id="patch_11"
     style="stroke-linecap:butt;stroke-linejoin:round;stroke-miterlimit:100000"
     transform="translate(-55.003137,-18.4056)">
    <path
       d="m 71.325,264.87 104.05059,0 0,-107.01818 -104.05059,0 z"
       style="fill:#eaeaf2;stroke-linecap:butt;stroke-linejoin:round;stroke-miterlimit:100000"
       id="path955"
       inkscape:connector-curvature="0" />
  </g>
  <g
     id="matplotlib.axis_13"
     style="stroke-linecap:butt;stroke-linejoin:round;stroke-miterlimit:100000"
     transform="translate(-55.003137,-18.4056)">
    <g
       id="xtick_10"
       style="stroke-linecap:butt;stroke-linejoin:round;stroke-miterlimit:100000">
      <g
         id="line2d_37"
         style="stroke-linecap:butt;stroke-linejoin:round;stroke-miterlimit:100000" />
      <g
         id="text_67"
         style="stroke-linecap:butt;stroke-linejoin:round;stroke-miterlimit:100000">
        <!-- - -->
        <g
           style="fill:#262626;stroke-linecap:butt;stroke-linejoin:round;stroke-miterlimit:100000"
           transform="matrix(0.1,0,0,-0.1,87.001921,279.11687)"
           id="g961">
          <path
             style="stroke-linecap:butt;stroke-linejoin:round;stroke-miterlimit:100000"
             inkscape:connector-curvature="0"
             id="use963"
             d="m 4.4375,22.65625 0,7.8125 24.421875,0 0,-7.8125 z" />
        </g>
      </g>
    </g>
    <g
       id="xtick_11"
       style="stroke-linecap:butt;stroke-linejoin:round;stroke-miterlimit:100000">
      <g
         id="line2d_38"
         style="stroke-linecap:butt;stroke-linejoin:round;stroke-miterlimit:100000" />
      <g
         id="text_68"
         style="stroke-linecap:butt;stroke-linejoin:round;stroke-miterlimit:100000">
        <!-- Pearson -->
        <g
           style="fill:#262626;stroke-linecap:butt;stroke-linejoin:round;stroke-miterlimit:100000"
           transform="matrix(0.1,0,0,-0.1,104.72842,279.11687)"
           id="g968">
          <path
             style="stroke-linecap:butt;stroke-linejoin:round;stroke-miterlimit:100000"
             inkscape:connector-curvature="0"
             id="use970"
             d="m 61.421875,48.09375 q 0,-4.484375 -1.484375,-8.375 Q 58.453125,35.84375 55.5,32.984375 52.546875,30.125 48.09375,28.46875 43.65625,26.8125 37.75,26.8125 l -20.21875,0 0,-26.8125 -9.328125,0 0,68.796875 28.953125,0 q 6.109375,0 10.640625,-1.484375 4.546875,-1.484375 7.578125,-4.203125 3.03125,-2.703125 4.53125,-6.546875 1.515625,-3.828125 1.515625,-8.46875 M 52.046875,48 q 0,6.546875 -4,9.9375 -4,3.390625 -12.015625,3.390625 l -18.5,0 0,-27.140625 18.890625,0 q 8.0625,0 11.84375,3.5625 3.78125,3.5625 3.78125,10.25" />
          <path
             style="stroke-linecap:butt;stroke-linejoin:round;stroke-miterlimit:100000"
             inkscape:connector-curvature="0"
             id="use972"
             d="m 80.183594,24.5625 q 0,-4.15625 0.84375,-7.65625 0.859375,-3.484375 2.640625,-6 1.78125,-2.5 4.5625,-3.90625 2.78125,-1.390625 6.6875,-1.390625 5.718751,0 9.156251,2.296875 3.45312,2.296875 4.67187,5.8125 l 7.70313,-2.1875 q -0.82813,-2.203125 -2.3125,-4.421875 -1.48438,-2.21875 -3.98438,-4.015625 -2.48437,-1.78125 -6.21875,-2.9375 -3.73437,-1.140625 -9.015621,-1.140625 -11.71875,0 -17.84375,6.984375 -6.125,6.984375 -6.125,20.765625 0,7.421875 1.84375,12.5625 1.859375,5.15625 5.078125,8.375 3.234375,3.21875 7.53125,4.65625 4.296875,1.453125 9.171875,1.453125 6.640621,0 11.109371,-2.15625 4.46875,-2.140625 7.17188,-5.9375 2.71875,-3.78125 3.85937,-8.90625 1.15625,-5.125 1.15625,-11.078125 l 0,-1.171875 z m 28.609376,6.734375 q -0.73438,8.359375 -4.25,12.1875 -3.51563,3.828125 -10.109376,3.828125 -2.203125,0 -4.625,-0.703125 -2.40625,-0.703125 -4.453125,-2.515625 -2.046875,-1.8125 -3.46875,-4.921875 -1.421875,-3.09375 -1.609375,-7.875 z" />
          <path
             style="stroke-linecap:butt;stroke-linejoin:round;stroke-miterlimit:100000"
             inkscape:connector-curvature="0"
             id="use974"
             d="m 142.5332,-0.984375 q -7.96875,0 -11.96875,4.203125 -4,4.203125 -4,11.53125 0,5.21875 1.96875,8.5625 1.98438,3.34375 5.17188,5.25 3.20312,1.90625 7.29687,2.640625 4.10938,0.734375 8.35938,0.828125 l 11.875,0.203125 0,2.875 q 0,3.265625 -0.6875,5.5625 -0.6875,2.296875 -2.10938,3.703125 -1.40625,1.421875 -3.53125,2.078125 -2.125,0.671875 -5,0.671875 -2.54687,0 -4.59375,-0.375 -2.04687,-0.359375 -3.5625,-1.3125 -1.51562,-0.953125 -2.45312,-2.59375 -0.92188,-1.625 -1.21875,-4.125 l -9.17188,0.828125 q 0.48438,3.125 1.84375,5.734375 1.375,2.625 3.89063,4.515625 2.51562,1.90625 6.29687,2.953125 3.78125,1.0625 9.15625,1.0625 9.96875,0 14.98438,-4.578125 5.03125,-4.5625 5.03125,-13.203125 l 0,-22.75 q 0,-3.90625 1.03125,-5.890625 1.03125,-1.96875 3.90625,-1.96875 0.73437,0 1.46875,0.09375 0.73437,0.09375 1.40625,0.25 l 0,-5.46875 q -1.65625,-0.390625 -3.29688,-0.578125 -1.625,-0.203125 -3.48437,-0.203125 -2.48438,0 -4.26563,0.65625 -1.78125,0.65625 -2.90625,2 -1.125,1.34375 -1.71875,3.3125 -0.57812,1.984375 -0.73437,4.625 l -0.28125,0 q -1.42188,-2.546875 -3.10938,-4.59375 -1.6875,-2.046875 -3.9375,-3.484375 -2.23437,-1.4375 -5.09375,-2.21875 -2.85937,-0.796875 -6.5625,-0.796875 m 2,6.59375 q 4.20313,0 7.34375,1.53125 3.15625,1.546875 5.21875,3.9375 2.07813,2.40625 3.10938,5.234375 1.03125,2.828125 1.03125,5.421875 l 0,4.34375 -9.625,-0.203125 q -3.21875,-0.04687 -6.125,-0.46875 -2.90625,-0.40625 -5.10938,-1.625 -2.1875,-1.21875 -3.48437,-3.421875 -1.29688,-2.1875 -1.29688,-5.765625 0,-4.296875 2.3125,-6.640625 2.32813,-2.34375 6.625,-2.34375" />
          <path
             style="stroke-linecap:butt;stroke-linejoin:round;stroke-miterlimit:100000"
             inkscape:connector-curvature="0"
             id="use976"
             d="m 184.86719,0 0,40.53125 q 0,1.65625 -0.0312,3.390625 -0.0156,1.734375 -0.0781,3.34375 -0.0469,1.609375 -0.0937,3.015625 -0.0469,1.421875 -0.0937,2.546875 l 8.29688,0 q 0.0469,-1.125 0.125,-2.5625 0.0781,-1.4375 0.14062,-2.953125 0.0781,-1.515625 0.0937,-2.90625 0.0312,-1.390625 0.0312,-2.359375 l 0.20313,0 q 0.92187,3.015625 1.96875,5.234375 1.0625,2.234375 2.46875,3.671875 1.42187,1.4375 3.375,2.140625 1.95312,0.71875 4.73437,0.71875 1.07813,0 2.04688,-0.171875 0.98437,-0.171875 1.51562,-0.3125 l 0,-8.0625 q -0.875,0.25 -2.04687,0.359375 -1.17188,0.125 -2.64063,0.125 -3.03125,0 -5.15625,-1.375 -2.125,-1.359375 -3.46875,-3.78125 -1.32812,-2.40625 -1.96875,-5.75 -0.6407,-3.34375 -0.6407,-7.296875 L 193.64844,0 Z" />
          <path
             style="stroke-linecap:butt;stroke-linejoin:round;stroke-miterlimit:100000"
             inkscape:connector-curvature="0"
             id="use978"
             d="m 257.62109,14.59375 q 0,-3.703125 -1.45312,-6.609375 -1.4375,-2.90625 -4.17188,-4.890625 -2.73437,-1.96875 -6.71875,-3.03125 -3.96875,-1.046875 -9.09375,-1.046875 -4.59375,0 -8.28125,0.71875 Q 224.21484,0.4375 221.43359,2 q -2.78125,1.5625 -4.67187,4.125 -1.875,2.5625 -2.75,6.28125 l 7.76562,1.515625 q 1.125,-4.25 4.64063,-6.234375 3.51562,-1.96875 9.76562,-1.96875 2.82813,0 5.1875,0.390625 2.375,0.390625 4.07813,1.34375 1.71875,0.953125 2.67187,2.53125 0.95313,1.59375 0.95313,3.9375 0,2.390625 -1.125,3.921875 -1.125,1.546875 -3.125,2.5625 -2,1.03125 -4.85938,1.78125 -2.85937,0.765625 -6.26562,1.6875 -3.1875,0.828125 -6.3125,1.859375 -3.125,1.03125 -5.64063,2.703125 -2.5,1.6875 -4.0625,4.171875 -1.5625,2.5 -1.5625,6.265625 0,7.21875 5.14063,11 5.15625,3.78125 15.01562,3.78125 8.75,0 13.89063,-3.078125 5.15625,-3.0625 6.51562,-9.859375 L 248.77734,39.75 q -0.4375,2.046875 -1.60937,3.4375 -1.17188,1.390625 -2.82813,2.25 -1.65625,0.859375 -3.73437,1.21875 -2.07813,0.359375 -4.32813,0.359375 -5.95312,0 -8.79687,-1.8125 -2.82813,-1.796875 -2.82813,-5.453125 0,-2.15625 1.04688,-3.546875 1.0625,-1.390625 2.9375,-2.34375 1.875,-0.953125 4.51562,-1.65625 2.64063,-0.703125 5.8125,-1.484375 2.09375,-0.546875 4.29688,-1.15625 2.20312,-0.609375 4.26562,-1.46875 2.07813,-0.84375 3.90625,-2 1.84375,-1.140625 3.20313,-2.75 1.375,-1.609375 2.17187,-3.765625 0.8125,-2.140625 0.8125,-4.984375" />
          <path
             style="stroke-linecap:butt;stroke-linejoin:round;stroke-miterlimit:100000"
             inkscape:connector-curvature="0"
             id="use980"
             d="m 312.65234,26.46875 q 0,-13.875 -6.10937,-20.671875 -6.10938,-6.78125 -17.71875,-6.78125 -5.51563,0 -9.875,1.65625 -4.34375,1.671875 -7.34375,5.09375 -3,3.421875 -4.59375,8.5625 -1.57813,5.15625 -1.57813,12.140625 0,27.34375 23.67188,27.34375 6.15625,0 10.625,-1.71875 4.46875,-1.703125 7.32812,-5.125 2.85938,-3.40625 4.21875,-8.546875 1.375,-5.125 1.375,-11.953125 m -9.23437,0 q 0,6.15625 -0.95313,10.15625 -0.95312,4 -2.78125,6.390625 -1.82812,2.390625 -4.46875,3.34375 -2.64062,0.953125 -5.95312,0.953125 -3.375,0 -6.09375,-1 -2.70313,-1 -4.60938,-3.421875 -1.89062,-2.40625 -2.90625,-6.421875 -1,-4 -1,-10 0,-6.15625 1.07813,-10.1875 1.07812,-4.03125 2.95312,-6.421875 1.89063,-2.390625 4.45313,-3.375 2.5625,-0.96875 5.57812,-0.96875 3.375,0 6.10938,0.953125 2.73437,0.953125 4.64062,3.34375 1.90625,2.390625 2.92188,6.4375 1.03125,4.0625 1.03125,10.21875" />
          <path
             style="stroke-linecap:butt;stroke-linejoin:round;stroke-miterlimit:100000"
             inkscape:connector-curvature="0"
             id="use982"
             d="m 357.12695,0 0,33.5 q 0,3.859375 -0.5625,6.4375 -0.5625,2.59375 -1.82812,4.171875 -1.26563,1.59375 -3.34375,2.25 -2.07813,0.65625 -5.15625,0.65625 -3.125,0 -5.64063,-1.09375 -2.51562,-1.09375 -4.29687,-3.171875 -1.78125,-2.078125 -2.76563,-5.125 -0.96875,-3.046875 -0.96875,-7.015625 l 0,-30.609375 -8.78125,0 0,41.546875 q 0,1.671875 -0.0312,3.5 -0.0156,1.828125 -0.0781,3.453125 -0.0469,1.640625 -0.0937,2.8125 -0.0469,1.171875 -0.0937,1.515625 l 8.29687,0 q 0.0469,-0.234375 0.0937,-1.3125 0.0625,-1.078125 0.125,-2.46875 0.0781,-1.390625 0.125,-2.828125 0.0469,-1.4375 0.0469,-2.421875 l 0.15625,0 q 1.26563,2.296875 2.78125,4.15625 1.51563,1.859375 3.51563,3.140625 2,1.296875 4.57812,2 2.59375,0.71875 6.01563,0.71875 4.39062,0 7.5625,-1.078125 3.17187,-1.078125 5.21875,-3.328125 2.0625,-2.234375 3.01562,-5.78125 0.95313,-3.53125 0.95313,-8.421875 L 365.9707,0 Z" />
        </g>
      </g>
    </g>
    <g
       id="xtick_12"
       style="stroke-linecap:butt;stroke-linejoin:round;stroke-miterlimit:100000">
      <g
         id="line2d_39"
         style="stroke-linecap:butt;stroke-linejoin:round;stroke-miterlimit:100000" />
      <g
         id="text_69"
         style="stroke-linecap:butt;stroke-linejoin:round;stroke-miterlimit:100000">
        <!-- Euclid -->
        <g
           style="fill:#262626;stroke-linecap:butt;stroke-linejoin:round;stroke-miterlimit:100000"
           transform="matrix(0.1,0,0,-0.1,144.41585,279.11687)"
           id="g987">
          <path
             style="stroke-linecap:butt;stroke-linejoin:round;stroke-miterlimit:100000"
             inkscape:connector-curvature="0"
             id="use989"
             d="m 8.203125,0 0,68.796875 52.203125,0 0,-7.609375 -42.875,0 0,-22.078125 39.9375,0 0,-7.515625 -39.9375,0 0,-23.96875 44.875,0 0,-7.625 z" />
          <path
             style="stroke-linecap:butt;stroke-linejoin:round;stroke-miterlimit:100000"
             inkscape:connector-curvature="0"
             id="use991"
             d="m 82.027344,52.828125 0,-33.484375 q 0,-3.859375 0.5625,-6.453125 0.5625,-2.59375 1.828125,-4.1875 1.28125,-1.578125 3.34375,-2.234375 2.078125,-0.65625 5.15625,-0.65625 3.125,0 5.640625,1.09375 2.515626,1.109375 4.296876,3.171875 1.78125,2.078125 2.75,5.125 0.98437,3.0625 0.98437,7.015625 l 0,30.609375 8.79688,0 0,-41.546875 q 0,-1.65625 0.0156,-3.5 0.0312,-1.828125 0.0781,-3.46875 0.0469,-1.625 0.0937,-2.796875 Q 115.62109,0.34375 115.66797,0 l -8.29688,0 q -0.0469,0.25 -0.0937,1.3125 -0.0469,1.078125 -0.125,2.46875 -0.0781,1.390625 -0.125,2.828125 -0.0469,1.453125 -0.0469,2.421875 l -0.14063,0 q -1.26562,-2.296875 -2.78125,-4.15625 -1.51562,-1.84375 -3.51562,-3.140625 -2.000001,-1.296875 -4.593751,-2 -2.59375,-0.71875 -6,-0.71875 -4.40625,0 -7.578125,1.078125 -3.171875,1.078125 -5.21875,3.328125 -2.046875,2.25 -3,5.765625 -0.953125,3.515625 -0.953125,8.4375 l 0,35.203125 z" />
          <path
             style="stroke-linecap:butt;stroke-linejoin:round;stroke-miterlimit:100000"
             inkscape:connector-curvature="0"
             id="use993"
             d="m 135.73633,26.65625 q 0,-4.53125 0.65625,-8.34375 0.67187,-3.8125 2.23437,-6.578125 1.5625,-2.75 4.125,-4.265625 2.5625,-1.515625 6.32813,-1.515625 4.6875,0 7.82812,2.53125 3.15625,2.546875 3.89063,7.828125 l 8.875,-0.59375 q -0.4375,-3.265625 -1.90625,-6.296875 -1.45313,-3.03125 -3.96875,-5.328125 -2.51563,-2.28125 -6.14063,-3.6875 -3.60937,-1.390625 -8.34375,-1.390625 -6.20312,0 -10.54687,2.09375 -4.34375,2.109375 -7.0625,5.796875 -2.70313,3.6875 -3.92188,8.6875 -1.21875,5.015625 -1.21875,10.875 0,5.3125 0.875,9.390625 0.875,4.078125 2.46875,7.125 1.59375,3.0625 3.73438,5.140625 2.15625,2.078125 4.65625,3.3125 2.51562,1.25 5.29687,1.8125 2.79688,0.5625 5.625,0.5625 4.4375,0 7.90625,-1.21875 3.46875,-1.21875 5.98438,-3.34375 2.51562,-2.125 4.07812,-5.015625 1.5625,-2.875 2.20313,-6.203125 l -9.04688,-0.671875 q -0.67187,4.390625 -3.46875,6.96875 -2.78125,2.59375 -7.90625,2.59375 -3.75,0 -6.26562,-1.25 -2.51563,-1.234375 -4.07813,-3.75 -1.5625,-2.515625 -2.23437,-6.328125 -0.65625,-3.8125 -0.65625,-8.9375" />
          <path
             style="stroke-linecap:butt;stroke-linejoin:round;stroke-miterlimit:100000"
             inkscape:connector-curvature="0"
             id="use995"
             d="m 179.04883,0 0,72.46875 8.79687,0 0,-72.46875 z" />
          <path
             style="stroke-linecap:butt;stroke-linejoin:round;stroke-miterlimit:100000"
             inkscape:connector-curvature="0"
             id="use997"
             d="m 201.21875,64.0625 0,8.40625 8.79687,0 0,-8.40625 z m 0,-64.0625 0,52.828125 8.79687,0 0,-52.828125 z" />
          <path
             style="stroke-linecap:butt;stroke-linejoin:round;stroke-miterlimit:100000"
             inkscape:connector-curvature="0"
             id="use999"
             d="m 256.8418,8.5 q -2.45313,-5.078125 -6.48438,-7.28125 -4.01562,-2.203125 -9.96875,-2.203125 -10.01562,0 -14.73437,6.734375 -4.70313,6.75 -4.70313,20.421875 0,27.640625 19.4375,27.640625 6,0 10,-2.203125 4,-2.1875 6.45313,-6.984375 l 0.0937,0 q 0,0.5 -0.0312,1.546875 -0.0156,1.046875 -0.0469,2.1875 -0.0156,1.15625 -0.0156,2.171875 0,1.03125 0,1.46875 l 0,20.46875 8.78125,0 0,-61.578125 q 0,-1.90625 0.0156,-3.671875 0.0312,-1.75 0.0781,-3.21875 0.0625,-1.453125 0.10937,-2.515625 Q 265.87305,0.4375 265.91992,0 l -8.40625,0 q -0.0937,0.484375 -0.17187,1.390625 -0.0625,0.90625 -0.14063,2.078125 -0.0781,1.171875 -0.125,2.46875 -0.0469,1.296875 -0.0469,2.5625 z m -26.67188,17.96875 q 0,-5.46875 0.6875,-9.375 0.6875,-3.90625 2.20313,-6.421875 1.51562,-2.515625 3.85937,-3.6875 2.34375,-1.171875 5.70313,-1.171875 3.46875,0 6.125,1.125 2.67187,1.125 4.45312,3.640625 1.78125,2.515625 2.70313,6.5625 0.9375,4.046875 0.9375,9.90625 0,5.625 -0.9375,9.5 -0.92188,3.890625 -2.73438,6.28125 -1.79687,2.390625 -4.42187,3.4375 -2.60938,1.046875 -6.01563,1.046875 -3.23437,0 -5.57812,-1.125 -2.34375,-1.125 -3.90625,-3.609375 -1.5625,-2.484375 -2.32813,-6.46875 -0.75,-3.984375 -0.75,-9.640625" />
        </g>
      </g>
    </g>
  </g>
  <g
     id="matplotlib.axis_14"
     style="stroke-linecap:butt;stroke-linejoin:round;stroke-miterlimit:100000"
     transform="translate(-55.003137,-18.4056)">
    <g
       id="ytick_28"
       style="stroke-linecap:butt;stroke-linejoin:round;stroke-miterlimit:100000">
      <g
         id="line2d_40"
         style="stroke-linecap:butt;stroke-linejoin:round;stroke-miterlimit:100000" />
      <g
         id="text_70"
         style="stroke-linecap:butt;stroke-linejoin:round;stroke-miterlimit:100000">
        <!-- Euclid -->
        <g
           style="fill:#262626;stroke-linecap:butt;stroke-linejoin:round;stroke-miterlimit:100000"
           transform="matrix(0,-0.1,-0.1,0,62.25,260.65161)"
           id="g1005">
          <path
             style="stroke-linecap:butt;stroke-linejoin:round;stroke-miterlimit:100000"
             inkscape:connector-curvature="0"
             id="use1007"
             d="m 8.203125,0 0,68.796875 52.203125,0 0,-7.609375 -42.875,0 0,-22.078125 39.9375,0 0,-7.515625 -39.9375,0 0,-23.96875 44.875,0 0,-7.625 z" />
          <path
             style="stroke-linecap:butt;stroke-linejoin:round;stroke-miterlimit:100000"
             inkscape:connector-curvature="0"
             id="use1009"
             d="m 82.027344,52.828125 0,-33.484375 q 0,-3.859375 0.5625,-6.453125 0.5625,-2.59375 1.828125,-4.1875 1.28125,-1.578125 3.34375,-2.234375 2.078125,-0.65625 5.15625,-0.65625 3.125,0 5.640625,1.09375 2.515626,1.109375 4.296876,3.171875 1.78125,2.078125 2.75,5.125 0.98437,3.0625 0.98437,7.015625 l 0,30.609375 8.79688,0 0,-41.546875 q 0,-1.65625 0.0156,-3.5 0.0312,-1.828125 0.0781,-3.46875 0.0469,-1.625 0.0937,-2.796875 Q 115.62109,0.34375 115.66797,0 l -8.29688,0 q -0.0469,0.25 -0.0937,1.3125 -0.0469,1.078125 -0.125,2.46875 -0.0781,1.390625 -0.125,2.828125 -0.0469,1.453125 -0.0469,2.421875 l -0.14063,0 q -1.26562,-2.296875 -2.78125,-4.15625 -1.51562,-1.84375 -3.51562,-3.140625 -2.000001,-1.296875 -4.593751,-2 -2.59375,-0.71875 -6,-0.71875 -4.40625,0 -7.578125,1.078125 -3.171875,1.078125 -5.21875,3.328125 -2.046875,2.25 -3,5.765625 -0.953125,3.515625 -0.953125,8.4375 l 0,35.203125 z" />
          <path
             style="stroke-linecap:butt;stroke-linejoin:round;stroke-miterlimit:100000"
             inkscape:connector-curvature="0"
             id="use1011"
             d="m 135.73633,26.65625 q 0,-4.53125 0.65625,-8.34375 0.67187,-3.8125 2.23437,-6.578125 1.5625,-2.75 4.125,-4.265625 2.5625,-1.515625 6.32813,-1.515625 4.6875,0 7.82812,2.53125 3.15625,2.546875 3.89063,7.828125 l 8.875,-0.59375 q -0.4375,-3.265625 -1.90625,-6.296875 -1.45313,-3.03125 -3.96875,-5.328125 -2.51563,-2.28125 -6.14063,-3.6875 -3.60937,-1.390625 -8.34375,-1.390625 -6.20312,0 -10.54687,2.09375 -4.34375,2.109375 -7.0625,5.796875 -2.70313,3.6875 -3.92188,8.6875 -1.21875,5.015625 -1.21875,10.875 0,5.3125 0.875,9.390625 0.875,4.078125 2.46875,7.125 1.59375,3.0625 3.73438,5.140625 2.15625,2.078125 4.65625,3.3125 2.51562,1.25 5.29687,1.8125 2.79688,0.5625 5.625,0.5625 4.4375,0 7.90625,-1.21875 3.46875,-1.21875 5.98438,-3.34375 2.51562,-2.125 4.07812,-5.015625 1.5625,-2.875 2.20313,-6.203125 l -9.04688,-0.671875 q -0.67187,4.390625 -3.46875,6.96875 -2.78125,2.59375 -7.90625,2.59375 -3.75,0 -6.26562,-1.25 -2.51563,-1.234375 -4.07813,-3.75 -1.5625,-2.515625 -2.23437,-6.328125 -0.65625,-3.8125 -0.65625,-8.9375" />
          <path
             style="stroke-linecap:butt;stroke-linejoin:round;stroke-miterlimit:100000"
             inkscape:connector-curvature="0"
             id="use1013"
             d="m 179.04883,0 0,72.46875 8.79687,0 0,-72.46875 z" />
          <path
             style="stroke-linecap:butt;stroke-linejoin:round;stroke-miterlimit:100000"
             inkscape:connector-curvature="0"
             id="use1015"
             d="m 201.21875,64.0625 0,8.40625 8.79687,0 0,-8.40625 z m 0,-64.0625 0,52.828125 8.79687,0 0,-52.828125 z" />
          <path
             style="stroke-linecap:butt;stroke-linejoin:round;stroke-miterlimit:100000"
             inkscape:connector-curvature="0"
             id="use1017"
             d="m 256.8418,8.5 q -2.45313,-5.078125 -6.48438,-7.28125 -4.01562,-2.203125 -9.96875,-2.203125 -10.01562,0 -14.73437,6.734375 -4.70313,6.75 -4.70313,20.421875 0,27.640625 19.4375,27.640625 6,0 10,-2.203125 4,-2.1875 6.45313,-6.984375 l 0.0937,0 q 0,0.5 -0.0312,1.546875 -0.0156,1.046875 -0.0469,2.1875 -0.0156,1.15625 -0.0156,2.171875 0,1.03125 0,1.46875 l 0,20.46875 8.78125,0 0,-61.578125 q 0,-1.90625 0.0156,-3.671875 0.0312,-1.75 0.0781,-3.21875 0.0625,-1.453125 0.10937,-2.515625 Q 265.87305,0.4375 265.91992,0 l -8.40625,0 q -0.0937,0.484375 -0.17187,1.390625 -0.0625,0.90625 -0.14063,2.078125 -0.0781,1.171875 -0.125,2.46875 -0.0469,1.296875 -0.0469,2.5625 z m -26.67188,17.96875 q 0,-5.46875 0.6875,-9.375 0.6875,-3.90625 2.20313,-6.421875 1.51562,-2.515625 3.85937,-3.6875 2.34375,-1.171875 5.70313,-1.171875 3.46875,0 6.125,1.125 2.67187,1.125 4.45312,3.640625 1.78125,2.515625 2.70313,6.5625 0.9375,4.046875 0.9375,9.90625 0,5.625 -0.9375,9.5 -0.92188,3.890625 -2.73438,6.28125 -1.79687,2.390625 -4.42187,3.4375 -2.60938,1.046875 -6.01563,1.046875 -3.23437,0 -5.57812,-1.125 -2.34375,-1.125 -3.90625,-3.609375 -1.5625,-2.484375 -2.32813,-6.46875 -0.75,-3.984375 -0.75,-9.640625" />
        </g>
      </g>
    </g>
    <g
       id="ytick_29"
       style="stroke-linecap:butt;stroke-linejoin:round;stroke-miterlimit:100000">
      <g
         id="line2d_41"
         style="stroke-linecap:butt;stroke-linejoin:round;stroke-miterlimit:100000" />
      <g
         id="text_71"
         style="stroke-linecap:butt;stroke-linejoin:round;stroke-miterlimit:100000">
        <!-- Pearson -->
        <g
           style="fill:#262626;stroke-linecap:butt;stroke-linejoin:round;stroke-miterlimit:100000"
           transform="matrix(0,-0.1,-0.1,0,62.25,229.98278)"
           id="g1022">
          <path
             style="stroke-linecap:butt;stroke-linejoin:round;stroke-miterlimit:100000"
             inkscape:connector-curvature="0"
             id="use1024"
             d="m 61.421875,48.09375 q 0,-4.484375 -1.484375,-8.375 Q 58.453125,35.84375 55.5,32.984375 52.546875,30.125 48.09375,28.46875 43.65625,26.8125 37.75,26.8125 l -20.21875,0 0,-26.8125 -9.328125,0 0,68.796875 28.953125,0 q 6.109375,0 10.640625,-1.484375 4.546875,-1.484375 7.578125,-4.203125 3.03125,-2.703125 4.53125,-6.546875 1.515625,-3.828125 1.515625,-8.46875 M 52.046875,48 q 0,6.546875 -4,9.9375 -4,3.390625 -12.015625,3.390625 l -18.5,0 0,-27.140625 18.890625,0 q 8.0625,0 11.84375,3.5625 3.78125,3.5625 3.78125,10.25" />
          <path
             style="stroke-linecap:butt;stroke-linejoin:round;stroke-miterlimit:100000"
             inkscape:connector-curvature="0"
             id="use1026"
             d="m 80.183594,24.5625 q 0,-4.15625 0.84375,-7.65625 0.859375,-3.484375 2.640625,-6 1.78125,-2.5 4.5625,-3.90625 2.78125,-1.390625 6.6875,-1.390625 5.718751,0 9.156251,2.296875 3.45312,2.296875 4.67187,5.8125 l 7.70313,-2.1875 q -0.82813,-2.203125 -2.3125,-4.421875 -1.48438,-2.21875 -3.98438,-4.015625 -2.48437,-1.78125 -6.21875,-2.9375 -3.73437,-1.140625 -9.015621,-1.140625 -11.71875,0 -17.84375,6.984375 -6.125,6.984375 -6.125,20.765625 0,7.421875 1.84375,12.5625 1.859375,5.15625 5.078125,8.375 3.234375,3.21875 7.53125,4.65625 4.296875,1.453125 9.171875,1.453125 6.640621,0 11.109371,-2.15625 4.46875,-2.140625 7.17188,-5.9375 2.71875,-3.78125 3.85937,-8.90625 1.15625,-5.125 1.15625,-11.078125 l 0,-1.171875 z m 28.609376,6.734375 q -0.73438,8.359375 -4.25,12.1875 -3.51563,3.828125 -10.109376,3.828125 -2.203125,0 -4.625,-0.703125 -2.40625,-0.703125 -4.453125,-2.515625 -2.046875,-1.8125 -3.46875,-4.921875 -1.421875,-3.09375 -1.609375,-7.875 z" />
          <path
             style="stroke-linecap:butt;stroke-linejoin:round;stroke-miterlimit:100000"
             inkscape:connector-curvature="0"
             id="use1028"
             d="m 142.5332,-0.984375 q -7.96875,0 -11.96875,4.203125 -4,4.203125 -4,11.53125 0,5.21875 1.96875,8.5625 1.98438,3.34375 5.17188,5.25 3.20312,1.90625 7.29687,2.640625 4.10938,0.734375 8.35938,0.828125 l 11.875,0.203125 0,2.875 q 0,3.265625 -0.6875,5.5625 -0.6875,2.296875 -2.10938,3.703125 -1.40625,1.421875 -3.53125,2.078125 -2.125,0.671875 -5,0.671875 -2.54687,0 -4.59375,-0.375 -2.04687,-0.359375 -3.5625,-1.3125 -1.51562,-0.953125 -2.45312,-2.59375 -0.92188,-1.625 -1.21875,-4.125 l -9.17188,0.828125 q 0.48438,3.125 1.84375,5.734375 1.375,2.625 3.89063,4.515625 2.51562,1.90625 6.29687,2.953125 3.78125,1.0625 9.15625,1.0625 9.96875,0 14.98438,-4.578125 5.03125,-4.5625 5.03125,-13.203125 l 0,-22.75 q 0,-3.90625 1.03125,-5.890625 1.03125,-1.96875 3.90625,-1.96875 0.73437,0 1.46875,0.09375 0.73437,0.09375 1.40625,0.25 l 0,-5.46875 q -1.65625,-0.390625 -3.29688,-0.578125 -1.625,-0.203125 -3.48437,-0.203125 -2.48438,0 -4.26563,0.65625 -1.78125,0.65625 -2.90625,2 -1.125,1.34375 -1.71875,3.3125 -0.57812,1.984375 -0.73437,4.625 l -0.28125,0 q -1.42188,-2.546875 -3.10938,-4.59375 -1.6875,-2.046875 -3.9375,-3.484375 -2.23437,-1.4375 -5.09375,-2.21875 -2.85937,-0.796875 -6.5625,-0.796875 m 2,6.59375 q 4.20313,0 7.34375,1.53125 3.15625,1.546875 5.21875,3.9375 2.07813,2.40625 3.10938,5.234375 1.03125,2.828125 1.03125,5.421875 l 0,4.34375 -9.625,-0.203125 q -3.21875,-0.04687 -6.125,-0.46875 -2.90625,-0.40625 -5.10938,-1.625 -2.1875,-1.21875 -3.48437,-3.421875 -1.29688,-2.1875 -1.29688,-5.765625 0,-4.296875 2.3125,-6.640625 2.32813,-2.34375 6.625,-2.34375" />
          <path
             style="stroke-linecap:butt;stroke-linejoin:round;stroke-miterlimit:100000"
             inkscape:connector-curvature="0"
             id="use1030"
             d="m 184.86719,0 0,40.53125 q 0,1.65625 -0.0312,3.390625 -0.0156,1.734375 -0.0781,3.34375 -0.0469,1.609375 -0.0937,3.015625 -0.0469,1.421875 -0.0937,2.546875 l 8.29688,0 q 0.0469,-1.125 0.125,-2.5625 0.0781,-1.4375 0.14062,-2.953125 0.0781,-1.515625 0.0937,-2.90625 0.0312,-1.390625 0.0312,-2.359375 l 0.20313,0 q 0.92187,3.015625 1.96875,5.234375 1.0625,2.234375 2.46875,3.671875 1.42187,1.4375 3.375,2.140625 1.95312,0.71875 4.73437,0.71875 1.07813,0 2.04688,-0.171875 0.98437,-0.171875 1.51562,-0.3125 l 0,-8.0625 q -0.875,0.25 -2.04687,0.359375 -1.17188,0.125 -2.64063,0.125 -3.03125,0 -5.15625,-1.375 -2.125,-1.359375 -3.46875,-3.78125 -1.32812,-2.40625 -1.96875,-5.75 -0.6407,-3.34375 -0.6407,-7.296875 L 193.64844,0 Z" />
          <path
             style="stroke-linecap:butt;stroke-linejoin:round;stroke-miterlimit:100000"
             inkscape:connector-curvature="0"
             id="use1032"
             d="m 257.62109,14.59375 q 0,-3.703125 -1.45312,-6.609375 -1.4375,-2.90625 -4.17188,-4.890625 -2.73437,-1.96875 -6.71875,-3.03125 -3.96875,-1.046875 -9.09375,-1.046875 -4.59375,0 -8.28125,0.71875 Q 224.21484,0.4375 221.43359,2 q -2.78125,1.5625 -4.67187,4.125 -1.875,2.5625 -2.75,6.28125 l 7.76562,1.515625 q 1.125,-4.25 4.64063,-6.234375 3.51562,-1.96875 9.76562,-1.96875 2.82813,0 5.1875,0.390625 2.375,0.390625 4.07813,1.34375 1.71875,0.953125 2.67187,2.53125 0.95313,1.59375 0.95313,3.9375 0,2.390625 -1.125,3.921875 -1.125,1.546875 -3.125,2.5625 -2,1.03125 -4.85938,1.78125 -2.85937,0.765625 -6.26562,1.6875 -3.1875,0.828125 -6.3125,1.859375 -3.125,1.03125 -5.64063,2.703125 -2.5,1.6875 -4.0625,4.171875 -1.5625,2.5 -1.5625,6.265625 0,7.21875 5.14063,11 5.15625,3.78125 15.01562,3.78125 8.75,0 13.89063,-3.078125 5.15625,-3.0625 6.51562,-9.859375 L 248.77734,39.75 q -0.4375,2.046875 -1.60937,3.4375 -1.17188,1.390625 -2.82813,2.25 -1.65625,0.859375 -3.73437,1.21875 -2.07813,0.359375 -4.32813,0.359375 -5.95312,0 -8.79687,-1.8125 -2.82813,-1.796875 -2.82813,-5.453125 0,-2.15625 1.04688,-3.546875 1.0625,-1.390625 2.9375,-2.34375 1.875,-0.953125 4.51562,-1.65625 2.64063,-0.703125 5.8125,-1.484375 2.09375,-0.546875 4.29688,-1.15625 2.20312,-0.609375 4.26562,-1.46875 2.07813,-0.84375 3.90625,-2 1.84375,-1.140625 3.20313,-2.75 1.375,-1.609375 2.17187,-3.765625 0.8125,-2.140625 0.8125,-4.984375" />
          <path
             style="stroke-linecap:butt;stroke-linejoin:round;stroke-miterlimit:100000"
             inkscape:connector-curvature="0"
             id="use1034"
             d="m 312.65234,26.46875 q 0,-13.875 -6.10937,-20.671875 -6.10938,-6.78125 -17.71875,-6.78125 -5.51563,0 -9.875,1.65625 -4.34375,1.671875 -7.34375,5.09375 -3,3.421875 -4.59375,8.5625 -1.57813,5.15625 -1.57813,12.140625 0,27.34375 23.67188,27.34375 6.15625,0 10.625,-1.71875 4.46875,-1.703125 7.32812,-5.125 2.85938,-3.40625 4.21875,-8.546875 1.375,-5.125 1.375,-11.953125 m -9.23437,0 q 0,6.15625 -0.95313,10.15625 -0.95312,4 -2.78125,6.390625 -1.82812,2.390625 -4.46875,3.34375 -2.64062,0.953125 -5.95312,0.953125 -3.375,0 -6.09375,-1 -2.70313,-1 -4.60938,-3.421875 -1.89062,-2.40625 -2.90625,-6.421875 -1,-4 -1,-10 0,-6.15625 1.07813,-10.1875 1.07812,-4.03125 2.95312,-6.421875 1.89063,-2.390625 4.45313,-3.375 2.5625,-0.96875 5.57812,-0.96875 3.375,0 6.10938,0.953125 2.73437,0.953125 4.64062,3.34375 1.90625,2.390625 2.92188,6.4375 1.03125,4.0625 1.03125,10.21875" />
          <path
             style="stroke-linecap:butt;stroke-linejoin:round;stroke-miterlimit:100000"
             inkscape:connector-curvature="0"
             id="use1036"
             d="m 357.12695,0 0,33.5 q 0,3.859375 -0.5625,6.4375 -0.5625,2.59375 -1.82812,4.171875 -1.26563,1.59375 -3.34375,2.25 -2.07813,0.65625 -5.15625,0.65625 -3.125,0 -5.64063,-1.09375 -2.51562,-1.09375 -4.29687,-3.171875 -1.78125,-2.078125 -2.76563,-5.125 -0.96875,-3.046875 -0.96875,-7.015625 l 0,-30.609375 -8.78125,0 0,41.546875 q 0,1.671875 -0.0312,3.5 -0.0156,1.828125 -0.0781,3.453125 -0.0469,1.640625 -0.0937,2.8125 -0.0469,1.171875 -0.0937,1.515625 l 8.29687,0 q 0.0469,-0.234375 0.0937,-1.3125 0.0625,-1.078125 0.125,-2.46875 0.0781,-1.390625 0.125,-2.828125 0.0469,-1.4375 0.0469,-2.421875 l 0.15625,0 q 1.26563,2.296875 2.78125,4.15625 1.51563,1.859375 3.51563,3.140625 2,1.296875 4.57812,2 2.59375,0.71875 6.01563,0.71875 4.39062,0 7.5625,-1.078125 3.17187,-1.078125 5.21875,-3.328125 2.0625,-2.234375 3.01562,-5.78125 0.95313,-3.53125 0.95313,-8.421875 L 365.9707,0 Z" />
        </g>
      </g>
    </g>
    <g
       id="ytick_30"
       style="stroke-linecap:butt;stroke-linejoin:round;stroke-miterlimit:100000">
      <g
         id="line2d_42"
         style="stroke-linecap:butt;stroke-linejoin:round;stroke-miterlimit:100000" />
      <g
         id="text_72"
         style="stroke-linecap:butt;stroke-linejoin:round;stroke-miterlimit:100000">
        <!-- - -->
        <g
           style="fill:#262626;stroke-linecap:butt;stroke-linejoin:round;stroke-miterlimit:100000"
           transform="matrix(0,-0.1,-0.1,0,62.25,177.35303)"
           id="g1041">
          <path
             style="stroke-linecap:butt;stroke-linejoin:round;stroke-miterlimit:100000"
             inkscape:connector-curvature="0"
             id="use1043"
             d="m 4.4375,22.65625 0,7.8125 24.421875,0 0,-7.8125 z" />
        </g>
      </g>
    </g>
  </g>
  <g
     id="QuadMesh_4"
     style="stroke-linecap:butt;stroke-linejoin:round;stroke-miterlimit:100000"
     transform="translate(-55.003137,-18.4056)">
    <path
       clip-path="url(#p4dd97a9101)"
       d="m 71.325,264.87 34.68353,0 0,-35.67273 -34.68353,0 0,35.67273"
       style="fill:#dba5ad;stroke-linecap:butt;stroke-linejoin:round;stroke-miterlimit:100000"
       id="path1046"
       inkscape:connector-curvature="0" />
    <path
       clip-path="url(#p4dd97a9101)"
       d="m 106.00853,264.87 34.68353,0 0,-35.67273 -34.68353,0 0,35.67273"
       style="fill:#ab6990;stroke-linecap:butt;stroke-linejoin:round;stroke-miterlimit:100000"
       id="path1048"
       inkscape:connector-curvature="0" />
    <path
       clip-path="url(#p4dd97a9101)"
       d="m 140.69206,264.87 34.68353,0 0,-35.67273 -34.68353,0 0,35.67273"
       style="fill:#2d1e3e;stroke-linecap:butt;stroke-linejoin:round;stroke-miterlimit:100000"
       id="path1050"
       inkscape:connector-curvature="0" />
    <path
       clip-path="url(#p4dd97a9101)"
       d="m 71.325,229.19727 34.68353,0 0,-35.67273 -34.68353,0 0,35.67273"
       style="fill:#7c4879;stroke-linecap:butt;stroke-linejoin:round;stroke-miterlimit:100000"
       id="path1052"
       inkscape:connector-curvature="0" />
    <path
       clip-path="url(#p4dd97a9101)"
       d="m 106.00853,229.19727 34.68353,0 0,-35.67273 -34.68353,0 0,35.67273"
       style="fill:#2d1e3e;stroke-linecap:butt;stroke-linejoin:round;stroke-miterlimit:100000"
       id="path1054"
       inkscape:connector-curvature="0" />
    <path
       clip-path="url(#p4dd97a9101)"
       d="m 140.69206,229.19727 34.68353,0 0,-35.67273 -34.68353,0 0,35.67273"
       style="fill:#ab6990;stroke-linecap:butt;stroke-linejoin:round;stroke-miterlimit:100000"
       id="path1056"
       inkscape:connector-curvature="0" />
    <path
       clip-path="url(#p4dd97a9101)"
       d="m 71.325,193.52454 34.68353,0 0,-35.67272 -34.68353,0 0,35.67272"
       style="fill:#2d1e3e;stroke-linecap:butt;stroke-linejoin:round;stroke-miterlimit:100000"
       id="path1058"
       inkscape:connector-curvature="0" />
    <path
       clip-path="url(#p4dd97a9101)"
       d="m 106.00853,193.52454 34.68353,0 0,-35.67272 -34.68353,0 0,35.67272"
       style="fill:#7c4879;stroke-linecap:butt;stroke-linejoin:round;stroke-miterlimit:100000"
       id="path1060"
       inkscape:connector-curvature="0" />
    <path
       clip-path="url(#p4dd97a9101)"
       d="m 140.69206,193.52454 34.68353,0 0,-35.67272 -34.68353,0 0,35.67272"
       style="fill:#dba5ad;stroke-linecap:butt;stroke-linejoin:round;stroke-miterlimit:100000"
       id="path1062"
       inkscape:connector-curvature="0" />
  </g>
  <g
     id="text_73"
     style="stroke-linecap:butt;stroke-linejoin:round;stroke-miterlimit:100000"
     transform="translate(-55.003137,-18.4056)">
    <!-- 0.3 -->
    <defs
       id="defs1065">
      <path
         d="m 51.21875,19 q 0,-4.734375 -1.546875,-8.453125 Q 48.140625,6.84375 45.1875,4.265625 42.234375,1.703125 37.859375,0.359375 33.5,-0.984375 27.875,-0.984375 q -6.390625,0 -10.765625,1.59375 Q 12.75,2.203125 9.90625,4.8125 7.078125,7.421875 5.65625,10.765625 4.25,14.109375 3.8125,17.671875 L 12.890625,18.5 q 0.390625,-2.734375 1.4375,-4.984375 Q 15.375,11.28125 17.1875,9.671875 19,8.0625 21.625,7.171875 q 2.640625,-0.875 6.25,-0.875 6.640625,0 10.421875,3.265625 3.796875,3.28125 3.796875,9.71875 0,3.8125 -1.6875,6.125 -1.6875,2.328125 -4.203125,3.625 -2.515625,1.296875 -5.46875,1.734375 -2.953125,0.4375 -5.4375,0.4375 l -4.984375,0 0,7.609375 4.78125,0 q 2.5,0 5.171875,0.515625 2.6875,0.515625 4.90625,1.859375 2.234375,1.34375 3.671875,3.640625 1.4375,2.296875 1.4375,5.859375 0,5.515625 -3.25,8.703125 -3.234375,3.203125 -9.640625,3.203125 -5.8125,0 -9.40625,-2.984375 Q 14.40625,56.640625 13.8125,51.21875 l -8.828125,0.6875 q 0.53125,4.546875 2.484375,7.90625 1.953125,3.375 4.953125,5.59375 3.015625,2.21875 6.859375,3.3125 3.859375,1.109375 8.203125,1.109375 5.765625,0 9.90625,-1.453125 4.15625,-1.4375 6.796875,-3.90625 2.640625,-2.453125 3.875,-5.78125 1.25,-3.3125 1.25,-7.078125 0,-3.03125 -0.828125,-5.671875 -0.828125,-2.625 -2.59375,-4.734375 -1.75,-2.09375 -4.46875,-3.609375 -2.703125,-1.515625 -6.515625,-2.296875 l 0,-0.1875 q 4.15625,-0.4375 7.234375,-1.890625 3.078125,-1.4375 5.078125,-3.59375 2,-2.140625 3,-4.875 1,-2.734375 1,-5.75"
         id="LiberationSans-33"
         inkscape:connector-curvature="0"
         style="stroke-linecap:butt;stroke-linejoin:round;stroke-miterlimit:100000" />
    </defs>
    <g
       style="fill:#262626;stroke-linecap:butt;stroke-linejoin:round;stroke-miterlimit:100000"
       transform="matrix(0.12,0,0,-0.12,80.326765,250.13676)"
       id="g1068">
      <use
         xlink:href="#LiberationSans-30"
         id="use1070"
         style="stroke-linecap:butt;stroke-linejoin:round;stroke-miterlimit:100000"
         x="0"
         y="0"
         width="100%"
         height="100%" />
      <use
         x="55.615234"
         xlink:href="#LiberationSans-2e"
         id="use1072"
         style="stroke-linecap:butt;stroke-linejoin:round;stroke-miterlimit:100000"
         y="0"
         width="100%"
         height="100%" />
      <use
         x="83.398438"
         xlink:href="#LiberationSans-33"
         id="use1074"
         style="stroke-linecap:butt;stroke-linejoin:round;stroke-miterlimit:100000"
         y="0"
         width="100%"
         height="100%" />
    </g>
  </g>
  <g
     id="text_74"
     style="stroke-linecap:butt;stroke-linejoin:round;stroke-miterlimit:100000"
     transform="translate(-55.003137,-18.4056)">
    <!-- 0.55 -->
    <g
       style="fill:#262626;stroke-linecap:butt;stroke-linejoin:round;stroke-miterlimit:100000"
       transform="matrix(0.12,0,0,-0.12,111.67373,250.13676)"
       id="g1077">
      <use
         xlink:href="#LiberationSans-30"
         id="use1079"
         style="stroke-linecap:butt;stroke-linejoin:round;stroke-miterlimit:100000"
         x="0"
         y="0"
         width="100%"
         height="100%" />
      <use
         x="55.615234"
         xlink:href="#LiberationSans-2e"
         id="use1081"
         style="stroke-linecap:butt;stroke-linejoin:round;stroke-miterlimit:100000"
         y="0"
         width="100%"
         height="100%" />
      <path
         style="stroke-linecap:butt;stroke-linejoin:round;stroke-miterlimit:100000"
         inkscape:connector-curvature="0"
         id="use1083"
         d="m 134.82031,22.40625 q 0,-5.171875 -1.5625,-9.46875 -1.5625,-4.296875 -4.64062,-7.40625 -3.07813,-3.09375 -7.64063,-4.8125 -4.5625,-1.703125 -10.57812,-1.703125 -5.42188,0 -9.45313,1.265625 -4.015623,1.28125 -6.812498,3.5 Q 91.351562,6 89.710937,8.984375 q -1.625,2.984375 -2.3125,6.390625 l 8.890625,1.03125 q 0.53125,-1.953125 1.5,-3.78125 0.984375,-1.828125 2.671878,-3.28125 1.6875,-1.4375 4.15625,-2.296875 2.46875,-0.84375 5.98437,-0.84375 3.40625,0 6.1875,1.046875 2.79688,1.046875 4.76563,3.09375 1.98437,2.0625 3.04687,5.03125 1.07813,2.984375 1.07813,6.84375 0,3.171875 -1.03125,5.828125 -1.01563,2.671875 -2.92188,4.59375 -1.90625,1.9375 -4.67187,3 -2.75,1.078125 -6.26563,1.078125 -2.1875,0 -4.04687,-0.390625 -1.85938,-0.390625 -3.45313,-1.078125 -1.57812,-0.671875 -2.875,-1.578125 -1.296873,-0.90625 -2.421873,-1.890625 l -8.59375,0 2.296875,37.015625 39.109378,0 0,-7.46875 -31.093753,0 L 98.382812,39.5 q 2.343748,1.8125 5.859378,3.09375 3.51562,1.296875 8.35937,1.296875 5.125,0 9.21875,-1.5625 4.10938,-1.5625 6.98438,-4.421875 2.89062,-2.84375 4.45312,-6.796875 1.5625,-3.953125 1.5625,-8.703125" />
      <path
         style="stroke-linecap:butt;stroke-linejoin:round;stroke-miterlimit:100000"
         inkscape:connector-curvature="0"
         id="use1085"
         d="m 190.43555,22.40625 q 0,-5.171875 -1.5625,-9.46875 -1.5625,-4.296875 -4.64063,-7.40625 -3.07812,-3.09375 -7.64062,-4.8125 -4.5625,-1.703125 -10.57813,-1.703125 -5.42187,0 -9.45312,1.265625 -4.01563,1.28125 -6.8125,3.5 Q 146.9668,6 145.32617,8.984375 q -1.625,2.984375 -2.3125,6.390625 l 8.89063,1.03125 q 0.53125,-1.953125 1.5,-3.78125 0.98437,-1.828125 2.67187,-3.28125 1.6875,-1.4375 4.15625,-2.296875 2.46875,-0.84375 5.98438,-0.84375 3.40625,0 6.1875,1.046875 2.79687,1.046875 4.76562,3.09375 1.98438,2.0625 3.04688,5.03125 1.07812,2.984375 1.07812,6.84375 0,3.171875 -1.03125,5.828125 -1.01562,2.671875 -2.92187,4.59375 -1.90625,1.9375 -4.67188,3 -2.75,1.078125 -6.26562,1.078125 -2.1875,0 -4.04688,-0.390625 Q 160.49805,35.9375 158.9043,35.25 q -1.57813,-0.671875 -2.875,-1.578125 -1.29688,-0.90625 -2.42188,-1.890625 l -8.59375,0 2.29688,37.015625 39.10937,0 0,-7.46875 -31.09375,0 L 153.99805,39.5 q 2.34375,1.8125 5.85937,3.09375 3.51563,1.296875 8.35938,1.296875 5.125,0 9.21875,-1.5625 4.10937,-1.5625 6.98437,-4.421875 2.89063,-2.84375 4.45313,-6.796875 1.5625,-3.953125 1.5625,-8.703125" />
    </g>
  </g>
  <g
     id="text_75"
     style="stroke-linecap:butt;stroke-linejoin:round;stroke-miterlimit:100000"
     transform="translate(-55.003137,-18.4056)">
    <!-- 1 -->
    <g
       style="fill:#ffffff;stroke-linecap:butt;stroke-linejoin:round;stroke-miterlimit:100000"
       transform="matrix(0.12,0,0,-0.12,154.69726,250.13676)"
       id="g1088">
      <use
         xlink:href="#LiberationSans-31"
         id="use1090"
         style="stroke-linecap:butt;stroke-linejoin:round;stroke-miterlimit:100000"
         x="0"
         y="0"
         width="100%"
         height="100%" />
    </g>
  </g>
  <g
     id="text_76"
     style="stroke-linecap:butt;stroke-linejoin:round;stroke-miterlimit:100000"
     transform="translate(-55.003137,-18.4056)">
    <!-- 0.73 -->
    <g
       style="fill:#ffffff;stroke-linecap:butt;stroke-linejoin:round;stroke-miterlimit:100000"
       transform="matrix(0.12,0,0,-0.12,76.990202,214.46403)"
       id="g1093">
      <use
         xlink:href="#LiberationSans-30"
         id="use1095"
         style="stroke-linecap:butt;stroke-linejoin:round;stroke-miterlimit:100000"
         x="0"
         y="0"
         width="100%"
         height="100%" />
      <use
         x="55.615234"
         xlink:href="#LiberationSans-2e"
         id="use1097"
         style="stroke-linecap:butt;stroke-linejoin:round;stroke-miterlimit:100000"
         y="0"
         width="100%"
         height="100%" />
      <path
         style="stroke-linecap:butt;stroke-linejoin:round;stroke-miterlimit:100000"
         inkscape:connector-curvature="0"
         id="use1099"
         d="m 133.99219,61.671875 q -5.1875,-7.90625 -9.53125,-15.21875 Q 120.11719,39.15625 116.99219,31.75 113.86719,24.359375 112.13281,16.578125 110.39844,8.796875 110.39844,0 l -9.17188,0 q 0,8.25 1.95313,16.1875 1.95312,7.9375 5.26562,15.578125 3.32813,7.640625 7.71875,15.015625 4.39063,7.375 9.32813,14.546875 l -36.968753,0 0,7.46875 45.468753,0 z" />
      <use
         x="139.01367"
         xlink:href="#LiberationSans-33"
         id="use1101"
         style="stroke-linecap:butt;stroke-linejoin:round;stroke-miterlimit:100000"
         y="0"
         width="100%"
         height="100%" />
    </g>
  </g>
  <g
     id="text_77"
     style="stroke-linecap:butt;stroke-linejoin:round;stroke-miterlimit:100000"
     transform="translate(-55.003137,-18.4056)">
    <!-- 1 -->
    <g
       style="fill:#ffffff;stroke-linecap:butt;stroke-linejoin:round;stroke-miterlimit:100000"
       transform="matrix(0.12,0,0,-0.12,120.01373,214.46403)"
       id="g1104">
      <use
         xlink:href="#LiberationSans-31"
         id="use1106"
         style="stroke-linecap:butt;stroke-linejoin:round;stroke-miterlimit:100000"
         x="0"
         y="0"
         width="100%"
         height="100%" />
    </g>
  </g>
  <g
     id="text_78"
     style="stroke-linecap:butt;stroke-linejoin:round;stroke-miterlimit:100000"
     transform="translate(-55.003137,-18.4056)">
    <!-- 0.55 -->
    <g
       style="fill:#262626;stroke-linecap:butt;stroke-linejoin:round;stroke-miterlimit:100000"
       transform="matrix(0.12,0,0,-0.12,146.35726,214.46403)"
       id="g1109">
      <use
         xlink:href="#LiberationSans-30"
         id="use1111"
         style="stroke-linecap:butt;stroke-linejoin:round;stroke-miterlimit:100000"
         x="0"
         y="0"
         width="100%"
         height="100%" />
      <use
         x="55.615234"
         xlink:href="#LiberationSans-2e"
         id="use1113"
         style="stroke-linecap:butt;stroke-linejoin:round;stroke-miterlimit:100000"
         y="0"
         width="100%"
         height="100%" />
      <path
         style="stroke-linecap:butt;stroke-linejoin:round;stroke-miterlimit:100000"
         inkscape:connector-curvature="0"
         id="use1115"
         d="m 134.82031,22.40625 q 0,-5.171875 -1.5625,-9.46875 -1.5625,-4.296875 -4.64062,-7.40625 -3.07813,-3.09375 -7.64063,-4.8125 -4.5625,-1.703125 -10.57812,-1.703125 -5.42188,0 -9.45313,1.265625 -4.015623,1.28125 -6.812498,3.5 Q 91.351562,6 89.710937,8.984375 q -1.625,2.984375 -2.3125,6.390625 l 8.890625,1.03125 q 0.53125,-1.953125 1.5,-3.78125 0.984375,-1.828125 2.671878,-3.28125 1.6875,-1.4375 4.15625,-2.296875 2.46875,-0.84375 5.98437,-0.84375 3.40625,0 6.1875,1.046875 2.79688,1.046875 4.76563,3.09375 1.98437,2.0625 3.04687,5.03125 1.07813,2.984375 1.07813,6.84375 0,3.171875 -1.03125,5.828125 -1.01563,2.671875 -2.92188,4.59375 -1.90625,1.9375 -4.67187,3 -2.75,1.078125 -6.26563,1.078125 -2.1875,0 -4.04687,-0.390625 -1.85938,-0.390625 -3.45313,-1.078125 -1.57812,-0.671875 -2.875,-1.578125 -1.296873,-0.90625 -2.421873,-1.890625 l -8.59375,0 2.296875,37.015625 39.109378,0 0,-7.46875 -31.093753,0 L 98.382812,39.5 q 2.343748,1.8125 5.859378,3.09375 3.51562,1.296875 8.35937,1.296875 5.125,0 9.21875,-1.5625 4.10938,-1.5625 6.98438,-4.421875 2.89062,-2.84375 4.45312,-6.796875 1.5625,-3.953125 1.5625,-8.703125" />
      <path
         style="stroke-linecap:butt;stroke-linejoin:round;stroke-miterlimit:100000"
         inkscape:connector-curvature="0"
         id="use1117"
         d="m 190.43555,22.40625 q 0,-5.171875 -1.5625,-9.46875 -1.5625,-4.296875 -4.64063,-7.40625 -3.07812,-3.09375 -7.64062,-4.8125 -4.5625,-1.703125 -10.57813,-1.703125 -5.42187,0 -9.45312,1.265625 -4.01563,1.28125 -6.8125,3.5 Q 146.9668,6 145.32617,8.984375 q -1.625,2.984375 -2.3125,6.390625 l 8.89063,1.03125 q 0.53125,-1.953125 1.5,-3.78125 0.98437,-1.828125 2.67187,-3.28125 1.6875,-1.4375 4.15625,-2.296875 2.46875,-0.84375 5.98438,-0.84375 3.40625,0 6.1875,1.046875 2.79687,1.046875 4.76562,3.09375 1.98438,2.0625 3.04688,5.03125 1.07812,2.984375 1.07812,6.84375 0,3.171875 -1.03125,5.828125 -1.01562,2.671875 -2.92187,4.59375 -1.90625,1.9375 -4.67188,3 -2.75,1.078125 -6.26562,1.078125 -2.1875,0 -4.04688,-0.390625 Q 160.49805,35.9375 158.9043,35.25 q -1.57813,-0.671875 -2.875,-1.578125 -1.29688,-0.90625 -2.42188,-1.890625 l -8.59375,0 2.29688,37.015625 39.10937,0 0,-7.46875 -31.09375,0 L 153.99805,39.5 q 2.34375,1.8125 5.85937,3.09375 3.51563,1.296875 8.35938,1.296875 5.125,0 9.21875,-1.5625 4.10937,-1.5625 6.98437,-4.421875 2.89063,-2.84375 4.45313,-6.796875 1.5625,-3.953125 1.5625,-8.703125" />
    </g>
  </g>
  <g
     id="text_79"
     style="stroke-linecap:butt;stroke-linejoin:round;stroke-miterlimit:100000"
     transform="translate(-55.003137,-18.4056)">
    <!-- 1 -->
    <g
       style="fill:#ffffff;stroke-linecap:butt;stroke-linejoin:round;stroke-miterlimit:100000"
       transform="matrix(0.12,0,0,-0.12,85.330202,178.79131)"
       id="g1120">
      <use
         xlink:href="#LiberationSans-31"
         id="use1122"
         style="stroke-linecap:butt;stroke-linejoin:round;stroke-miterlimit:100000"
         x="0"
         y="0"
         width="100%"
         height="100%" />
    </g>
  </g>
  <g
     id="text_80"
     style="stroke-linecap:butt;stroke-linejoin:round;stroke-miterlimit:100000"
     transform="translate(-55.003137,-18.4056)">
    <!-- 0.73 -->
    <g
       style="fill:#ffffff;stroke-linecap:butt;stroke-linejoin:round;stroke-miterlimit:100000"
       transform="matrix(0.12,0,0,-0.12,111.67373,178.79131)"
       id="g1125">
      <use
         xlink:href="#LiberationSans-30"
         id="use1127"
         style="stroke-linecap:butt;stroke-linejoin:round;stroke-miterlimit:100000"
         x="0"
         y="0"
         width="100%"
         height="100%" />
      <use
         x="55.615234"
         xlink:href="#LiberationSans-2e"
         id="use1129"
         style="stroke-linecap:butt;stroke-linejoin:round;stroke-miterlimit:100000"
         y="0"
         width="100%"
         height="100%" />
      <path
         style="stroke-linecap:butt;stroke-linejoin:round;stroke-miterlimit:100000"
         inkscape:connector-curvature="0"
         id="use1131"
         d="m 133.99219,61.671875 q -5.1875,-7.90625 -9.53125,-15.21875 Q 120.11719,39.15625 116.99219,31.75 113.86719,24.359375 112.13281,16.578125 110.39844,8.796875 110.39844,0 l -9.17188,0 q 0,8.25 1.95313,16.1875 1.95312,7.9375 5.26562,15.578125 3.32813,7.640625 7.71875,15.015625 4.39063,7.375 9.32813,14.546875 l -36.968753,0 0,7.46875 45.468753,0 z" />
      <use
         x="139.01367"
         xlink:href="#LiberationSans-33"
         id="use1133"
         style="stroke-linecap:butt;stroke-linejoin:round;stroke-miterlimit:100000"
         y="0"
         width="100%"
         height="100%" />
    </g>
  </g>
  <g
     id="text_81"
     style="stroke-linecap:butt;stroke-linejoin:round;stroke-miterlimit:100000"
     transform="translate(-55.003137,-18.4056)">
    <!-- 0.3 -->
    <g
       style="fill:#262626;stroke-linecap:butt;stroke-linejoin:round;stroke-miterlimit:100000"
       transform="matrix(0.12,0,0,-0.12,149.69382,178.79131)"
       id="g1136">
      <use
         xlink:href="#LiberationSans-30"
         id="use1138"
         style="stroke-linecap:butt;stroke-linejoin:round;stroke-miterlimit:100000"
         x="0"
         y="0"
         width="100%"
         height="100%" />
      <use
         x="55.615234"
         xlink:href="#LiberationSans-2e"
         id="use1140"
         style="stroke-linecap:butt;stroke-linejoin:round;stroke-miterlimit:100000"
         y="0"
         width="100%"
         height="100%" />
      <use
         x="83.398438"
         xlink:href="#LiberationSans-33"
         id="use1142"
         style="stroke-linecap:butt;stroke-linejoin:round;stroke-miterlimit:100000"
         y="0"
         width="100%"
         height="100%" />
    </g>
  </g>
  <defs
     id="defs1892">
    <clipPath
       id="pa76775e3fb"
       style="stroke-linecap:butt;stroke-linejoin:round;stroke-miterlimit:100000">
      <rect
         height="107.01818"
         width="104.05059"
         x="71.324997"
         y="29.43"
         id="rect1895"
         style="stroke-linecap:butt;stroke-linejoin:round;stroke-miterlimit:100000" />
    </clipPath>
    <clipPath
       id="p4dd97a9101"
       style="stroke-linecap:butt;stroke-linejoin:round;stroke-miterlimit:100000">
      <rect
         height="107.01818"
         width="104.05059"
         x="71.324997"
         y="157.85182"
         id="rect1898"
         style="stroke-linecap:butt;stroke-linejoin:round;stroke-miterlimit:100000" />
    </clipPath>
    <clipPath
       id="p980ae044dc"
       style="stroke-linecap:butt;stroke-linejoin:round;stroke-miterlimit:100000">
      <rect
         height="107.01818"
         width="104.05059"
         x="227.40088"
         y="29.43"
         id="rect1901"
         style="stroke-linecap:butt;stroke-linejoin:round;stroke-miterlimit:100000" />
    </clipPath>
    <clipPath
       id="p6a01b4c190"
       style="stroke-linecap:butt;stroke-linejoin:round;stroke-miterlimit:100000">
      <rect
         height="107.01818"
         width="104.05059"
         x="383.47678"
         y="157.85182"
         id="rect1904"
         style="stroke-linecap:butt;stroke-linejoin:round;stroke-miterlimit:100000" />
    </clipPath>
    <clipPath
       id="pb1ad5dd281"
       style="stroke-linecap:butt;stroke-linejoin:round;stroke-miterlimit:100000">
      <rect
         height="107.01818"
         width="5.3509092"
         x="181.87875"
         y="29.43"
         id="rect1907"
         style="stroke-linecap:butt;stroke-linejoin:round;stroke-miterlimit:100000" />
    </clipPath>
    <clipPath
       id="pbd815edf43"
       style="stroke-linecap:butt;stroke-linejoin:round;stroke-miterlimit:100000">
      <rect
         height="107.01818"
         width="104.05059"
         x="383.47678"
         y="29.43"
         id="rect1910"
         style="stroke-linecap:butt;stroke-linejoin:round;stroke-miterlimit:100000" />
    </clipPath>
    <clipPath
       id="p13a0dfb52c"
       style="stroke-linecap:butt;stroke-linejoin:round;stroke-miterlimit:100000">
      <rect
         height="107.01818"
         width="104.05059"
         x="227.40088"
         y="157.85182"
         id="rect1913"
         style="stroke-linecap:butt;stroke-linejoin:round;stroke-miterlimit:100000" />
    </clipPath>
    <clipPath
       id="p40f04df702"
       style="stroke-linecap:butt;stroke-linejoin:round;stroke-miterlimit:100000">
      <rect
         height="107.01818"
         width="5.3509092"
         x="494.03052"
         y="29.43"
         id="rect1916"
         style="stroke-linecap:butt;stroke-linejoin:round;stroke-miterlimit:100000" />
    </clipPath>
    <clipPath
       id="p3e53610836"
       style="stroke-linecap:butt;stroke-linejoin:round;stroke-miterlimit:100000">
      <rect
         height="107.01818"
         width="5.3509092"
         x="337.95462"
         y="29.43"
         id="rect1919"
         style="stroke-linecap:butt;stroke-linejoin:round;stroke-miterlimit:100000" />
    </clipPath>
    <clipPath
       id="p1fe5b0140c"
       style="stroke-linecap:butt;stroke-linejoin:round;stroke-miterlimit:100000">
      <rect
         height="107.01818"
         width="5.3509092"
         x="494.03052"
         y="157.85182"
         id="rect1922"
         style="stroke-linecap:butt;stroke-linejoin:round;stroke-miterlimit:100000" />
    </clipPath>
    <clipPath
       id="pb430ca678b"
       style="stroke-linecap:butt;stroke-linejoin:round;stroke-miterlimit:100000">
      <rect
         height="107.01818"
         width="5.3509092"
         x="181.87875"
         y="157.85182"
         id="rect1925"
         style="stroke-linecap:butt;stroke-linejoin:round;stroke-miterlimit:100000" />
    </clipPath>
    <clipPath
       id="p6649097416"
       style="stroke-linecap:butt;stroke-linejoin:round;stroke-miterlimit:100000">
      <rect
         height="107.01818"
         width="5.3509092"
         x="337.95462"
         y="157.85182"
         id="rect1928"
         style="stroke-linecap:butt;stroke-linejoin:round;stroke-miterlimit:100000" />
    </clipPath>
  </defs>
  <text
     sodipodi:linespacing="125%"
     id="text5718"
     y="6.9201374"
     x="23.943989"
     style="font-style:normal;font-weight:normal;font-size:9.10825253px;line-height:125%;font-family:sans-serif;letter-spacing:0px;word-spacing:0px;fill:#000000;fill-opacity:1;stroke:none;stroke-width:1px;stroke-linecap:butt;stroke-linejoin:miter;stroke-miterlimit:100000;stroke-opacity:1"
     xml:space="preserve"><tspan
       y="6.9201374"
       x="23.943989"
       style="stroke-linecap:butt;stroke-linejoin:round;stroke-miterlimit:100000"
       id="tspan5720"
       sodipodi:role="line">Czech 1 (adjectives)</tspan></text>
  <text
     sodipodi:linespacing="125%"
     id="text5722-7"
     y="133.96588"
     x="30.507404"
     style="font-style:normal;font-weight:normal;font-size:9.10825253px;line-height:125%;font-family:sans-serif;letter-spacing:0px;word-spacing:0px;fill:#000000;fill-opacity:1;stroke:none;stroke-width:1px;stroke-linecap:butt;stroke-linejoin:miter;stroke-miterlimit:100000;stroke-opacity:1"
     xml:space="preserve"><tspan
       y="133.96588"
       x="30.507404"
       style="stroke-linecap:butt;stroke-linejoin:round;stroke-miterlimit:100000"
       id="tspan5724-5"
       sodipodi:role="line">MatMat: addition</tspan></text>
</svg>
