<?xml version="1.0" encoding="utf-8" standalone="no"?>
<!DOCTYPE svg PUBLIC "-//W3C//DTD SVG 1.1//EN"
  "http://www.w3.org/Graphics/SVG/1.1/DTD/svg11.dtd">
<!-- Created with matplotlib (https://matplotlib.org/) -->
<svg height="231.84pt" version="1.1" viewBox="0 0 349.2 231.84" width="349.2pt" xmlns="http://www.w3.org/2000/svg" xmlns:xlink="http://www.w3.org/1999/xlink">
 <metadata>
  <rdf:RDF xmlns:cc="http://creativecommons.org/ns#" xmlns:dc="http://purl.org/dc/elements/1.1/" xmlns:rdf="http://www.w3.org/1999/02/22-rdf-syntax-ns#">
   <cc:Work>
    <dc:type rdf:resource="http://purl.org/dc/dcmitype/StillImage"/>
    <dc:date>2021-01-22T21:46:41.789897</dc:date>
    <dc:format>image/svg+xml</dc:format>
    <dc:creator>
     <cc:Agent>
      <dc:title>Matplotlib v3.3.2, https://matplotlib.org/</dc:title>
     </cc:Agent>
    </dc:creator>
   </cc:Work>
  </rdf:RDF>
 </metadata>
 <defs>
  <style type="text/css">*{stroke-linecap:butt;stroke-linejoin:round;}</style>
 </defs>
 <g id="figure_1">
  <g id="patch_1">
   <path d="M 0 231.84 
L 349.2 231.84 
L 349.2 0 
L 0 0 
z
" style="fill:#ffffff;"/>
  </g>
  <g id="axes_1">
   <g id="patch_2">
    <path d="M 7.2 224.64 
L 342 224.64 
L 342 7.2 
L 7.2 7.2 
z
" style="fill:#ffffff;"/>
   </g>
   <g id="matplotlib.axis_1"/>
   <g id="matplotlib.axis_2"/>
   <g id="LineCollection_1">
    <path clip-path="url(#pe28841afec)" d="M 198.209992 214.756364 
L 198.209992 18.994693 
" style="fill:none;stroke:#000000;stroke-dasharray:4.44,1.92;stroke-dashoffset:0;stroke-width:1.2;"/>
   </g>
   <g id="LineCollection_2">
    <path clip-path="url(#pe28841afec)" d="M 198.209992 214.756364 
L 198.209992 18.994693 
" style="fill:none;stroke:#4c72b0;stroke-dasharray:4.44,1.92;stroke-dashoffset:0;stroke-width:1.2;"/>
    <path clip-path="url(#pe28841afec)" d="M 189.407966 214.756364 
L 189.407966 18.994693 
" style="fill:none;stroke:#dd8452;stroke-dasharray:4.44,1.92;stroke-dashoffset:0;stroke-width:1.2;"/>
   </g>
   <g id="line2d_1">
    <path clip-path="url(#pe28841afec)" d="M 69.638166 214.756364 
L 81.691775 214.545594 
L 89.020369 214.205679 
L 94.516815 213.73571 
L 98.984686 213.137027 
L 102.809697 212.405917 
L 106.216851 211.530925 
L 109.302575 210.509971 
L 112.131155 209.342691 
L 114.79902 208.002177 
L 117.338314 206.476381 
L 119.781178 204.746779 
L 122.159757 202.785878 
L 124.47405 200.587319 
L 126.7562 198.11142 
L 129.03835 195.303543 
L 131.3205 192.138517 
L 133.634793 188.54008 
L 135.981228 184.469548 
L 138.359807 179.889895 
L 140.802672 174.695663 
L 143.341966 168.759064 
L 145.977688 162.016118 
L 148.741982 154.32001 
L 151.699134 145.411806 
L 154.91343 135.005117 
L 158.577727 122.360139 
L 163.206313 105.534568 
L 174.295633 64.890933 
L 177.574214 53.909305 
L 180.338508 45.402791 
L 182.74923 38.684696 
L 184.902808 33.323671 
L 186.831386 29.093388 
L 188.599248 25.728028 
L 190.238539 23.07196 
L 191.749258 21.03799 
L 193.131405 19.536475 
L 194.417123 18.455515 
L 195.638556 17.71539 
L 196.763559 17.283746 
L 197.85642 17.095599 
L 198.94928 17.135931 
L 200.042141 17.404603 
L 201.167144 17.9187 
L 202.324291 18.696898 
L 203.545723 19.789402 
L 204.863584 21.275037 
L 206.277874 23.215431 
L 207.820736 25.728028 
L 209.49217 28.896875 
L 211.292176 32.801384 
L 213.285039 37.677842 
L 215.47076 43.634454 
L 217.913625 50.954278 
L 220.742205 60.159816 
L 224.181501 72.155263 
L 229.06723 90.093086 
L 237.842258 122.360139 
L 241.763698 135.86314 
L 245.138709 146.711046 
L 248.19229 155.799191 
L 251.053013 163.63085 
L 253.753021 170.390859 
L 256.356601 176.32079 
L 258.863751 181.489168 
L 261.306616 186.025912 
L 263.717338 190.038004 
L 266.063773 193.520978 
L 268.410209 196.611798 
L 270.756645 199.336893 
L 273.103081 201.72419 
L 275.48166 203.828801 
L 277.892381 205.66836 
L 280.399532 207.30076 
L 283.003111 208.727957 
L 285.735263 209.969762 
L 288.628129 211.0399 
L 291.778139 211.965081 
L 295.249578 212.748099 
L 299.138876 213.39345 
L 303.671032 213.913809 
L 309.167478 214.311605 
L 316.271071 214.590117 
L 326.685389 214.755563 
L 326.781818 214.756364 
L 326.781818 214.756364 
" style="fill:none;stroke:#4c72b0;stroke-linecap:round;stroke-width:1.2;"/>
   </g>
   <g id="line2d_2">
    <path clip-path="url(#pe28841afec)" d="M 22.418182 214.756364 
L 28.034553 214.517212 
L 32.550089 214.106899 
L 36.597899 213.518396 
L 40.365924 212.748099 
L 43.971602 211.785612 
L 47.488597 210.616177 
L 50.926419 209.239131 
L 54.360832 207.621767 
L 57.787993 205.758759 
L 61.212602 203.642504 
L 64.690643 201.228402 
L 68.20421 198.516092 
L 71.78179 195.470997 
L 75.459057 192.043954 
L 79.227931 188.221831 
L 83.079597 183.996766 
L 87.05845 179.300997 
L 91.214637 174.047101 
L 95.546328 168.20649 
L 100.050068 161.758297 
L 104.840209 154.506072 
L 109.916934 146.412371 
L 115.463106 137.142234 
L 121.605364 126.431907 
L 128.850331 113.335182 
L 139.694734 93.208917 
L 151.290926 71.809661 
L 157.559833 60.702887 
L 162.623373 52.166983 
L 167.000261 45.21463 
L 170.82765 39.53865 
L 174.298737 34.778243 
L 177.422492 30.857189 
L 180.324258 27.562648 
L 183.009582 24.84555 
L 185.484525 22.651277 
L 187.8104 20.883676 
L 189.991191 19.505715 
L 192.031042 18.478783 
L 193.934172 17.763577 
L 195.756491 17.311301 
L 197.499902 17.103014 
L 199.216458 17.12318 
L 200.856511 17.361166 
L 202.519155 17.830566 
L 204.154017 18.5259 
L 205.807701 19.475146 
L 207.477448 20.694978 
L 209.160435 22.201069 
L 210.897874 24.058845 
L 212.683887 26.302003 
L 214.512342 28.962217 
L 216.417755 32.140816 
L 218.35038 35.803994 
L 220.34184 40.057422 
L 222.41848 45.02694 
L 224.565056 50.75358 
L 226.799927 57.368314 
L 229.102163 64.890933 
L 231.512036 73.542055 
L 234.026245 83.410321 
L 236.714297 94.887894 
L 239.611529 108.266099 
L 242.870234 124.404297 
L 247.108053 146.611565 
L 253.411576 179.629026 
L 255.81665 190.983676 
L 257.666039 198.697425 
L 259.181701 204.116361 
L 260.467151 207.931067 
L 261.578107 210.569259 
L 262.551589 212.340591 
L 263.422638 213.489172 
L 264.226181 214.197243 
L 265.009485 214.598516 
L 265.645547 214.756364 
L 265.645547 214.756364 
" style="fill:none;stroke:#dd8452;stroke-linecap:round;stroke-width:1.2;"/>
   </g>
   <g id="patch_3">
    <path d="M 7.2 224.64 
L 7.2 7.2 
" style="fill:none;stroke:#262626;stroke-linecap:square;stroke-linejoin:miter;"/>
   </g>
   <g id="patch_4">
    <path d="M 342 224.64 
L 342 7.2 
" style="fill:none;stroke:#262626;stroke-linecap:square;stroke-linejoin:miter;"/>
   </g>
   <g id="patch_5">
    <path d="M 7.2 224.64 
L 342 224.64 
" style="fill:none;stroke:#262626;stroke-linecap:square;stroke-linejoin:miter;"/>
   </g>
   <g id="patch_6">
    <path d="M 7.2 7.2 
L 342 7.2 
" style="fill:none;stroke:#262626;stroke-linecap:square;stroke-linejoin:miter;"/>
   </g>
   <g id="legend_1">
    <g id="patch_7">
     <path d="M 13.36 52.99025 
L 142.556375 52.99025 
Q 144.316375 52.99025 144.316375 51.23025 
L 144.316375 13.36 
Q 144.316375 11.6 142.556375 11.6 
L 13.36 11.6 
Q 11.6 11.6 11.6 13.36 
L 11.6 51.23025 
Q 11.6 52.99025 13.36 52.99025 
z
" style="fill:#ffffff;opacity:0.8;stroke:#cccccc;stroke-linejoin:miter;stroke-width:0.8;"/>
    </g>
    <g id="line2d_3">
     <path d="M 15.12 18.726625 
L 32.72 18.726625 
" style="fill:none;stroke:#4c72b0;stroke-linecap:round;stroke-width:1.2;"/>
    </g>
    <g id="line2d_4"/>
    <g id="text_1">
     <!-- before logistic function -->
     <g style="fill:#262626;" transform="translate(39.76 21.806625)scale(0.088 -0.088)">
      <defs>
       <path d="M 48.6875 27.296875 
Q 48.6875 37.203125 44.609375 42.84375 
Q 40.53125 48.484375 33.40625 48.484375 
Q 26.265625 48.484375 22.1875 42.84375 
Q 18.109375 37.203125 18.109375 27.296875 
Q 18.109375 17.390625 22.1875 11.75 
Q 26.265625 6.109375 33.40625 6.109375 
Q 40.53125 6.109375 44.609375 11.75 
Q 48.6875 17.390625 48.6875 27.296875 
z
M 18.109375 46.390625 
Q 20.953125 51.265625 25.265625 53.625 
Q 29.59375 56 35.59375 56 
Q 45.5625 56 51.78125 48.09375 
Q 58.015625 40.1875 58.015625 27.296875 
Q 58.015625 14.40625 51.78125 6.484375 
Q 45.5625 -1.421875 35.59375 -1.421875 
Q 29.59375 -1.421875 25.265625 0.953125 
Q 20.953125 3.328125 18.109375 8.203125 
L 18.109375 0 
L 9.078125 0 
L 9.078125 75.984375 
L 18.109375 75.984375 
z
" id="DejaVuSans-98"/>
       <path d="M 56.203125 29.59375 
L 56.203125 25.203125 
L 14.890625 25.203125 
Q 15.484375 15.921875 20.484375 11.0625 
Q 25.484375 6.203125 34.421875 6.203125 
Q 39.59375 6.203125 44.453125 7.46875 
Q 49.3125 8.734375 54.109375 11.28125 
L 54.109375 2.78125 
Q 49.265625 0.734375 44.1875 -0.34375 
Q 39.109375 -1.421875 33.890625 -1.421875 
Q 20.796875 -1.421875 13.15625 6.1875 
Q 5.515625 13.8125 5.515625 26.8125 
Q 5.515625 40.234375 12.765625 48.109375 
Q 20.015625 56 32.328125 56 
Q 43.359375 56 49.78125 48.890625 
Q 56.203125 41.796875 56.203125 29.59375 
z
M 47.21875 32.234375 
Q 47.125 39.59375 43.09375 43.984375 
Q 39.0625 48.390625 32.421875 48.390625 
Q 24.90625 48.390625 20.390625 44.140625 
Q 15.875 39.890625 15.1875 32.171875 
z
" id="DejaVuSans-101"/>
       <path d="M 37.109375 75.984375 
L 37.109375 68.5 
L 28.515625 68.5 
Q 23.6875 68.5 21.796875 66.546875 
Q 19.921875 64.59375 19.921875 59.515625 
L 19.921875 54.6875 
L 34.71875 54.6875 
L 34.71875 47.703125 
L 19.921875 47.703125 
L 19.921875 0 
L 10.890625 0 
L 10.890625 47.703125 
L 2.296875 47.703125 
L 2.296875 54.6875 
L 10.890625 54.6875 
L 10.890625 58.5 
Q 10.890625 67.625 15.140625 71.796875 
Q 19.390625 75.984375 28.609375 75.984375 
z
" id="DejaVuSans-102"/>
       <path d="M 30.609375 48.390625 
Q 23.390625 48.390625 19.1875 42.75 
Q 14.984375 37.109375 14.984375 27.296875 
Q 14.984375 17.484375 19.15625 11.84375 
Q 23.34375 6.203125 30.609375 6.203125 
Q 37.796875 6.203125 41.984375 11.859375 
Q 46.1875 17.53125 46.1875 27.296875 
Q 46.1875 37.015625 41.984375 42.703125 
Q 37.796875 48.390625 30.609375 48.390625 
z
M 30.609375 56 
Q 42.328125 56 49.015625 48.375 
Q 55.71875 40.765625 55.71875 27.296875 
Q 55.71875 13.875 49.015625 6.21875 
Q 42.328125 -1.421875 30.609375 -1.421875 
Q 18.84375 -1.421875 12.171875 6.21875 
Q 5.515625 13.875 5.515625 27.296875 
Q 5.515625 40.765625 12.171875 48.375 
Q 18.84375 56 30.609375 56 
z
" id="DejaVuSans-111"/>
       <path d="M 41.109375 46.296875 
Q 39.59375 47.171875 37.8125 47.578125 
Q 36.03125 48 33.890625 48 
Q 26.265625 48 22.1875 43.046875 
Q 18.109375 38.09375 18.109375 28.8125 
L 18.109375 0 
L 9.078125 0 
L 9.078125 54.6875 
L 18.109375 54.6875 
L 18.109375 46.1875 
Q 20.953125 51.171875 25.484375 53.578125 
Q 30.03125 56 36.53125 56 
Q 37.453125 56 38.578125 55.875 
Q 39.703125 55.765625 41.0625 55.515625 
z
" id="DejaVuSans-114"/>
       <path id="DejaVuSans-32"/>
       <path d="M 9.421875 75.984375 
L 18.40625 75.984375 
L 18.40625 0 
L 9.421875 0 
z
" id="DejaVuSans-108"/>
       <path d="M 45.40625 27.984375 
Q 45.40625 37.75 41.375 43.109375 
Q 37.359375 48.484375 30.078125 48.484375 
Q 22.859375 48.484375 18.828125 43.109375 
Q 14.796875 37.75 14.796875 27.984375 
Q 14.796875 18.265625 18.828125 12.890625 
Q 22.859375 7.515625 30.078125 7.515625 
Q 37.359375 7.515625 41.375 12.890625 
Q 45.40625 18.265625 45.40625 27.984375 
z
M 54.390625 6.78125 
Q 54.390625 -7.171875 48.1875 -13.984375 
Q 42 -20.796875 29.203125 -20.796875 
Q 24.46875 -20.796875 20.265625 -20.09375 
Q 16.0625 -19.390625 12.109375 -17.921875 
L 12.109375 -9.1875 
Q 16.0625 -11.328125 19.921875 -12.34375 
Q 23.78125 -13.375 27.78125 -13.375 
Q 36.625 -13.375 41.015625 -8.765625 
Q 45.40625 -4.15625 45.40625 5.171875 
L 45.40625 9.625 
Q 42.625 4.78125 38.28125 2.390625 
Q 33.9375 0 27.875 0 
Q 17.828125 0 11.671875 7.65625 
Q 5.515625 15.328125 5.515625 27.984375 
Q 5.515625 40.671875 11.671875 48.328125 
Q 17.828125 56 27.875 56 
Q 33.9375 56 38.28125 53.609375 
Q 42.625 51.21875 45.40625 46.390625 
L 45.40625 54.6875 
L 54.390625 54.6875 
z
" id="DejaVuSans-103"/>
       <path d="M 9.421875 54.6875 
L 18.40625 54.6875 
L 18.40625 0 
L 9.421875 0 
z
M 9.421875 75.984375 
L 18.40625 75.984375 
L 18.40625 64.59375 
L 9.421875 64.59375 
z
" id="DejaVuSans-105"/>
       <path d="M 44.28125 53.078125 
L 44.28125 44.578125 
Q 40.484375 46.53125 36.375 47.5 
Q 32.28125 48.484375 27.875 48.484375 
Q 21.1875 48.484375 17.84375 46.4375 
Q 14.5 44.390625 14.5 40.28125 
Q 14.5 37.15625 16.890625 35.375 
Q 19.28125 33.59375 26.515625 31.984375 
L 29.59375 31.296875 
Q 39.15625 29.25 43.1875 25.515625 
Q 47.21875 21.78125 47.21875 15.09375 
Q 47.21875 7.46875 41.1875 3.015625 
Q 35.15625 -1.421875 24.609375 -1.421875 
Q 20.21875 -1.421875 15.453125 -0.5625 
Q 10.6875 0.296875 5.421875 2 
L 5.421875 11.28125 
Q 10.40625 8.6875 15.234375 7.390625 
Q 20.0625 6.109375 24.8125 6.109375 
Q 31.15625 6.109375 34.5625 8.28125 
Q 37.984375 10.453125 37.984375 14.40625 
Q 37.984375 18.0625 35.515625 20.015625 
Q 33.0625 21.96875 24.703125 23.78125 
L 21.578125 24.515625 
Q 13.234375 26.265625 9.515625 29.90625 
Q 5.8125 33.546875 5.8125 39.890625 
Q 5.8125 47.609375 11.28125 51.796875 
Q 16.75 56 26.8125 56 
Q 31.78125 56 36.171875 55.265625 
Q 40.578125 54.546875 44.28125 53.078125 
z
" id="DejaVuSans-115"/>
       <path d="M 18.3125 70.21875 
L 18.3125 54.6875 
L 36.8125 54.6875 
L 36.8125 47.703125 
L 18.3125 47.703125 
L 18.3125 18.015625 
Q 18.3125 11.328125 20.140625 9.421875 
Q 21.96875 7.515625 27.59375 7.515625 
L 36.8125 7.515625 
L 36.8125 0 
L 27.59375 0 
Q 17.1875 0 13.234375 3.875 
Q 9.28125 7.765625 9.28125 18.015625 
L 9.28125 47.703125 
L 2.6875 47.703125 
L 2.6875 54.6875 
L 9.28125 54.6875 
L 9.28125 70.21875 
z
" id="DejaVuSans-116"/>
       <path d="M 48.78125 52.59375 
L 48.78125 44.1875 
Q 44.96875 46.296875 41.140625 47.34375 
Q 37.3125 48.390625 33.40625 48.390625 
Q 24.65625 48.390625 19.8125 42.84375 
Q 14.984375 37.3125 14.984375 27.296875 
Q 14.984375 17.28125 19.8125 11.734375 
Q 24.65625 6.203125 33.40625 6.203125 
Q 37.3125 6.203125 41.140625 7.25 
Q 44.96875 8.296875 48.78125 10.40625 
L 48.78125 2.09375 
Q 45.015625 0.34375 40.984375 -0.53125 
Q 36.96875 -1.421875 32.421875 -1.421875 
Q 20.0625 -1.421875 12.78125 6.34375 
Q 5.515625 14.109375 5.515625 27.296875 
Q 5.515625 40.671875 12.859375 48.328125 
Q 20.21875 56 33.015625 56 
Q 37.15625 56 41.109375 55.140625 
Q 45.0625 54.296875 48.78125 52.59375 
z
" id="DejaVuSans-99"/>
       <path d="M 8.5 21.578125 
L 8.5 54.6875 
L 17.484375 54.6875 
L 17.484375 21.921875 
Q 17.484375 14.15625 20.5 10.265625 
Q 23.53125 6.390625 29.59375 6.390625 
Q 36.859375 6.390625 41.078125 11.03125 
Q 45.3125 15.671875 45.3125 23.6875 
L 45.3125 54.6875 
L 54.296875 54.6875 
L 54.296875 0 
L 45.3125 0 
L 45.3125 8.40625 
Q 42.046875 3.421875 37.71875 1 
Q 33.40625 -1.421875 27.6875 -1.421875 
Q 18.265625 -1.421875 13.375 4.4375 
Q 8.5 10.296875 8.5 21.578125 
z
M 31.109375 56 
z
" id="DejaVuSans-117"/>
       <path d="M 54.890625 33.015625 
L 54.890625 0 
L 45.90625 0 
L 45.90625 32.71875 
Q 45.90625 40.484375 42.875 44.328125 
Q 39.84375 48.1875 33.796875 48.1875 
Q 26.515625 48.1875 22.3125 43.546875 
Q 18.109375 38.921875 18.109375 30.90625 
L 18.109375 0 
L 9.078125 0 
L 9.078125 54.6875 
L 18.109375 54.6875 
L 18.109375 46.1875 
Q 21.34375 51.125 25.703125 53.5625 
Q 30.078125 56 35.796875 56 
Q 45.21875 56 50.046875 50.171875 
Q 54.890625 44.34375 54.890625 33.015625 
z
" id="DejaVuSans-110"/>
      </defs>
      <use xlink:href="#DejaVuSans-98"/>
      <use x="63.476562" xlink:href="#DejaVuSans-101"/>
      <use x="125" xlink:href="#DejaVuSans-102"/>
      <use x="160.205078" xlink:href="#DejaVuSans-111"/>
      <use x="221.386719" xlink:href="#DejaVuSans-114"/>
      <use x="260.25" xlink:href="#DejaVuSans-101"/>
      <use x="321.773438" xlink:href="#DejaVuSans-32"/>
      <use x="353.560547" xlink:href="#DejaVuSans-108"/>
      <use x="381.34375" xlink:href="#DejaVuSans-111"/>
      <use x="442.525391" xlink:href="#DejaVuSans-103"/>
      <use x="506.001953" xlink:href="#DejaVuSans-105"/>
      <use x="533.785156" xlink:href="#DejaVuSans-115"/>
      <use x="585.884766" xlink:href="#DejaVuSans-116"/>
      <use x="625.09375" xlink:href="#DejaVuSans-105"/>
      <use x="652.876953" xlink:href="#DejaVuSans-99"/>
      <use x="707.857422" xlink:href="#DejaVuSans-32"/>
      <use x="739.644531" xlink:href="#DejaVuSans-102"/>
      <use x="774.849609" xlink:href="#DejaVuSans-117"/>
      <use x="838.228516" xlink:href="#DejaVuSans-110"/>
      <use x="901.607422" xlink:href="#DejaVuSans-99"/>
      <use x="956.587891" xlink:href="#DejaVuSans-116"/>
      <use x="995.796875" xlink:href="#DejaVuSans-105"/>
      <use x="1023.580078" xlink:href="#DejaVuSans-111"/>
      <use x="1084.761719" xlink:href="#DejaVuSans-110"/>
     </g>
    </g>
    <g id="line2d_5">
     <path d="M 15.12 31.643375 
L 32.72 31.643375 
" style="fill:none;stroke:#dd8452;stroke-linecap:round;stroke-width:1.2;"/>
    </g>
    <g id="line2d_6"/>
    <g id="text_2">
     <!-- after logistic function -->
     <g style="fill:#262626;" transform="translate(39.76 34.723375)scale(0.088 -0.088)">
      <defs>
       <path d="M 34.28125 27.484375 
Q 23.390625 27.484375 19.1875 25 
Q 14.984375 22.515625 14.984375 16.5 
Q 14.984375 11.71875 18.140625 8.90625 
Q 21.296875 6.109375 26.703125 6.109375 
Q 34.1875 6.109375 38.703125 11.40625 
Q 43.21875 16.703125 43.21875 25.484375 
L 43.21875 27.484375 
z
M 52.203125 31.203125 
L 52.203125 0 
L 43.21875 0 
L 43.21875 8.296875 
Q 40.140625 3.328125 35.546875 0.953125 
Q 30.953125 -1.421875 24.3125 -1.421875 
Q 15.921875 -1.421875 10.953125 3.296875 
Q 6 8.015625 6 15.921875 
Q 6 25.140625 12.171875 29.828125 
Q 18.359375 34.515625 30.609375 34.515625 
L 43.21875 34.515625 
L 43.21875 35.40625 
Q 43.21875 41.609375 39.140625 45 
Q 35.0625 48.390625 27.6875 48.390625 
Q 23 48.390625 18.546875 47.265625 
Q 14.109375 46.140625 10.015625 43.890625 
L 10.015625 52.203125 
Q 14.9375 54.109375 19.578125 55.046875 
Q 24.21875 56 28.609375 56 
Q 40.484375 56 46.34375 49.84375 
Q 52.203125 43.703125 52.203125 31.203125 
z
" id="DejaVuSans-97"/>
      </defs>
      <use xlink:href="#DejaVuSans-97"/>
      <use x="61.279297" xlink:href="#DejaVuSans-102"/>
      <use x="94.734375" xlink:href="#DejaVuSans-116"/>
      <use x="133.943359" xlink:href="#DejaVuSans-101"/>
      <use x="195.466797" xlink:href="#DejaVuSans-114"/>
      <use x="236.580078" xlink:href="#DejaVuSans-32"/>
      <use x="268.367188" xlink:href="#DejaVuSans-108"/>
      <use x="296.150391" xlink:href="#DejaVuSans-111"/>
      <use x="357.332031" xlink:href="#DejaVuSans-103"/>
      <use x="420.808594" xlink:href="#DejaVuSans-105"/>
      <use x="448.591797" xlink:href="#DejaVuSans-115"/>
      <use x="500.691406" xlink:href="#DejaVuSans-116"/>
      <use x="539.900391" xlink:href="#DejaVuSans-105"/>
      <use x="567.683594" xlink:href="#DejaVuSans-99"/>
      <use x="622.664062" xlink:href="#DejaVuSans-32"/>
      <use x="654.451172" xlink:href="#DejaVuSans-102"/>
      <use x="689.65625" xlink:href="#DejaVuSans-117"/>
      <use x="753.035156" xlink:href="#DejaVuSans-110"/>
      <use x="816.414062" xlink:href="#DejaVuSans-99"/>
      <use x="871.394531" xlink:href="#DejaVuSans-116"/>
      <use x="910.603516" xlink:href="#DejaVuSans-105"/>
      <use x="938.386719" xlink:href="#DejaVuSans-111"/>
      <use x="999.568359" xlink:href="#DejaVuSans-110"/>
     </g>
    </g>
    <g id="line2d_7">
     <path d="M 15.12 44.560125 
L 32.72 44.560125 
" style="fill:none;stroke:#000000;stroke-dasharray:4.44,1.92;stroke-dashoffset:0;stroke-width:1.2;"/>
    </g>
    <g id="text_3">
     <!-- expected values -->
     <g style="fill:#262626;" transform="translate(39.76 47.640125)scale(0.088 -0.088)">
      <defs>
       <path d="M 54.890625 54.6875 
L 35.109375 28.078125 
L 55.90625 0 
L 45.3125 0 
L 29.390625 21.484375 
L 13.484375 0 
L 2.875 0 
L 24.125 28.609375 
L 4.6875 54.6875 
L 15.28125 54.6875 
L 29.78125 35.203125 
L 44.28125 54.6875 
z
" id="DejaVuSans-120"/>
       <path d="M 18.109375 8.203125 
L 18.109375 -20.796875 
L 9.078125 -20.796875 
L 9.078125 54.6875 
L 18.109375 54.6875 
L 18.109375 46.390625 
Q 20.953125 51.265625 25.265625 53.625 
Q 29.59375 56 35.59375 56 
Q 45.5625 56 51.78125 48.09375 
Q 58.015625 40.1875 58.015625 27.296875 
Q 58.015625 14.40625 51.78125 6.484375 
Q 45.5625 -1.421875 35.59375 -1.421875 
Q 29.59375 -1.421875 25.265625 0.953125 
Q 20.953125 3.328125 18.109375 8.203125 
z
M 48.6875 27.296875 
Q 48.6875 37.203125 44.609375 42.84375 
Q 40.53125 48.484375 33.40625 48.484375 
Q 26.265625 48.484375 22.1875 42.84375 
Q 18.109375 37.203125 18.109375 27.296875 
Q 18.109375 17.390625 22.1875 11.75 
Q 26.265625 6.109375 33.40625 6.109375 
Q 40.53125 6.109375 44.609375 11.75 
Q 48.6875 17.390625 48.6875 27.296875 
z
" id="DejaVuSans-112"/>
       <path d="M 45.40625 46.390625 
L 45.40625 75.984375 
L 54.390625 75.984375 
L 54.390625 0 
L 45.40625 0 
L 45.40625 8.203125 
Q 42.578125 3.328125 38.25 0.953125 
Q 33.9375 -1.421875 27.875 -1.421875 
Q 17.96875 -1.421875 11.734375 6.484375 
Q 5.515625 14.40625 5.515625 27.296875 
Q 5.515625 40.1875 11.734375 48.09375 
Q 17.96875 56 27.875 56 
Q 33.9375 56 38.25 53.625 
Q 42.578125 51.265625 45.40625 46.390625 
z
M 14.796875 27.296875 
Q 14.796875 17.390625 18.875 11.75 
Q 22.953125 6.109375 30.078125 6.109375 
Q 37.203125 6.109375 41.296875 11.75 
Q 45.40625 17.390625 45.40625 27.296875 
Q 45.40625 37.203125 41.296875 42.84375 
Q 37.203125 48.484375 30.078125 48.484375 
Q 22.953125 48.484375 18.875 42.84375 
Q 14.796875 37.203125 14.796875 27.296875 
z
" id="DejaVuSans-100"/>
       <path d="M 2.984375 54.6875 
L 12.5 54.6875 
L 29.59375 8.796875 
L 46.6875 54.6875 
L 56.203125 54.6875 
L 35.6875 0 
L 23.484375 0 
z
" id="DejaVuSans-118"/>
      </defs>
      <use xlink:href="#DejaVuSans-101"/>
      <use x="59.773438" xlink:href="#DejaVuSans-120"/>
      <use x="118.953125" xlink:href="#DejaVuSans-112"/>
      <use x="182.429688" xlink:href="#DejaVuSans-101"/>
      <use x="243.953125" xlink:href="#DejaVuSans-99"/>
      <use x="298.933594" xlink:href="#DejaVuSans-116"/>
      <use x="338.142578" xlink:href="#DejaVuSans-101"/>
      <use x="399.666016" xlink:href="#DejaVuSans-100"/>
      <use x="463.142578" xlink:href="#DejaVuSans-32"/>
      <use x="494.929688" xlink:href="#DejaVuSans-118"/>
      <use x="554.109375" xlink:href="#DejaVuSans-97"/>
      <use x="615.388672" xlink:href="#DejaVuSans-108"/>
      <use x="643.171875" xlink:href="#DejaVuSans-117"/>
      <use x="706.550781" xlink:href="#DejaVuSans-101"/>
      <use x="768.074219" xlink:href="#DejaVuSans-115"/>
     </g>
    </g>
   </g>
  </g>
 </g>
 <defs>
  <clipPath id="pe28841afec">
   <rect height="217.44" width="334.8" x="7.2" y="7.2"/>
  </clipPath>
 </defs>
</svg>
