<?xml version="1.0" encoding="utf-8" standalone="no"?>
<!DOCTYPE svg PUBLIC "-//W3C//DTD SVG 1.1//EN"
  "http://www.w3.org/Graphics/SVG/1.1/DTD/svg11.dtd">
<!-- Created with matplotlib (https://matplotlib.org/) -->
<svg height="177.48pt" version="1.1" viewBox="0 0 405 177.48" width="405pt" xmlns="http://www.w3.org/2000/svg" xmlns:xlink="http://www.w3.org/1999/xlink">
 <metadata>
  <rdf:RDF xmlns:cc="http://creativecommons.org/ns#" xmlns:dc="http://purl.org/dc/elements/1.1/" xmlns:rdf="http://www.w3.org/1999/02/22-rdf-syntax-ns#">
   <cc:Work>
    <dc:type rdf:resource="http://purl.org/dc/dcmitype/StillImage"/>
    <dc:date>2021-01-31T22:50:22.724692</dc:date>
    <dc:format>image/svg+xml</dc:format>
    <dc:creator>
     <cc:Agent>
      <dc:title>Matplotlib v3.3.2, https://matplotlib.org/</dc:title>
     </cc:Agent>
    </dc:creator>
   </cc:Work>
  </rdf:RDF>
 </metadata>
 <defs>
  <style type="text/css">*{stroke-linecap:butt;stroke-linejoin:round;}</style>
 </defs>
 <g id="figure_1">
  <g id="patch_1">
   <path d="M 0 177.48 
L 405 177.48 
L 405 0 
L 0 0 
z
" style="fill:#ffffff;"/>
  </g>
  <g id="axes_1">
   <g id="patch_2">
    <path d="M 7.2 170.28 
L 397.8 170.28 
L 397.8 7.2 
L 7.2 7.2 
z
" style="fill:#ffffff;"/>
   </g>
   <g id="matplotlib.axis_1"/>
   <g id="matplotlib.axis_2"/>
   <g id="LineCollection_1">
    <path clip-path="url(#p7fee64f626)" d="M 265.910931 162.867273 
L 265.910931 16.641923 
" style="fill:none;stroke:#000000;stroke-dasharray:4.44,1.92;stroke-dashoffset:0;stroke-width:1.2;"/>
   </g>
   <g id="LineCollection_2">
    <path clip-path="url(#p7fee64f626)" d="M 274.540903 162.867273 
L 274.540903 14.612727 
" style="fill:none;stroke:#000000;stroke-dasharray:7.68,1.92,1.2,1.92;stroke-dashoffset:0;stroke-width:1.2;"/>
   </g>
   <g id="LineCollection_3">
    <path clip-path="url(#p7fee64f626)" d="M 274.540903 162.867273 
L 274.540903 14.612727 
" style="fill:none;stroke:#dd8452;stroke-dasharray:7.68,1.92,1.2,1.92;stroke-dashoffset:0;stroke-width:1.2;"/>
   </g>
   <g id="LineCollection_4">
    <path clip-path="url(#p7fee64f626)" d="M 270.109096 162.867273 
L 270.109096 14.612727 
" style="fill:none;stroke:#55a868;stroke-dasharray:7.68,1.92,1.2,1.92;stroke-dashoffset:0;stroke-width:1.2;"/>
   </g>
   <g id="LineCollection_5">
    <path clip-path="url(#p7fee64f626)" d="M 279.494268 162.867273 
L 279.494268 14.612727 
" style="fill:none;stroke:#4c72b0;stroke-dasharray:7.68,1.92,1.2,1.92;stroke-dashoffset:0;stroke-width:1.2;"/>
   </g>
   <g id="line2d_1">
    <path clip-path="url(#p7fee64f626)" d="M 34.339717 161.220866 
L 40.737294 160.357122 
L 46.863496 159.307862 
L 52.882084 158.051705 
L 58.77924 156.594427 
L 64.63686 154.917998 
L 70.449205 153.024336 
L 76.294796 150.885817 
L 82.133176 148.514664 
L 88.075648 145.860397 
L 94.099848 142.923868 
L 100.182778 139.711541 
L 106.385103 136.186105 
L 112.777186 132.296386 
L 119.349093 128.036097 
L 126.180232 123.340481 
L 133.263492 118.201039 
L 140.778735 112.46989 
L 148.819685 106.051813 
L 157.577895 98.769502 
L 167.54318 90.184449 
L 180.306422 78.87321 
L 207.774475 54.439409 
L 216.644355 46.909577 
L 223.947487 40.993219 
L 230.387165 36.057788 
L 236.169665 31.90301 
L 241.402637 28.410253 
L 246.282536 25.416453 
L 250.816604 22.891935 
L 255.101878 20.759418 
L 259.14349 18.996662 
L 262.947221 17.57805 
L 266.603667 16.452292 
L 270.032328 15.624543 
L 273.321649 15.05213 
L 276.554714 14.714725 
L 279.65175 14.613576 
L 282.693381 14.737835 
L 285.602988 15.075187 
L 288.458642 15.624543 
L 291.3328 16.40631 
L 294.149129 17.405343 
L 296.907281 18.617134 
L 299.675462 20.075301 
L 302.448894 21.789082 
L 305.22278 23.766003 
L 307.992319 26.011631 
L 310.814604 28.58903 
L 313.679637 31.513467 
L 316.57722 34.796134 
L 319.497032 38.443376 
L 322.483015 42.533646 
L 325.518697 47.072268 
L 328.637453 52.139166 
L 331.863599 57.813174 
L 335.211627 64.163507 
L 338.68547 71.238607 
L 342.357742 79.231269 
L 346.339367 88.442766 
L 350.87399 99.514798 
L 357.193024 115.598636 
L 364.34863 133.686581 
L 367.773546 141.739962 
L 370.437002 147.462108 
L 372.66602 151.746742 
L 374.59704 154.994613 
L 376.301005 157.441085 
L 377.836459 159.268789 
L 379.239993 160.603903 
L 380.045455 161.220866 
L 380.045455 161.220866 
" style="fill:none;stroke:#4c72b0;stroke-linecap:round;stroke-width:1.2;"/>
   </g>
   <g id="line2d_2">
    <path clip-path="url(#p7fee64f626)" d="M 29.386352 162.817539 
L 44.941187 162.608581 
L 55.739388 162.249309 
L 64.637007 161.735928 
L 72.390171 161.069586 
L 79.379901 160.24945 
L 85.87474 159.264963 
L 91.922082 158.126298 
L 97.687003 156.816614 
L 103.202791 155.337413 
L 108.516447 153.684984 
L 113.686491 151.847065 
L 118.781048 149.799845 
L 123.784495 147.548785 
L 128.682263 145.104041 
L 133.555209 142.426045 
L 138.489754 139.45712 
L 143.383819 136.251381 
L 148.326174 132.746257 
L 153.311022 128.93679 
L 158.431133 124.738137 
L 163.582605 120.22541 
L 168.958186 115.216041 
L 174.552692 109.69066 
L 180.359116 103.640729 
L 186.668828 96.736525 
L 193.568306 88.849655 
L 201.829777 79.05171 
L 218.703804 58.569521 
L 227.053455 48.683734 
L 233.093894 41.862038 
L 238.207093 36.412755 
L 242.696687 31.94596 
L 246.76157 28.212202 
L 250.414071 25.150019 
L 253.841282 22.562262 
L 257.048747 20.418781 
L 260.042203 18.684363 
L 262.827478 17.320325 
L 265.493164 16.256617 
L 268.041864 15.474831 
L 270.476246 14.955096 
L 272.878576 14.670832 
L 275.169955 14.621161 
L 277.430627 14.793027 
L 279.660274 15.185659 
L 281.858612 15.7973 
L 284.099542 16.657585 
L 286.306459 17.745218 
L 288.550995 19.102463 
L 290.829423 20.745088 
L 293.137914 22.686923 
L 295.472547 24.939426 
L 297.895962 27.588356 
L 300.399809 30.660149 
L 302.975354 34.175692 
L 305.675501 38.246687 
L 308.485716 42.896621 
L 311.44906 48.244426 
L 314.543668 54.295968 
L 317.854784 61.265552 
L 321.499483 69.471152 
L 325.608848 79.290375 
L 330.754332 92.200147 
L 343.677903 124.90547 
L 347.222156 133.1033 
L 350.175505 139.397092 
L 352.763688 144.410898 
L 355.108048 148.483068 
L 357.2554 151.779897 
L 359.243636 154.43795 
L 361.123086 156.588613 
L 362.912631 158.305781 
L 364.642594 159.663506 
L 366.347668 160.7227 
L 368.059988 161.527341 
L 369.850365 162.121369 
L 371.786241 162.525922 
L 374.063796 162.766227 
L 375.09209 162.817539 
L 375.09209 162.817539 
" style="fill:none;stroke:#dd8452;stroke-linecap:round;stroke-width:1.2;"/>
   </g>
   <g id="line2d_3">
    <path clip-path="url(#p7fee64f626)" d="M 24.954545 162.86727 
L 93.255196 162.75628 
L 107.226435 162.502196 
L 116.886036 162.11324 
L 124.529819 161.591691 
L 131.014315 160.9335 
L 136.738568 160.133199 
L 141.853798 159.198964 
L 146.528488 158.126298 
L 150.942753 156.887679 
L 155.08667 155.495334 
L 159.051478 153.927763 
L 162.831665 152.194321 
L 166.522537 150.254239 
L 170.120885 148.106418 
L 173.623895 145.753412 
L 177.029129 143.20148 
L 180.434652 140.373271 
L 183.838497 137.257022 
L 187.238699 133.843574 
L 190.733041 130.012971 
L 194.219333 125.858585 
L 197.794624 121.250108 
L 201.455667 116.167902 
L 205.297085 110.449343 
L 209.313122 104.067929 
L 213.690885 96.680496 
L 218.513365 88.09249 
L 224.329831 77.259276 
L 241.611329 44.736448 
L 245.539518 38.00233 
L 248.885272 32.692143 
L 251.840763 28.409701 
L 254.503222 24.939426 
L 256.880949 22.193619 
L 259.065369 19.996762 
L 261.061357 18.285869 
L 262.955535 16.94287 
L 264.750062 15.937799 
L 266.447066 15.238815 
L 268.048626 14.813032 
L 269.635778 14.623401 
L 271.13012 14.662829 
L 272.611255 14.916042 
L 274.155979 15.412324 
L 275.685874 16.14189 
L 277.276206 17.155181 
L 278.924527 18.482655 
L 280.628255 20.153263 
L 282.384684 22.193619 
L 284.262738 24.730721 
L 286.18568 27.704375 
L 288.289495 31.383861 
L 290.495421 35.703895 
L 292.862986 40.840228 
L 295.445502 46.990341 
L 298.288762 54.35311 
L 301.553067 63.451309 
L 305.547416 75.283766 
L 320.196664 119.367631 
L 323.284887 127.559162 
L 325.962148 134.052716 
L 328.396871 139.397092 
L 330.64958 143.826308 
L 332.772863 147.527013 
L 334.812296 150.641421 
L 336.770154 153.228356 
L 338.648744 155.349659 
L 340.484305 157.096658 
L 342.307283 158.533456 
L 344.173284 159.722182 
L 346.09649 160.680728 
L 348.11227 161.434126 
L 350.293587 162.009245 
L 352.776596 162.427695 
L 355.791231 162.69981 
L 360.024195 162.838195 
L 370.002654 162.867266 
L 370.660283 162.86727 
L 370.660283 162.86727 
" style="fill:none;stroke:#55a868;stroke-linecap:round;stroke-width:1.2;"/>
   </g>
   <g id="patch_3">
    <path d="M 7.2 170.28 
L 7.2 7.2 
" style="fill:none;stroke:#262626;stroke-linecap:square;stroke-linejoin:miter;"/>
   </g>
   <g id="patch_4">
    <path d="M 397.8 170.28 
L 397.8 7.2 
" style="fill:none;stroke:#262626;stroke-linecap:square;stroke-linejoin:miter;"/>
   </g>
   <g id="patch_5">
    <path d="M 7.2 170.28 
L 397.8 170.28 
" style="fill:none;stroke:#262626;stroke-linecap:square;stroke-linejoin:miter;"/>
   </g>
   <g id="patch_6">
    <path d="M 7.2 7.2 
L 397.8 7.2 
" style="fill:none;stroke:#262626;stroke-linecap:square;stroke-linejoin:miter;"/>
   </g>
   <g id="legend_1">
    <g id="patch_7">
     <path d="M 13.36 78.82375 
L 113.69925 78.82375 
Q 115.45925 78.82375 115.45925 77.06375 
L 115.45925 13.36 
Q 115.45925 11.6 113.69925 11.6 
L 13.36 11.6 
Q 11.6 11.6 11.6 13.36 
L 11.6 77.06375 
Q 11.6 78.82375 13.36 78.82375 
z
" style="fill:#ffffff;opacity:0.8;stroke:#cccccc;stroke-linejoin:miter;stroke-width:0.8;"/>
    </g>
    <g id="line2d_4">
     <path d="M 15.12 18.726625 
L 32.72 18.726625 
" style="fill:none;stroke:#4c72b0;stroke-linecap:round;stroke-width:1.2;"/>
    </g>
    <g id="line2d_5"/>
    <g id="text_1">
     <!-- $\sigma(\mathcal{N}(1,1))$ -->
     <g style="fill:#262626;" transform="translate(39.76 21.806625)scale(0.088 -0.088)">
      <defs>
       <path d="M 34.671875 47.5625 
Q 27.25 47.5625 22.21875 42.1875 
Q 16.890625 36.578125 15.140625 27.296875 
Q 13.1875 17.484375 16.3125 11.8125 
Q 19.390625 6.203125 26.65625 6.203125 
Q 33.84375 6.203125 39.109375 11.859375 
Q 44.4375 17.53125 46.34375 27.296875 
Q 48.046875 36.234375 45.015625 42.1875 
Q 42.1875 47.5625 34.671875 47.5625 
z
M 36.078125 54.734375 
L 65.921875 54.6875 
L 64.15625 45.703125 
L 54.109375 45.703125 
Q 57.90625 38.09375 55.859375 27.296875 
Q 53.21875 13.875 45.0625 6.25 
Q 36.859375 -1.421875 25.140625 -1.421875 
Q 13.375 -1.421875 8.203125 6.25 
Q 3.03125 13.875 5.671875 27.296875 
Q 8.25 40.765625 16.40625 48.390625 
Q 23.1875 54.734375 36.078125 54.734375 
z
" id="DejaVuSans-Oblique-963"/>
       <path d="M 31 75.875 
Q 24.46875 64.65625 21.28125 53.65625 
Q 18.109375 42.671875 18.109375 31.390625 
Q 18.109375 20.125 21.3125 9.0625 
Q 24.515625 -2 31 -13.1875 
L 23.1875 -13.1875 
Q 15.875 -1.703125 12.234375 9.375 
Q 8.59375 20.453125 8.59375 31.390625 
Q 8.59375 42.28125 12.203125 53.3125 
Q 15.828125 64.359375 23.1875 75.875 
z
" id="DejaVuSans-40"/>
       <path d="M 67.09375 12.5 
L 67.203125 12.5 
Q 82.703125 63.59375 84.5 68.40625 
Q 85.5 70.90625 86.296875 72.09375 
Q 91.09375 79.5 97.703125 79.5 
Q 101.40625 79.5 103.90625 77.046875 
Q 106.40625 74.59375 106.40625 71.09375 
Q 106.40625 68.40625 105 66.75 
Q 103.59375 65.09375 101.09375 65.09375 
Q 99.5 65.09375 98.390625 66 
Q 97.296875 66.90625 96.84375 67.953125 
Q 96.40625 69 95.59375 69.890625 
Q 94.796875 70.796875 93.796875 70.796875 
Q 92.796875 70.796875 91.890625 70.4375 
Q 91 70.09375 90.390625 69.640625 
Q 89.796875 69.203125 89.140625 68.296875 
Q 88.5 67.40625 88.09375 66.796875 
Q 87.703125 66.203125 87.25 65.046875 
Q 86.796875 63.90625 86.640625 63.40625 
Q 86.5 62.90625 86.09375 61.75 
Q 85.703125 60.59375 85.703125 60.40625 
L 66.59375 -2.40625 
L 64.59375 -2.40625 
Q 48.09375 20 38.796875 45.203125 
L 38.59375 45.203125 
Q 37.59375 40.296875 36.84375 36.890625 
Q 36.09375 33.5 34.59375 28 
Q 33.09375 22.5 31.6875 18.59375 
Q 30.296875 14.703125 28.1875 10.203125 
Q 26.09375 5.703125 23.890625 2.890625 
Q 21.703125 0.09375 18.796875 -1.796875 
Q 15.90625 -3.703125 12.703125 -3.703125 
Q 9 -3.703125 6.5 -1.25 
Q 4 1.203125 4 4.703125 
Q 4 7.40625 5.390625 9.046875 
Q 6.796875 10.703125 9.296875 10.703125 
Q 10.90625 10.703125 12 9.796875 
Q 13.09375 8.90625 13.546875 7.84375 
Q 14 6.796875 14.796875 5.890625 
Q 15.59375 5 16.59375 5 
Q 19.09375 5 21.390625 7.5 
Q 23.703125 10 25.59375 14.5 
Q 27.5 19 29.09375 24.09375 
Q 30.703125 29.203125 32.140625 35.75 
Q 33.59375 42.296875 34.59375 47.390625 
Q 35.59375 52.5 36.6875 58.453125 
Q 37.796875 64.40625 38.40625 67.09375 
L 41.09375 67.09375 
Q 41.90625 65.09375 44.90625 57.5 
Q 47.90625 49.90625 49.09375 47 
Q 50.296875 44.09375 53 37.84375 
Q 55.703125 31.59375 57.546875 28.09375 
Q 59.40625 24.59375 62 20.1875 
Q 64.59375 15.796875 67.09375 12.5 
z
" id="STIXNonUnicode-Italic-57914"/>
       <path d="M 12.40625 8.296875 
L 28.515625 8.296875 
L 28.515625 63.921875 
L 10.984375 60.40625 
L 10.984375 69.390625 
L 28.421875 72.90625 
L 38.28125 72.90625 
L 38.28125 8.296875 
L 54.390625 8.296875 
L 54.390625 0 
L 12.40625 0 
z
" id="DejaVuSans-49"/>
       <path d="M 11.71875 12.40625 
L 22.015625 12.40625 
L 22.015625 4 
L 14.015625 -11.625 
L 7.71875 -11.625 
L 11.71875 4 
z
" id="DejaVuSans-44"/>
       <path d="M 8.015625 75.875 
L 15.828125 75.875 
Q 23.140625 64.359375 26.78125 53.3125 
Q 30.421875 42.28125 30.421875 31.390625 
Q 30.421875 20.453125 26.78125 9.375 
Q 23.140625 -1.703125 15.828125 -13.1875 
L 8.015625 -13.1875 
Q 14.5 -2 17.703125 9.0625 
Q 20.90625 20.125 20.90625 31.390625 
Q 20.90625 42.671875 17.703125 53.65625 
Q 14.5 64.65625 8.015625 75.875 
z
" id="DejaVuSans-41"/>
      </defs>
      <use transform="translate(0 0.5)" xlink:href="#DejaVuSans-Oblique-963"/>
      <use transform="translate(63.378906 0.5)" xlink:href="#DejaVuSans-40"/>
      <use transform="translate(102.392578 0.5)" xlink:href="#STIXNonUnicode-Italic-57914"/>
      <use transform="translate(198.09256 0.5)" xlink:href="#DejaVuSans-40"/>
      <use transform="translate(237.106232 0.5)" xlink:href="#DejaVuSans-49"/>
      <use transform="translate(300.729279 0.5)" xlink:href="#DejaVuSans-44"/>
      <use transform="translate(351.99881 0.5)" xlink:href="#DejaVuSans-49"/>
      <use transform="translate(415.621857 0.5)" xlink:href="#DejaVuSans-41"/>
      <use transform="translate(454.635529 0.5)" xlink:href="#DejaVuSans-41"/>
     </g>
    </g>
    <g id="line2d_6">
     <path d="M 15.12 31.643375 
L 32.72 31.643375 
" style="fill:none;stroke:#dd8452;stroke-linecap:round;stroke-width:1.2;"/>
    </g>
    <g id="line2d_7"/>
    <g id="text_2">
     <!-- $\sigma(\mathcal{N}(1,0.75))$ -->
     <g style="fill:#262626;" transform="translate(39.76 34.723375)scale(0.088 -0.088)">
      <defs>
       <path d="M 31.78125 66.40625 
Q 24.171875 66.40625 20.328125 58.90625 
Q 16.5 51.421875 16.5 36.375 
Q 16.5 21.390625 20.328125 13.890625 
Q 24.171875 6.390625 31.78125 6.390625 
Q 39.453125 6.390625 43.28125 13.890625 
Q 47.125 21.390625 47.125 36.375 
Q 47.125 51.421875 43.28125 58.90625 
Q 39.453125 66.40625 31.78125 66.40625 
z
M 31.78125 74.21875 
Q 44.046875 74.21875 50.515625 64.515625 
Q 56.984375 54.828125 56.984375 36.375 
Q 56.984375 17.96875 50.515625 8.265625 
Q 44.046875 -1.421875 31.78125 -1.421875 
Q 19.53125 -1.421875 13.0625 8.265625 
Q 6.59375 17.96875 6.59375 36.375 
Q 6.59375 54.828125 13.0625 64.515625 
Q 19.53125 74.21875 31.78125 74.21875 
z
" id="DejaVuSans-48"/>
       <path d="M 10.6875 12.40625 
L 21 12.40625 
L 21 0 
L 10.6875 0 
z
" id="DejaVuSans-46"/>
       <path d="M 8.203125 72.90625 
L 55.078125 72.90625 
L 55.078125 68.703125 
L 28.609375 0 
L 18.3125 0 
L 43.21875 64.59375 
L 8.203125 64.59375 
z
" id="DejaVuSans-55"/>
       <path d="M 10.796875 72.90625 
L 49.515625 72.90625 
L 49.515625 64.59375 
L 19.828125 64.59375 
L 19.828125 46.734375 
Q 21.96875 47.46875 24.109375 47.828125 
Q 26.265625 48.1875 28.421875 48.1875 
Q 40.625 48.1875 47.75 41.5 
Q 54.890625 34.8125 54.890625 23.390625 
Q 54.890625 11.625 47.5625 5.09375 
Q 40.234375 -1.421875 26.90625 -1.421875 
Q 22.3125 -1.421875 17.546875 -0.640625 
Q 12.796875 0.140625 7.71875 1.703125 
L 7.71875 11.625 
Q 12.109375 9.234375 16.796875 8.0625 
Q 21.484375 6.890625 26.703125 6.890625 
Q 35.15625 6.890625 40.078125 11.328125 
Q 45.015625 15.765625 45.015625 23.390625 
Q 45.015625 31 40.078125 35.4375 
Q 35.15625 39.890625 26.703125 39.890625 
Q 22.75 39.890625 18.8125 39.015625 
Q 14.890625 38.140625 10.796875 36.28125 
z
" id="DejaVuSans-53"/>
      </defs>
      <use transform="translate(0 0.5)" xlink:href="#DejaVuSans-Oblique-963"/>
      <use transform="translate(63.378906 0.5)" xlink:href="#DejaVuSans-40"/>
      <use transform="translate(102.392578 0.5)" xlink:href="#STIXNonUnicode-Italic-57914"/>
      <use transform="translate(198.09256 0.5)" xlink:href="#DejaVuSans-40"/>
      <use transform="translate(237.106232 0.5)" xlink:href="#DejaVuSans-49"/>
      <use transform="translate(300.729279 0.5)" xlink:href="#DejaVuSans-44"/>
      <use transform="translate(351.99881 0.5)" xlink:href="#DejaVuSans-48"/>
      <use transform="translate(415.621857 0.5)" xlink:href="#DejaVuSans-46"/>
      <use transform="translate(439.658966 0.5)" xlink:href="#DejaVuSans-55"/>
      <use transform="translate(503.282013 0.5)" xlink:href="#DejaVuSans-53"/>
      <use transform="translate(566.90506 0.5)" xlink:href="#DejaVuSans-41"/>
      <use transform="translate(605.918732 0.5)" xlink:href="#DejaVuSans-41"/>
     </g>
    </g>
    <g id="line2d_8">
     <path d="M 15.12 44.560125 
L 32.72 44.560125 
" style="fill:none;stroke:#55a868;stroke-linecap:round;stroke-width:1.2;"/>
    </g>
    <g id="line2d_9"/>
    <g id="text_3">
     <!-- $\sigma(\mathcal{N}(1,0.5))$ -->
     <g style="fill:#262626;" transform="translate(39.76 47.640125)scale(0.088 -0.088)">
      <use transform="translate(0 0.5)" xlink:href="#DejaVuSans-Oblique-963"/>
      <use transform="translate(63.378906 0.5)" xlink:href="#DejaVuSans-40"/>
      <use transform="translate(102.392578 0.5)" xlink:href="#STIXNonUnicode-Italic-57914"/>
      <use transform="translate(198.09256 0.5)" xlink:href="#DejaVuSans-40"/>
      <use transform="translate(237.106232 0.5)" xlink:href="#DejaVuSans-49"/>
      <use transform="translate(300.729279 0.5)" xlink:href="#DejaVuSans-44"/>
      <use transform="translate(351.99881 0.5)" xlink:href="#DejaVuSans-48"/>
      <use transform="translate(415.621857 0.5)" xlink:href="#DejaVuSans-46"/>
      <use transform="translate(447.408966 0.5)" xlink:href="#DejaVuSans-53"/>
      <use transform="translate(511.032013 0.5)" xlink:href="#DejaVuSans-41"/>
      <use transform="translate(550.045685 0.5)" xlink:href="#DejaVuSans-41"/>
     </g>
    </g>
    <g id="line2d_10">
     <path d="M 15.12 57.476875 
L 32.72 57.476875 
" style="fill:none;stroke:#000000;stroke-dasharray:4.44,1.92;stroke-dashoffset:0;stroke-width:1.2;"/>
    </g>
    <g id="text_4">
     <!-- expected values -->
     <g style="fill:#262626;" transform="translate(39.76 60.556875)scale(0.088 -0.088)">
      <defs>
       <path d="M 56.203125 29.59375 
L 56.203125 25.203125 
L 14.890625 25.203125 
Q 15.484375 15.921875 20.484375 11.0625 
Q 25.484375 6.203125 34.421875 6.203125 
Q 39.59375 6.203125 44.453125 7.46875 
Q 49.3125 8.734375 54.109375 11.28125 
L 54.109375 2.78125 
Q 49.265625 0.734375 44.1875 -0.34375 
Q 39.109375 -1.421875 33.890625 -1.421875 
Q 20.796875 -1.421875 13.15625 6.1875 
Q 5.515625 13.8125 5.515625 26.8125 
Q 5.515625 40.234375 12.765625 48.109375 
Q 20.015625 56 32.328125 56 
Q 43.359375 56 49.78125 48.890625 
Q 56.203125 41.796875 56.203125 29.59375 
z
M 47.21875 32.234375 
Q 47.125 39.59375 43.09375 43.984375 
Q 39.0625 48.390625 32.421875 48.390625 
Q 24.90625 48.390625 20.390625 44.140625 
Q 15.875 39.890625 15.1875 32.171875 
z
" id="DejaVuSans-101"/>
       <path d="M 54.890625 54.6875 
L 35.109375 28.078125 
L 55.90625 0 
L 45.3125 0 
L 29.390625 21.484375 
L 13.484375 0 
L 2.875 0 
L 24.125 28.609375 
L 4.6875 54.6875 
L 15.28125 54.6875 
L 29.78125 35.203125 
L 44.28125 54.6875 
z
" id="DejaVuSans-120"/>
       <path d="M 18.109375 8.203125 
L 18.109375 -20.796875 
L 9.078125 -20.796875 
L 9.078125 54.6875 
L 18.109375 54.6875 
L 18.109375 46.390625 
Q 20.953125 51.265625 25.265625 53.625 
Q 29.59375 56 35.59375 56 
Q 45.5625 56 51.78125 48.09375 
Q 58.015625 40.1875 58.015625 27.296875 
Q 58.015625 14.40625 51.78125 6.484375 
Q 45.5625 -1.421875 35.59375 -1.421875 
Q 29.59375 -1.421875 25.265625 0.953125 
Q 20.953125 3.328125 18.109375 8.203125 
z
M 48.6875 27.296875 
Q 48.6875 37.203125 44.609375 42.84375 
Q 40.53125 48.484375 33.40625 48.484375 
Q 26.265625 48.484375 22.1875 42.84375 
Q 18.109375 37.203125 18.109375 27.296875 
Q 18.109375 17.390625 22.1875 11.75 
Q 26.265625 6.109375 33.40625 6.109375 
Q 40.53125 6.109375 44.609375 11.75 
Q 48.6875 17.390625 48.6875 27.296875 
z
" id="DejaVuSans-112"/>
       <path d="M 48.78125 52.59375 
L 48.78125 44.1875 
Q 44.96875 46.296875 41.140625 47.34375 
Q 37.3125 48.390625 33.40625 48.390625 
Q 24.65625 48.390625 19.8125 42.84375 
Q 14.984375 37.3125 14.984375 27.296875 
Q 14.984375 17.28125 19.8125 11.734375 
Q 24.65625 6.203125 33.40625 6.203125 
Q 37.3125 6.203125 41.140625 7.25 
Q 44.96875 8.296875 48.78125 10.40625 
L 48.78125 2.09375 
Q 45.015625 0.34375 40.984375 -0.53125 
Q 36.96875 -1.421875 32.421875 -1.421875 
Q 20.0625 -1.421875 12.78125 6.34375 
Q 5.515625 14.109375 5.515625 27.296875 
Q 5.515625 40.671875 12.859375 48.328125 
Q 20.21875 56 33.015625 56 
Q 37.15625 56 41.109375 55.140625 
Q 45.0625 54.296875 48.78125 52.59375 
z
" id="DejaVuSans-99"/>
       <path d="M 18.3125 70.21875 
L 18.3125 54.6875 
L 36.8125 54.6875 
L 36.8125 47.703125 
L 18.3125 47.703125 
L 18.3125 18.015625 
Q 18.3125 11.328125 20.140625 9.421875 
Q 21.96875 7.515625 27.59375 7.515625 
L 36.8125 7.515625 
L 36.8125 0 
L 27.59375 0 
Q 17.1875 0 13.234375 3.875 
Q 9.28125 7.765625 9.28125 18.015625 
L 9.28125 47.703125 
L 2.6875 47.703125 
L 2.6875 54.6875 
L 9.28125 54.6875 
L 9.28125 70.21875 
z
" id="DejaVuSans-116"/>
       <path d="M 45.40625 46.390625 
L 45.40625 75.984375 
L 54.390625 75.984375 
L 54.390625 0 
L 45.40625 0 
L 45.40625 8.203125 
Q 42.578125 3.328125 38.25 0.953125 
Q 33.9375 -1.421875 27.875 -1.421875 
Q 17.96875 -1.421875 11.734375 6.484375 
Q 5.515625 14.40625 5.515625 27.296875 
Q 5.515625 40.1875 11.734375 48.09375 
Q 17.96875 56 27.875 56 
Q 33.9375 56 38.25 53.625 
Q 42.578125 51.265625 45.40625 46.390625 
z
M 14.796875 27.296875 
Q 14.796875 17.390625 18.875 11.75 
Q 22.953125 6.109375 30.078125 6.109375 
Q 37.203125 6.109375 41.296875 11.75 
Q 45.40625 17.390625 45.40625 27.296875 
Q 45.40625 37.203125 41.296875 42.84375 
Q 37.203125 48.484375 30.078125 48.484375 
Q 22.953125 48.484375 18.875 42.84375 
Q 14.796875 37.203125 14.796875 27.296875 
z
" id="DejaVuSans-100"/>
       <path id="DejaVuSans-32"/>
       <path d="M 2.984375 54.6875 
L 12.5 54.6875 
L 29.59375 8.796875 
L 46.6875 54.6875 
L 56.203125 54.6875 
L 35.6875 0 
L 23.484375 0 
z
" id="DejaVuSans-118"/>
       <path d="M 34.28125 27.484375 
Q 23.390625 27.484375 19.1875 25 
Q 14.984375 22.515625 14.984375 16.5 
Q 14.984375 11.71875 18.140625 8.90625 
Q 21.296875 6.109375 26.703125 6.109375 
Q 34.1875 6.109375 38.703125 11.40625 
Q 43.21875 16.703125 43.21875 25.484375 
L 43.21875 27.484375 
z
M 52.203125 31.203125 
L 52.203125 0 
L 43.21875 0 
L 43.21875 8.296875 
Q 40.140625 3.328125 35.546875 0.953125 
Q 30.953125 -1.421875 24.3125 -1.421875 
Q 15.921875 -1.421875 10.953125 3.296875 
Q 6 8.015625 6 15.921875 
Q 6 25.140625 12.171875 29.828125 
Q 18.359375 34.515625 30.609375 34.515625 
L 43.21875 34.515625 
L 43.21875 35.40625 
Q 43.21875 41.609375 39.140625 45 
Q 35.0625 48.390625 27.6875 48.390625 
Q 23 48.390625 18.546875 47.265625 
Q 14.109375 46.140625 10.015625 43.890625 
L 10.015625 52.203125 
Q 14.9375 54.109375 19.578125 55.046875 
Q 24.21875 56 28.609375 56 
Q 40.484375 56 46.34375 49.84375 
Q 52.203125 43.703125 52.203125 31.203125 
z
" id="DejaVuSans-97"/>
       <path d="M 9.421875 75.984375 
L 18.40625 75.984375 
L 18.40625 0 
L 9.421875 0 
z
" id="DejaVuSans-108"/>
       <path d="M 8.5 21.578125 
L 8.5 54.6875 
L 17.484375 54.6875 
L 17.484375 21.921875 
Q 17.484375 14.15625 20.5 10.265625 
Q 23.53125 6.390625 29.59375 6.390625 
Q 36.859375 6.390625 41.078125 11.03125 
Q 45.3125 15.671875 45.3125 23.6875 
L 45.3125 54.6875 
L 54.296875 54.6875 
L 54.296875 0 
L 45.3125 0 
L 45.3125 8.40625 
Q 42.046875 3.421875 37.71875 1 
Q 33.40625 -1.421875 27.6875 -1.421875 
Q 18.265625 -1.421875 13.375 4.4375 
Q 8.5 10.296875 8.5 21.578125 
z
M 31.109375 56 
z
" id="DejaVuSans-117"/>
       <path d="M 44.28125 53.078125 
L 44.28125 44.578125 
Q 40.484375 46.53125 36.375 47.5 
Q 32.28125 48.484375 27.875 48.484375 
Q 21.1875 48.484375 17.84375 46.4375 
Q 14.5 44.390625 14.5 40.28125 
Q 14.5 37.15625 16.890625 35.375 
Q 19.28125 33.59375 26.515625 31.984375 
L 29.59375 31.296875 
Q 39.15625 29.25 43.1875 25.515625 
Q 47.21875 21.78125 47.21875 15.09375 
Q 47.21875 7.46875 41.1875 3.015625 
Q 35.15625 -1.421875 24.609375 -1.421875 
Q 20.21875 -1.421875 15.453125 -0.5625 
Q 10.6875 0.296875 5.421875 2 
L 5.421875 11.28125 
Q 10.40625 8.6875 15.234375 7.390625 
Q 20.0625 6.109375 24.8125 6.109375 
Q 31.15625 6.109375 34.5625 8.28125 
Q 37.984375 10.453125 37.984375 14.40625 
Q 37.984375 18.0625 35.515625 20.015625 
Q 33.0625 21.96875 24.703125 23.78125 
L 21.578125 24.515625 
Q 13.234375 26.265625 9.515625 29.90625 
Q 5.8125 33.546875 5.8125 39.890625 
Q 5.8125 47.609375 11.28125 51.796875 
Q 16.75 56 26.8125 56 
Q 31.78125 56 36.171875 55.265625 
Q 40.578125 54.546875 44.28125 53.078125 
z
" id="DejaVuSans-115"/>
      </defs>
      <use xlink:href="#DejaVuSans-101"/>
      <use x="59.773438" xlink:href="#DejaVuSans-120"/>
      <use x="118.953125" xlink:href="#DejaVuSans-112"/>
      <use x="182.429688" xlink:href="#DejaVuSans-101"/>
      <use x="243.953125" xlink:href="#DejaVuSans-99"/>
      <use x="298.933594" xlink:href="#DejaVuSans-116"/>
      <use x="338.142578" xlink:href="#DejaVuSans-101"/>
      <use x="399.666016" xlink:href="#DejaVuSans-100"/>
      <use x="463.142578" xlink:href="#DejaVuSans-32"/>
      <use x="494.929688" xlink:href="#DejaVuSans-118"/>
      <use x="554.109375" xlink:href="#DejaVuSans-97"/>
      <use x="615.388672" xlink:href="#DejaVuSans-108"/>
      <use x="643.171875" xlink:href="#DejaVuSans-117"/>
      <use x="706.550781" xlink:href="#DejaVuSans-101"/>
      <use x="768.074219" xlink:href="#DejaVuSans-115"/>
     </g>
    </g>
    <g id="line2d_11">
     <path d="M 15.12 70.393625 
L 32.72 70.393625 
" style="fill:none;stroke:#000000;stroke-dasharray:7.68,1.92,1.2,1.92;stroke-dashoffset:0;stroke-width:1.2;"/>
    </g>
    <g id="text_5">
     <!-- medians -->
     <g style="fill:#262626;" transform="translate(39.76 73.473625)scale(0.088 -0.088)">
      <defs>
       <path d="M 52 44.1875 
Q 55.375 50.25 60.0625 53.125 
Q 64.75 56 71.09375 56 
Q 79.640625 56 84.28125 50.015625 
Q 88.921875 44.046875 88.921875 33.015625 
L 88.921875 0 
L 79.890625 0 
L 79.890625 32.71875 
Q 79.890625 40.578125 77.09375 44.375 
Q 74.3125 48.1875 68.609375 48.1875 
Q 61.625 48.1875 57.5625 43.546875 
Q 53.515625 38.921875 53.515625 30.90625 
L 53.515625 0 
L 44.484375 0 
L 44.484375 32.71875 
Q 44.484375 40.625 41.703125 44.40625 
Q 38.921875 48.1875 33.109375 48.1875 
Q 26.21875 48.1875 22.15625 43.53125 
Q 18.109375 38.875 18.109375 30.90625 
L 18.109375 0 
L 9.078125 0 
L 9.078125 54.6875 
L 18.109375 54.6875 
L 18.109375 46.1875 
Q 21.1875 51.21875 25.484375 53.609375 
Q 29.78125 56 35.6875 56 
Q 41.65625 56 45.828125 52.96875 
Q 50 49.953125 52 44.1875 
z
" id="DejaVuSans-109"/>
       <path d="M 9.421875 54.6875 
L 18.40625 54.6875 
L 18.40625 0 
L 9.421875 0 
z
M 9.421875 75.984375 
L 18.40625 75.984375 
L 18.40625 64.59375 
L 9.421875 64.59375 
z
" id="DejaVuSans-105"/>
       <path d="M 54.890625 33.015625 
L 54.890625 0 
L 45.90625 0 
L 45.90625 32.71875 
Q 45.90625 40.484375 42.875 44.328125 
Q 39.84375 48.1875 33.796875 48.1875 
Q 26.515625 48.1875 22.3125 43.546875 
Q 18.109375 38.921875 18.109375 30.90625 
L 18.109375 0 
L 9.078125 0 
L 9.078125 54.6875 
L 18.109375 54.6875 
L 18.109375 46.1875 
Q 21.34375 51.125 25.703125 53.5625 
Q 30.078125 56 35.796875 56 
Q 45.21875 56 50.046875 50.171875 
Q 54.890625 44.34375 54.890625 33.015625 
z
" id="DejaVuSans-110"/>
      </defs>
      <use xlink:href="#DejaVuSans-109"/>
      <use x="97.412109" xlink:href="#DejaVuSans-101"/>
      <use x="158.935547" xlink:href="#DejaVuSans-100"/>
      <use x="222.412109" xlink:href="#DejaVuSans-105"/>
      <use x="250.195312" xlink:href="#DejaVuSans-97"/>
      <use x="311.474609" xlink:href="#DejaVuSans-110"/>
      <use x="374.853516" xlink:href="#DejaVuSans-115"/>
     </g>
    </g>
   </g>
  </g>
 </g>
 <defs>
  <clipPath id="p7fee64f626">
   <rect height="163.08" width="390.6" x="7.2" y="7.2"/>
  </clipPath>
 </defs>
</svg>
