<?xml version="1.0" encoding="UTF-8" standalone="no"?>
<!-- Created with Inkscape (http://www.inkscape.org/) -->

<svg
   xmlns:dc="http://purl.org/dc/elements/1.1/"
   xmlns:cc="http://creativecommons.org/ns#"
   xmlns:rdf="http://www.w3.org/1999/02/22-rdf-syntax-ns#"
   xmlns:svg="http://www.w3.org/2000/svg"
   xmlns="http://www.w3.org/2000/svg"
   xmlns:sodipodi="http://sodipodi.sourceforge.net/DTD/sodipodi-0.dtd"
   xmlns:inkscape="http://www.inkscape.org/namespaces/inkscape"
   width="1177.5284"
   height="483.78955"
   id="svg2"
   version="1.1"
   inkscape:version="0.48.5 r10040"
   sodipodi:docname="error_rate_scenarios.svg"
   inkscape:export-filename="/home/slaweet/git/presentations/its16-target-difficulty/img/error_rate_scenarios.png"
   inkscape:export-xdpi="90"
   inkscape:export-ydpi="90">
  <defs
     id="defs4" />
  <sodipodi:namedview
     id="base"
     pagecolor="#ffffff"
     bordercolor="#666666"
     borderopacity="1.0"
     inkscape:pageopacity="0.0"
     inkscape:pageshadow="2"
     inkscape:zoom="1.4"
     inkscape:cx="505.94788"
     inkscape:cy="369.44516"
     inkscape:document-units="px"
     inkscape:current-layer="layer1"
     showgrid="false"
     fit-margin-top="0"
     fit-margin-left="0"
     fit-margin-right="0"
     fit-margin-bottom="0"
     inkscape:window-width="1596"
     inkscape:window-height="833"
     inkscape:window-x="0"
     inkscape:window-y="27"
     inkscape:window-maximized="0" />
  <metadata
     id="metadata7">
    <rdf:RDF>
      <cc:Work
         rdf:about="">
        <dc:format>image/svg+xml</dc:format>
        <dc:type
           rdf:resource="http://purl.org/dc/dcmitype/StillImage" />
        <dc:title></dc:title>
      </cc:Work>
    </rdf:RDF>
  </metadata>
  <g
     inkscape:label="Layer 1"
     inkscape:groupmode="layer"
     id="layer1"
     transform="translate(139.18527,8.2265453)">
    <g
       id="g3539">
      <text
         sodipodi:linespacing="125%"
         id="text3902"
         y="20.933611"
         x="-142.85715"
         style="font-size:40px;font-style:normal;font-weight:normal;line-height:125%;letter-spacing:0px;word-spacing:0px;fill:#000000;fill-opacity:1;stroke:none;font-family:Sans"
         xml:space="preserve"><tspan
           style="font-weight:bold;-inkscape-font-specification:Sans Bold"
           y="20.933611"
           x="-142.85715"
           id="tspan3904"
           sodipodi:role="line" /></text>
      <text
         sodipodi:linespacing="125%"
         id="text3906"
         y="35.021221"
         x="40.000011"
         style="font-size:40px;font-style:normal;font-weight:normal;line-height:125%;letter-spacing:0px;word-spacing:0px;fill:#000000;fill-opacity:1;stroke:none;font-family:Sans"
         xml:space="preserve"><tspan
           y="35.021221"
           x="40.000011"
           id="tspan3908"
           sodipodi:role="line"
           style="font-size:28px">Scenario A: 10% errors</tspan></text>
      <text
         sodipodi:linespacing="1000%"
         id="text3906-0"
         y="146.0737"
         x="37.899006"
         style="font-size:40px;font-style:normal;font-weight:normal;line-height:1000%;letter-spacing:0px;word-spacing:0px;fill:#000000;fill-opacity:1;stroke:none;font-family:Sans;-inkscape-font-specification:Sans"
         xml:space="preserve"><tspan
           y="146.0737"
           x="37.899006"
           id="tspan3908-0"
           sodipodi:role="line"
           style="font-size:28px;line-height:1000%">Scenario B: 50% errors</tspan></text>
      <g
         transform="translate(3.1057175e-7,-3.1953125)"
         id="g4246">
        <path
           sodipodi:type="arc"
           style="fill:#00dd00;fill-opacity:1;stroke:#000000;stroke-width:4;stroke-linecap:round;stroke-linejoin:miter;stroke-miterlimit:4;stroke-opacity:1;stroke-dasharray:none"
           id="path2985-00"
           sodipodi:cx="167.14285"
           sodipodi:cy="393.79074"
           sodipodi:rx="38.57143"
           sodipodi:ry="38.57143"
           d="m 205.71428,393.79074 c 0,21.30241 -17.26901,38.57143 -38.57143,38.57143 -21.30241,0 -38.57143,-17.26902 -38.57143,-38.57143 0,-21.30241 17.26902,-38.57143 38.57143,-38.57143 21.30242,0 38.57143,17.26902 38.57143,38.57143 z"
           transform="matrix(0.41620732,0,0,0.41620732,-14.468447,19.892166)" />
        <path
           sodipodi:type="arc"
           style="fill:#fb3d0a;fill-opacity:1;stroke:#000000;stroke-width:4;stroke-linecap:round;stroke-linejoin:miter;stroke-miterlimit:4;stroke-opacity:1;stroke-dasharray:none"
           id="path2985-0-42"
           sodipodi:cx="167.14285"
           sodipodi:cy="393.79074"
           sodipodi:rx="38.57143"
           sodipodi:ry="38.57143"
           d="m 205.71428,393.79074 c 0,21.30241 -17.26901,38.57143 -38.57143,38.57143 -21.30241,0 -38.57143,-17.26902 -38.57143,-38.57143 0,-21.30241 17.26902,-38.57143 38.57143,-38.57143 21.30242,0 38.57143,17.26902 38.57143,38.57143 z"
           transform="matrix(0.41620732,0,0,0.41620732,31.26481,19.892166)" />
        <path
           sodipodi:type="arc"
           style="fill:#fb3d0a;fill-opacity:1;stroke:#000000;stroke-width:4;stroke-linecap:round;stroke-linejoin:miter;stroke-miterlimit:4;stroke-opacity:1;stroke-dasharray:none"
           id="path2985-0-9-4"
           sodipodi:cx="167.14285"
           sodipodi:cy="393.79074"
           sodipodi:rx="38.57143"
           sodipodi:ry="38.57143"
           d="m 205.71428,393.79074 c 0,21.30241 -17.26901,38.57143 -38.57143,38.57143 -21.30241,0 -38.57143,-17.26902 -38.57143,-38.57143 0,-21.30241 17.26902,-38.57143 38.57143,-38.57143 21.30242,0 38.57143,17.26902 38.57143,38.57143 z"
           transform="matrix(0.41620732,0,0,0.41620732,397.13081,19.892166)" />
        <path
           sodipodi:type="arc"
           style="fill:#00dd00;fill-opacity:1;stroke:#000000;stroke-width:4;stroke-linecap:round;stroke-linejoin:miter;stroke-miterlimit:4;stroke-opacity:1;stroke-dasharray:none"
           id="path2985-0-2-7"
           sodipodi:cx="167.14285"
           sodipodi:cy="393.79074"
           sodipodi:rx="38.57143"
           sodipodi:ry="38.57143"
           d="m 205.71428,393.79074 c 0,21.30241 -17.26901,38.57143 -38.57143,38.57143 -21.30241,0 -38.57143,-17.26902 -38.57143,-38.57143 0,-21.30241 17.26902,-38.57143 38.57143,-38.57143 21.30242,0 38.57143,17.26902 38.57143,38.57143 z"
           transform="matrix(0.41620732,0,0,0.41620732,351.39759,19.892166)" />
        <path
           sodipodi:type="arc"
           style="fill:#fb3d0a;fill-opacity:1;stroke:#000000;stroke-width:4;stroke-linecap:round;stroke-linejoin:miter;stroke-miterlimit:4;stroke-opacity:1;stroke-dasharray:none"
           id="path2985-0-6-7"
           sodipodi:cx="167.14285"
           sodipodi:cy="393.79074"
           sodipodi:rx="38.57143"
           sodipodi:ry="38.57143"
           d="m 205.71428,393.79074 c 0,21.30241 -17.26901,38.57143 -38.57143,38.57143 -21.30241,0 -38.57143,-17.26902 -38.57143,-38.57143 0,-21.30241 17.26902,-38.57143 38.57143,-38.57143 21.30242,0 38.57143,17.26902 38.57143,38.57143 z"
           transform="matrix(0.41620732,0,0,0.41620732,305.66432,19.892166)" />
        <path
           sodipodi:type="arc"
           style="fill:#00dd00;fill-opacity:1;stroke:#000000;stroke-width:4;stroke-linecap:round;stroke-linejoin:miter;stroke-miterlimit:4;stroke-opacity:1;stroke-dasharray:none"
           id="path2985-0-8-3"
           sodipodi:cx="167.14285"
           sodipodi:cy="393.79074"
           sodipodi:rx="38.57143"
           sodipodi:ry="38.57143"
           d="m 205.71428,393.79074 c 0,21.30241 -17.26901,38.57143 -38.57143,38.57143 -21.30241,0 -38.57143,-17.26902 -38.57143,-38.57143 0,-21.30241 17.26902,-38.57143 38.57143,-38.57143 21.30242,0 38.57143,17.26902 38.57143,38.57143 z"
           transform="matrix(0.41620732,0,0,0.41620732,259.93105,19.892166)" />
        <path
           sodipodi:type="arc"
           style="fill:#fb3d0a;fill-opacity:1;stroke:#000000;stroke-width:4;stroke-linecap:round;stroke-linejoin:miter;stroke-miterlimit:4;stroke-opacity:1;stroke-dasharray:none"
           id="path2985-0-4-5"
           sodipodi:cx="167.14285"
           sodipodi:cy="393.79074"
           sodipodi:rx="38.57143"
           sodipodi:ry="38.57143"
           d="m 205.71428,393.79074 c 0,21.30241 -17.26901,38.57143 -38.57143,38.57143 -21.30241,0 -38.57143,-17.26902 -38.57143,-38.57143 0,-21.30241 17.26902,-38.57143 38.57143,-38.57143 21.30242,0 38.57143,17.26902 38.57143,38.57143 z"
           transform="matrix(0.41620732,0,0,0.41620732,214.19783,19.892166)" />
        <path
           sodipodi:type="arc"
           style="fill:#00dd00;fill-opacity:1;stroke:#000000;stroke-width:4;stroke-linecap:round;stroke-linejoin:miter;stroke-miterlimit:4;stroke-opacity:1;stroke-dasharray:none"
           id="path2985-0-64-2"
           sodipodi:cx="167.14285"
           sodipodi:cy="393.79074"
           sodipodi:rx="38.57143"
           sodipodi:ry="38.57143"
           d="m 205.71428,393.79074 c 0,21.30241 -17.26901,38.57143 -38.57143,38.57143 -21.30241,0 -38.57143,-17.26902 -38.57143,-38.57143 0,-21.30241 17.26902,-38.57143 38.57143,-38.57143 21.30242,0 38.57143,17.26902 38.57143,38.57143 z"
           transform="matrix(0.41620732,0,0,0.41620732,168.46456,19.892166)" />
        <path
           sodipodi:type="arc"
           style="fill:#fb3d0a;fill-opacity:1;stroke:#000000;stroke-width:4;stroke-linecap:round;stroke-linejoin:miter;stroke-miterlimit:4;stroke-opacity:1;stroke-dasharray:none"
           id="path2985-0-1-9"
           sodipodi:cx="167.14285"
           sodipodi:cy="393.79074"
           sodipodi:rx="38.57143"
           sodipodi:ry="38.57143"
           d="m 205.71428,393.79074 c 0,21.30241 -17.26901,38.57143 -38.57143,38.57143 -21.30241,0 -38.57143,-17.26902 -38.57143,-38.57143 0,-21.30241 17.26902,-38.57143 38.57143,-38.57143 21.30242,0 38.57143,17.26902 38.57143,38.57143 z"
           transform="matrix(0.41620732,0,0,0.41620732,122.73131,19.892166)" />
        <path
           sodipodi:type="arc"
           style="fill:#00dd00;fill-opacity:1;stroke:#000000;stroke-width:4;stroke-linecap:round;stroke-linejoin:miter;stroke-miterlimit:4;stroke-opacity:1;stroke-dasharray:none"
           id="path2985-0-17-5"
           sodipodi:cx="167.14285"
           sodipodi:cy="393.79074"
           sodipodi:rx="38.57143"
           sodipodi:ry="38.57143"
           d="m 205.71428,393.79074 c 0,21.30241 -17.26901,38.57143 -38.57143,38.57143 -21.30241,0 -38.57143,-17.26902 -38.57143,-38.57143 0,-21.30241 17.26902,-38.57143 38.57143,-38.57143 21.30242,0 38.57143,17.26902 38.57143,38.57143 z"
           transform="matrix(0.41620732,0,0,0.41620732,76.998062,19.892166)" />
      </g>
      <g
         transform="translate(3.1057175e-7,-1.0651245)"
         id="g4261">
        <path
           sodipodi:type="arc"
           style="fill:#00dd00;fill-opacity:1;stroke:#000000;stroke-width:4;stroke-linecap:round;stroke-linejoin:miter;stroke-miterlimit:4;stroke-opacity:1;stroke-dasharray:none"
           id="path2985"
           sodipodi:cx="167.14285"
           sodipodi:cy="393.79074"
           sodipodi:rx="38.57143"
           sodipodi:ry="38.57143"
           d="m 205.71428,393.79074 c 0,21.30241 -17.26901,38.57143 -38.57143,38.57143 -21.30241,0 -38.57143,-17.26902 -38.57143,-38.57143 0,-21.30241 17.26902,-38.57143 38.57143,-38.57143 21.30242,0 38.57143,17.26902 38.57143,38.57143 z"
           transform="matrix(0.41620732,0,0,0.41620732,-14.468447,-96.861936)" />
        <path
           sodipodi:type="arc"
           style="fill:#00dd00;fill-opacity:1;stroke:#000000;stroke-width:4;stroke-linecap:round;stroke-linejoin:miter;stroke-miterlimit:4;stroke-opacity:1;stroke-dasharray:none"
           id="path2985-0"
           sodipodi:cx="167.14285"
           sodipodi:cy="393.79074"
           sodipodi:rx="38.57143"
           sodipodi:ry="38.57143"
           d="m 205.71428,393.79074 c 0,21.30241 -17.26901,38.57143 -38.57143,38.57143 -21.30241,0 -38.57143,-17.26902 -38.57143,-38.57143 0,-21.30241 17.26902,-38.57143 38.57143,-38.57143 21.30242,0 38.57143,17.26902 38.57143,38.57143 z"
           transform="matrix(0.41620732,0,0,0.41620732,31.548669,-96.861936)" />
        <path
           sodipodi:type="arc"
           style="fill:#00dd00;fill-opacity:1;stroke:#000000;stroke-width:4;stroke-linecap:round;stroke-linejoin:miter;stroke-miterlimit:4;stroke-opacity:1;stroke-dasharray:none"
           id="path2985-0-9"
           sodipodi:cx="167.14285"
           sodipodi:cy="393.79074"
           sodipodi:rx="38.57143"
           sodipodi:ry="38.57143"
           d="m 205.71428,393.79074 c 0,21.30241 -17.26901,38.57143 -38.57143,38.57143 -21.30241,0 -38.57143,-17.26902 -38.57143,-38.57143 0,-21.30241 17.26902,-38.57143 38.57143,-38.57143 21.30242,0 38.57143,17.26902 38.57143,38.57143 z"
           transform="matrix(0.41620732,0,0,0.41620732,399.68562,-96.861936)" />
        <path
           sodipodi:type="arc"
           style="fill:#00dd00;fill-opacity:1;stroke:#000000;stroke-width:4;stroke-linecap:round;stroke-linejoin:miter;stroke-miterlimit:4;stroke-opacity:1;stroke-dasharray:none"
           id="path2985-0-2"
           sodipodi:cx="167.14285"
           sodipodi:cy="393.79074"
           sodipodi:rx="38.57143"
           sodipodi:ry="38.57143"
           d="m 205.71428,393.79074 c 0,21.30241 -17.26901,38.57143 -38.57143,38.57143 -21.30241,0 -38.57143,-17.26902 -38.57143,-38.57143 0,-21.30241 17.26902,-38.57143 38.57143,-38.57143 21.30242,0 38.57143,17.26902 38.57143,38.57143 z"
           transform="matrix(0.41620732,0,0,0.41620732,353.66849,-96.861936)" />
        <path
           sodipodi:type="arc"
           style="fill:#00dd00;fill-opacity:1;stroke:#000000;stroke-width:4;stroke-linecap:round;stroke-linejoin:miter;stroke-miterlimit:4;stroke-opacity:1;stroke-dasharray:none"
           id="path2985-0-6"
           sodipodi:cx="167.14285"
           sodipodi:cy="393.79074"
           sodipodi:rx="38.57143"
           sodipodi:ry="38.57143"
           d="m 205.71428,393.79074 c 0,21.30241 -17.26901,38.57143 -38.57143,38.57143 -21.30241,0 -38.57143,-17.26902 -38.57143,-38.57143 0,-21.30241 17.26902,-38.57143 38.57143,-38.57143 21.30242,0 38.57143,17.26902 38.57143,38.57143 z"
           transform="matrix(0.41620732,0,0,0.41620732,307.65138,-96.861936)" />
        <path
           sodipodi:type="arc"
           style="fill:#00dd00;fill-opacity:1;stroke:#000000;stroke-width:4;stroke-linecap:round;stroke-linejoin:miter;stroke-miterlimit:4;stroke-opacity:1;stroke-dasharray:none"
           id="path2985-0-8"
           sodipodi:cx="167.14285"
           sodipodi:cy="393.79074"
           sodipodi:rx="38.57143"
           sodipodi:ry="38.57143"
           d="m 205.71428,393.79074 c 0,21.30241 -17.26901,38.57143 -38.57143,38.57143 -21.30241,0 -38.57143,-17.26902 -38.57143,-38.57143 0,-21.30241 17.26902,-38.57143 38.57143,-38.57143 21.30242,0 38.57143,17.26902 38.57143,38.57143 z"
           transform="matrix(0.41620732,0,0,0.41620732,261.63427,-96.861936)" />
        <path
           sodipodi:type="arc"
           style="fill:#fb3d0a;fill-opacity:1;stroke:#000000;stroke-width:4;stroke-linecap:round;stroke-linejoin:miter;stroke-miterlimit:4;stroke-opacity:1;stroke-dasharray:none"
           id="path2985-0-4"
           sodipodi:cx="167.14285"
           sodipodi:cy="393.79074"
           sodipodi:rx="38.57143"
           sodipodi:ry="38.57143"
           d="m 205.71428,393.79074 c 0,21.30241 -17.26901,38.57143 -38.57143,38.57143 -21.30241,0 -38.57143,-17.26902 -38.57143,-38.57143 0,-21.30241 17.26902,-38.57143 38.57143,-38.57143 21.30242,0 38.57143,17.26902 38.57143,38.57143 z"
           transform="matrix(0.41620732,0,0,0.41620732,215.61714,-96.861936)" />
        <path
           sodipodi:type="arc"
           style="fill:#00dd00;fill-opacity:1;stroke:#000000;stroke-width:4;stroke-linecap:round;stroke-linejoin:miter;stroke-miterlimit:4;stroke-opacity:1;stroke-dasharray:none"
           id="path2985-0-64"
           sodipodi:cx="167.14285"
           sodipodi:cy="393.79074"
           sodipodi:rx="38.57143"
           sodipodi:ry="38.57143"
           d="m 205.71428,393.79074 c 0,21.30241 -17.26901,38.57143 -38.57143,38.57143 -21.30241,0 -38.57143,-17.26902 -38.57143,-38.57143 0,-21.30241 17.26902,-38.57143 38.57143,-38.57143 21.30242,0 38.57143,17.26902 38.57143,38.57143 z"
           transform="matrix(0.41620732,0,0,0.41620732,169.60001,-96.861936)" />
        <path
           sodipodi:type="arc"
           style="fill:#00dd00;fill-opacity:1;stroke:#000000;stroke-width:4;stroke-linecap:round;stroke-linejoin:miter;stroke-miterlimit:4;stroke-opacity:1;stroke-dasharray:none"
           id="path2985-0-1"
           sodipodi:cx="167.14285"
           sodipodi:cy="393.79074"
           sodipodi:rx="38.57143"
           sodipodi:ry="38.57143"
           d="m 205.71428,393.79074 c 0,21.30241 -17.26901,38.57143 -38.57143,38.57143 -21.30241,0 -38.57143,-17.26902 -38.57143,-38.57143 0,-21.30241 17.26902,-38.57143 38.57143,-38.57143 21.30242,0 38.57143,17.26902 38.57143,38.57143 z"
           transform="matrix(0.41620732,0,0,0.41620732,123.58289,-96.861936)" />
        <path
           sodipodi:type="arc"
           style="fill:#00dd00;fill-opacity:1;stroke:#000000;stroke-width:4;stroke-linecap:round;stroke-linejoin:miter;stroke-miterlimit:4;stroke-opacity:1;stroke-dasharray:none"
           id="path2985-0-17"
           sodipodi:cx="167.14285"
           sodipodi:cy="393.79074"
           sodipodi:rx="38.57143"
           sodipodi:ry="38.57143"
           d="m 205.71428,393.79074 c 0,21.30241 -17.26901,38.57143 -38.57143,38.57143 -21.30241,0 -38.57143,-17.26902 -38.57143,-38.57143 0,-21.30241 17.26902,-38.57143 38.57143,-38.57143 21.30242,0 38.57143,17.26902 38.57143,38.57143 z"
           transform="matrix(0.41620732,0,0,0.41620732,77.565796,-96.861936)" />
      </g>
    </g>
    <path
       inkscape:connector-curvature="0"
       d="m 65.754462,176.99292 c 0.238991,-0.32219 0.355916,-0.742 0.321867,-1.16328 -0.03534,-0.42127 -0.217148,-0.80879 -0.504322,-1.07594 l -2.448369,-2.26343 c -0.591052,-0.54604 -1.457714,-0.44182 -1.935696,0.23266 l -7.497367,10.58398 -3.556591,-3.42525 c -0.67714,-0.65246 -1.676789,-0.60329 -2.303176,0.11082 l -1.880445,2.14748 c -0.27047,0.30898 -0.415664,0.73319 -0.402172,1.16988 0.01413,0.43742 0.186952,0.84549 0.476696,1.13172 l 7.136311,7.02002 c 0.277538,0.27376 0.638594,0.40953 1.003504,0.37651 0.36491,-0.0323 0.704123,-0.22899 0.941186,-0.54825 l 10.648574,-14.29692 z"
       id="path3" />
    <path
       inkscape:connector-curvature="0"
       d="m 156.46874,179.13577 c 0.23899,-0.32219 0.35592,-0.742 0.32187,-1.16328 -0.0353,-0.42127 -0.21715,-0.80879 -0.50432,-1.07594 l -2.44837,-2.26343 c -0.59105,-0.54604 -1.45771,-0.44182 -1.9357,0.23266 l -7.49736,10.58398 -3.55659,-3.42525 c -0.67714,-0.65246 -1.67679,-0.60329 -2.30318,0.11082 l -1.88045,2.14748 c -0.27047,0.30898 -0.41566,0.73319 -0.40217,1.16988 0.0141,0.43742 0.18695,0.84549 0.4767,1.13172 l 7.13631,7.02002 c 0.27754,0.27376 0.63859,0.40953 1.0035,0.37651 0.36491,-0.0323 0.70413,-0.22899 0.94119,-0.54825 l 10.64857,-14.29692 z"
       id="path3-2" />
    <path
       inkscape:connector-curvature="0"
       d="m 247.89731,179.13577 c 0.23899,-0.32219 0.35592,-0.742 0.32187,-1.16328 -0.0353,-0.42127 -0.21715,-0.80879 -0.50432,-1.07594 l -2.44837,-2.26343 c -0.59105,-0.54604 -1.45771,-0.44182 -1.9357,0.23266 l -7.49736,10.58398 -3.55659,-3.42525 c -0.67714,-0.65246 -1.67679,-0.60329 -2.30318,0.11082 l -1.88045,2.14748 c -0.27047,0.30898 -0.41566,0.73319 -0.40217,1.16988 0.0141,0.43742 0.18695,0.84549 0.4767,1.13172 l 7.13631,7.02002 c 0.27754,0.27376 0.63859,0.40953 1.0035,0.37651 0.36491,-0.0323 0.70413,-0.22899 0.94119,-0.54825 l 10.64857,-14.29692 z"
       id="path3-2-7" />
    <path
       inkscape:connector-curvature="0"
       d="m 339.32589,177.7072 c 0.23899,-0.32219 0.35592,-0.742 0.32187,-1.16328 -0.0353,-0.42127 -0.21715,-0.80879 -0.50432,-1.07594 l -2.44837,-2.26343 c -0.59105,-0.54604 -1.45771,-0.44182 -1.9357,0.23266 l -7.49736,10.58398 -3.55659,-3.42525 c -0.67714,-0.65246 -1.67679,-0.60329 -2.30318,0.11082 l -1.88045,2.14748 c -0.27047,0.30898 -0.41566,0.73319 -0.40217,1.16988 0.0141,0.43742 0.18695,0.84549 0.4767,1.13172 l 7.13631,7.02002 c 0.27754,0.27376 0.63859,0.40953 1.0035,0.37651 0.36491,-0.0323 0.70413,-0.22899 0.94119,-0.54825 l 10.64857,-14.29692 z"
       id="path3-2-0" />
    <path
       inkscape:connector-curvature="0"
       d="m 430.04018,176.27862 c 0.23899,-0.32219 0.35592,-0.742 0.32187,-1.16328 -0.0353,-0.42127 -0.21715,-0.80879 -0.50432,-1.07594 l -2.44837,-2.26343 c -0.59105,-0.54604 -1.45771,-0.44182 -1.9357,0.23266 l -7.49736,10.58398 -3.55659,-3.42525 c -0.67714,-0.65246 -1.67679,-0.60329 -2.30318,0.11082 l -1.88045,2.14748 c -0.27047,0.30898 -0.41566,0.73319 -0.40217,1.16988 0.0141,0.43742 0.18695,0.84549 0.4767,1.13172 l 7.13631,7.02002 c 0.27754,0.27376 0.63859,0.40953 1.0035,0.37651 0.36491,-0.0323 0.70413,-0.22899 0.94119,-0.54825 l 10.64857,-14.29692 z"
       id="path3-2-4" />
    <path
       inkscape:connector-curvature="0"
       d="m 65.754459,60.564339 c 0.23899,-0.32219 0.35592,-0.742 0.32187,-1.16328 -0.0353,-0.42127 -0.21715,-0.80879 -0.50432,-1.07594 l -2.44837,-2.26343 c -0.59105,-0.54604 -1.45771,-0.44182 -1.9357,0.23266 l -7.49736,10.58398 -3.55659,-3.42525 c -0.67714,-0.65246 -1.67679,-0.60329 -2.30318,0.11082 l -1.88045,2.14748 c -0.27047,0.30898 -0.41566,0.73319 -0.40217,1.16988 0.0141,0.43742 0.18695,0.84549 0.4767,1.13172 l 7.13631,7.02002 c 0.27754,0.27376 0.63859,0.40953 1.0035,0.37651 0.36491,-0.0323 0.70413,-0.22899 0.94119,-0.54825 l 10.64857,-14.29692 z"
       id="path3-2-02" />
    <path
       inkscape:connector-curvature="0"
       d="m 111.46875,61.99291 c 0.23899,-0.32219 0.35592,-0.742 0.32187,-1.16328 -0.0353,-0.42127 -0.21715,-0.80879 -0.50432,-1.07594 l -2.44837,-2.26343 c -0.59105,-0.54604 -1.45771,-0.44182 -1.9357,0.23266 l -7.497365,10.58398 -3.55659,-3.42525 c -0.67714,-0.65246 -1.67679,-0.60329 -2.30318,0.11082 l -1.88045,2.14748 c -0.27047,0.30898 -0.41566,0.73319 -0.40217,1.16988 0.0141,0.43742 0.18695,0.84549 0.4767,1.13172 l 7.13631,7.02002 c 0.27754,0.27376 0.63859,0.40953 1.0035,0.37651 0.364915,-0.0323 0.704135,-0.22899 0.941195,-0.54825 l 10.64857,-14.29692 z"
       id="path3-2-025" />
    <path
       inkscape:connector-curvature="0"
       d="m 157.89732,61.99291 c 0.23899,-0.32219 0.35592,-0.742 0.32187,-1.16328 -0.0353,-0.42127 -0.21715,-0.80879 -0.50432,-1.07594 l -2.44837,-2.26343 c -0.59105,-0.54604 -1.45771,-0.44182 -1.9357,0.23266 l -7.49736,10.58398 -3.55659,-3.42525 c -0.67714,-0.65246 -1.67679,-0.60329 -2.30318,0.11082 l -1.88045,2.14748 c -0.27047,0.30898 -0.41566,0.73319 -0.40217,1.16988 0.0141,0.43742 0.18695,0.84549 0.4767,1.13172 l 7.13631,7.02002 c 0.27754,0.27376 0.63859,0.40953 1.0035,0.37651 0.36491,-0.0323 0.70413,-0.22899 0.94119,-0.54825 l 10.64857,-14.29692 z"
       id="path3-2-9" />
    <path
       inkscape:connector-curvature="0"
       d="m 204.32588,62.707196 c 0.23899,-0.32219 0.35592,-0.742 0.32187,-1.16328 -0.0353,-0.42127 -0.21715,-0.80879 -0.50432,-1.07594 l -2.44837,-2.26343 c -0.59105,-0.54604 -1.45771,-0.44182 -1.9357,0.23266 l -7.49736,10.58398 -3.55659,-3.42525 c -0.67714,-0.65246 -1.67679,-0.60329 -2.30318,0.11082 l -1.88045,2.14748 c -0.27047,0.30898 -0.41566,0.73319 -0.40217,1.16988 0.0141,0.43742 0.18695,0.84549 0.4767,1.13172 l 7.13631,7.02002 c 0.27754,0.27376 0.63859,0.40953 1.0035,0.37651 0.36491,-0.0323 0.70413,-0.22899 0.94119,-0.54825 l 10.64857,-14.29692 z"
       id="path3-2-01" />
    <path
       inkscape:connector-curvature="0"
       d="m 250.04018,62.707196 c 0.23899,-0.32219 0.35592,-0.742 0.32187,-1.16328 -0.0353,-0.42127 -0.21715,-0.80879 -0.50432,-1.07594 l -2.44837,-2.26343 c -0.59105,-0.54604 -1.45771,-0.44182 -1.9357,0.23266 l -7.49736,10.583979 -3.55659,-3.425249 c -0.67714,-0.65246 -1.67679,-0.60329 -2.30318,0.11082 l -1.88045,2.14748 c -0.27047,0.308979 -0.41566,0.733189 -0.40217,1.169879 0.0141,0.43742 0.18695,0.84549 0.4767,1.13172 l 7.13631,7.020021 c 0.27754,0.27376 0.63859,0.40953 1.0035,0.37651 0.36491,-0.0323 0.70413,-0.22899 0.94119,-0.54825 l 10.64857,-14.29692 z"
       id="path3-2-1" />
    <path
       inkscape:connector-curvature="0"
       d="m 342.18303,61.278624 c 0.23899,-0.32219 0.35592,-0.742 0.32187,-1.16328 -0.0353,-0.42127 -0.21715,-0.80879 -0.50432,-1.07594 l -2.44837,-2.26343 c -0.59105,-0.54604 -1.45771,-0.44182 -1.9357,0.23266 l -7.49736,10.58398 -3.55659,-3.42525 c -0.67714,-0.65246 -1.67679,-0.60329 -2.30318,0.11082 l -1.88045,2.14748 c -0.27047,0.30898 -0.41566,0.73319 -0.40217,1.16988 0.0141,0.43742 0.18695,0.84549 0.4767,1.13172 l 7.13631,7.020021 c 0.27754,0.27376 0.63859,0.40953 1.0035,0.37651 0.36491,-0.0323 0.70413,-0.22899 0.94119,-0.54825 l 10.64857,-14.296921 z"
       id="path3-2-72" />
    <path
       inkscape:connector-curvature="0"
       d="m 389.32589,62.707196 c 0.23899,-0.32219 0.35592,-0.742 0.32187,-1.16328 -0.0353,-0.42127 -0.21715,-0.80879 -0.50432,-1.07594 l -2.44837,-2.26343 c -0.59105,-0.54604 -1.45771,-0.44182 -1.9357,0.23266 l -7.49736,10.58398 -3.55659,-3.42525 c -0.67714,-0.65246 -1.67679,-0.60329 -2.30318,0.11082 l -1.88045,2.14748 c -0.27047,0.30898 -0.41566,0.73319 -0.40217,1.16988 0.0141,0.43742 0.18695,0.84549 0.4767,1.13172 l 7.13631,7.02002 c 0.27754,0.27376 0.63859,0.40953 1.0035,0.37651 0.36491,-0.0323 0.70413,-0.22899 0.94119,-0.54825 l 10.64857,-14.29692 z"
       id="path3-2-09" />
    <path
       inkscape:connector-curvature="0"
       d="m 435.75446,62.707196 c 0.23899,-0.32219 0.35592,-0.742 0.32187,-1.16328 -0.0353,-0.42127 -0.21715,-0.80879 -0.50432,-1.07594 l -2.44837,-2.26343 c -0.59105,-0.54604 -1.45771,-0.44182 -1.9357,0.23266 l -7.49736,10.58398 -3.55659,-3.42525 c -0.67714,-0.65246 -1.67679,-0.60329 -2.30318,0.11082 l -1.88045,2.14748 c -0.27047,0.30898 -0.41566,0.73319 -0.40217,1.16988 0.0141,0.43742 0.18695,0.84549 0.4767,1.13172 l 7.13631,7.02002 c 0.27754,0.27376 0.63859,0.40953 1.0035,0.37651 0.36491,-0.0323 0.70413,-0.22899 0.94119,-0.54825 l 10.64857,-14.29692 z"
       id="path3-2-16" />
    <path
       inkscape:connector-curvature="0"
       d="m 480.04017,62.707196 c 0.23899,-0.32219 0.35592,-0.742 0.32187,-1.16328 -0.0353,-0.42127 -0.21715,-0.80879 -0.50432,-1.07594 l -2.44837,-2.26343 c -0.59105,-0.54604 -1.45771,-0.44182 -1.9357,0.23266 l -7.49736,10.58398 -3.55659,-3.42525 c -0.67714,-0.65246 -1.67679,-0.60329 -2.30318,0.11082 l -1.88045,2.14748 c -0.27047,0.30898 -0.41566,0.73319 -0.40217,1.16988 0.0141,0.43742 0.18695,0.84549 0.4767,1.13172 l 7.13631,7.02002 c 0.27754,0.27376 0.63859,0.40953 1.0035,0.37651 0.36491,-0.0323 0.70413,-0.22899 0.94119,-0.54825 l 10.64857,-14.29692 z"
       id="path3-2-2" />
    <path
       inkscape:connector-curvature="0"
       d="m 109.74072,177.16742 c 0.34752,-0.32868 0.54724,-0.7882 0.55342,-1.26965 0.005,-0.48207 -0.18612,-0.94535 -0.52683,-1.28217 l -2.3633,-2.33959 c -0.33082,-0.32743 -0.77664,-0.50836 -1.2404,-0.50273 -0.46252,0.005 -0.9034,0.19659 -1.22556,0.53216 l -4.45021,4.61845 -4.387145,-4.62847 c -0.345654,-0.36437 -0.819305,-0.57535 -1.318308,-0.58474 -0.499004,-0.0106 -0.98193,0.1803 -1.341187,0.53027 l -2.284777,2.22251 c -0.343799,0.33369 -0.536722,0.79511 -0.535486,1.2778 0.0012,0.48206 0.196633,0.94222 0.541669,1.27466 l 4.789686,4.61281 -4.240598,4.39995 c -0.646786,0.67114 -0.662245,1.73733 -0.03586,2.42849 l 1.650976,1.81683 c 0.314737,0.34747 0.753143,0.55156 1.218136,0.56909 0.464376,0.0175 0.917003,-0.15275 1.256473,-0.47517 l 4.651173,-4.40434 4.53802,4.3699 c 0.337,0.32492 0.78715,0.49897 1.25215,0.48395 0.46499,-0.0131 0.90463,-0.21537 1.22308,-0.56033 l 1.66458,-1.80118 c 0.63195,-0.68616 0.62638,-1.75234 -0.0148,-2.42849 l -4.13053,-4.35988 4.75568,-4.50013 z"
       id="path3-9" />
    <path
       inkscape:connector-curvature="0"
       d="m 202.955,177.16742 c 0.34752,-0.32868 0.54724,-0.7882 0.55342,-1.26965 0.005,-0.48207 -0.18612,-0.94535 -0.52683,-1.28217 l -2.3633,-2.33959 c -0.33082,-0.32743 -0.77664,-0.50836 -1.2404,-0.50273 -0.46252,0.005 -0.9034,0.19659 -1.22556,0.53216 l -4.45021,4.61845 -4.38715,-4.62847 c -0.34565,-0.36437 -0.8193,-0.57535 -1.3183,-0.58474 -0.499,-0.0106 -0.98192,0.1803 -1.34118,0.53027 l -2.28478,2.22251 c -0.3438,0.33369 -0.53672,0.79511 -0.53548,1.2778 0.001,0.48206 0.19663,0.94222 0.54166,1.27466 l 4.78968,4.61281 -4.24059,4.39995 c -0.64678,0.67114 -0.66224,1.73733 -0.0359,2.42849 l 1.65098,1.81683 c 0.31474,0.34747 0.75314,0.55156 1.21813,0.56909 0.46437,0.0175 0.917,-0.15275 1.25647,-0.47517 l 4.65117,-4.40434 4.53802,4.3699 c 0.337,0.32492 0.78715,0.49897 1.25215,0.48395 0.46499,-0.0131 0.90463,-0.21537 1.22308,-0.56033 l 1.66458,-1.80118 c 0.63195,-0.68616 0.62638,-1.75234 -0.0148,-2.42849 l -4.13053,-4.35988 4.75568,-4.50013 z"
       id="path3-9-6" />
    <path
       inkscape:connector-curvature="0"
       d="m 295.09786,62.881715 c 0.34752,-0.32868 0.54724,-0.7882 0.55342,-1.26965 0.005,-0.48207 -0.18612,-0.94535 -0.52683,-1.28217 l -2.3633,-2.33959 c -0.33082,-0.32743 -0.77664,-0.50836 -1.2404,-0.50273 -0.46252,0.005 -0.9034,0.19659 -1.22556,0.53216 l -4.45021,4.61845 -4.38715,-4.62847 c -0.34565,-0.36437 -0.8193,-0.57535 -1.3183,-0.58474 -0.49901,-0.0106 -0.98193,0.1803 -1.34119,0.53027 l -2.28478,2.22251 c -0.3438,0.33369 -0.53672,0.79511 -0.53548,1.2778 0.001,0.48206 0.19663,0.94222 0.54166,1.27466 l 4.78969,4.61281 -4.2406,4.39995 c -0.64678,0.67114 -0.66224,1.73733 -0.0359,2.42849 l 1.65098,1.81683 c 0.31474,0.34747 0.75314,0.55156 1.21813,0.56909 0.46438,0.0175 0.91701,-0.15275 1.25648,-0.47517 l 4.65117,-4.40434 4.53802,4.3699 c 0.337,0.32492 0.78715,0.49897 1.25215,0.48395 0.46499,-0.0131 0.90463,-0.21537 1.22308,-0.56033 l 1.66458,-1.80118 c 0.63195,-0.68616 0.62638,-1.75234 -0.0148,-2.42849 l -4.13053,-4.35988 4.75568,-4.50013 z"
       id="path3-9-66" />
    <path
       inkscape:connector-curvature="0"
       d="m 294.38358,177.16742 c 0.34752,-0.32868 0.54724,-0.7882 0.55342,-1.26965 0.005,-0.48207 -0.18612,-0.94535 -0.52683,-1.28217 l -2.3633,-2.33959 c -0.33082,-0.32743 -0.77664,-0.50836 -1.2404,-0.50273 -0.46252,0.005 -0.9034,0.19659 -1.22556,0.53216 l -4.45021,4.61845 -4.38715,-4.62847 c -0.34565,-0.36437 -0.8193,-0.57535 -1.3183,-0.58474 -0.49901,-0.0106 -0.98193,0.1803 -1.34119,0.53027 l -2.28478,2.22251 c -0.3438,0.33369 -0.53672,0.79511 -0.53548,1.2778 10e-4,0.48206 0.19663,0.94222 0.54166,1.27466 l 4.78969,4.61281 -4.2406,4.39995 c -0.64678,0.67114 -0.66224,1.73733 -0.0359,2.42849 l 1.65098,1.81683 c 0.31474,0.34747 0.75314,0.55156 1.21813,0.56909 0.46438,0.0175 0.91701,-0.15275 1.25648,-0.47517 l 4.65117,-4.40434 4.53802,4.3699 c 0.337,0.32492 0.78715,0.49897 1.25215,0.48395 0.46499,-0.0131 0.90463,-0.21537 1.22308,-0.56033 l 1.66458,-1.80118 c 0.63195,-0.68616 0.62638,-1.75234 -0.0148,-2.42849 l -4.13053,-4.35988 4.75568,-4.50013 z"
       id="path3-9-8" />
    <path
       inkscape:connector-curvature="0"
       d="m 385.09786,177.16742 c 0.34752,-0.32868 0.54724,-0.7882 0.55342,-1.26965 0.005,-0.48207 -0.18612,-0.94535 -0.52683,-1.28217 l -2.3633,-2.33959 c -0.33082,-0.32743 -0.77664,-0.50836 -1.2404,-0.50273 -0.46252,0.005 -0.9034,0.19659 -1.22556,0.53216 l -4.45021,4.61845 -4.38715,-4.62847 c -0.34565,-0.36437 -0.8193,-0.57535 -1.3183,-0.58474 -0.49901,-0.0106 -0.98193,0.1803 -1.34119,0.53027 l -2.28478,2.22251 c -0.3438,0.33369 -0.53672,0.79511 -0.53548,1.2778 0.001,0.48206 0.19663,0.94222 0.54166,1.27466 l 4.78969,4.61281 -4.2406,4.39995 c -0.64678,0.67114 -0.66224,1.73733 -0.0359,2.42849 l 1.65098,1.81683 c 0.31474,0.34747 0.75314,0.55156 1.21813,0.56909 0.46438,0.0175 0.91701,-0.15275 1.25648,-0.47517 l 4.65117,-4.40434 4.53802,4.3699 c 0.337,0.32492 0.78715,0.49897 1.25215,0.48395 0.46499,-0.0131 0.90463,-0.21537 1.22308,-0.56033 l 1.66458,-1.80118 c 0.63195,-0.68616 0.62638,-1.75234 -0.0148,-2.42849 l -4.13053,-4.35988 4.75568,-4.50013 z"
       id="path3-9-2" />
    <path
       inkscape:connector-curvature="0"
       d="m 477.95501,177.16742 c 0.34752,-0.32868 0.54724,-0.7882 0.55342,-1.26965 0.005,-0.48207 -0.18612,-0.94535 -0.52683,-1.28217 l -2.3633,-2.33959 c -0.33082,-0.32743 -0.77664,-0.50836 -1.2404,-0.50273 -0.46252,0.005 -0.9034,0.19659 -1.22556,0.53216 l -4.45021,4.61845 -4.38715,-4.62847 c -0.34565,-0.36437 -0.8193,-0.57535 -1.3183,-0.58474 -0.49901,-0.0106 -0.98193,0.1803 -1.34119,0.53027 l -2.28478,2.22251 c -0.3438,0.33369 -0.53672,0.79511 -0.53548,1.2778 10e-4,0.48206 0.19663,0.94222 0.54166,1.27466 l 4.78969,4.61281 -4.2406,4.39995 c -0.64678,0.67114 -0.66224,1.73733 -0.0359,2.42849 l 1.65098,1.81683 c 0.31474,0.34747 0.75314,0.55156 1.21813,0.56909 0.46438,0.0175 0.91701,-0.15275 1.25648,-0.47517 l 4.65117,-4.40434 4.53802,4.3699 c 0.337,0.32492 0.78715,0.49897 1.25215,0.48395 0.46499,-0.0131 0.90463,-0.21537 1.22308,-0.56033 l 1.66458,-1.80118 c 0.63195,-0.68616 0.62638,-1.75234 -0.0148,-2.42849 l -4.13053,-4.35988 4.75568,-4.50013 z"
       id="path3-9-9" />
  </g>
</svg>
