<?xml version="1.0" encoding="UTF-8" standalone="no"?>
<!-- Created with Inkscape (http://www.inkscape.org/) -->

<svg
   xmlns:dc="http://purl.org/dc/elements/1.1/"
   xmlns:cc="http://creativecommons.org/ns#"
   xmlns:rdf="http://www.w3.org/1999/02/22-rdf-syntax-ns#"
   xmlns:svg="http://www.w3.org/2000/svg"
   xmlns="http://www.w3.org/2000/svg"
   xmlns:sodipodi="http://sodipodi.sourceforge.net/DTD/sodipodi-0.dtd"
   xmlns:inkscape="http://www.inkscape.org/namespaces/inkscape"
   width="777.65332"
   height="438.8038"
   viewBox="0 0 777.65333 438.80383"
   id="svg2"
   version="1.1"
   inkscape:version="0.48.4 r9939"
   sodipodi:docname="summary.svg">
  <defs
     id="defs4">
    <marker
       inkscape:stockid="Arrow1Lstart"
       orient="auto"
       refY="0"
       refX="0"
       id="marker7573"
       style="overflow:visible"
       inkscape:isstock="true">
      <path
         id="path7575"
         d="M 0,0 5,-5 -12.5,0 5,5 0,0 z"
         style="fill:#000000;fill-opacity:1;fill-rule:evenodd;stroke:#000000;stroke-width:1pt;stroke-opacity:1"
         transform="matrix(0.8,0,0,0.8,10,0)"
         inkscape:connector-curvature="0" />
    </marker>
    <marker
       inkscape:stockid="Arrow1Lstart"
       orient="auto"
       refY="0"
       refX="0"
       id="Arrow1Lstart"
       style="overflow:visible"
       inkscape:isstock="true">
      <path
         id="path5456"
         d="M 0,0 5,-5 -12.5,0 5,5 0,0 z"
         style="fill:#000000;fill-opacity:1;fill-rule:evenodd;stroke:#000000;stroke-width:1pt;stroke-opacity:1"
         transform="matrix(0.8,0,0,0.8,10,0)"
         inkscape:connector-curvature="0" />
    </marker>
    <marker
       style="overflow:visible"
       id="TriangleOutM"
       refX="0"
       refY="0"
       orient="auto"
       inkscape:stockid="TriangleOutM">
      <path
         inkscape:connector-curvature="0"
         transform="scale(0.4,0.4)"
         style="fill-rule:evenodd;stroke:#000000;stroke-width:1pt"
         d="m 5.77,0 -8.65,5 0,-10 8.65,5 z"
         id="path6834" />
    </marker>
    <marker
       style="overflow:visible"
       id="Arrow2Mend"
       refX="0"
       refY="0"
       orient="auto"
       inkscape:stockid="Arrow2Mend">
      <path
         inkscape:connector-curvature="0"
         transform="scale(-0.6,-0.6)"
         d="M 8.7185878,4.0337352 -2.2072895,0.01601326 8.7185884,-4.0017078 c -1.7454984,2.3720609 -1.7354408,5.6174519 -6e-7,8.035443 z"
         style="fill-rule:evenodd;stroke-width:0.625;stroke-linejoin:round"
         id="path6716" />
    </marker>
    <marker
       style="overflow:visible"
       id="Arrow2Lend"
       refX="0"
       refY="0"
       orient="auto"
       inkscape:stockid="Arrow2Lend">
      <path
         inkscape:connector-curvature="0"
         transform="matrix(-1.1,0,0,-1.1,-1.1,0)"
         d="M 8.7185878,4.0337352 -2.2072895,0.01601326 8.7185884,-4.0017078 c -1.7454984,2.3720609 -1.7354408,5.6174519 -6e-7,8.035443 z"
         style="fill-rule:evenodd;stroke-width:0.625;stroke-linejoin:round"
         id="path6710" />
    </marker>
    <marker
       style="overflow:visible"
       id="Arrow1Lend"
       refX="0"
       refY="0"
       orient="auto"
       inkscape:stockid="Arrow1Lend">
      <path
         inkscape:connector-curvature="0"
         transform="matrix(-0.8,0,0,-0.8,-10,0)"
         style="fill-rule:evenodd;stroke:#000000;stroke-width:1pt"
         d="M 0,0 5,-5 -12.5,0 5,5 0,0 z"
         id="path6692" />
    </marker>
    <marker
       style="overflow:visible"
       id="TriangleOutM-9"
       refX="0"
       refY="0"
       orient="auto"
       inkscape:stockid="TriangleOutM">
      <path
         transform="scale(0.4,0.4)"
         style="fill-rule:evenodd;stroke:#000000;stroke-width:1pt"
         d="m 5.77,0 -8.65,5 0,-10 8.65,5 z"
         id="path6834-8"
         inkscape:connector-curvature="0" />
    </marker>
    <marker
       style="overflow:visible"
       id="TriangleOutM-97"
       refX="0"
       refY="0"
       orient="auto"
       inkscape:stockid="TriangleOutM">
      <path
         transform="scale(0.4,0.4)"
         style="fill-rule:evenodd;stroke:#000000;stroke-width:1pt"
         d="m 5.77,0 -8.65,5 0,-10 8.65,5 z"
         id="path6834-5"
         inkscape:connector-curvature="0" />
    </marker>
    <marker
       style="overflow:visible"
       id="Arrow2Lend-3"
       refX="0"
       refY="0"
       orient="auto"
       inkscape:stockid="Arrow2Lend">
      <path
         inkscape:connector-curvature="0"
         transform="matrix(-1.1,0,0,-1.1,-1.1,0)"
         d="M 8.7185878,4.0337352 -2.2072895,0.01601326 8.7185884,-4.0017078 c -1.7454984,2.3720609 -1.7354408,5.6174519 -6e-7,8.035443 z"
         style="fill-rule:evenodd;stroke-width:0.625;stroke-linejoin:round"
         id="path6710-8" />
    </marker>
    <marker
       inkscape:stockid="Arrow1Lstart"
       orient="auto"
       refY="0"
       refX="0"
       id="Arrow1Lstart-5"
       style="overflow:visible"
       inkscape:isstock="true">
      <path
         inkscape:connector-curvature="0"
         id="path5456-7"
         d="M 0,0 5,-5 -12.5,0 5,5 0,0 z"
         style="fill:#000000;fill-opacity:1;fill-rule:evenodd;stroke:#000000;stroke-width:1pt;stroke-opacity:1"
         transform="matrix(0.8,0,0,0.8,10,0)" />
    </marker>
    <marker
       style="overflow:visible"
       id="Arrow2Lend-5"
       refX="0"
       refY="0"
       orient="auto"
       inkscape:stockid="Arrow2Lend">
      <path
         inkscape:connector-curvature="0"
         transform="matrix(-1.1,0,0,-1.1,-1.1,0)"
         d="M 8.7185878,4.0337352 -2.2072895,0.01601326 8.7185884,-4.0017078 c -1.7454984,2.3720609 -1.7354408,5.6174519 -6e-7,8.035443 z"
         style="fill-rule:evenodd;stroke-width:0.625;stroke-linejoin:round"
         id="path6710-4" />
    </marker>
    <clipPath
       id="p088ee281f3">
      <rect
         id="rect426"
         y="43.200001"
         x="72"
         width="446.39999"
         height="345.60001" />
    </clipPath>
    <clipPath
       id="clipPath4568">
      <rect
         id="rect4570"
         y="43.200001"
         x="72"
         width="446.39999"
         height="345.60001" />
    </clipPath>
    <clipPath
       id="clipPath4572">
      <rect
         id="rect4574"
         y="43.200001"
         x="72"
         width="446.39999"
         height="345.60001" />
    </clipPath>
    <clipPath
       id="clipPath4576">
      <rect
         id="rect4578"
         y="43.200001"
         x="72"
         width="446.39999"
         height="345.60001" />
    </clipPath>
    <clipPath
       clipPathUnits="userSpaceOnUse"
       id="clipPath11584">
      <path
         d="m 53.52,313.018 365.246,0 0,-265.781 -365.246,0 0,265.781 z"
         id="path11586"
         inkscape:connector-curvature="0" />
    </clipPath>
    <clipPath
       clipPathUnits="userSpaceOnUse"
       id="clipPath11594">
      <path
         d="m 51,164 371,0 0,133 -371,0 0,-133 z"
         id="path11596"
         inkscape:connector-curvature="0" />
    </clipPath>
    <clipPath
       clipPathUnits="userSpaceOnUse"
       id="clipPath11608">
      <path
         d="m 51,141 371,0 0,150 -371,0 0,-150 z"
         id="path11610"
         inkscape:connector-curvature="0" />
    </clipPath>
    <clipPath
       clipPathUnits="userSpaceOnUse"
       id="clipPath11622">
      <path
         d="m 51,134 371,0 0,155 -371,0 0,-155 z"
         id="path11624"
         inkscape:connector-curvature="0" />
    </clipPath>
    <clipPath
       clipPathUnits="userSpaceOnUse"
       id="clipPath11636">
      <path
         d="m 51,130 371,0 0,159 -371,0 0,-159 z"
         id="path11638"
         inkscape:connector-curvature="0" />
    </clipPath>
    <clipPath
       id="p088ee281f3-6">
      <rect
         id="rect426-1"
         y="43.200001"
         x="72"
         width="446.39999"
         height="345.60001" />
    </clipPath>
    <clipPath
       id="clipPath4568-6">
      <rect
         id="rect4570-8"
         y="43.200001"
         x="72"
         width="446.39999"
         height="345.60001" />
    </clipPath>
    <clipPath
       id="clipPath4572-8">
      <rect
         id="rect4574-1"
         y="43.200001"
         x="72"
         width="446.39999"
         height="345.60001" />
    </clipPath>
    <clipPath
       id="clipPath4576-9">
      <rect
         id="rect4578-9"
         y="43.200001"
         x="72"
         width="446.39999"
         height="345.60001" />
    </clipPath>
    <clipPath
       clipPathUnits="userSpaceOnUse"
       id="clipPath11584-3">
      <path
         d="m 53.52,313.018 365.246,0 0,-265.781 -365.246,0 0,265.781 z"
         id="path11586-1"
         inkscape:connector-curvature="0" />
    </clipPath>
    <clipPath
       clipPathUnits="userSpaceOnUse"
       id="clipPath11594-9">
      <path
         d="m 51,164 371,0 0,133 -371,0 0,-133 z"
         id="path11596-3"
         inkscape:connector-curvature="0" />
    </clipPath>
    <clipPath
       clipPathUnits="userSpaceOnUse"
       id="clipPath11608-2">
      <path
         d="m 51,141 371,0 0,150 -371,0 0,-150 z"
         id="path11610-4"
         inkscape:connector-curvature="0" />
    </clipPath>
    <clipPath
       clipPathUnits="userSpaceOnUse"
       id="clipPath11622-1">
      <path
         d="m 51,134 371,0 0,155 -371,0 0,-155 z"
         id="path11624-1"
         inkscape:connector-curvature="0" />
    </clipPath>
    <clipPath
       clipPathUnits="userSpaceOnUse"
       id="clipPath11636-7">
      <path
         d="m 51,130 371,0 0,159 -371,0 0,-159 z"
         id="path11638-1"
         inkscape:connector-curvature="0" />
    </clipPath>
    <marker
       style="overflow:visible"
       id="Arrow2Lend-3-0"
       refX="0"
       refY="0"
       orient="auto"
       inkscape:stockid="Arrow2Lend">
      <path
         inkscape:connector-curvature="0"
         transform="matrix(-1.1,0,0,-1.1,-1.1,0)"
         d="M 8.7185878,4.0337352 -2.2072895,0.01601326 8.7185884,-4.0017078 c -1.7454984,2.3720609 -1.7354408,5.6174519 -6e-7,8.035443 z"
         style="fill-rule:evenodd;stroke-width:0.625;stroke-linejoin:round"
         id="path6710-8-9" />
    </marker>
    <marker
       style="overflow:visible"
       id="Arrow2Lend-3-0-0"
       refX="0"
       refY="0"
       orient="auto"
       inkscape:stockid="Arrow2Lend">
      <path
         inkscape:connector-curvature="0"
         transform="matrix(-1.1,0,0,-1.1,-1.1,0)"
         d="M 8.7185878,4.0337352 -2.2072895,0.01601326 8.7185884,-4.0017078 c -1.7454984,2.3720609 -1.7354408,5.6174519 -6e-7,8.035443 z"
         style="fill-rule:evenodd;stroke-width:0.625;stroke-linejoin:round"
         id="path6710-8-9-1" />
    </marker>
  </defs>
  <sodipodi:namedview
     id="base"
     pagecolor="#ffffff"
     bordercolor="#666666"
     borderopacity="1.0"
     inkscape:pageopacity="0.0"
     inkscape:pageshadow="2"
     inkscape:zoom="0.75164235"
     inkscape:cx="529.78552"
     inkscape:cy="256.74061"
     inkscape:document-units="px"
     inkscape:current-layer="layer1"
     showgrid="false"
     inkscape:window-width="1676"
     inkscape:window-height="1011"
     inkscape:window-x="1600"
     inkscape:window-y="18"
     inkscape:window-maximized="0"
     fit-margin-top="0"
     fit-margin-left="0"
     fit-margin-right="0"
     fit-margin-bottom="0" />
  <metadata
     id="metadata7">
    <rdf:RDF>
      <cc:Work
         rdf:about="">
        <dc:format>image/svg+xml</dc:format>
        <dc:type
           rdf:resource="http://purl.org/dc/dcmitype/StillImage" />
        <dc:title />
      </cc:Work>
    </rdf:RDF>
  </metadata>
  <g
     inkscape:label="Vrstva 1"
     inkscape:groupmode="layer"
     id="layer1"
     transform="translate(32.52563,-561.94995)">
    <text
       xml:space="preserve"
       style="font-size:25px;font-style:normal;font-weight:normal;text-align:center;line-height:125%;letter-spacing:0px;word-spacing:0px;text-anchor:middle;fill:#000000;fill-opacity:1;stroke:none;font-family:Sans"
       x="63.970932"
       y="917.82782"
       id="text5774"
       sodipodi:linespacing="125%"><tspan
         sodipodi:role="line"
         id="tspan5776"
         x="63.970932"
         y="917.82782">domain experts</tspan></text>
    <text
       xml:space="preserve"
       style="font-size:40px;font-style:normal;font-weight:normal;line-height:125%;letter-spacing:0px;word-spacing:0px;fill:#000000;fill-opacity:1;stroke:none;font-family:Sans"
       x="208.67648"
       y="707.25073"
       id="text8170"
       sodipodi:linespacing="125%"><tspan
         sodipodi:role="line"
         id="tspan8172"
         x="208.67648"
         y="707.25073" /></text>
    <g
       id="g4626"
       transform="translate(-99.04132,-174.01339)">
      <g
         transform="translate(262.67698,825.55098)"
         id="g8018">
        <path
           inkscape:connector-curvature="0"
           d="m 16,0.878 c -2.397,0 -4.669,0.545 -6.699,1.519 L 8.999,0.908 7.337,1.404 8.009,3.094 C 7.999,3.1 7.988,3.105 7.978,3.112 L 6.089,0 4.323,1.343 6.76,3.93 c -3.823,2.836 -6.306,7.381 -6.306,12.494 0,8.573 6.974,15.547 15.546,15.547 8.572,0 15.545,-6.974 15.545,-15.547 C 31.546,7.852 24.573,0.878 16,0.878 z m 0,27.306 c -6.484,0 -11.758,-5.273 -11.758,-11.76 0,-0.86 0.093,-1.7 0.27,-2.509 l 7.507,0 -0.029,-3.165 3.235,3.165 12.263,0 c 0.176,0.809 0.27,1.649 0.27,2.509 0,6.484 -5.274,11.76 -11.758,11.76 z"
           id="path8020" />
        <circle
           cx="11.585"
           cy="17.667"
           r="1.6900001"
           id="circle8022"
           d="m 13.275,17.667 c 0,0.933361 -0.756639,1.69 -1.69,1.69 -0.933361,0 -1.69,-0.756639 -1.69,-1.69 0,-0.933361 0.756639,-1.69 1.69,-1.69 0.933361,0 1.69,0.756639 1.69,1.69 z"
           sodipodi:cx="11.585"
           sodipodi:cy="17.667"
           sodipodi:rx="1.6900001"
           sodipodi:ry="1.6900001" />
        <circle
           cx="21.091"
           cy="17.667"
           r="1.6900001"
           id="circle8024"
           d="m 22.781,17.667 c 0,0.933361 -0.756639,1.69 -1.69,1.69 -0.933362,0 -1.69,-0.756639 -1.69,-1.69 0,-0.933361 0.756638,-1.69 1.69,-1.69 0.933361,0 1.69,0.756639 1.69,1.69 z"
           sodipodi:cx="21.091"
           sodipodi:cy="17.667"
           sodipodi:rx="1.6900001"
           sodipodi:ry="1.6900001" />
        <path
           inkscape:connector-curvature="0"
           d="m 16.331,24.464 c 2.001,0 3.67,-1.364 4.198,-3.18 l -8.396,0 c 0.528,1.816 2.197,3.18 4.198,3.18 z"
           id="path8026" />
      </g>
      <text
         sodipodi:linespacing="125%"
         id="text8162"
         y="882.25079"
         x="199.96893"
         style="font-size:40px;font-style:normal;font-weight:normal;line-height:125%;letter-spacing:0px;word-spacing:0px;fill:#000000;fill-opacity:1;stroke:none;font-family:Sans"
         xml:space="preserve"><tspan
           style="font-size:20px"
           y="882.25079"
           x="199.96893"
           id="tspan8164"
           sodipodi:role="line">engagement</tspan></text>
    </g>
    <g
       id="g4615"
       transform="translate(-4.6989931,-118.08037)">
      <g
         transform="translate(187.08179,716.10314)"
         id="g8099">
        <path
           inkscape:connector-curvature="0"
           d="m 13.638,14.624 c 10e-4,0.005 0.002,0.011 0.004,0.015 l 0.004,0 c -0.003,0 -0.006,-0.006 -0.008,-0.015 z"
           id="path8101" />
        <path
           inkscape:connector-curvature="0"
           d="m 13.638,14.624 c -0.004,-0.021 -0.008,-0.045 -0.015,-0.063 0.007,0.02 0.011,0.046 0.015,0.063 z"
           id="path8103" />
        <polygon
           points="25.921,14.638 25.919,14.639 25.921,14.639 "
           id="polygon8105" />
        <path
           inkscape:connector-curvature="0"
           d="m 25.921,14.638 c 0.004,-0.003 0.004,-0.013 0,0 l 0,0 z"
           id="path8107" />
        <path
           inkscape:connector-curvature="0"
           d="M 29.374,5.249 C 26.695,2.035 19.141,-0.236 12.763,1.583 6.049,3.497 2.674,7.707 2.231,15.149 2.198,15.703 2.055,16.25 1.811,16.748 l -1.704,3.479 c -0.134,0.273 -0.143,0.594 -0.025,0.875 0.119,0.281 0.353,0.498 0.643,0.594 l 0.556,0.187 c 0.482,0.16 0.801,0.614 0.789,1.122 -0.15,6.657 0.194,8.354 7.237,8.354 7.507,0 6.544,-5.521 15.615,-6.598 6.706,-0.799 9.049,-13.995 4.452,-19.512 z m -1.831,8.645 c 0,0.424 -0.339,0.745 -0.764,0.745 l -0.858,0 c -10e-4,0.003 -0.002,0.005 -0.002,0.008 -0.153,0.606 -0.392,1.183 -0.704,1.707 l 0.6,0.605 c 0.302,0.299 0.302,0.787 0,1.087 l -1.104,1.106 c -0.3,0.3 -0.785,0.3 -1.086,0 l -0.602,-0.603 c -0.512,0.308 -1.071,0.542 -1.666,0.694 -0.002,0 -0.004,0.436 -0.01,0.854 -0.002,0.422 -0.345,0.76 -0.767,0.76 l -1.563,0 c -0.205,0 -0.398,-0.08 -0.545,-0.226 -0.145,-0.146 -0.226,-0.342 -0.223,-0.546 l 0.009,-0.828 c -0.614,-0.152 -1.19,-0.393 -1.72,-0.708 l -0.599,0.603 c -0.145,0.145 -0.34,0.226 -0.544,0.226 -0.204,0 -0.399,-0.081 -0.543,-0.226 L 13.743,18.047 C 13.6,17.902 13.52,17.708 13.52,17.504 c 0,-0.204 0.08,-0.398 0.223,-0.543 L 14.345,16.36 C 14.033,15.837 13.794,15.266 13.643,14.659 13.641,14.653 13.64,14.647 13.639,14.64 l -0.83,0 c -0.423,0 -0.76,-0.322 -0.76,-0.745 l 0,-1.566 c 0,-0.424 0.341,-0.768 0.764,-0.768 l 0.838,0 c 0,0 -10e-4,0 10e-4,-0.002 0.15,-0.598 0.387,-1.163 0.695,-1.679 L 13.743,9.277 c -0.298,-0.3 -0.298,-0.785 0,-1.086 l 1.108,-1.107 c 0.145,-0.144 0.34,-0.224 0.544,-0.224 0.204,0 0.399,0.081 0.544,0.224 l 0.6,0.601 c 0.53,-0.317 1.106,-0.581 1.722,-0.711 L 18.25,6.135 c -0.001,-0.206 0.079,-0.4 0.226,-0.546 0.145,-0.145 0.338,-0.225 0.545,-0.225 l 1.562,0 c 0.422,0 0.766,0.339 0.768,0.761 0.004,0.425 0.006,0.867 0.01,0.868 0.594,0.151 1.152,0.388 1.664,0.695 l 0.603,-0.603 c 0.146,-0.144 0.34,-0.225 0.544,-0.225 0.204,0 0.398,0.081 0.543,0.224 l 1.108,1.107 c 0.297,0.3 0.298,0.785 0,1.085 l -0.604,0.603 c 0.309,0.516 0.547,1.091 0.697,1.689 0.001,0.002 0.001,0.014 0.002,0.014 l 0.865,0 c 0.424,0 0.763,0.323 0.763,0.747 l 0,1.565 -0.003,0 z"
           id="path8109" />
        <circle
           cx="19.781"
           cy="13.118"
           r="2.1589999"
           id="circle8111"
           d="m 21.94,13.118 c 0,1.192383 -0.966617,2.159 -2.159,2.159 -1.192383,0 -2.159,-0.966617 -2.159,-2.159 0,-1.192383 0.966617,-2.159 2.159,-2.159 1.192383,0 2.159,0.966617 2.159,2.159 z"
           sodipodi:cx="19.781"
           sodipodi:cy="13.118"
           sodipodi:rx="2.1589999"
           sodipodi:ry="2.1589999" />
      </g>
      <text
         sodipodi:linespacing="125%"
         id="text8174"
         y="710.10791"
         x="153.6765"
         style="font-size:40px;font-style:normal;font-weight:normal;line-height:125%;letter-spacing:0px;word-spacing:0px;fill:#000000;fill-opacity:1;stroke:none;font-family:Sans"
         xml:space="preserve"><tspan
           style="font-size:20px"
           y="710.10791"
           x="153.6765"
           id="tspan8176"
           sodipodi:role="line">learning</tspan></text>
    </g>
    <g
       id="g4858"
       transform="matrix(0.13834594,0,0,0.13834594,24.537432,579.72458)">
      <g
         id="g4818">
        <path
           id="path4820"
           d="m 147.128,91.076 c 0,-37.95 30.766,-68.716 68.721,-68.716 37.95,0 68.719,30.766 68.719,68.716 0,37.95 -30.769,68.715 -68.719,68.715 -37.955,0.001 -68.721,-30.765 -68.721,-68.715 z m 101.745,115.531 c 0.689,-14.963 5.84,-28.812 14.127,-40.261 -5.816,-1.218 -11.827,-1.865 -17.995,-1.865 l -58.304,0 c -6.15,0 -12.153,0.642 -17.939,1.845 8.819,12.232 14.094,27.171 14.18,43.343 10.72,-5.896 23.02,-9.253 36.085,-9.253 10.598,0 20.687,2.208 29.846,6.191 z m 11.632,6.168 c 19.96,12.517 33.957,33.688 36.517,58.274 8.133,3.801 17.171,5.994 26.746,5.994 34.968,0 63.311,-28.346 63.311,-63.313 0,-34.971 -28.343,-63.311 -63.311,-63.311 -34.648,10e-4 -62.737,27.838 -63.263,62.356 z m -41.479,129.636 c 34.962,0 63.307,-28.354 63.307,-63.311 0,-34.962 -28.345,-63.311 -63.307,-63.311 -34.965,0 -63.322,28.348 -63.322,63.311 0.001,34.957 28.357,63.311 63.322,63.311 z m 26.856,4.309 -53.717,0 c -44.697,0 -81.069,36.369 -81.069,81.072 l 0,65.703 0.171,1.029 4.522,1.406 c 42.658,13.323 79.718,17.779 110.224,17.779 59.571,0 94.114,-16.987 96.242,-18.074 l 4.231,-2.141 0.449,0 0,-65.703 c 10e-4,-44.702 -36.35,-81.071 -81.053,-81.071 z m 104.756,-65.356 -53.314,0 c -0.579,21.332 -9.683,40.542 -24.081,54.35 39.732,11.815 68.802,48.657 68.802,92.178 l 0,20.245 c 52.629,-1.938 82.963,-16.846 84.961,-17.851 l 4.232,-2.152 0.449,0 0,-65.715 c 0.006,-44.691 -36.363,-81.055 -81.049,-81.055 z m 14.251,-132.295 c 19.961,12.519 33.957,33.691 36.511,58.277 8.134,3.801 17.171,5.99 26.746,5.99 34.975,0 63.316,-28.342 63.316,-63.304 0,-34.972 -28.342,-63.311 -63.316,-63.311 -34.643,-0.004 -62.73,27.839 -63.257,62.348 z m 90.121,68.589 -53.303,0 c -0.579,21.332 -9.682,40.542 -24.08,54.349 39.731,11.811 68.801,48.658 68.801,92.179 l 0,20.245 c 52.624,-1.934 82.964,-16.84 84.962,-17.852 l 4.226,-2.145 0.455,0 0,-65.723 c 0.006,-44.687 -36.363,-81.053 -81.061,-81.053 z m -347.073,59.386 c 12.386,0 23.903,-3.618 33.67,-9.777 3.106,-20.241 13.958,-37.932 29.454,-49.975 0.065,-1.188 0.174,-2.361 0.174,-3.561 0,-34.971 -28.351,-63.311 -63.298,-63.311 -34.977,0 -63.316,28.339 -63.316,63.311 0,34.973 28.338,63.313 63.316,63.313 z m 56.858,58.67 c -14.331,-13.742 -23.404,-32.847 -24.072,-54.055 -1.971,-0.147 -3.928,-0.295 -5.943,-0.295 l -53.711,0 C 36.366,281.364 0,317.728 0,362.425 l 0,65.709 0.166,1.023 4.528,1.412 c 34.214,10.699 64.761,15.616 91.292,17.153 l 0,-19.837 c 0.005,-43.514 29.068,-80.362 68.809,-92.171 z"
           inkscape:connector-curvature="0" />
      </g>
      <g
         id="g4822" />
      <g
         id="g4824" />
      <g
         id="g4826" />
      <g
         id="g4828" />
      <g
         id="g4830" />
      <g
         id="g4832" />
      <g
         id="g4834" />
      <g
         id="g4836" />
      <g
         id="g4838" />
      <g
         id="g4840" />
      <g
         id="g4842" />
      <g
         id="g4844" />
      <g
         id="g4846" />
      <g
         id="g4848" />
      <g
         id="g4850" />
    </g>
    <path
       id="path4986"
       d="m 626.90903,673.9824 c 0.562,-0.525 0.885,-1.259 0.895,-2.028 0.008,-0.77 -0.301,-1.51 -0.852,-2.048 l -3.822,-3.737 c -0.535,-0.523 -1.256,-0.812 -2.006,-0.803 -0.748,0.009 -1.461,0.314 -1.982,0.85 l -7.197,7.377 -7.095,-7.393 c -0.559,-0.582 -1.325,-0.919 -2.132,-0.934 -0.807,-0.017 -1.588,0.288 -2.169,0.847 l -3.695,3.55 c -0.556,0.533 -0.868,1.27 -0.866,2.041 0.002,0.77 0.318,1.505 0.876,2.036 l 7.746,7.368 -6.858,7.028 c -1.046,1.072 -1.071,2.775 -0.058,3.879 l 2.67,2.902 c 0.509,0.555 1.218,0.881 1.97,0.909 0.751,0.028 1.483,-0.244 2.032,-0.759 l 7.522,-7.035 7.339,6.98 c 0.545,0.519 1.273,0.797 2.025,0.773 0.752,-0.021 1.463,-0.344 1.978,-0.895 l 2.692,-2.877 c 1.022,-1.096 1.013,-2.799 -0.024,-3.879 l -6.68,-6.964 7.691,-7.188 z"
       inkscape:connector-curvature="0" />
    <path
       id="path4996"
       d="m 602.80226,637.71221 c 0.372,-0.439 0.554,-1.011 0.501,-1.585 -0.055,-0.574 -0.338,-1.102 -0.785,-1.466 l -3.811,-3.084 c -0.92,-0.744 -2.269,-0.602 -3.013,0.317 l -11.67,14.421 -5.536,-4.667 c -1.054,-0.889 -2.61,-0.822 -3.585,0.151 l -2.927,2.926 c -0.421,0.421 -0.647,0.999 -0.626,1.594 0.022,0.596 0.291,1.152 0.742,1.542 l 11.108,9.565 c 0.432,0.373 0.994,0.558 1.562,0.513 0.568,-0.044 1.096,-0.312 1.465,-0.747 l 16.575,-19.48 z"
       inkscape:connector-curvature="0" />
    <text
       xml:space="preserve"
       style="font-size:25px;font-style:normal;font-weight:normal;text-align:center;line-height:125%;letter-spacing:0px;word-spacing:0px;text-anchor:middle;fill:#000000;fill-opacity:1;stroke:none;font-family:Sans"
       x="380.00244"
       y="992.98425"
       id="text5009"
       sodipodi:linespacing="125%"><tspan
         sodipodi:role="line"
         x="380.00244"
         y="992.98425"
         id="tspan5013"
         style="font-size:36.00000381px;font-style:italic;font-variant:normal;font-weight:bold;font-stretch:normal;font-family:Sans;-inkscape-font-specification:Sans Bold Italic">www.fi.muni.cz/adaptivelearning</tspan></text>
    <text
       xml:space="preserve"
       style="font-size:58.46360397px;font-style:normal;font-weight:normal;line-height:125%;letter-spacing:0px;word-spacing:0px;fill:#000000;fill-opacity:1;stroke:none;font-family:Sans"
       x="277.40131"
       y="633.96082"
       id="text8166"
       sodipodi:linespacing="125%"><tspan
         sodipodi:role="line"
         id="tspan8168"
         x="277.40131"
         y="633.96082"
         style="font-size:43.84770203px">systems</tspan></text>
    <g
       id="g3248"
       transform="matrix(2.0022482,0,0,2.0022482,-329.58203,-645.13321)">
      <path
         id="path8148"
         d="m 340.37983,689.87929 -2.60748,0 0,-1.08742 1.06842,0 c 0.89742,0 1.6516,-0.81118 1.6516,-1.71152 l 0,-19.53269 c 0,-0.89888 -0.75418,-1.59898 -1.6516,-1.59898 l -29.30195,0 c -0.89742,0 -1.31982,0.7001 -1.31982,1.59898 l 0,19.53269 c 0,0.9018 0.4224,1.71152 1.31982,1.71152 l 1.4002,0 0,1.08742 -2.8501,0 -7.12233,14.02396 0,2.15584 c 0,0.67818 0.54956,1.2292 1.22774,1.2292 l 44.32125,0 c 0.67818,0 1.22774,-0.55102 1.22774,-1.2292 l 0,-2.15584 -7.36349,-14.02396 z m -3.14973,-6.44269 c 0,1.15612 -0.93834,2.09446 -2.09446,2.09446 l -21.74115,0 c -1.15612,0 -2.093,-0.93834 -2.093,-2.09446 l 0,-12.1312 c 0,-1.15611 0.93688,-2.09299 2.093,-2.09299 l 21.74115,0 c 1.15612,0 2.09446,0.93688 2.09446,2.09299 l 0,12.1312 z m -7.97882,5.35673 0,1.08888 -9.97097,0 0,-1.08888 9.97097,0 z m -8.9537,13.95965 c -0.23824,0 -0.4604,-0.12132 -0.58902,-0.32155 -0.13008,-0.19732 -0.15054,-0.4531 -0.0526,-0.66795 l 0.4224,-0.94857 c 0.11254,-0.25432 0.3654,-0.41802 0.64164,-0.41802 l 6.94109,0 c 0.2704,0 0.51156,0.15201 0.63141,0.39171 l 0.47063,0.95003 c 0.10816,0.21632 0.0965,0.47502 -0.0307,0.68257 -0.12716,0.209 -0.35371,0.3347 -0.59779,0.3347 l -7.83705,-0.003 0,0 z m -9.8745,-3.62329 c -0.38586,0 -0.74541,-0.19731 -0.95442,-0.5174 -0.21047,-0.32447 -0.24116,-0.73079 -0.0848,-1.08304 l 2.22746,-4.97525 c 0.1827,-0.41071 0.58902,-0.67379 1.03773,-0.67379 l 22.83588,0 c 0.43117,0 0.82434,0.24554 1.01581,0.62848 l 2.49201,4.97818 c 0.17685,0.35078 0.15347,0.77026 -0.0512,1.10788 -0.20754,0.33471 -0.5744,0.53933 -0.96757,0.53933 l -27.55097,0 0,-0.004 z"
         inkscape:connector-curvature="0" />
      <path
         id="path8148-9"
         d="m 390.50591,678.23619 -2.60748,0 0,-1.08742 1.06842,0 c 0.89742,0 1.6516,-0.81118 1.6516,-1.71152 l 0,-19.53269 c 0,-0.89888 -0.75418,-1.59898 -1.6516,-1.59898 l -29.30195,0 c -0.89742,0 -1.31982,0.7001 -1.31982,1.59898 l 0,19.53269 c 0,0.9018 0.4224,1.71152 1.31982,1.71152 l 1.4002,0 0,1.08742 -2.8501,0 -7.12233,14.02396 0,2.15584 c 0,0.67818 0.54956,1.2292 1.22774,1.2292 l 44.32125,0 c 0.67818,0 1.22774,-0.55102 1.22774,-1.2292 l 0,-2.15584 -7.36349,-14.02396 z m -3.14973,-6.44269 c 0,1.15612 -0.93834,2.09446 -2.09446,2.09446 l -21.74115,0 c -1.15612,0 -2.093,-0.93834 -2.093,-2.09446 l 0,-12.1312 c 0,-1.15611 0.93688,-2.09299 2.093,-2.09299 l 21.74115,0 c 1.15612,0 2.09446,0.93688 2.09446,2.09299 l 0,12.1312 z m -7.97882,5.35673 0,1.08888 -9.97097,0 0,-1.08888 9.97097,0 z m -8.9537,13.95965 c -0.23824,0 -0.4604,-0.12132 -0.58902,-0.32155 -0.13008,-0.19732 -0.15054,-0.4531 -0.0526,-0.66795 l 0.4224,-0.94857 c 0.11254,-0.25432 0.3654,-0.41802 0.64164,-0.41802 l 6.94109,0 c 0.2704,0 0.51156,0.15201 0.63141,0.39171 l 0.47063,0.95003 c 0.10816,0.21632 0.0965,0.47502 -0.0307,0.68257 -0.12716,0.209 -0.35371,0.3347 -0.59779,0.3347 l -7.83705,-0.003 0,0 z m -9.8745,-3.62329 c -0.38586,0 -0.74541,-0.19731 -0.95442,-0.5174 -0.21047,-0.32447 -0.24116,-0.73079 -0.0848,-1.08304 l 2.22746,-4.97525 c 0.1827,-0.41071 0.58902,-0.67379 1.03773,-0.67379 l 22.83588,0 c 0.43117,0 0.82434,0.24554 1.01581,0.62848 l 2.49201,4.97818 c 0.17685,0.35078 0.15347,0.77026 -0.0512,1.10788 -0.20754,0.33471 -0.5744,0.53933 -0.96757,0.53933 l -27.55097,0 0,-0.004 z"
         inkscape:connector-curvature="0" />
      <path
         id="path4693"
         d="m 387.20104,696.88482 -38.49476,0 c -2.0095,0 -3.64453,1.63492 -3.64453,3.64454 l 0,25.57788 c 0,2.00961 1.63503,3.64454 3.64453,3.64454 l 14.52331,0 -3.48852,3.65907 c -0.24576,0.34479 -0.3778,0.75775 -0.3778,1.18107 l 0,1.23947 c 0,1.12412 0.91125,2.03537 2.03536,2.03537 l 13.10983,0 c 1.12411,0 2.03535,-0.91125 2.03535,-2.03537 l 0,-1.23947 c 0,-0.42344 -0.13198,-0.83628 -0.37779,-1.18107 l -3.48841,-3.65907 14.52331,0 c 2.0095,0 3.64454,-1.63493 3.64454,-3.64454 l 0,-25.57788 c 1.1e-4,-2.00962 -1.63479,-3.64454 -3.64442,-3.64454 z m -0.42618,28.79634 -18.81929,0 c -6e-4,0 -0.001,-10e-5 -0.001,-10e-5 -6.3e-4,0 -10e-4,10e-5 -10e-4,10e-5 l -18.81927,0 0,-24.72574 37.64238,0 0,24.72574 z"
         inkscape:connector-curvature="0" />
      <g
         transform="matrix(1.4615901,0,0,1.4615901,-287.8171,456.79883)"
         id="g4695" />
      <g
         transform="matrix(1.4615901,0,0,1.4615901,-287.8171,456.79883)"
         id="g4697" />
      <g
         transform="matrix(1.4615901,0,0,1.4615901,-287.8171,456.79883)"
         id="g4699" />
      <g
         transform="matrix(1.4615901,0,0,1.4615901,-287.8171,456.79883)"
         id="g4701" />
      <g
         transform="matrix(1.4615901,0,0,1.4615901,-287.8171,456.79883)"
         id="g4703" />
      <g
         transform="matrix(1.4615901,0,0,1.4615901,-287.8171,456.79883)"
         id="g4705" />
      <g
         transform="matrix(1.4615901,0,0,1.4615901,-287.8171,456.79883)"
         id="g4707" />
      <g
         transform="matrix(1.4615901,0,0,1.4615901,-287.8171,456.79883)"
         id="g4709" />
      <g
         transform="matrix(1.4615901,0,0,1.4615901,-287.8171,456.79883)"
         id="g4711" />
      <g
         transform="matrix(1.4615901,0,0,1.4615901,-287.8171,456.79883)"
         id="g4713" />
      <g
         transform="matrix(1.4615901,0,0,1.4615901,-287.8171,456.79883)"
         id="g4715" />
      <g
         transform="matrix(1.4615901,0,0,1.4615901,-287.8171,456.79883)"
         id="g4717" />
      <g
         transform="matrix(1.4615901,0,0,1.4615901,-287.8171,456.79883)"
         id="g4719" />
      <g
         transform="matrix(1.4615901,0,0,1.4615901,-287.8171,456.79883)"
         id="g4721" />
      <g
         transform="matrix(1.4615901,0,0,1.4615901,-287.8171,456.79883)"
         id="g4723" />
    </g>
    <rect
       y="562.98297"
       x="234.23135"
       height="296.53879"
       width="264.29208"
       id="rect5084"
       style="color:#000000;fill:none;stroke:#000000;stroke-width:2.06604838;stroke-linecap:butt;stroke-linejoin:miter;stroke-miterlimit:4;stroke-opacity:1;stroke-dasharray:none;stroke-dashoffset:0;marker:none;visibility:visible;display:inline;overflow:visible;enable-background:accumulate" />
    <text
       xml:space="preserve"
       style="font-size:20.37695503px;font-style:normal;font-weight:normal;text-align:center;line-height:125%;letter-spacing:0px;word-spacing:0px;text-anchor:middle;fill:#000000;fill-opacity:1;stroke:none;font-family:Sans"
       x="59.50703"
       y="673.94409"
       id="text5175"
       sodipodi:linespacing="125%"><tspan
         sodipodi:role="line"
         id="tspan5177"
         x="59.50703"
         y="673.94409">users</tspan></text>
    <path
       style="fill:none;stroke:#000000;stroke-width:1px;stroke-linecap:butt;stroke-linejoin:miter;stroke-opacity:1;marker-start:url(#Arrow1Lstart);marker-end:url(#Arrow2Lend)"
       d="m 107.24538,625.25486 114.77138,22.57798"
       id="path5179"
       inkscape:connector-curvature="0" />
    <path
       style="fill:none;stroke:#000000;stroke-width:1.24015951px;stroke-linecap:butt;stroke-linejoin:miter;stroke-opacity:1;marker-end:url(#Arrow2Lend-3)"
       d="m 501.40089,697.02566 133.9192,-49.09933"
       id="path5179-2"
       inkscape:connector-curvature="0" />
    <text
       xml:space="preserve"
       style="font-size:22.56889153px;font-style:normal;font-weight:normal;text-align:center;line-height:125%;letter-spacing:0px;word-spacing:0px;text-anchor:middle;fill:#000000;fill-opacity:1;stroke:none;font-family:Sans"
       x="671.29352"
       y="647.25409"
       id="text5258"
       sodipodi:linespacing="125%"><tspan
         sodipodi:role="line"
         id="tspan5260"
         x="671.29352"
         y="647.25409">data</tspan></text>
    <g
       id="g5433"
       transform="matrix(0.1208209,0,0,0.1208209,29.262057,833.86255)">
      <g
         id="g5393">
        <path
           id="path5395"
           d="M 289.285,191.86 C 318.129,173.321 337.28,141.03 337.28,104.206 337.28,46.659 290.621,0 233.088,0 175.529,0 128.881,46.659 128.881,104.207 c 0,36.824 19.151,69.121 47.996,87.654 -67.959,6.082 -121.422,63.331 -121.422,132.854 l 0,108.155 0.274,1.69 7.457,2.328 c 70.196,21.929 131.195,29.259 181.401,29.259 98.048,0 154.886,-27.97 158.408,-29.743 l 6.963,-3.534 0.732,0 0,-108.156 C 410.698,255.197 357.253,197.957 289.285,191.86 z"
           inkscape:connector-curvature="0" />
      </g>
      <g
         id="g5397" />
      <g
         id="g5399" />
      <g
         id="g5401" />
      <g
         id="g5403" />
      <g
         id="g5405" />
      <g
         id="g5407" />
      <g
         id="g5409" />
      <g
         id="g5411" />
      <g
         id="g5413" />
      <g
         id="g5415" />
      <g
         id="g5417" />
      <g
         id="g5419" />
      <g
         id="g5421" />
      <g
         id="g5423" />
      <g
         id="g5425" />
    </g>
    <path
       style="fill:none;stroke:#000000;stroke-width:1px;stroke-linecap:butt;stroke-linejoin:miter;stroke-opacity:1;marker-end:url(#Arrow2Lend-5)"
       d="M 105.07383,881.06793 216.90887,846.78731"
       id="path5179-5"
       inkscape:connector-curvature="0" />
    <text
       xml:space="preserve"
       style="font-size:20.13778114px;font-style:normal;font-weight:normal;text-align:center;line-height:125%;letter-spacing:0px;word-spacing:0px;text-anchor:middle;fill:#000000;fill-opacity:1;stroke:none;font-family:Sans"
       x="148.73933"
       y="852.43396"
       id="text5963"
       sodipodi:linespacing="125%"><tspan
         sodipodi:role="line"
         id="tspan5965"
         x="148.73933"
         y="852.43396">content</tspan></text>
    <path
       style="fill:none;stroke:#000000;stroke-width:1px;stroke-linecap:butt;stroke-linejoin:miter;stroke-opacity:1;marker-end:url(#Arrow2Lend-3-0)"
       d="m 666.07205,655.02643 13.19726,116.22422"
       id="path5179-2-8"
       inkscape:connector-curvature="0" />
    <path
       style="fill:none;stroke:#000000;stroke-width:1.27926147px;stroke-linecap:butt;stroke-linejoin:miter;stroke-opacity:1;marker-start:url(#marker7573);marker-end:url(#Arrow2Lend-3-0-0)"
       d="M 651.25085,812.36735 501.62919,810.25228"
       id="path5179-2-8-9"
       inkscape:connector-curvature="0" />
    <text
       xml:space="preserve"
       style="font-size:25px;font-style:normal;font-weight:normal;text-align:center;line-height:125%;letter-spacing:0px;word-spacing:0px;text-anchor:middle;fill:#000000;fill-opacity:1;stroke:none;font-family:Sans"
       x="693.12579"
       y="872.20868"
       id="text7533"
       sodipodi:linespacing="125%"><tspan
         sodipodi:role="line"
         x="693.12579"
         y="872.20868"
         id="tspan7569">research</tspan></text>
    <text
       xml:space="preserve"
       style="font-size:19.16754532px;font-style:normal;font-weight:normal;text-align:center;line-height:125%;letter-spacing:0px;word-spacing:0px;text-anchor:middle;fill:#000000;fill-opacity:1;stroke:none;font-family:Sans"
       x="574.71222"
       y="839.93964"
       id="text7537"
       sodipodi:linespacing="125%"><tspan
         sodipodi:role="line"
         id="tspan7539"
         x="574.71222"
         y="839.93964">experiments</tspan></text>
    <g
       id="g7542"
       transform="matrix(1.7382635,0,0,1.7382635,654.03612,787.97451)">
      <path
         id="path7544"
         d="m 25.141,2.656 c 0,-1.441 -1.168,-2.609 -2.607,-2.609 l -17.935,0 c -1.383,0 -2.504,1.121 -2.504,2.504 l 0,21.762 c 0,1.441 1.168,2.609 2.609,2.609 l 17.827,0 c 1.441,0 2.609,-1.168 2.609,-2.609 l 0,-21.657 10e-4,0 z m -2.599,19.685 c 0,1.095 -0.888,1.983 -1.983,1.983 l -13.883,0 c -1.095,0 -1.983,-0.889 -1.983,-1.983 l 0,-17.78 c 0,-1.095 0.888,-1.983 1.983,-1.983 l 13.883,0 c 1.094,0 1.982,0.888 1.982,1.983 l 0.001,17.78 0,0 z"
         inkscape:connector-curvature="0" />
      <path
         id="path7546"
         d="m 26.167,5.04 0,2.599 c 0.792,0 1.435,0.643 1.435,1.435 l 0,18.875 c 0,0.792 -0.643,1.435 -1.435,1.435 l -15.113,0 c -0.755,0 -1.368,-0.612 -1.368,-1.368 l -2.531,0 0,1.289 c 0,1.441 1.168,2.609 2.609,2.609 l 17.757,0 c 1.44,0 2.608,-1.169 2.608,-2.609 l 0,-21.656 c 0,-1.441 -1.168,-2.609 -2.608,-2.609 l -1.354,0 z"
         inkscape:connector-curvature="0" />
      <path
         id="path7548"
         d="m 7.977,8.458 11.511,0 c 0.707,0 1.279,-0.558 1.279,-1.265 0,-0.707 -0.572,-1.266 -1.279,-1.266 l -11.511,0 C 7.27,5.927 6.698,6.486 6.698,7.193 6.699,7.9 7.27,8.458 7.977,8.458 z"
         inkscape:connector-curvature="0" />
      <path
         id="path7550"
         d="m 7.977,12.698 11.511,0 c 0.707,0 1.279,-0.561 1.279,-1.265 0,-0.707 -0.572,-1.265 -1.279,-1.265 l -11.511,0 c -0.707,0 -1.279,0.558 -1.279,1.265 10e-4,0.704 0.572,1.265 1.279,1.265 z"
         inkscape:connector-curvature="0" />
      <path
         id="path7552"
         d="m 7.977,16.938 11.511,0 c 0.707,0 1.279,-0.56 1.279,-1.265 0,-0.706 -0.572,-1.265 -1.279,-1.265 l -11.511,0 c -0.707,0 -1.279,0.559 -1.279,1.265 10e-4,0.705 0.572,1.265 1.279,1.265 z"
         inkscape:connector-curvature="0" />
      <path
         id="path7554"
         d="m 7.977,21.041 11.511,0 c 0.707,0 1.279,-0.559 1.279,-1.266 0,-0.705 -0.572,-1.266 -1.279,-1.266 l -11.511,0 c -0.707,0 -1.279,0.561 -1.279,1.266 10e-4,0.707 0.572,1.266 1.279,1.266 z"
         inkscape:connector-curvature="0" />
    </g>
    <text
       xml:space="preserve"
       style="font-size:18.46580505px;font-style:normal;font-weight:normal;text-align:center;line-height:125%;letter-spacing:0px;word-spacing:0px;text-anchor:middle;fill:#000000;fill-opacity:1;stroke:none;font-family:Sans"
       x="581.91187"
       y="801.97485"
       id="text7667"
       sodipodi:linespacing="125%"><tspan
         sodipodi:role="line"
         id="tspan7669"
         x="581.91187"
         y="801.97485">improvements</tspan></text>
  </g>
</svg>
