<?xml version="1.0" encoding="UTF-8" standalone="no"?>
<!-- Created with Inkscape (http://www.inkscape.org/) -->

<svg
   xmlns:dc="http://purl.org/dc/elements/1.1/"
   xmlns:cc="http://creativecommons.org/ns#"
   xmlns:rdf="http://www.w3.org/1999/02/22-rdf-syntax-ns#"
   xmlns:svg="http://www.w3.org/2000/svg"
   xmlns="http://www.w3.org/2000/svg"
   xmlns:sodipodi="http://sodipodi.sourceforge.net/DTD/sodipodi-0.dtd"
   xmlns:inkscape="http://www.inkscape.org/namespaces/inkscape"
   width="245.36414"
   height="189.85075"
   id="svg7923"
   version="1.1"
   inkscape:version="0.48.4 r9939"
   sodipodi:docname="New document 29">
  <defs
     id="defs7925" />
  <sodipodi:namedview
     id="base"
     pagecolor="#ffffff"
     bordercolor="#666666"
     borderopacity="1.0"
     inkscape:pageopacity="0.0"
     inkscape:pageshadow="2"
     inkscape:zoom="1.4"
     inkscape:cx="36.267073"
     inkscape:cy="121.9114"
     inkscape:document-units="px"
     inkscape:current-layer="layer1"
     showgrid="false"
     fit-margin-top="0"
     fit-margin-left="0"
     fit-margin-right="0"
     fit-margin-bottom="0"
     inkscape:window-width="1676"
     inkscape:window-height="1011"
     inkscape:window-x="0"
     inkscape:window-y="18"
     inkscape:window-maximized="0" />
  <metadata
     id="metadata7928">
    <rdf:RDF>
      <cc:Work
         rdf:about="">
        <dc:format>image/svg+xml</dc:format>
        <dc:type
           rdf:resource="http://purl.org/dc/dcmitype/StillImage" />
        <dc:title></dc:title>
      </cc:Work>
    </rdf:RDF>
  </metadata>
  <g
     inkscape:label="Layer 1"
     inkscape:groupmode="layer"
     id="layer1"
     transform="translate(-113.84208,-175.65181)">
    <text
       xml:space="preserve"
       style="font-size:40px;font-style:normal;font-weight:normal;line-height:125%;letter-spacing:0px;word-spacing:0px;fill:#000000;fill-opacity:1;stroke:none;font-family:Sans"
       x="167.14285"
       y="190.21931"
       id="text8170"
       sodipodi:linespacing="125%"><tspan
         sodipodi:role="line"
         id="tspan8172"
         x="167.14285"
         y="190.21931" /></text>
    <g
       id="g8749">
      <g
         id="g8724">
        <g
           id="g8018"
           transform="translate(221.14335,308.51954)">
          <path
             id="path8020"
             d="m 16,0.878 c -2.397,0 -4.669,0.545 -6.699,1.519 L 8.999,0.908 7.337,1.404 8.009,3.094 C 7.999,3.1 7.988,3.105 7.978,3.112 L 6.089,0 4.323,1.343 6.76,3.93 c -3.823,2.836 -6.306,7.381 -6.306,12.494 0,8.573 6.974,15.547 15.546,15.547 8.572,0 15.545,-6.974 15.545,-15.547 C 31.546,7.852 24.573,0.878 16,0.878 z m 0,27.306 c -6.484,0 -11.758,-5.273 -11.758,-11.76 0,-0.86 0.093,-1.7 0.27,-2.509 h 7.507 l -0.029,-3.165 3.235,3.165 h 12.263 c 0.176,0.809 0.27,1.649 0.27,2.509 0,6.484 -5.274,11.76 -11.758,11.76 z"
             inkscape:connector-curvature="0" />
          <circle
             id="circle8022"
             r="1.6900001"
             cy="17.667"
             cx="11.585"
             sodipodi:cx="11.585"
             sodipodi:cy="17.667"
             sodipodi:rx="1.6900001"
             sodipodi:ry="1.6900001"
             d="m 13.275,17.667 c 0,0.933361 -0.756639,1.69 -1.69,1.69 -0.933361,0 -1.69,-0.756639 -1.69,-1.69 0,-0.933361 0.756639,-1.69 1.69,-1.69 0.933361,0 1.69,0.756639 1.69,1.69 z" />
          <circle
             id="circle8024"
             r="1.6900001"
             cy="17.667"
             cx="21.091"
             sodipodi:cx="21.091"
             sodipodi:cy="17.667"
             sodipodi:rx="1.6900001"
             sodipodi:ry="1.6900001"
             d="m 22.781,17.667 c 0,0.933361 -0.756639,1.69 -1.69,1.69 -0.933362,0 -1.69,-0.756639 -1.69,-1.69 0,-0.933361 0.756638,-1.69 1.69,-1.69 0.933361,0 1.69,0.756639 1.69,1.69 z" />
          <path
             id="path8026"
             d="m 16.331,24.464 c 2.001,0 3.67,-1.364 4.198,-3.18 h -8.396 c 0.528,1.816 2.197,3.18 4.198,3.18 z"
             inkscape:connector-curvature="0" />
        </g>
        <g
           id="g8099"
           transform="translate(145.54816,199.0717)">
          <path
             id="path8101"
             d="m 13.638,14.624 c 10e-4,0.005 0.002,0.011 0.004,0.015 h 0.004 c -0.003,0 -0.006,-0.006 -0.008,-0.015 z"
             inkscape:connector-curvature="0" />
          <path
             id="path8103"
             d="m 13.638,14.624 c -0.004,-0.021 -0.008,-0.045 -0.015,-0.063 0.007,0.02 0.011,0.046 0.015,0.063 z"
             inkscape:connector-curvature="0" />
          <polygon
             id="polygon8105"
             points="25.921,14.639 25.921,14.638 25.919,14.639 " />
          <path
             id="path8107"
             d="m 25.921,14.638 c 0.004,-0.003 0.004,-0.013 0,0 l 0,0 z"
             inkscape:connector-curvature="0" />
          <path
             id="path8109"
             d="M 29.374,5.249 C 26.695,2.035 19.141,-0.236 12.763,1.583 6.049,3.497 2.674,7.707 2.231,15.149 2.198,15.703 2.055,16.25 1.811,16.748 l -1.704,3.479 c -0.134,0.273 -0.143,0.594 -0.025,0.875 0.119,0.281 0.353,0.498 0.643,0.594 l 0.556,0.187 c 0.482,0.16 0.801,0.614 0.789,1.122 -0.15,6.657 0.194,8.354 7.237,8.354 7.507,0 6.544,-5.521 15.615,-6.598 6.706,-0.799 9.049,-13.995 4.452,-19.512 z m -1.831,8.645 c 0,0.424 -0.339,0.745 -0.764,0.745 h -0.858 c -10e-4,0.003 -0.002,0.005 -0.002,0.008 -0.153,0.606 -0.392,1.183 -0.704,1.707 l 0.6,0.605 c 0.302,0.299 0.302,0.787 0,1.087 l -1.104,1.106 c -0.3,0.3 -0.785,0.3 -1.086,0 l -0.602,-0.603 c -0.512,0.308 -1.071,0.542 -1.666,0.694 -0.002,0 -0.004,0.436 -0.01,0.854 -0.002,0.422 -0.345,0.76 -0.767,0.76 h -1.563 c -0.205,0 -0.398,-0.08 -0.545,-0.226 -0.145,-0.146 -0.226,-0.342 -0.223,-0.546 l 0.009,-0.828 c -0.614,-0.152 -1.19,-0.393 -1.72,-0.708 l -0.599,0.603 c -0.145,0.145 -0.34,0.226 -0.544,0.226 -0.204,0 -0.399,-0.081 -0.543,-0.226 L 13.743,18.047 C 13.6,17.902 13.52,17.708 13.52,17.504 c 0,-0.204 0.08,-0.398 0.223,-0.543 L 14.345,16.36 C 14.033,15.837 13.794,15.266 13.643,14.659 13.641,14.653 13.64,14.647 13.639,14.64 h -0.83 c -0.423,0 -0.76,-0.322 -0.76,-0.745 v -1.566 c 0,-0.424 0.341,-0.768 0.764,-0.768 h 0.838 c 0,0 -10e-4,0 10e-4,-0.002 0.15,-0.598 0.387,-1.163 0.695,-1.679 L 13.743,9.277 c -0.298,-0.3 -0.298,-0.785 0,-1.086 l 1.108,-1.107 c 0.145,-0.144 0.34,-0.224 0.544,-0.224 0.204,0 0.399,0.081 0.544,0.224 l 0.6,0.601 c 0.53,-0.317 1.106,-0.581 1.722,-0.711 L 18.25,6.135 c -0.001,-0.206 0.079,-0.4 0.226,-0.546 0.145,-0.145 0.338,-0.225 0.545,-0.225 h 1.562 c 0.422,0 0.766,0.339 0.768,0.761 0.004,0.425 0.006,0.867 0.01,0.868 0.594,0.151 1.152,0.388 1.664,0.695 l 0.603,-0.603 c 0.146,-0.144 0.34,-0.225 0.544,-0.225 0.204,0 0.398,0.081 0.543,0.224 l 1.108,1.107 c 0.297,0.3 0.298,0.785 0,1.085 l -0.604,0.603 c 0.309,0.516 0.547,1.091 0.697,1.689 0.001,0.002 0.001,0.014 0.002,0.014 h 0.865 c 0.424,0 0.763,0.323 0.763,0.747 v 1.565 h -0.003 z"
             inkscape:connector-curvature="0" />
          <circle
             id="circle8111"
             r="2.1589999"
             cy="13.118"
             cx="19.781"
             sodipodi:cx="19.781"
             sodipodi:cy="13.118"
             sodipodi:rx="2.1589999"
             sodipodi:ry="2.1589999"
             d="m 21.94,13.118 c 0,1.192383 -0.966617,2.159 -2.159,2.159 -1.192383,0 -2.159,-0.966617 -2.159,-2.159 0,-1.192383 0.966617,-2.159 2.159,-2.159 1.192383,0 2.159,0.966617 2.159,2.159 z" />
        </g>
        <g
           id="g8146"
           transform="translate(283.99801,198.50404)">
          <path
             id="path8148"
             d="m 26.966,18.232 h -1.784 v -0.744 h 0.731 c 0.614,0 1.13,-0.555 1.13,-1.171 V 2.953 c 0,-0.615 -0.516,-1.094 -1.13,-1.094 H 5.865 c -0.614,0 -0.903,0.479 -0.903,1.094 v 13.364 c 0,0.617 0.289,1.171 0.903,1.171 h 0.958 v 0.744 H 4.873 L 0,27.827 v 1.475 c 0,0.464 0.376,0.841 0.84,0.841 h 30.324 c 0.464,0 0.84,-0.377 0.84,-0.841 v -1.475 l -5.038,-9.595 z m -2.155,-4.408 c 0,0.791 -0.642,1.433 -1.433,1.433 H 8.503 c -0.791,0 -1.432,-0.642 -1.432,-1.433 v -8.3 c 0,-0.791 0.641,-1.432 1.432,-1.432 h 14.875 c 0.791,0 1.433,0.641 1.433,1.432 v 8.3 z m -5.459,3.665 v 0.745 H 12.53 v -0.745 h 6.822 z m -6.126,9.551 c -0.163,0 -0.315,-0.083 -0.403,-0.22 -0.089,-0.135 -0.103,-0.31 -0.036,-0.457 l 0.289,-0.649 c 0.077,-0.174 0.25,-0.286 0.439,-0.286 h 4.749 c 0.185,0 0.35,0.104 0.432,0.268 l 0.322,0.65 c 0.074,0.148 0.066,0.325 -0.021,0.467 -0.087,0.143 -0.242,0.229 -0.409,0.229 l -5.362,-0.002 0,0 z M 6.47,24.561 c -0.264,0 -0.51,-0.135 -0.653,-0.354 -0.144,-0.222 -0.165,-0.5 -0.058,-0.741 l 1.524,-3.404 c 0.125,-0.281 0.403,-0.461 0.71,-0.461 h 15.624 c 0.295,0 0.564,0.168 0.695,0.43 l 1.705,3.406 c 0.121,0.24 0.105,0.527 -0.035,0.758 -0.142,0.229 -0.393,0.369 -0.662,0.369 H 6.47 v -0.003 z"
             inkscape:connector-curvature="0" />
        </g>
        <text
           xml:space="preserve"
           style="font-size:40px;font-style:normal;font-weight:normal;line-height:125%;letter-spacing:0px;word-spacing:0px;fill:#000000;fill-opacity:1;stroke:none;font-family:Sans"
           x="205"
           y="365.21936"
           id="text8162"
           sodipodi:linespacing="125%"><tspan
             sodipodi:role="line"
             id="tspan8164"
             x="205"
             y="365.21936"
             style="font-size:20px">zábava</tspan></text>
        <text
           xml:space="preserve"
           style="font-size:40px;font-style:normal;font-weight:normal;line-height:125%;letter-spacing:0px;word-spacing:0px;fill:#000000;fill-opacity:1;stroke:none;font-family:Sans"
           x="288.57144"
           y="191.6479"
           id="text8166"
           sodipodi:linespacing="125%"><tspan
             sodipodi:role="line"
             id="tspan8168"
             x="288.57144"
             y="191.6479"
             style="font-size:20px">systém</tspan></text>
        <text
           xml:space="preserve"
           style="font-size:40px;font-style:normal;font-weight:normal;line-height:125%;letter-spacing:0px;word-spacing:0px;fill:#000000;fill-opacity:1;stroke:none;font-family:Sans"
           x="112.14286"
           y="193.07646"
           id="text8174"
           sodipodi:linespacing="125%"><tspan
             sodipodi:role="line"
             id="tspan8176"
             x="112.14286"
             y="193.07646"
             style="font-size:20px">učení</tspan></text>
        <path
           style="fill:none;stroke:#000000;stroke-width:4.5437808;stroke-linecap:butt;stroke-linejoin:miter;stroke-miterlimit:4;stroke-opacity:1;stroke-dasharray:none"
           d="m 188.42008,217.36218 83.87414,0"
           id="path8178"
           inkscape:connector-curvature="0" />
        <path
           style="fill:none;stroke:#000000;stroke-width:4.5437808;stroke-linecap:butt;stroke-linejoin:miter;stroke-miterlimit:4;stroke-opacity:1;stroke-dasharray:none"
           d="m 177.60289,233.90074 41.93708,72.63714"
           id="path8178-7"
           inkscape:connector-curvature="0" />
        <path
           style="fill:none;stroke:#000000;stroke-width:4.5437808;stroke-linecap:butt;stroke-linejoin:miter;stroke-miterlimit:4;stroke-opacity:1;stroke-dasharray:none"
           d="m 289.53997,234.61503 -41.93708,72.63714"
           id="path8178-7-9"
           inkscape:connector-curvature="0" />
      </g>
    </g>
  </g>
</svg>
