<?xml version="1.0" encoding="UTF-8" standalone="no"?>
<!-- Created with Inkscape (http://www.inkscape.org/) -->

<svg
   xmlns:dc="http://purl.org/dc/elements/1.1/"
   xmlns:cc="http://creativecommons.org/ns#"
   xmlns:rdf="http://www.w3.org/1999/02/22-rdf-syntax-ns#"
   xmlns:svg="http://www.w3.org/2000/svg"
   xmlns="http://www.w3.org/2000/svg"
   xmlns:sodipodi="http://sodipodi.sourceforge.net/DTD/sodipodi-0.dtd"
   xmlns:inkscape="http://www.inkscape.org/namespaces/inkscape"
   width="275.72235"
   height="110.62596"
   id="svg2"
   version="1.1"
   inkscape:version="0.48.4 r9939"
   sodipodi:docname="New document 1">
  <defs
     id="defs4">
    <marker
       inkscape:stockid="TriangleOutM"
       orient="auto"
       refY="0"
       refX="0"
       id="TriangleOutM"
       style="overflow:visible">
      <path
         id="path6834"
         d="m 5.77,0 -8.65,5 0,-10 8.65,5 z"
         style="fill-rule:evenodd;stroke:#000000;stroke-width:1pt"
         transform="scale(0.4,0.4)"
         inkscape:connector-curvature="0" />
    </marker>
    <marker
       inkscape:stockid="Arrow2Mend"
       orient="auto"
       refY="0"
       refX="0"
       id="Arrow2Mend"
       style="overflow:visible">
      <path
         id="path6716"
         style="fill-rule:evenodd;stroke-width:0.625;stroke-linejoin:round"
         d="M 8.7185878,4.0337352 -2.2072895,0.01601326 8.7185884,-4.0017078 c -1.7454984,2.3720609 -1.7354408,5.6174519 -6e-7,8.035443 z"
         transform="scale(-0.6,-0.6)"
         inkscape:connector-curvature="0" />
    </marker>
    <marker
       inkscape:stockid="Arrow2Lend"
       orient="auto"
       refY="0"
       refX="0"
       id="Arrow2Lend"
       style="overflow:visible">
      <path
         id="path6710"
         style="fill-rule:evenodd;stroke-width:0.625;stroke-linejoin:round"
         d="M 8.7185878,4.0337352 -2.2072895,0.01601326 8.7185884,-4.0017078 c -1.7454984,2.3720609 -1.7354408,5.6174519 -6e-7,8.035443 z"
         transform="matrix(-1.1,0,0,-1.1,-1.1,0)"
         inkscape:connector-curvature="0" />
    </marker>
    <marker
       inkscape:stockid="Arrow1Lend"
       orient="auto"
       refY="0"
       refX="0"
       id="Arrow1Lend"
       style="overflow:visible">
      <path
         id="path6692"
         d="M 0,0 5,-5 -12.5,0 5,5 0,0 z"
         style="fill-rule:evenodd;stroke:#000000;stroke-width:1pt"
         transform="matrix(-0.8,0,0,-0.8,-10,0)"
         inkscape:connector-curvature="0" />
    </marker>
    <marker
       inkscape:stockid="TriangleOutM"
       orient="auto"
       refY="0"
       refX="0"
       id="TriangleOutM-9"
       style="overflow:visible">
      <path
         inkscape:connector-curvature="0"
         id="path6834-8"
         d="m 5.77,0 -8.65,5 0,-10 8.65,5 z"
         style="fill-rule:evenodd;stroke:#000000;stroke-width:1pt"
         transform="scale(0.4,0.4)" />
    </marker>
    <marker
       inkscape:stockid="TriangleOutM"
       orient="auto"
       refY="0"
       refX="0"
       id="TriangleOutM-97"
       style="overflow:visible">
      <path
         inkscape:connector-curvature="0"
         id="path6834-5"
         d="m 5.77,0 -8.65,5 0,-10 8.65,5 z"
         style="fill-rule:evenodd;stroke:#000000;stroke-width:1pt"
         transform="scale(0.4,0.4)" />
    </marker>
  </defs>
  <sodipodi:namedview
     id="base"
     pagecolor="#ffffff"
     bordercolor="#666666"
     borderopacity="1.0"
     inkscape:pageopacity="0.0"
     inkscape:pageshadow="2"
     inkscape:zoom="1.979899"
     inkscape:cx="54.184977"
     inkscape:cy="-22.302543"
     inkscape:document-units="px"
     inkscape:current-layer="layer1"
     showgrid="false"
     fit-margin-top="0"
     fit-margin-left="0"
     fit-margin-right="0"
     fit-margin-bottom="0"
     inkscape:window-width="1676"
     inkscape:window-height="1011"
     inkscape:window-x="0"
     inkscape:window-y="18"
     inkscape:window-maximized="0" />
  <metadata
     id="metadata7">
    <rdf:RDF>
      <cc:Work
         rdf:about="">
        <dc:format>image/svg+xml</dc:format>
        <dc:type
           rdf:resource="http://purl.org/dc/dcmitype/StillImage" />
        <dc:title></dc:title>
      </cc:Work>
    </rdf:RDF>
  </metadata>
  <g
     inkscape:label="Layer 1"
     inkscape:groupmode="layer"
     id="layer1"
     transform="translate(-73.987471,-86.22755)">
    <g
       id="g7757"
       transform="translate(-31.314729,-156.06857)">
      <g
         transform="translate(105.3022,249.09247)"
         id="g4759">
        <g
           id="g4691">
          <g
             id="g4693">
            <path
               inkscape:connector-curvature="0"
               d="m 49.541,38.655 c 1.617,0 3.158,0.338 4.559,0.946 0.105,-2.286 0.893,-4.4 2.157,-6.15 -0.89,-0.186 -1.808,-0.285 -2.748,-0.285 h -8.906 c -0.938,0 -1.856,0.098 -2.739,0.282 1.347,1.869 2.152,4.15 2.165,6.62 1.637,-0.9 3.515,-1.413 5.512,-1.413 z"
               id="path4695" />
            <circle
               d="m 59.550001,21.954 c 0,5.796781 -4.699219,10.496001 -10.496,10.496001 -5.796781,0 -10.496,-4.69922 -10.496,-10.496001 0,-5.79678 4.699219,-10.496 10.496,-10.496 5.796781,0 10.496,4.69922 10.496,10.496 z"
               sodipodi:ry="10.496"
               sodipodi:rx="10.496"
               sodipodi:cy="21.954"
               sodipodi:cx="49.054001"
               cx="49.054001"
               cy="21.954"
               r="10.496"
               id="circle4697" />
            <path
               inkscape:connector-curvature="0"
               d="m 65.539,50.36 c 5.342,0 9.67,-4.33 9.67,-9.67 0,-5.342 -4.328,-9.67 -9.67,-9.67 -5.292,0 -9.583,4.251 -9.663,9.524 3.049,1.912 5.187,5.146 5.577,8.9 1.242,0.582 2.623,0.916 4.086,0.916 z"
               id="path4699" />
            <path
               inkscape:connector-curvature="0"
               d="m 32.571,31.019 c -5.343,0 -9.671,4.329 -9.671,9.67 0,5.341 4.328,9.669 9.671,9.669 1.892,0 3.651,-0.553 5.143,-1.492 0.475,-3.091 2.132,-5.794 4.499,-7.634 0.01,-0.181 0.027,-0.36 0.027,-0.543 0,-5.341 -4.33,-9.67 -9.669,-9.67 z"
               id="path4701" />
            <path
               inkscape:connector-curvature="0"
               d="m 71.82,30.813 c 3.049,1.912 5.187,5.146 5.576,8.901 1.241,0.581 2.623,0.916 4.086,0.916 5.342,0 9.67,-4.329 9.67,-9.67 0,-5.341 -4.328,-9.67 -9.67,-9.67 -5.291,-10e-4 -9.582,4.251 -9.662,9.523 z"
               id="path4703" />
            <circle
               d="m 59.212,50.673 c 0,5.341146 -4.329854,9.671 -9.671,9.671 -5.341145,0 -9.670999,-4.329854 -9.670999,-9.671 0,-5.341145 4.329854,-9.670999 9.670999,-9.670999 5.341146,0 9.671,4.329854 9.671,9.670999 z"
               sodipodi:ry="9.6709995"
               sodipodi:rx="9.6709995"
               sodipodi:cy="50.673"
               sodipodi:cx="49.541"
               cx="49.541"
               cy="50.673"
               r="9.6709995"
               id="circle4705" />
            <path
               inkscape:connector-curvature="0"
               d="m 69.643,51.019 h -8.144 c -0.089,3.258 -1.479,6.192 -3.679,8.301 6.068,1.806 10.509,7.434 10.509,14.082 v 3.092 c 8.04,-0.297 12.674,-2.573 12.979,-2.729 l 0.646,-0.328 h 0.067 V 63.401 C 82.023,56.573 76.469,51.019 69.643,51.019 z"
               id="path4707" />
            <path
               inkscape:connector-curvature="0"
               d="m 85.585,41.289 h -8.142 c -0.088,3.258 -1.479,6.192 -3.678,8.301 6.068,1.806 10.508,7.433 10.508,14.081 v 3.092 c 8.039,-0.296 12.674,-2.572 12.979,-2.729 l 0.646,-0.327 h 0.069 V 53.671 c 0,-6.827 -5.554,-12.382 -12.382,-12.382 z"
               id="path4709" />
            <path
               inkscape:connector-curvature="0"
               d="m 41.256,59.319 c -2.189,-2.099 -3.575,-5.017 -3.677,-8.254 -0.301,-0.022 -0.6,-0.047 -0.908,-0.047 h -8.203 c -6.828,0 -12.383,5.555 -12.383,12.383 v 10.037 l 0.025,0.155 0.691,0.218 c 5.227,1.633 9.893,2.383 13.944,2.621 v -3.031 c 0.002,-6.647 4.441,-12.275 10.511,-14.082 z"
               id="path4711" />
            <path
               inkscape:connector-curvature="0"
               d="m 53.643,61.003 h -8.206 c -6.828,0 -12.383,5.557 -12.383,12.382 v 10.037 l 0.026,0.157 0.69,0.216 c 6.516,2.035 12.177,2.715 16.835,2.715 9.101,0 14.375,-2.595 14.701,-2.76 l 0.646,-0.328 H 66.02 V 73.385 C 66.023,66.558 60.469,61.003 53.643,61.003 z"
               id="path4713" />
            <path
               inkscape:connector-curvature="0"
               d="m 16.486,40.938 c 1.463,0 2.844,-0.335 4.086,-0.916 0.39,-3.755 2.527,-6.99 5.576,-8.902 -0.08,-5.271 -4.371,-9.523 -9.662,-9.523 -5.343,0 -9.671,4.329 -9.671,9.671 0,5.341 4.328,9.67 9.671,9.67 z"
               id="path4715" />
            <path
               inkscape:connector-curvature="0"
               d="M 24.202,49.899 C 22.004,47.79 20.613,44.855 20.525,41.596 H 12.382 C 5.554,41.597 0,47.152 0,53.979 v 10.037 h 0.069 l 0.646,0.327 c 0.306,0.154 4.939,2.433 12.979,2.728 v -3.092 c 0,-6.647 4.439,-12.275 10.508,-14.08 z"
               id="path4717" />
            <path
               inkscape:connector-curvature="0"
               d="m 27.796,30.063 c 1.16,-0.47 2.93,-1.047 4.62,-1.047 1.967,0 3.891,0.506 5.607,1.469 0.382,-0.375 0.732,-0.783 1.05,-1.22 -1.63,-2.141 -2.52,-4.765 -2.52,-7.464 0,-1.818 0.406,-3.622 1.18,-5.261 -1.762,-1.592 -4.01,-2.461 -6.399,-2.461 -4.348,0 -8.133,2.943 -9.241,7.088 3.248,1.89 5.364,5.194 5.703,8.896 z"
               id="path4719" />
            <path
               inkscape:connector-curvature="0"
               d="m 59.117,28.718 c 0.336,0.534 0.729,1.037 1.175,1.505 1.588,-0.792 3.334,-1.208 5.092,-1.208 1.729,0 3.386,0.442 4.472,0.812 0.34,-4.013 2.767,-7.555 6.4,-9.35 -1.332,-3.805 -4.938,-6.402 -9.021,-6.402 -2.64,0 -5.14,1.084 -6.945,2.992 0.634,1.512 0.955,3.101 0.955,4.73 -10e-4,2.495 -0.735,4.873 -2.128,6.921 z"
               id="path4721" />
          </g>
        </g>
        <g
           id="g4723" />
        <g
           id="g4725" />
        <g
           id="g4727" />
        <g
           id="g4729" />
        <g
           id="g4731" />
        <g
           id="g4733" />
        <g
           id="g4735" />
        <g
           id="g4737" />
        <g
           id="g4739" />
        <g
           id="g4741" />
        <g
           id="g4743" />
        <g
           id="g4745" />
        <g
           id="g4747" />
        <g
           id="g4749" />
        <g
           id="g4751" />
      </g>
      <g
         transform="translate(267.25609,281.33326)"
         id="g5551">
        <path
           inkscape:connector-curvature="0"
           d="m 25.141,2.656 c 0,-1.441 -1.168,-2.609 -2.607,-2.609 H 4.599 c -1.383,0 -2.504,1.121 -2.504,2.504 v 21.762 c 0,1.441 1.168,2.609 2.609,2.609 h 17.827 c 1.441,0 2.609,-1.168 2.609,-2.609 V 2.656 l 10e-4,0 z m -2.599,19.685 c 0,1.095 -0.888,1.983 -1.983,1.983 H 6.676 c -1.095,0 -1.983,-0.889 -1.983,-1.983 V 4.561 c 0,-1.095 0.888,-1.983 1.983,-1.983 h 13.883 c 1.094,0 1.982,0.888 1.982,1.983 l 0.001,17.78 0,0 z"
           id="path5553" />
        <path
           inkscape:connector-curvature="0"
           d="m 26.167,5.04 v 2.599 c 0.792,0 1.435,0.643 1.435,1.435 v 18.875 c 0,0.792 -0.643,1.435 -1.435,1.435 H 11.054 c -0.755,0 -1.368,-0.612 -1.368,-1.368 H 7.155 v 1.289 c 0,1.441 1.168,2.609 2.609,2.609 h 17.757 c 1.44,0 2.608,-1.169 2.608,-2.609 V 7.649 c 0,-1.441 -1.168,-2.609 -2.608,-2.609 h -1.354 z"
           id="path5555" />
        <path
           inkscape:connector-curvature="0"
           d="m 7.977,8.458 h 11.511 c 0.707,0 1.279,-0.558 1.279,-1.265 0,-0.707 -0.572,-1.266 -1.279,-1.266 H 7.977 C 7.27,5.927 6.698,6.486 6.698,7.193 6.699,7.9 7.27,8.458 7.977,8.458 z"
           id="path5557" />
        <path
           inkscape:connector-curvature="0"
           d="m 7.977,12.698 h 11.511 c 0.707,0 1.279,-0.561 1.279,-1.265 0,-0.707 -0.572,-1.265 -1.279,-1.265 H 7.977 c -0.707,0 -1.279,0.558 -1.279,1.265 10e-4,0.704 0.572,1.265 1.279,1.265 z"
           id="path5559" />
        <path
           inkscape:connector-curvature="0"
           d="m 7.977,16.938 h 11.511 c 0.707,0 1.279,-0.56 1.279,-1.265 0,-0.706 -0.572,-1.265 -1.279,-1.265 H 7.977 c -0.707,0 -1.279,0.559 -1.279,1.265 10e-4,0.705 0.572,1.265 1.279,1.265 z"
           id="path5561" />
        <path
           inkscape:connector-curvature="0"
           d="m 7.977,21.041 h 11.511 c 0.707,0 1.279,-0.559 1.279,-1.266 0,-0.705 -0.572,-1.266 -1.279,-1.266 H 7.977 c -0.707,0 -1.279,0.561 -1.279,1.266 10e-4,0.707 0.572,1.266 1.279,1.266 z"
           id="path5563" />
      </g>
      <g
         transform="translate(349.21375,241.03712)"
         id="g5661">
        <path
           inkscape:connector-curvature="0"
           d="M 10.697,26.199 H 4.798 c -1.127,0 -2.06,-0.885 -2.06,-2.012 V 5.901 c 0,-1.127 0.933,-2.006 2.06,-2.006 h 14.277 c 1.127,0 2.046,0.879 2.046,2.006 v 15.322 l 2.637,-3.134 V 3.943 c 0,-1.482 -1.171,-2.684 -2.652,-2.684 H 2.661 c -1.423,0 -2.559,1.153 -2.559,2.575 v 22.382 c 0,1.482 1.185,2.687 2.669,2.687 H 13.129 L 11.905,27.84 c -0.536,-0.463 -0.939,-1.033 -1.208,-1.641 z"
           id="path5663" />
        <path
           inkscape:connector-curvature="0"
           d="M 17.977,7.275 H 6.136 c -0.728,0 -1.314,0.591 -1.314,1.318 0,0.726 0.587,1.317 1.314,1.317 h 11.84 c 0.728,0 1.312,-0.591 1.312,-1.317 C 19.29,7.866 18.703,7.275 17.977,7.275 z"
           id="path5665" />
        <path
           inkscape:connector-curvature="0"
           d="M 17.977,11.667 H 6.136 c -0.728,0 -1.314,0.59 -1.314,1.318 0,0.724 0.587,1.318 1.314,1.318 h 11.84 c 0.728,0 1.312,-0.594 1.312,-1.318 0.002,-0.727 -0.585,-1.318 -1.311,-1.318 z"
           id="path5667" />
        <path
           inkscape:connector-curvature="0"
           d="M 17.977,16.061 H 6.136 c -0.728,0 -1.314,0.558 -1.314,1.285 0,0.725 0.587,1.283 1.314,1.283 h 11.84 c 0.728,0 1.312,-0.559 1.312,-1.283 0.002,-0.727 -0.585,-1.285 -1.311,-1.285 z"
           id="path5669" />
        <path
           inkscape:connector-curvature="0"
           d="m 4.821,21.536 c 0,0.726 0.587,1.284 1.314,1.284 h 4.418 c 0.185,-0.473 0.469,-1.023 0.857,-1.479 0.408,-0.473 0.889,-0.82 1.412,-1.092 H 6.136 c -0.728,0.002 -1.315,0.562 -1.315,1.287 z"
           id="path5671" />
        <path
           inkscape:connector-curvature="0"
           d="m 17.977,20.251 h -0.988 c 0.324,0.136 0.633,0.366 0.916,0.612 l 1.312,1.123 c 0.05,-0.135 0.076,-0.281 0.076,-0.437 -0.003,-0.723 -0.59,-1.298 -1.316,-1.298 z"
           id="path5673" />
        <path
           inkscape:connector-curvature="0"
           d="m 31.001,16.73 c -0.966,-0.828 -2.421,-0.711 -3.246,0.259 l -7.565,8.868 -3.782,-3.248 c -0.967,-0.827 -2.42,-0.717 -3.247,0.248 -0.829,0.966 -0.717,2.418 0.248,3.246 l 5.533,4.752 c 0.422,0.358 0.951,0.556 1.5,0.556 0.062,0 0.119,-0.002 0.182,-0.007 0.607,-0.047 1.176,-0.336 1.572,-0.801 l 9.066,-10.627 c 0.822,-0.967 0.709,-2.419 -0.261,-3.246 z"
           id="path5675" />
      </g>
      <g
         transform="translate(347.14223,321.14308)"
         id="g5751">
        <path
           inkscape:connector-curvature="0"
           d="M 15.989,24.09 H 5.425 c -1.079,0 -1.968,-0.844 -1.968,-1.923 V 4.648 C 3.457,3.569 4.346,2.72 5.425,2.72 h 13.677 c 1.08,0 1.985,0.849 1.985,1.928 v 11.918 l 1.231,1.382 1.256,-1.407 c 0.016,-0.016 0.031,-0.031 0.031,-0.048 V 2.772 c 0,-1.419 -1.14,-2.57 -2.559,-2.57 H 3.379 C 2.016,0.202 0.94,1.306 0.94,2.668 v 21.441 c 0,1.42 1.123,2.574 2.543,2.574 h 10.946 c 0.018,0 0.036,-0.054 0.055,-0.074 l 1.879,-2.092 -0.374,-0.427 z"
           id="path5753" />
        <path
           inkscape:connector-curvature="0"
           d="M 18.048,6.002 H 6.707 c -0.697,0 -1.26,0.563 -1.26,1.26 0,0.696 0.563,1.258 1.26,1.258 h 11.341 c 0.698,0 1.263,-0.563 1.263,-1.258 0,-0.698 -0.565,-1.26 -1.263,-1.26 z"
           id="path5755" />
        <path
           inkscape:connector-curvature="0"
           d="M 18.048,10.199 H 6.707 c -0.697,0 -1.26,0.524 -1.26,1.221 0,0.693 0.563,1.221 1.26,1.221 h 11.341 c 0.698,0 1.263,-0.528 1.263,-1.221 0,-0.696 -0.565,-1.221 -1.263,-1.221 z"
           id="path5757" />
        <path
           inkscape:connector-curvature="0"
           d="m 14.803,16.219 c 1.259,-1.137 2.993,-1.426 4.482,-0.878 -0.112,-0.578 -0.622,-1.02 -1.237,-1.02 H 6.707 c -0.697,0 -1.26,0.564 -1.26,1.259 0,0.695 0.563,1.259 1.26,1.259 h 7.527 c 0.167,-0.23 0.357,-0.428 0.569,-0.62 z"
           id="path5759" />
        <path
           inkscape:connector-curvature="0"
           d="m 6.707,18.366 c -0.697,0 -1.26,0.563 -1.26,1.259 0,0.696 0.563,1.259 1.26,1.259 h 6.864 c -0.268,-0.84 -0.294,-1.679 -0.083,-2.519 l -6.781,0.001 0,0 z"
           id="path5761" />
        <path
           inkscape:connector-curvature="0"
           d="m 25.275,24.534 1.483,-1.646 1.728,-1.914 c 0.814,-0.904 0.744,-2.301 -0.161,-3.115 -0.908,-0.817 -2.3,-0.744 -3.117,0.16 l -1.42,1.576 -1.485,1.646 -2.906,-3.222 c -0.815,-0.903 -2.209,-0.978 -3.117,-0.16 -0.905,0.815 -0.976,2.211 -0.161,3.115 l 3.212,3.56 -1.483,1.646 -1.728,1.913 c -0.816,0.905 -0.744,2.3 0.161,3.116 0.422,0.381 0.95,0.568 1.476,0.568 0.603,0 1.203,-0.246 1.64,-0.729 l 1.42,-1.573 1.485,-1.646 2.906,3.221 c 0.437,0.482 1.037,0.729 1.64,0.729 0.526,0 1.055,-0.188 1.479,-0.567 0.904,-0.815 0.976,-2.211 0.16,-3.116 l -3.212,-3.562 z"
           id="path5763" />
      </g>
      <g
         transform="matrix(0.57290763,0,0,0.57290763,224.95638,302.01628)"
         id="g5876">
        <path
           inkscape:connector-curvature="0"
           d="M 15.966,0 C 7.162,0 0,7.162 0,15.965 0,24.768 7.162,31.93 15.966,31.93 24.768,31.93 31.93,24.768 31.93,15.965 31.93,7.162 24.768,0 15.966,0 z m 0,28.184 c -6.74,0 -12.222,-5.479 -12.222,-12.219 0,-6.738 5.482,-12.22 12.222,-12.22 6.737,0 12.22,5.481 12.22,12.22 0,6.737 -5.483,12.219 -12.22,12.219 z"
           id="path5878" />
        <circle
           d="m 16.961,5.9840002 c 0,0.5495233 -0.445477,0.995 -0.995,0.995 -0.549524,0 -0.995,-0.4454767 -0.995,-0.995 0,-0.5495233 0.445476,-0.995 0.995,-0.995 0.549523,0 0.995,0.4454767 0.995,0.995 z"
           sodipodi:ry="0.995"
           sodipodi:rx="0.995"
           sodipodi:cy="5.9840002"
           sodipodi:cx="15.966"
           cx="15.966"
           cy="5.9840002"
           r="0.995"
           id="circle5880" />
        <circle
           d="m 16.962,25.820999 c 0,0.550076 -0.445925,0.996 -0.996,0.996 -0.550076,0 -0.996,-0.445924 -0.996,-0.996 0,-0.550075 0.445924,-0.996 0.996,-0.996 0.550075,0 0.996,0.445925 0.996,0.996 z"
           sodipodi:ry="0.99599999"
           sodipodi:rx="0.99599999"
           sodipodi:cy="25.820999"
           sodipodi:cx="15.966"
           cx="15.966"
           cy="25.820999"
           r="0.99599999"
           id="circle5882" />
        <circle
           d="m 26.878999,15.903 c 0,0.550075 -0.445924,0.996 -0.996,0.996 -0.550075,0 -0.996,-0.445925 -0.996,-0.996 0,-0.550076 0.445925,-0.996 0.996,-0.996 0.550076,0 0.996,0.445924 0.996,0.996 z"
           sodipodi:ry="0.99599999"
           sodipodi:rx="0.99599999"
           sodipodi:cy="15.903"
           sodipodi:cx="25.882999"
           cx="25.882999"
           cy="15.903"
           r="0.99599999"
           id="circle5884" />
        <circle
           d="m 7.0410001,15.903 c 0,0.550075 -0.4459244,0.996 -0.996,0.996 -0.5500756,0 -0.996,-0.445925 -0.996,-0.996 0,-0.550076 0.4459244,-0.996 0.996,-0.996 0.5500756,0 0.996,0.445924 0.996,0.996 z"
           sodipodi:ry="0.99599999"
           sodipodi:rx="0.99599999"
           sodipodi:cy="15.903"
           sodipodi:cx="6.0450001"
           cx="6.0450001"
           cy="15.903"
           r="0.99599999"
           id="circle5886" />
        <circle
           d="m 23.970999,8.8900003 c 0,0.5489711 -0.445029,0.9940001 -0.994,0.9940001 -0.548971,0 -0.994,-0.445029 -0.994,-0.9940001 0,-0.548971 0.445029,-0.994 0.994,-0.994 0.548971,0 0.994,0.445029 0.994,0.994 z"
           sodipodi:ry="0.99400002"
           sodipodi:rx="0.99400002"
           sodipodi:cy="8.8900003"
           sodipodi:cx="22.976999"
           cx="22.976999"
           cy="8.8900003"
           r="0.99400002"
           id="circle5888" />
        <circle
           d="m 9.9460002,22.916 c 0,0.549524 -0.4454767,0.995 -0.995,0.995 -0.5495233,0 -0.995,-0.445476 -0.995,-0.995 0,-0.549523 0.4454767,-0.995 0.995,-0.995 0.5495233,0 0.995,0.445477 0.995,0.995 z"
           sodipodi:ry="0.995"
           sodipodi:rx="0.995"
           sodipodi:cy="22.916"
           sodipodi:cx="8.9510002"
           cx="8.9510002"
           cy="22.916"
           r="0.995"
           id="circle5890" />
        <circle
           d="m 23.971999,22.916 c 0,0.549524 -0.445476,0.995 -0.995,0.995 -0.549523,0 -0.995,-0.445476 -0.995,-0.995 0,-0.549523 0.445477,-0.995 0.995,-0.995 0.549524,0 0.995,0.445477 0.995,0.995 z"
           sodipodi:ry="0.995"
           sodipodi:rx="0.995"
           sodipodi:cy="22.916"
           sodipodi:cx="22.976999"
           cx="22.976999"
           cy="22.916"
           r="0.995"
           id="circle5892" />
        <circle
           d="m 9.9460002,8.8900003 c 0,0.5495234 -0.4454767,0.995 -0.995,0.995 -0.5495233,0 -0.995,-0.4454766 -0.995,-0.995 0,-0.5495233 0.4454767,-0.995 0.995,-0.995 0.5495233,0 0.995,0.4454767 0.995,0.995 z"
           sodipodi:ry="0.995"
           sodipodi:rx="0.995"
           sodipodi:cy="8.8900003"
           sodipodi:cx="8.9510002"
           cx="8.9510002"
           cy="8.8900003"
           r="0.995"
           id="circle5894" />
        <path
           inkscape:connector-curvature="0"
           d="m 22.76,14.994 h -4.256 c -0.245,-0.662 -0.719,-1.16 -1.297,-1.461 V 9.885 c 0,-0.69 -0.553,-1.249 -1.242,-1.249 -0.691,0 -1.243,0.559 -1.243,1.249 v 3.646 c -0.91,0.454 -1.488,1.373 -1.488,2.433 0,1.509 1.223,2.748 2.733,2.748 0.96,0 1.805,-0.489 2.292,-1.235 h 4.503 c 0.688,0 1.247,-0.551 1.247,-1.242 -0.001,-0.688 -0.56,-1.241 -1.249,-1.241 z"
           id="path5896" />
      </g>
      <path
         inkscape:connector-curvature="0"
         id="path5915"
         d="m 209.10158,298.78838 48.48732,0"
         style="fill:none;stroke:#000000;stroke-width:3.20000005;stroke-linecap:round;stroke-linejoin:miter;stroke-miterlimit:4;stroke-opacity:1;stroke-dasharray:none;marker-end:url(#TriangleOutM)" />
      <path
         inkscape:connector-curvature="0"
         id="path5915-3"
         d="m 303.17878,285.02049 36.14486,-20.86825"
         style="fill:none;stroke:#000000;stroke-width:2.75446773;stroke-linecap:round;stroke-linejoin:miter;stroke-miterlimit:4;stroke-opacity:1;stroke-dasharray:none;marker-end:url(#TriangleOutM)" />
      <path
         inkscape:connector-curvature="0"
         id="path5915-3-6"
         d="m 302.91179,309.15633 36.14486,20.86824"
         style="fill:none;stroke:#000000;stroke-width:2.75446773;stroke-linecap:round;stroke-linejoin:miter;stroke-miterlimit:4;stroke-opacity:1;stroke-dasharray:none;marker-end:url(#TriangleOutM)" />
    </g>
  </g>
</svg>
