<?xml version="1.0" encoding="UTF-8" standalone="no"?>
<!-- Created with Inkscape (http://www.inkscape.org/) -->

<svg
   xmlns:dc="http://purl.org/dc/elements/1.1/"
   xmlns:cc="http://creativecommons.org/ns#"
   xmlns:rdf="http://www.w3.org/1999/02/22-rdf-syntax-ns#"
   xmlns:svg="http://www.w3.org/2000/svg"
   xmlns="http://www.w3.org/2000/svg"
   xmlns:xlink="http://www.w3.org/1999/xlink"
   xmlns:sodipodi="http://sodipodi.sourceforge.net/DTD/sodipodi-0.dtd"
   xmlns:inkscape="http://www.inkscape.org/namespaces/inkscape"
   width="178.37086mm"
   height="139.59348mm"
   viewBox="0 0 632.02275 494.62255"
   id="svg2"
   version="1.1"
   inkscape:version="0.91 r13725"
   sodipodi:docname="drop-off.svg">
  <defs
     id="defs4">
    <clipPath
       id="p088ee281f3">
      <rect
         height="345.60001"
         width="446.39999"
         x="72"
         y="43.200001"
         id="rect426" />
    </clipPath>
    <clipPath
       id="clipPath4568">
      <rect
         height="345.60001"
         width="446.39999"
         x="72"
         y="43.200001"
         id="rect4570" />
    </clipPath>
    <clipPath
       id="clipPath4572">
      <rect
         height="345.60001"
         width="446.39999"
         x="72"
         y="43.200001"
         id="rect4574" />
    </clipPath>
    <clipPath
       id="clipPath4576">
      <rect
         height="345.60001"
         width="446.39999"
         x="72"
         y="43.200001"
         id="rect4578" />
    </clipPath>
    <clipPath
       id="clipPath11584"
       clipPathUnits="userSpaceOnUse">
      <path
         inkscape:connector-curvature="0"
         id="path11586"
         d="m 53.52,313.018 365.246,0 0,-265.781 -365.246,0 0,265.781 z" />
    </clipPath>
    <clipPath
       id="clipPath11594"
       clipPathUnits="userSpaceOnUse">
      <path
         inkscape:connector-curvature="0"
         id="path11596"
         d="m 51,164 371,0 0,133 -371,0 0,-133 z" />
    </clipPath>
    <clipPath
       id="clipPath11608"
       clipPathUnits="userSpaceOnUse">
      <path
         inkscape:connector-curvature="0"
         id="path11610"
         d="m 51,141 371,0 0,150 -371,0 0,-150 z" />
    </clipPath>
    <clipPath
       id="clipPath11622"
       clipPathUnits="userSpaceOnUse">
      <path
         inkscape:connector-curvature="0"
         id="path11624"
         d="m 51,134 371,0 0,155 -371,0 0,-155 z" />
    </clipPath>
    <clipPath
       id="clipPath11636"
       clipPathUnits="userSpaceOnUse">
      <path
         inkscape:connector-curvature="0"
         id="path11638"
         d="m 51,130 371,0 0,159 -371,0 0,-159 z" />
    </clipPath>
  </defs>
  <sodipodi:namedview
     id="base"
     pagecolor="#ffffff"
     bordercolor="#666666"
     borderopacity="1.0"
     inkscape:pageopacity="0.0"
     inkscape:pageshadow="2"
     inkscape:zoom="1.2138975"
     inkscape:cx="432.03068"
     inkscape:cy="308.78554"
     inkscape:document-units="px"
     inkscape:current-layer="layer1"
     showgrid="false"
     inkscape:window-width="1596"
     inkscape:window-height="1161"
     inkscape:window-x="1680"
     inkscape:window-y="18"
     inkscape:window-maximized="0"
     fit-margin-top="0"
     fit-margin-left="0"
     fit-margin-right="0"
     fit-margin-bottom="0" />
  <metadata
     id="metadata7">
    <rdf:RDF>
      <cc:Work
         rdf:about="">
        <dc:format>image/svg+xml</dc:format>
        <dc:type
           rdf:resource="http://purl.org/dc/dcmitype/StillImage" />
        <dc:title />
      </cc:Work>
    </rdf:RDF>
  </metadata>
  <g
     inkscape:label="Layer 1"
     inkscape:groupmode="layer"
     id="layer1"
     transform="translate(-37.867615,-232.2256)">
    <text
       xml:space="preserve"
       style="font-style:normal;font-variant:normal;font-weight:normal;font-stretch:normal;font-size:25px;line-height:125%;font-family:Serif;-inkscape-font-specification:Serif;letter-spacing:0px;word-spacing:0px;fill:#000000;fill-opacity:1;stroke:none;stroke-width:1px;stroke-linecap:butt;stroke-linejoin:miter;stroke-opacity:1"
       x="-675.784"
       y="59.571716"
       id="text12607"
       sodipodi:linespacing="125%"
       transform="matrix(0,-1,1,0,0,0)"><tspan
         sodipodi:role="line"
         id="tspan12609"
         x="-675.784"
         y="59.571716">kolik uživatelů vydrželo tak dlouho</tspan></text>
    <g
       id="patch_2"
       transform="matrix(1.25,0,0,1.25,8.5714243,185.21935)">
      <path
         inkscape:connector-curvature="0"
         d="m 72,388.8 446.4,0 0,-345.6 -446.4,0 z"
         style="fill:#ffffff"
         id="path14" />
    </g>
    <g
       id="line2d_3"
       transform="matrix(1.25,0,0,1.25,8.5714243,185.21935)"
       style="stroke:#d4aa00;stroke-width:2.92000008;stroke-miterlimit:4;stroke-dasharray:none">
      <path
         inkscape:connector-curvature="0"
         clip-path="url(#p088ee281f3)"
         d="m 76.464,43.2 4.464,12.961776 4.464,8.078915 4.464,5.282367 4.464,4.394575 4.464,4.039457 4.464,3.77312 4.464,2.974106 4.464,4.083847 4.464,0.976572 4.464,51.669545 4.464,4.79408 4.464,3.28483 4.464,2.92972 4.464,2.26387 4.464,1.77559 4.464,2.08631 4.464,1.99753 4.464,1.95315 4.464,1.06535 4.464,32.18249 4.464,3.50678 4.464,2.5746 4.464,1.86437 4.464,1.95314 4.464,2.21948 4.464,1.10974 4.464,1.55364 4.464,2.1307 4.464,1.10975 4.464,21.61775 4.464,4.17263 4.464,1.86436 4.464,1.81998 4.464,1.55364 4.464,1.06535 4.464,1.50924 4.464,1.19852 4.464,1.99754 4.464,0.97657 4.464,15.93588 4.464,2.66338 4.464,1.99754 4.464,1.37607 4.464,1.02097 4.464,1.02096 4.464,1.73119 4.464,1.19852 4.464,1.64242 4.464,1.15413 4.464,12.51788 4.464,1.59803 4.464,1.46486 4.464,1.06535 4.464,1.02096 4.464,1.15413 4.464,1.19852 4.464,1.06535 4.464,1.06535 4.464,0.71024 4.464,8.83354 4.464,1.55363 4.464,1.15413 4.464,1.33169 4.464,0.84341 4.464,1.02096 4.464,0.48828 4.464,0.66585 4.464,0.97657 4.464,0.66585 4.464,9.18865 4.464,1.19852 4.464,1.02096 4.464,0.8878 4.464,1.02096 4.464,0.97657 4.464,0.66585 4.464,0.57706 4.464,0.62146 4.464,0.88779 4.464,6.30333 4.464,1.46486 4.464,0.57706 4.464,0.75463 4.464,0.44389 4.464,0.71024 4.464,0.62145 4.464,1.02096 4.464,0.71024 4.464,0.71023 4.464,5.5931 4.464,0.93218 4.464,0.8434 4.464,0.71024 4.464,0.3995 4.464,0.75463 4.464,0.3995 4.464,0.57707 4.464,0.57706"
         style="fill:none;stroke:#d4aa00;stroke-width:2.92000008;stroke-linecap:square;stroke-miterlimit:4;stroke-dasharray:none"
         id="path23" />
    </g>
    <g
       id="line2d_2"
       transform="matrix(1.25,0,0,1.25,8.5714243,185.21935)"
       style="stroke-width:2.92000008;stroke-miterlimit:4;stroke-dasharray:none">
      <path
         inkscape:connector-curvature="0"
         clip-path="url(#p088ee281f3)"
         d="m 76.464,43.2 4.464,16.697809 4.464,9.554361 4.464,6.964862 4.464,5.670111 4.464,4.152129 4.464,4.821828 4.464,3.437784 4.464,3.973543 4.464,0.982224 4.464,43.217859 4.464,5.98264 4.464,4.15213 4.464,3.25919 4.464,2.18768 4.464,2.05375 4.464,2.05374 4.464,2.05374 4.464,2.63414 4.464,1.29475 4.464,25.44854 4.464,2.85738 4.464,2.81273 4.464,2.23233 4.464,2.09838 4.464,2.45556 4.464,1.65193 4.464,1.38404 4.464,1.87515 4.464,1.16081 4.464,18.43903 4.464,2.67879 4.464,2.63415 4.464,1.65192 4.464,2.09839 4.464,1.38404 4.464,1.78586 4.464,1.3394 4.464,1.65192 4.464,1.38404 4.464,14.24225 4.464,2.76809 4.464,2.27697 4.464,1.91981 4.464,2.18768 4.464,1.65192 4.464,1.51798 4.464,1.2501 4.464,1.83051 4.464,0.71435 4.464,10.9384 4.464,1.69657 4.464,1.56263 4.464,1.47334 4.464,1.29475 4.464,1.2501 4.464,1.16081 4.464,1.02687 4.464,1.16081 4.464,0.6697 4.464,9.06325 4.464,2.32162 4.464,0.89293 4.464,1.3394 4.464,1.42869 4.464,1.07151 4.464,0.75899 4.464,0.6697 4.464,0.80364 4.464,0.80364 4.464,7.00951 4.464,1.38404 4.464,1.29475 4.464,1.20546 4.464,1.07151 4.464,0.84829 4.464,0.66969 4.464,0.80364 4.464,0.93758 4.464,0.84828 4.464,6.83093 4.464,1.20545 4.464,1.20546 4.464,0.80364 4.464,0.53576 4.464,1.2501 4.464,0.84828 4.464,0.759 4.464,1.07151 4.464,0.58041 4.464,4.77718 4.464,0.98222 4.464,0.84829 4.464,0.6697 4.464,0.89293 4.464,0.66969 4.464,0.49112 4.464,0.62505 4.464,0.53576"
         style="fill:none;stroke:#800000;stroke-width:2.92000008;stroke-linecap:square;stroke-miterlimit:4;stroke-dasharray:none"
         id="path20" />
    </g>
    <g
       id="line2d_4"
       transform="matrix(1.25,0,0,1.25,8.5714243,185.21935)"
       style="stroke:#008000;stroke-width:2.92000008;stroke-miterlimit:4;stroke-dasharray:none">
      <path
         inkscape:connector-curvature="0"
         clip-path="url(#p088ee281f3)"
         d="m 76.464,43.2 4.464,19.348681 4.464,12.341566 4.464,8.408539 4.464,7.413981 4.464,5.198828 4.464,5.017995 4.464,4.3399 4.464,5.6961 4.464,1.44663 4.464,36.79866 4.464,4.88238 4.464,3.52616 4.464,2.66723 4.464,3.52616 4.464,2.57681 4.464,2.48639 4.464,2.26036 4.464,2.80285 4.464,1.53705 4.464,23.73378 4.464,3.52616 4.464,2.93847 4.464,2.57681 4.464,2.07953 4.464,1.94391 4.464,2.35077 4.464,1.76308 4.464,2.39598 4.464,1.13018 4.464,18.08288 4.464,2.75764 4.464,2.26036 4.464,1.98912 4.464,2.07953 4.464,1.8987 4.464,1.62746 4.464,1.67267 4.464,2.07953 4.464,1.08497 4.464,12.83885 4.464,2.66722 4.464,2.07953 4.464,1.44663 4.464,1.44663 4.464,1.13018 4.464,1.13018 4.464,1.35622 4.464,1.2658 4.464,0.72332 4.464,8.99623 4.464,2.30557 4.464,1.58225 4.464,0.94935 4.464,1.35622 4.464,1.35621 4.464,1.2206 4.464,1.44663 4.464,0.94935 4.464,0.94935 4.464,7.14274 4.464,1.58225 4.464,2.16994 4.464,1.13018 4.464,0.90415 4.464,1.17538 4.464,0.72332 4.464,1.03977 4.464,1.40142 4.464,0.81373 4.464,6.46463 4.464,1.2658 4.464,1.58225 4.464,1.13018 4.464,1.08498 4.464,0.85893 4.464,0.90415 4.464,0.6329 4.464,0.90414 4.464,0.45207 4.464,5.28924 4.464,1.58226 4.464,0.85893 4.464,1.2206 4.464,1.03976 4.464,1.03977 4.464,0.85894 4.464,0.85893 4.464,0.72332 4.464,0.49728 4.464,3.84261 4.464,1.2658 4.464,1.2658 4.464,0.85894 4.464,0.36166 4.464,0.85893 4.464,0.76853 4.464,0.27124 4.464,0.58769"
         style="fill:none;stroke:#008000;stroke-width:2.92000008;stroke-linecap:square;stroke-miterlimit:4;stroke-dasharray:none"
         id="path26" />
    </g>
    <g
       id="patch_3"
       transform="matrix(1.25,0,0,1.25,8.5714243,185.21935)">
      <path
         inkscape:connector-curvature="0"
         d="M 72,388.8 72,43.2"
         style="fill:none;stroke:#000000;stroke-linecap:square;stroke-linejoin:miter"
         id="path29" />
    </g>
    <g
       id="patch_4"
       transform="matrix(1.25,0,0,1.25,8.5714243,185.21935)">
      <path
         inkscape:connector-curvature="0"
         d="m 72,43.2 446.4,0"
         style="fill:none;stroke:#000000;stroke-linecap:square;stroke-linejoin:miter"
         id="path32" />
    </g>
    <g
       id="patch_5"
       transform="matrix(1.25,0,0,1.25,8.5714243,185.21935)">
      <path
         inkscape:connector-curvature="0"
         d="m 72,388.8 446.4,0"
         style="fill:none;stroke:#000000;stroke-linecap:square;stroke-linejoin:miter"
         id="path35" />
    </g>
    <g
       id="patch_6"
       transform="matrix(1.25,0,0,1.25,8.5714243,185.21935)">
      <path
         inkscape:connector-curvature="0"
         d="m 518.4,388.8 0,-345.6"
         style="fill:none;stroke:#000000;stroke-linecap:square;stroke-linejoin:miter"
         id="path38" />
    </g>
    <g
       id="matplotlib.axis_1"
       transform="matrix(1.25,0,0,1.25,8.5714243,185.21935)">
      <g
         id="xtick_1">
        <g
           id="line2d_5">
          <defs
             id="defs43">
            <path
               inkscape:connector-curvature="0"
               d="M 0,0 0,-4"
               id="m0aaca5a7ef"
               style="stroke:#000000;stroke-width:0.5" />
          </defs>
          <g
             id="g46">
            <use
               height="100%"
               width="100%"
               style="stroke:#000000;stroke-width:0.5"
               x="72"
               xlink:href="#m0aaca5a7ef"
               y="388.79999"
               id="use48" />
          </g>
        </g>
        <g
           id="line2d_6">
          <defs
             id="defs51">
            <path
               inkscape:connector-curvature="0"
               d="M 0,0 0,4"
               id="m613d33ab2b"
               style="stroke:#000000;stroke-width:0.5" />
          </defs>
          <g
             id="g54">
            <use
               height="100%"
               width="100%"
               style="stroke:#000000;stroke-width:0.5"
               x="72"
               xlink:href="#m613d33ab2b"
               y="43.200001"
               id="use56" />
          </g>
        </g>
        <g
           id="text_1">
          <!-- 0 -->
          <defs
             id="defs59">
            <path
               inkscape:connector-curvature="0"
               d="m 31.78125,66.40625 q -7.609375,0 -11.453125,-7.5 Q 16.5,51.421875 16.5,36.375 q 0,-14.984375 3.828125,-22.484375 3.84375,-7.5 11.453125,-7.5 7.671875,0 11.5,7.5 3.84375,7.5 3.84375,22.484375 0,15.046875 -3.84375,22.53125 -3.828125,7.5 -11.5,7.5 m 0,7.8125 q 12.265625,0 18.734375,-9.703125 6.46875,-9.6875 6.46875,-28.140625 0,-18.40625 -6.46875,-28.109375 -6.46875,-9.6875 -18.734375,-9.6875 -12.25,0 -18.71875,9.6875 Q 6.59375,17.96875 6.59375,36.375 q 0,18.453125 6.46875,28.140625 6.46875,9.703125 18.71875,9.703125"
               id="BitstreamVeraSans-Roman-30" />
          </defs>
          <g
             transform="matrix(0.12,0,0,-0.12,68.1825,401.91812)"
             id="g62">
            <use
               height="100%"
               width="100%"
               y="0"
               x="0"
               xlink:href="#BitstreamVeraSans-Roman-30"
               id="use64" />
          </g>
        </g>
      </g>
      <g
         id="xtick_2">
        <g
           id="line2d_7">
          <g
             id="g68">
            <use
               height="100%"
               width="100%"
               style="stroke:#000000;stroke-width:0.5"
               x="161.28"
               xlink:href="#m0aaca5a7ef"
               y="388.79999"
               id="use70" />
          </g>
        </g>
        <g
           id="line2d_8">
          <g
             id="g73">
            <use
               height="100%"
               width="100%"
               style="stroke:#000000;stroke-width:0.5"
               x="161.28"
               xlink:href="#m613d33ab2b"
               y="43.200001"
               id="use75" />
          </g>
        </g>
        <g
           id="text_2">
          <!-- 20 -->
          <defs
             id="defs78">
            <path
               inkscape:connector-curvature="0"
               d="m 19.1875,8.296875 34.421875,0 0,-8.296875 -46.28125,0 0,8.296875 q 5.609375,5.8125 15.296875,15.59375 9.703125,9.796875 12.1875,12.640625 4.734375,5.3125 6.609375,9 1.890625,3.6875 1.890625,7.25 0,5.8125 -4.078125,9.46875 -4.078125,3.671875 -10.625,3.671875 -4.640625,0 -9.796875,-1.609375 -5.140625,-1.609375 -11,-4.890625 l 0,9.96875 Q 13.765625,71.78125 18.9375,73 q 5.1875,1.21875 9.484375,1.21875 11.328125,0 18.0625,-5.671875 6.734375,-5.65625 6.734375,-15.125 0,-4.5 -1.6875,-8.53125 Q 49.859375,40.875 45.40625,35.40625 44.1875,33.984375 37.640625,27.21875 31.109375,20.453125 19.1875,8.296875"
               id="BitstreamVeraSans-Roman-32" />
          </defs>
          <g
             transform="matrix(0.12,0,0,-0.12,153.645,401.91812)"
             id="g81">
            <use
               height="100%"
               width="100%"
               y="0"
               x="0"
               xlink:href="#BitstreamVeraSans-Roman-32"
               id="use83" />
            <use
               height="100%"
               width="100%"
               y="0"
               x="63.623047"
               xlink:href="#BitstreamVeraSans-Roman-30"
               id="use85" />
          </g>
        </g>
      </g>
      <g
         id="xtick_3">
        <g
           id="line2d_9">
          <g
             id="g89">
            <use
               height="100%"
               width="100%"
               style="stroke:#000000;stroke-width:0.5"
               x="250.56"
               xlink:href="#m0aaca5a7ef"
               y="388.79999"
               id="use91" />
          </g>
        </g>
        <g
           id="line2d_10">
          <g
             id="g94">
            <use
               height="100%"
               width="100%"
               style="stroke:#000000;stroke-width:0.5"
               x="250.56"
               xlink:href="#m613d33ab2b"
               y="43.200001"
               id="use96" />
          </g>
        </g>
        <g
           id="text_3">
          <!-- 40 -->
          <defs
             id="defs99">
            <path
               inkscape:connector-curvature="0"
               d="m 37.796875,64.3125 -24.90625,-38.921875 24.90625,0 z m -2.59375,8.59375 12.40625,0 0,-47.515625 10.40625,0 0,-8.203125 -10.40625,0 0,-17.1875 -9.8125,0 0,17.1875 -32.90625,0 0,9.515625 z"
               id="BitstreamVeraSans-Roman-34" />
          </defs>
          <g
             transform="matrix(0.12,0,0,-0.12,242.925,401.91812)"
             id="g102">
            <use
               height="100%"
               width="100%"
               y="0"
               x="0"
               xlink:href="#BitstreamVeraSans-Roman-34"
               id="use104" />
            <use
               height="100%"
               width="100%"
               y="0"
               x="63.623047"
               xlink:href="#BitstreamVeraSans-Roman-30"
               id="use106" />
          </g>
        </g>
      </g>
      <g
         id="xtick_4">
        <g
           id="line2d_11">
          <g
             id="g110">
            <use
               height="100%"
               width="100%"
               style="stroke:#000000;stroke-width:0.5"
               x="339.84"
               xlink:href="#m0aaca5a7ef"
               y="388.79999"
               id="use112" />
          </g>
        </g>
        <g
           id="line2d_12">
          <g
             id="g115">
            <use
               height="100%"
               width="100%"
               style="stroke:#000000;stroke-width:0.5"
               x="339.84"
               xlink:href="#m613d33ab2b"
               y="43.200001"
               id="use117" />
          </g>
        </g>
        <g
           id="text_4">
          <!-- 60 -->
          <defs
             id="defs120">
            <path
               inkscape:connector-curvature="0"
               d="m 33.015625,40.375 q -6.640625,0 -10.53125,-4.546875 -3.875,-4.53125 -3.875,-12.4375 0,-7.859375 3.875,-12.4375 3.890625,-4.5625 10.53125,-4.5625 6.640625,0 10.515625,4.5625 3.875,4.578125 3.875,12.4375 0,7.90625 -3.875,12.4375 Q 39.65625,40.375 33.015625,40.375 m 19.578125,30.921875 0,-8.984375 q -3.71875,1.75 -7.5,2.671875 -3.78125,0.9375 -7.5,0.9375 -9.765625,0 -14.921875,-6.59375 -5.140625,-6.59375 -5.875,-19.921875 2.875,4.25 7.21875,6.515625 4.359375,2.265625 9.578125,2.265625 10.984375,0 17.359375,-6.671875 6.375,-6.65625 6.375,-18.125 0,-11.234375 -6.640625,-18.03125 -6.640625,-6.78125 -17.671875,-6.78125 -12.65625,0 -19.34375,9.6875 -6.6875,9.703125 -6.6875,28.109375 0,17.28125 8.203125,27.5625 8.203125,10.28125 22.015625,10.28125 3.71875,0 7.5,-0.734375 3.78125,-0.734375 7.890625,-2.1875"
               id="BitstreamVeraSans-Roman-36" />
          </defs>
          <g
             transform="matrix(0.12,0,0,-0.12,332.205,401.91812)"
             id="g123">
            <use
               height="100%"
               width="100%"
               y="0"
               x="0"
               xlink:href="#BitstreamVeraSans-Roman-36"
               id="use125" />
            <use
               height="100%"
               width="100%"
               y="0"
               x="63.623047"
               xlink:href="#BitstreamVeraSans-Roman-30"
               id="use127" />
          </g>
        </g>
      </g>
      <g
         id="xtick_5">
        <g
           id="line2d_13">
          <g
             id="g131">
            <use
               height="100%"
               width="100%"
               style="stroke:#000000;stroke-width:0.5"
               x="429.12"
               xlink:href="#m0aaca5a7ef"
               y="388.79999"
               id="use133" />
          </g>
        </g>
        <g
           id="line2d_14">
          <g
             id="g136">
            <use
               height="100%"
               width="100%"
               style="stroke:#000000;stroke-width:0.5"
               x="429.12"
               xlink:href="#m613d33ab2b"
               y="43.200001"
               id="use138" />
          </g>
        </g>
        <g
           id="text_5">
          <!-- 80 -->
          <defs
             id="defs141">
            <path
               inkscape:connector-curvature="0"
               d="m 31.78125,34.625 q -7.03125,0 -11.0625,-3.765625 -4.015625,-3.765625 -4.015625,-10.34375 0,-6.59375 4.015625,-10.359375 4.03125,-3.765625 11.0625,-3.765625 7.03125,0 11.078125,3.78125 4.0625,3.796875 4.0625,10.34375 0,6.578125 -4.03125,10.34375 Q 38.875,34.625 31.78125,34.625 m -9.859375,4.1875 Q 15.578125,40.375 12.03125,44.71875 8.5,49.078125 8.5,55.328125 q 0,8.734375 6.21875,13.8125 6.234375,5.078125 17.0625,5.078125 10.890625,0 17.09375,-5.078125 6.203125,-5.078125 6.203125,-13.8125 0,-6.25 -3.546875,-10.609375 Q 48,40.375 41.703125,38.8125 q 7.125,-1.65625 11.09375,-6.5 3.984375,-4.828125 3.984375,-11.796875 0,-10.609375 -6.46875,-16.28125 -6.46875,-5.65625 -18.53125,-5.65625 -12.046875,0 -18.53125,5.65625 -6.46875,5.671875 -6.46875,16.28125 0,6.96875 4,11.796875 4.015625,4.84375 11.140625,6.5 M 18.3125,54.390625 q 0,-5.65625 3.53125,-8.828125 3.546875,-3.171875 9.9375,-3.171875 6.359375,0 9.9375,3.171875 3.59375,3.171875 3.59375,8.828125 0,5.671875 -3.59375,8.84375 -3.578125,3.171875 -9.9375,3.171875 -6.390625,0 -9.9375,-3.171875 Q 18.3125,60.0625 18.3125,54.390625"
               id="BitstreamVeraSans-Roman-38" />
          </defs>
          <g
             transform="matrix(0.12,0,0,-0.12,421.485,401.91812)"
             id="g144">
            <use
               height="100%"
               width="100%"
               y="0"
               x="0"
               xlink:href="#BitstreamVeraSans-Roman-38"
               id="use146" />
            <use
               height="100%"
               width="100%"
               y="0"
               x="63.623047"
               xlink:href="#BitstreamVeraSans-Roman-30"
               id="use148" />
          </g>
        </g>
      </g>
      <g
         id="xtick_6">
        <g
           id="line2d_15">
          <g
             id="g152">
            <use
               height="100%"
               width="100%"
               style="stroke:#000000;stroke-width:0.5"
               x="518.40002"
               xlink:href="#m0aaca5a7ef"
               y="388.79999"
               id="use154" />
          </g>
        </g>
        <g
           id="line2d_16">
          <g
             id="g157">
            <use
               height="100%"
               width="100%"
               style="stroke:#000000;stroke-width:0.5"
               x="518.40002"
               xlink:href="#m613d33ab2b"
               y="43.200001"
               id="use159" />
          </g>
        </g>
        <g
           id="text_6">
          <!-- 100 -->
          <defs
             id="defs162">
            <path
               inkscape:connector-curvature="0"
               d="m 12.40625,8.296875 16.109375,0 0,55.625 -17.53125,-3.515625 0,8.984375 17.4375,3.515625 9.859375,0 0,-64.609375 16.109375,0 0,-8.296875 -41.984375,0 z"
               id="BitstreamVeraSans-Roman-31" />
          </defs>
          <g
             transform="matrix(0.12,0,0,-0.12,506.9475,401.91812)"
             id="g165">
            <use
               height="100%"
               width="100%"
               y="0"
               x="0"
               xlink:href="#BitstreamVeraSans-Roman-31"
               id="use167" />
            <use
               height="100%"
               width="100%"
               y="0"
               x="63.623047"
               xlink:href="#BitstreamVeraSans-Roman-30"
               id="use169" />
            <use
               height="100%"
               width="100%"
               y="0"
               x="127.24609"
               xlink:href="#BitstreamVeraSans-Roman-30"
               id="use171" />
          </g>
        </g>
      </g>
    </g>
    <g
       id="matplotlib.axis_2"
       transform="matrix(1.25,0,0,1.25,8.5714243,185.21935)">
      <g
         id="ytick_1">
        <g
           id="line2d_17">
          <defs
             id="defs176">
            <path
               inkscape:connector-curvature="0"
               d="M 0,0 4,0"
               id="m03813dbf82"
               style="stroke:#000000;stroke-width:0.5" />
          </defs>
          <g
             id="g179">
            <use
               height="100%"
               width="100%"
               style="stroke:#000000;stroke-width:0.5"
               x="72"
               xlink:href="#m03813dbf82"
               y="388.79999"
               id="use181" />
          </g>
        </g>
        <g
           id="line2d_18">
          <defs
             id="defs184">
            <path
               inkscape:connector-curvature="0"
               d="M 0,0 -4,0"
               id="mdfb3002313"
               style="stroke:#000000;stroke-width:0.5" />
          </defs>
          <g
             id="g187">
            <use
               height="100%"
               width="100%"
               style="stroke:#000000;stroke-width:0.5"
               x="518.40002"
               xlink:href="#mdfb3002313"
               y="388.79999"
               id="use189" />
          </g>
        </g>
        <g
           id="text_7">
          <!-- 0.2 -->
          <defs
             id="defs192">
            <path
               inkscape:connector-curvature="0"
               d="M 10.6875,12.40625 21,12.40625 21,0 10.6875,0 Z"
               id="BitstreamVeraSans-Roman-2e" />
          </defs>
          <g
             transform="matrix(0.12,0,0,-0.12,48.91625,392.11125)"
             id="g195">
            <use
               height="100%"
               width="100%"
               y="0"
               x="0"
               xlink:href="#BitstreamVeraSans-Roman-30"
               id="use197" />
            <use
               height="100%"
               width="100%"
               y="0"
               x="63.623047"
               xlink:href="#BitstreamVeraSans-Roman-2e"
               id="use199" />
            <use
               height="100%"
               width="100%"
               y="0"
               x="95.410156"
               xlink:href="#BitstreamVeraSans-Roman-32"
               id="use201" />
          </g>
        </g>
      </g>
      <g
         id="ytick_2">
        <g
           id="line2d_19">
          <g
             id="g205">
            <use
               height="100%"
               width="100%"
               style="stroke:#000000;stroke-width:0.5"
               x="72"
               xlink:href="#m03813dbf82"
               y="345.60001"
               id="use207" />
          </g>
        </g>
        <g
           id="line2d_20">
          <g
             id="g210">
            <use
               height="100%"
               width="100%"
               style="stroke:#000000;stroke-width:0.5"
               x="518.40002"
               xlink:href="#mdfb3002313"
               y="345.60001"
               id="use212" />
          </g>
        </g>
        <g
           id="text_8">
          <!-- 0.3 -->
          <defs
             id="defs215">
            <path
               inkscape:connector-curvature="0"
               d="M 40.578125,39.3125 Q 47.65625,37.796875 51.625,33 q 3.984375,-4.78125 3.984375,-11.8125 0,-10.78125 -7.421875,-16.703125 -7.421875,-5.90625 -21.09375,-5.90625 -4.578125,0 -9.4375,0.90625 -4.859375,0.90625 -10.03125,2.71875 l 0,9.515625 q 4.09375,-2.390625 8.96875,-3.609375 4.890625,-1.21875 10.21875,-1.21875 9.265625,0 14.125,3.65625 4.859375,3.65625 4.859375,10.640625 0,6.453125 -4.515625,10.078125 -4.515625,3.640625 -12.5625,3.640625 l -8.5,0 0,8.109375 8.890625,0 q 7.265625,0 11.125,2.90625 3.859375,2.90625 3.859375,8.375 0,5.609375 -3.984375,8.609375 -3.96875,3.015625 -11.390625,3.015625 -4.0625,0 -8.703125,-0.890625 Q 15.375,64.15625 9.8125,62.3125 l 0,8.78125 q 5.625,1.5625 10.53125,2.34375 4.90625,0.78125 9.25,0.78125 11.234375,0 17.765625,-5.109375 6.546875,-5.09375 6.546875,-13.78125 0,-6.0625 -3.46875,-10.234375 -3.46875,-4.171875 -9.859375,-5.78125"
               id="BitstreamVeraSans-Roman-33" />
          </defs>
          <g
             transform="matrix(0.12,0,0,-0.12,48.91625,348.91125)"
             id="g218">
            <use
               height="100%"
               width="100%"
               y="0"
               x="0"
               xlink:href="#BitstreamVeraSans-Roman-30"
               id="use220" />
            <use
               height="100%"
               width="100%"
               y="0"
               x="63.623047"
               xlink:href="#BitstreamVeraSans-Roman-2e"
               id="use222" />
            <use
               height="100%"
               width="100%"
               y="0"
               x="95.410156"
               xlink:href="#BitstreamVeraSans-Roman-33"
               id="use224" />
          </g>
        </g>
      </g>
      <g
         id="ytick_3">
        <g
           id="line2d_21">
          <g
             id="g228">
            <use
               height="100%"
               width="100%"
               style="stroke:#000000;stroke-width:0.5"
               x="72"
               xlink:href="#m03813dbf82"
               y="302.39999"
               id="use230" />
          </g>
        </g>
        <g
           id="line2d_22">
          <g
             id="g233">
            <use
               height="100%"
               width="100%"
               style="stroke:#000000;stroke-width:0.5"
               x="518.40002"
               xlink:href="#mdfb3002313"
               y="302.39999"
               id="use235" />
          </g>
        </g>
        <g
           id="text_9">
          <!-- 0.4 -->
          <g
             transform="matrix(0.12,0,0,-0.12,48.91625,305.71125)"
             id="g238">
            <use
               height="100%"
               width="100%"
               y="0"
               x="0"
               xlink:href="#BitstreamVeraSans-Roman-30"
               id="use240" />
            <use
               height="100%"
               width="100%"
               y="0"
               x="63.623047"
               xlink:href="#BitstreamVeraSans-Roman-2e"
               id="use242" />
            <use
               height="100%"
               width="100%"
               y="0"
               x="95.410156"
               xlink:href="#BitstreamVeraSans-Roman-34"
               id="use244" />
          </g>
        </g>
      </g>
      <g
         id="ytick_4">
        <g
           id="line2d_23">
          <g
             id="g248">
            <use
               height="100%"
               width="100%"
               style="stroke:#000000;stroke-width:0.5"
               x="72"
               xlink:href="#m03813dbf82"
               y="259.20001"
               id="use250" />
          </g>
        </g>
        <g
           id="line2d_24">
          <g
             id="g253">
            <use
               height="100%"
               width="100%"
               style="stroke:#000000;stroke-width:0.5"
               x="518.40002"
               xlink:href="#mdfb3002313"
               y="259.20001"
               id="use255" />
          </g>
        </g>
        <g
           id="text_10">
          <!-- 0.5 -->
          <defs
             id="defs258">
            <path
               inkscape:connector-curvature="0"
               d="m 10.796875,72.90625 38.71875,0 0,-8.3125 -29.6875,0 0,-17.859375 q 2.140625,0.734375 4.28125,1.09375 2.15625,0.359375 4.3125,0.359375 Q 40.625,48.1875 47.75,41.5 54.890625,34.8125 54.890625,23.390625 54.890625,11.625 47.5625,5.09375 40.234375,-1.421875 26.90625,-1.421875 q -4.59375,0 -9.359375,0.78125 -4.75,0.78125 -9.828125,2.34375 l 0,9.921875 q 4.390625,-2.390625 9.078125,-3.5625 4.6875,-1.171875 9.90625,-1.171875 8.453125,0 13.375,4.4375 4.9375,4.4375 4.9375,12.0625 0,7.609375 -4.9375,12.046875 -4.921875,4.453125 -13.375,4.453125 -3.953125,0 -7.890625,-0.875 -3.921875,-0.875 -8.015625,-2.734375 z"
               id="BitstreamVeraSans-Roman-35" />
          </defs>
          <g
             transform="matrix(0.12,0,0,-0.12,48.91625,262.51125)"
             id="g261">
            <use
               height="100%"
               width="100%"
               y="0"
               x="0"
               xlink:href="#BitstreamVeraSans-Roman-30"
               id="use263" />
            <use
               height="100%"
               width="100%"
               y="0"
               x="63.623047"
               xlink:href="#BitstreamVeraSans-Roman-2e"
               id="use265" />
            <use
               height="100%"
               width="100%"
               y="0"
               x="95.410156"
               xlink:href="#BitstreamVeraSans-Roman-35"
               id="use267" />
          </g>
        </g>
      </g>
      <g
         id="ytick_5">
        <g
           id="line2d_25">
          <g
             id="g271">
            <use
               height="100%"
               width="100%"
               style="stroke:#000000;stroke-width:0.5"
               x="72"
               xlink:href="#m03813dbf82"
               y="216"
               id="use273" />
          </g>
        </g>
        <g
           id="line2d_26">
          <g
             id="g276">
            <use
               height="100%"
               width="100%"
               style="stroke:#000000;stroke-width:0.5"
               x="518.40002"
               xlink:href="#mdfb3002313"
               y="216"
               id="use278" />
          </g>
        </g>
        <g
           id="text_11">
          <!-- 0.6 -->
          <g
             transform="matrix(0.12,0,0,-0.12,48.91625,219.31125)"
             id="g281">
            <use
               height="100%"
               width="100%"
               y="0"
               x="0"
               xlink:href="#BitstreamVeraSans-Roman-30"
               id="use283" />
            <use
               height="100%"
               width="100%"
               y="0"
               x="63.623047"
               xlink:href="#BitstreamVeraSans-Roman-2e"
               id="use285" />
            <use
               height="100%"
               width="100%"
               y="0"
               x="95.410156"
               xlink:href="#BitstreamVeraSans-Roman-36"
               id="use287" />
          </g>
        </g>
      </g>
      <g
         id="ytick_6">
        <g
           id="line2d_27">
          <g
             id="g291">
            <use
               height="100%"
               width="100%"
               style="stroke:#000000;stroke-width:0.5"
               x="72"
               xlink:href="#m03813dbf82"
               y="172.8"
               id="use293" />
          </g>
        </g>
        <g
           id="line2d_28">
          <g
             id="g296">
            <use
               height="100%"
               width="100%"
               style="stroke:#000000;stroke-width:0.5"
               x="518.40002"
               xlink:href="#mdfb3002313"
               y="172.8"
               id="use298" />
          </g>
        </g>
        <g
           id="text_12">
          <!-- 0.7 -->
          <defs
             id="defs301">
            <path
               inkscape:connector-curvature="0"
               d="m 8.203125,72.90625 46.875,0 0,-4.203125 L 28.609375,0 18.3125,0 l 24.90625,64.59375 -35.015625,0 z"
               id="BitstreamVeraSans-Roman-37" />
          </defs>
          <g
             transform="matrix(0.12,0,0,-0.12,48.91625,176.11125)"
             id="g304">
            <use
               height="100%"
               width="100%"
               y="0"
               x="0"
               xlink:href="#BitstreamVeraSans-Roman-30"
               id="use306" />
            <use
               height="100%"
               width="100%"
               y="0"
               x="63.623047"
               xlink:href="#BitstreamVeraSans-Roman-2e"
               id="use308" />
            <use
               height="100%"
               width="100%"
               y="0"
               x="95.410156"
               xlink:href="#BitstreamVeraSans-Roman-37"
               id="use310" />
          </g>
        </g>
      </g>
      <g
         id="ytick_7">
        <g
           id="line2d_29">
          <g
             id="g314">
            <use
               height="100%"
               width="100%"
               style="stroke:#000000;stroke-width:0.5"
               x="72"
               xlink:href="#m03813dbf82"
               y="129.60001"
               id="use316" />
          </g>
        </g>
        <g
           id="line2d_30">
          <g
             id="g319">
            <use
               height="100%"
               width="100%"
               style="stroke:#000000;stroke-width:0.5"
               x="518.40002"
               xlink:href="#mdfb3002313"
               y="129.60001"
               id="use321" />
          </g>
        </g>
        <g
           id="text_13">
          <!-- 0.8 -->
          <g
             transform="matrix(0.12,0,0,-0.12,48.91625,132.91125)"
             id="g324">
            <use
               height="100%"
               width="100%"
               y="0"
               x="0"
               xlink:href="#BitstreamVeraSans-Roman-30"
               id="use326" />
            <use
               height="100%"
               width="100%"
               y="0"
               x="63.623047"
               xlink:href="#BitstreamVeraSans-Roman-2e"
               id="use328" />
            <use
               height="100%"
               width="100%"
               y="0"
               x="95.410156"
               xlink:href="#BitstreamVeraSans-Roman-38"
               id="use330" />
          </g>
        </g>
      </g>
      <g
         id="ytick_8">
        <g
           id="line2d_31">
          <g
             id="g334">
            <use
               height="100%"
               width="100%"
               style="stroke:#000000;stroke-width:0.5"
               x="72"
               xlink:href="#m03813dbf82"
               y="86.400002"
               id="use336" />
          </g>
        </g>
        <g
           id="line2d_32">
          <g
             id="g339">
            <use
               height="100%"
               width="100%"
               style="stroke:#000000;stroke-width:0.5"
               x="518.40002"
               xlink:href="#mdfb3002313"
               y="86.400002"
               id="use341" />
          </g>
        </g>
        <g
           id="text_14">
          <!-- 0.9 -->
          <defs
             id="defs344">
            <path
               inkscape:connector-curvature="0"
               d="m 10.984375,1.515625 0,8.984375 Q 14.703125,8.734375 18.5,7.8125 q 3.8125,-0.921875 7.484375,-0.921875 9.765625,0 14.90625,6.5625 5.15625,6.5625 5.890625,19.953125 -2.828125,-4.203125 -7.1875,-6.453125 -4.34375,-2.25 -9.609375,-2.25 -10.9375,0 -17.3125,6.609375 -6.375,6.625 -6.375,18.109375 0,11.21875 6.640625,18 6.640625,6.796875 17.671875,6.796875 12.65625,0 19.3125,-9.703125 6.671875,-9.6875 6.671875,-28.140625 0,-17.234375 -8.1875,-27.515625 -8.171875,-10.28125 -21.984375,-10.28125 -3.71875,0 -7.53125,0.734375 -3.796875,0.734375 -7.90625,2.203125 m 19.625,30.90625 q 6.640625,0 10.515625,4.53125 3.890625,4.546875 3.890625,12.46875 0,7.859375 -3.890625,12.421875 -3.875,4.5625 -10.515625,4.5625 -6.640625,0 -10.515625,-4.5625 -3.875,-4.5625 -3.875,-12.421875 0,-7.921875 3.875,-12.46875 3.875,-4.53125 10.515625,-4.53125"
               id="BitstreamVeraSans-Roman-39" />
          </defs>
          <g
             transform="matrix(0.12,0,0,-0.12,48.91625,89.71125)"
             id="g347">
            <use
               height="100%"
               width="100%"
               y="0"
               x="0"
               xlink:href="#BitstreamVeraSans-Roman-30"
               id="use349" />
            <use
               height="100%"
               width="100%"
               y="0"
               x="63.623047"
               xlink:href="#BitstreamVeraSans-Roman-2e"
               id="use351" />
            <use
               height="100%"
               width="100%"
               y="0"
               x="95.410156"
               xlink:href="#BitstreamVeraSans-Roman-39"
               id="use353" />
          </g>
        </g>
      </g>
      <g
         id="ytick_9">
        <g
           id="line2d_33">
          <g
             id="g357">
            <use
               height="100%"
               width="100%"
               style="stroke:#000000;stroke-width:0.5"
               x="72"
               xlink:href="#m03813dbf82"
               y="43.200001"
               id="use359" />
          </g>
        </g>
        <g
           id="line2d_34">
          <g
             id="g362">
            <use
               height="100%"
               width="100%"
               style="stroke:#000000;stroke-width:0.5"
               x="518.40002"
               xlink:href="#mdfb3002313"
               y="43.200001"
               id="use364" />
          </g>
        </g>
        <g
           id="text_15">
          <!-- 1.0 -->
          <g
             transform="matrix(0.12,0,0,-0.12,48.91625,46.51125)"
             id="g367">
            <use
               height="100%"
               width="100%"
               y="0"
               x="0"
               xlink:href="#BitstreamVeraSans-Roman-31"
               id="use369" />
            <use
               height="100%"
               width="100%"
               y="0"
               x="63.623047"
               xlink:href="#BitstreamVeraSans-Roman-2e"
               id="use371" />
            <use
               height="100%"
               width="100%"
               y="0"
               x="95.410156"
               xlink:href="#BitstreamVeraSans-Roman-30"
               id="use373" />
          </g>
        </g>
      </g>
    </g>
    <g
       id="line2d_1"
       transform="matrix(1.25,0,0,1.25,8.5714243,185.21935)"
       style="stroke:#000080;stroke-width:2.92000008;stroke-miterlimit:4;stroke-dasharray:none">
      <path
         inkscape:connector-curvature="0"
         clip-path="url(#p088ee281f3)"
         d="m 76.464,43.2 4.464,22.032307 4.464,13.254496 4.464,9.831149 4.464,8.646144 4.464,7.417254 4.464,5.6178 4.464,4.87168 4.464,7.59281 4.464,1.84334 4.464,34.71624 4.464,4.91558 4.464,3.73057 4.464,2.89668 4.464,3.46723 4.464,2.4139 4.464,3.51112 4.464,2.76502 4.464,3.11612 4.464,1.185 4.464,23.2612 4.464,3.24779 4.464,2.8089 4.464,2.32612 4.464,2.37001 4.464,2.15057 4.464,2.15056 4.464,2.32612 4.464,2.19445 4.464,0.92167 4.464,15.05395 4.464,2.72112 4.464,1.58001 4.464,1.93112 4.464,1.93112 4.464,1.84334 4.464,1.27278 4.464,1.185 4.464,2.23835 4.464,1.14111 4.464,11.41116 4.464,2.58945 4.464,1.58001 4.464,1.44834 4.464,1.36056 4.464,1.09722 4.464,1.18501 4.464,1.53611 4.464,1.84335 4.464,0.48277 4.464,9.30449 4.464,2.41389 4.464,2.15057 4.464,1.22889 4.464,1.09723 4.464,1.00945 4.464,1.27278 4.464,0.92167 4.464,1.00945 4.464,0.48278 4.464,7.72447 4.464,1.14112 4.464,1.22889 4.464,1.05334 4.464,1.09722 4.464,1.14112 4.464,0.92167 4.464,0.48278 4.464,0.87778 4.464,0.65834 4.464,6.71502 4.464,1.36056 4.464,1.40445 4.464,0.92167 4.464,0.92167 4.464,1.05334 4.464,0.87778 4.464,0.87778 4.464,0.87778 4.464,0.87779 4.464,4.21334 4.464,1.2289 4.464,1.05334 4.464,0.87778 4.464,0.61444 4.464,0.79001 4.464,0.79 4.464,0.52667 4.464,1.09723 4.464,0.43889 4.464,4.08168 4.464,1.185 4.464,1.31667 4.464,0.8339 4.464,0.87778 4.464,0.92167 4.464,0.70222 4.464,0.57056 4.464,0.65834"
         style="fill:none;stroke:#000080;stroke-width:2.92000008;stroke-linecap:square;stroke-miterlimit:4;stroke-dasharray:none"
         id="path17" />
    </g>
    <text
       xml:space="preserve"
       style="font-style:normal;font-variant:normal;font-weight:normal;font-stretch:normal;font-size:25px;line-height:125%;font-family:Serif;-inkscape-font-specification:Serif;letter-spacing:0px;word-spacing:0px;fill:#000000;fill-opacity:1;stroke:none;stroke-width:1px;stroke-linecap:butt;stroke-linejoin:miter;stroke-opacity:1"
       x="285"
       y="721.64795"
       id="text12603"
       sodipodi:linespacing="125%"><tspan
         sodipodi:role="line"
         id="tspan12605"
         x="285"
         y="721.64795">počet odpovědí</tspan></text>
    <g
       id="g4454">
      <path
         d="m 365.79507,269.45364 267.505,0 0,71.2013 -267.505,0 0,-71.2013 z"
         style="fill:#ffffff;fill-opacity:1;fill-rule:nonzero;stroke:#262626;stroke-width:0.375;stroke-linecap:butt;stroke-linejoin:round;stroke-miterlimit:4;stroke-dasharray:none;stroke-opacity:1"
         id="path11680"
         inkscape:connector-curvature="0" />
      <path
         d="m 374.79382,286.88614 45,0"
         style="fill:none;stroke:#d4aa00;stroke-width:6.25;stroke-linecap:round;stroke-linejoin:round;stroke-miterlimit:4;stroke-dasharray:none;stroke-opacity:1"
         id="path11682"
         inkscape:connector-curvature="0" />
      <path
         d="m 374.79382,319.11244 45,0"
         style="fill:none;stroke:#800000;stroke-width:6.25;stroke-linecap:round;stroke-linejoin:round;stroke-miterlimit:4;stroke-dasharray:none;stroke-opacity:1"
         id="path11688"
         inkscape:connector-curvature="0" />
      <path
         d="m 518.04507,286.88614 45,0"
         style="fill:none;stroke:#008000;stroke-width:6.25;stroke-linecap:round;stroke-linejoin:round;stroke-miterlimit:4;stroke-dasharray:none;stroke-opacity:1"
         id="path11696"
         inkscape:connector-curvature="0" />
      <path
         d="m 518.04507,319.11244 45,0"
         style="fill:none;stroke:#000080;stroke-width:6.25;stroke-linecap:round;stroke-linejoin:round;stroke-miterlimit:4;stroke-dasharray:none;stroke-opacity:1"
         id="path11704"
         inkscape:connector-curvature="0" />
      <text
         sodipodi:linespacing="125%"
         id="text4412"
         y="296.1149"
         x="458.46063"
         style="font-style:normal;font-weight:normal;font-size:25px;line-height:125%;font-family:Sans;text-align:center;letter-spacing:0px;word-spacing:0px;text-anchor:middle;fill:#000000;fill-opacity:1;stroke:none;stroke-width:1px;stroke-linecap:butt;stroke-linejoin:miter;stroke-opacity:1"
         xml:space="preserve"><tspan
           id="tspan4416"
           y="296.1149"
           x="458.46063"
           sodipodi:role="line">95%</tspan></text>
      <text
         sodipodi:linespacing="125%"
         id="text4412-7"
         y="294.98883"
         x="601.65131"
         style="font-style:normal;font-weight:normal;font-size:25px;line-height:125%;font-family:Sans;text-align:center;letter-spacing:0px;word-spacing:0px;text-anchor:middle;fill:#000000;fill-opacity:1;stroke:none;stroke-width:1px;stroke-linecap:butt;stroke-linejoin:miter;stroke-opacity:1"
         xml:space="preserve"><tspan
           id="tspan4416-1"
           y="294.98883"
           x="601.65131"
           sodipodi:role="line">65%</tspan></text>
      <text
         sodipodi:linespacing="125%"
         id="text4412-5"
         y="327.02686"
         x="458.83655"
         style="font-style:normal;font-weight:normal;font-size:25px;line-height:125%;font-family:Sans;text-align:center;letter-spacing:0px;word-spacing:0px;text-anchor:middle;fill:#000000;fill-opacity:1;stroke:none;stroke-width:1px;stroke-linecap:butt;stroke-linejoin:miter;stroke-opacity:1"
         xml:space="preserve"><tspan
           id="tspan4416-8"
           y="327.02686"
           x="458.83655"
           sodipodi:role="line">80%</tspan></text>
      <text
         sodipodi:linespacing="125%"
         id="text4412-0"
         y="327.02689"
         x="601.31012"
         style="font-style:normal;font-weight:normal;font-size:25px;line-height:125%;font-family:Sans;text-align:center;letter-spacing:0px;word-spacing:0px;text-anchor:middle;fill:#000000;fill-opacity:1;stroke:none;stroke-width:1px;stroke-linecap:butt;stroke-linejoin:miter;stroke-opacity:1"
         xml:space="preserve"><tspan
           id="tspan4416-7"
           y="327.02689"
           x="601.31012"
           sodipodi:role="line">50%</tspan></text>
    </g>
  </g>
</svg>
