<?xml version="1.0" encoding="UTF-8" standalone="no"?>
<!-- Created with matplotlib (https://matplotlib.org/) -->

<svg
   xmlns:dc="http://purl.org/dc/elements/1.1/"
   xmlns:cc="http://creativecommons.org/ns#"
   xmlns:rdf="http://www.w3.org/1999/02/22-rdf-syntax-ns#"
   xmlns:svg="http://www.w3.org/2000/svg"
   xmlns="http://www.w3.org/2000/svg"
   xmlns:xlink="http://www.w3.org/1999/xlink"
   xmlns:sodipodi="http://sodipodi.sourceforge.net/DTD/sodipodi-0.dtd"
   xmlns:inkscape="http://www.inkscape.org/namespaces/inkscape"
   height="212.17136pt"
   version="1.1"
   viewBox="0 0 294.38914 212.17135"
   width="294.38913pt"
   id="svg506"
   sodipodi:docname="problem-ordering-bias-a.svg"
   inkscape:version="0.92.4 (5da689c313, 2019-01-14)">
  <metadata
     id="metadata510">
    <rdf:RDF>
      <cc:Work
         rdf:about="">
        <dc:format>image/svg+xml</dc:format>
        <dc:type
           rdf:resource="http://purl.org/dc/dcmitype/StillImage" />
        <dc:title></dc:title>
      </cc:Work>
    </rdf:RDF>
  </metadata>
  <sodipodi:namedview
     pagecolor="#ffffff"
     bordercolor="#666666"
     borderopacity="1"
     objecttolerance="10"
     gridtolerance="10"
     guidetolerance="10"
     inkscape:pageopacity="0"
     inkscape:pageshadow="2"
     inkscape:window-width="1366"
     inkscape:window-height="745"
     id="namedview508"
     showgrid="false"
     fit-margin-top="0"
     fit-margin-left="0"
     fit-margin-right="0"
     fit-margin-bottom="0"
     inkscape:zoom="0.74494948"
     inkscape:cx="67.681223"
     inkscape:cy="161.44366"
     inkscape:window-x="0"
     inkscape:window-y="23"
     inkscape:window-maximized="0"
     inkscape:current-layer="axes_1" />
  <defs
     id="defs4"
     style="stroke-linecap:butt;stroke-linejoin:round">
    <style
       type="text/css"
       id="style2">
*{stroke-linecap:butt;stroke-linejoin:round;}
  </style>
  </defs>
  <g
     id="figure_1"
     style="stroke-linecap:butt;stroke-linejoin:round"
     transform="translate(-8.6268745,-27.711389)">
    <g
       id="axes_1"
       style="stroke-linecap:butt;stroke-linejoin:round">
      <g
         id="patch_2"
         style="stroke-linecap:butt;stroke-linejoin:round">
        <path
           d="M 42.03,211.464 H 302.616 V 28.512 H 42.03 Z"
           style="fill:#ffffff;stroke-linecap:butt;stroke-linejoin:round"
           id="path9"
           inkscape:connector-curvature="0" />
      </g>
      <g
         id="PolyCollection_1"
         style="stroke-linecap:butt;stroke-linejoin:round">
        <defs
           id="defs13">
          <path
             d="m 53.874818,-149.3752 v 4.55922 l 2.392893,-18.6833 2.392892,0.84205 2.392893,-1.48907 2.392892,-1.09892 2.392893,0.66286 2.392893,-7.59221 2.392892,0.74526 2.392893,0.64078 2.392892,2.90474 2.392893,-1.32432 2.392892,-2.38421 2.392893,0.90527 2.392892,2.68031 2.392893,-1.34009 2.392893,1.40648 2.392892,-1.47855 2.392893,2.37116 2.392892,-2.31235 2.392893,1.06567 2.392893,-3.48934 2.39289,2.39991 2.3929,2.27048 2.39289,1.14852 2.39289,-0.18601 2.39289,3.29538 2.39289,-0.12174 2.3929,3.21932 2.39289,1.75461 2.39289,0.73958 2.3929,2.30504 2.39289,2.5645 2.39289,-1.23006 2.39289,4.70612 2.3929,-0.3322 2.39289,4.23891 2.39289,-2.46263 2.39289,2.24884 2.3929,-0.84978 2.39289,3.72438 2.39289,3.03917 2.39289,1.76074 2.3929,2.01146 2.39289,-0.90989 2.39289,0.4936 2.39289,3.78002 2.3929,1.56852 2.39289,3.05389 2.39289,-0.83078 2.39289,3.86741 2.3929,-1.50478 2.39289,0.13152 2.39289,2.61892 2.39289,0.25325 2.3929,2.82606 2.39289,-2.20911 2.39289,2.85733 2.39289,0.60438 2.3929,4.58986 2.39289,1.78374 2.39289,-1.52826 2.39289,1.72816 2.3929,3.25118 2.39289,1.46745 2.39289,-1.54199 2.39289,1.13691 2.3929,2.12038 2.39289,3.76928 2.39289,2.07896 2.39289,0.129961 2.3929,1.772853 2.39289,2.393644 2.39289,1.794703 2.39289,4.812614 2.3929,0.369088 2.39289,-4.354653 2.39289,3.20889 2.39289,-1.422312 2.3929,0.469458 2.39289,1.035797 2.39289,0.756214 2.3929,1.066328 2.39289,1.105712 2.39289,-1.21584 2.39289,3.363917 2.3929,-1.210753 2.39289,1.746706 2.39289,-0.687369 2.39289,5.319722 2.3929,-0.632896 2.39289,3.094692 2.39289,-1.648695 2.39289,-6.674837 2.3929,-3.081412 2.39289,1.638654 2.39289,2.234785 2.39289,0.354064 2.3929,2.335452 2.39289,0.336356 2.39289,-7.718126 v -4.288231 0 l -2.39289,7.468494 -2.39289,-0.474429 -2.3929,-2.540232 -2.39289,0.0541 -2.39289,-2.276456 -2.39289,-1.574708 -2.3929,2.800605 -2.39289,6.852666 -2.39289,1.577809 -2.39289,-2.981612 -2.3929,0.654337 -2.39289,-5.236686 -2.39289,0.48305 -2.39289,-1.70384 -2.3929,1.120758 -2.39289,-3.240979 -2.39289,0.772102 -2.39289,-0.721034 -2.3929,-1.137712 -2.39289,-0.537199 -2.39289,-1.295787 -2.3929,-0.300981 -2.39289,1.123289 -2.39289,-2.877395 -2.39289,4.211963 -2.3929,-0.310411 -2.39289,-4.701809 -2.39289,-1.786429 -2.39289,-2.69405 -2.3929,-1.36864 -2.39289,-0.22644 -2.39289,-2.0268 -2.39289,-4.07242 -2.3929,-1.68388 -2.39289,-1.39275 -2.39289,1.51709 -2.39289,-1.14063 -2.3929,-3.39432 -2.39289,-1.92053 -2.39289,1.52088 -2.39289,-2.00654 -2.3929,-4.19907 -2.39289,-0.53321 -2.39289,-3.36995 -2.39289,2.46263 -2.3929,-3.05864 -2.39289,-0.0231 -2.39289,-2.76643 -2.39289,-0.19551 -2.3929,1.64388 -2.39289,-3.55677 -2.39289,0.44814 -2.39289,-3.08833 -2.3929,-1.48037 -2.39289,-3.95183 -2.39289,-0.30859 -2.39289,0.88764 -2.3929,-2.02515 -2.39289,-1.48515 -2.39289,-3.42914 -2.39289,-3.48216 -2.3929,0.72511 -2.39289,-2.21823 -2.39289,2.56357 -2.39289,-4.43206 -2.3929,0.6195 -2.39289,-4.66183 -2.39289,1.18663 -2.39289,-2.88019 -2.3929,-1.83766 -2.39289,-0.99523 -2.39289,-1.57219 -2.3929,-3.40103 -2.39289,0.12262 -2.39289,-3.55288 -2.39289,0.63411 -2.39289,-1.31756 -2.3929,-2.32354 -2.39289,-2.61955 -2.392893,3.87485 -2.392893,-1.12907 -2.392892,1.96954 -2.392893,-2.34812 -2.392892,1.65755 -2.392893,-1.38666 -2.392893,1.2889 -2.392892,-2.57034 -2.392893,-1.13799 -2.392892,2.60224 -2.392893,1.41756 -2.392892,-3.07439 -2.392893,-0.57855 -2.392892,-0.83998 -2.392893,7.43917 -2.392893,-0.41201 -2.392892,1.29544 -2.392893,1.0391 -2.392892,-0.24155 z"
             id="m0402e4299f"
             style="stroke:#1f78b4;stroke-linecap:butt;stroke-linejoin:round;stroke-opacity:0.2"
             inkscape:connector-curvature="0" />
        </defs>
        <g
           clip-path="url(#p71885cdefc)"
           id="g17"
           style="stroke-linecap:butt;stroke-linejoin:round">
          <use
             style="fill:#1f78b4;fill-opacity:0.2;stroke:#1f78b4;stroke-linecap:butt;stroke-linejoin:round;stroke-opacity:0.2"
             x="0"
             xlink:href="#m0402e4299f"
             y="237.60001"
             id="use15"
             width="100%"
             height="100%" />
        </g>
      </g>
      <g
         id="PolyCollection_2"
         style="stroke-linecap:butt;stroke-linejoin:round">
        <defs
           id="defs21">
          <path
             d="m 53.874818,-56.391918 v 4.596846 l 2.392893,-20.751972 2.392892,-0.903741 2.392893,-3.230526 2.392892,-2.865225 2.392893,-1.367568 2.392893,-9.364215 2.392892,-1.173279 2.392893,-1.236317 2.392892,0.989853 2.392893,-3.050097 2.392892,-4.488068 2.392893,-0.746567 2.392892,0.660428 2.392893,-3.146864 2.392893,-0.52623 2.392892,-3.29073 2.392893,0.44714 2.392892,-3.81121 2.392893,-0.81546 2.392893,-5.36675 2.39289,0.44262 2.3929,0.60826 2.39289,-1.1075 2.39289,-2.20015 2.39289,1.77633 2.39289,-1.93393 2.3929,1.42928 2.39289,-0.4016 2.39289,-1.1464 2.3929,0.83425 2.39289,0.49581 2.39289,-2.87405 2.39289,2.50174 2.3929,-2.24645 2.39289,2.44792 2.39289,-4.35135 2.39289,0.67631 2.3929,-2.81507 2.39289,1.98448 2.39289,1.05388 2.39289,-0.30124 2.3929,0.20676 2.39289,-2.89008 2.39289,-1.27036 2.39289,1.98364 2.3929,-0.40676 2.39289,1.44631 2.39289,-2.49682 2.39289,1.71365 2.3929,-3.25009 2.39289,-1.99922 2.39289,1.11788 2.39289,-1.9876 2.3929,1.12903 2.39289,-4.38831 2.39289,1.25623 2.39289,-0.96918 2.3929,2.42588 2.39289,-0.0491 2.39289,-3.08705 2.39289,-0.14617 2.3929,1.23335 2.39289,-0.52148 2.39289,-3.59343 2.39289,-0.43551 2.3929,0.24994 2.39289,2.13133 2.39289,0.22747 2.39289,-1.8968 2.3929,-0.25257 2.39289,0.55973 2.39289,-0.0933 2.39289,2.95517 2.3929,-1.4669 2.39289,-5.9588 2.39289,1.18975 2.39289,-3.3717 2.3929,-1.41843 2.39289,-0.73645 2.39289,-1.00771 2.3929,-0.63123 2.39289,-1.11846 2.39289,-2.89755 2.39289,1.28189 2.3929,-2.98494 2.39289,0.13229 2.39289,-2.70215 2.39289,3.31184 2.3929,-2.36829 2.39289,1.38942 2.39289,-3.67512 2.39289,-8.32 2.3929,-5.18168 2.39289,-0.26249 2.39289,0.58725 2.39289,-1.65175 2.3929,0.52489 2.39289,-1.51207 2.39289,-9.6777 v -4.42824 0 l -2.39289,9.68695 -2.39289,1.24803 -2.3929,-0.59213 -2.39289,1.80778 -2.39289,-0.54688 -2.39289,0.42363 -2.3929,4.51803 -2.39289,8.94417 -2.39289,3.68761 -2.39289,-1.34211 -2.3929,2.18247 -2.39289,-3.27602 -2.39289,2.58714 -2.39289,0.0648 -2.3929,3.00784 -2.39289,-1.49505 -2.39289,2.60668 -2.39289,1.17669 -2.3929,0.73218 -2.39289,1.47912 -2.39289,0.24832 -2.3929,1.69897 -2.39289,3.22555 -2.39289,-1.19133 -2.39289,6.11797 -2.3929,1.16094 -2.39289,-2.40152 -2.39289,-0.17308 -2.39289,-0.82253 -2.3929,0.32402 -2.39289,1.78746 -2.39289,0.0121 -2.39289,-2.0783 -2.3929,6.5e-4 -2.39289,0.23532 -2.39289,3.62466 -2.39289,0.58811 -2.3929,-1.40897 -2.39289,-0.061 -2.39289,3.35951 -2.39289,-0.30173 -2.3929,-2.22382 -2.39289,1.11671 -2.39289,-1.24956 -2.39289,4.31829 -2.3929,-1.07844 -2.39289,1.69139 -2.39289,-0.91693 -2.39289,1.67307 -2.3929,3.36265 -2.39289,-1.56193 -2.39289,2.40018 -2.39289,-1.3193 -2.3929,0.39809 -2.39289,-1.98368 -2.39289,1.59909 -2.39289,2.51781 -2.3929,-0.14856 -2.39289,0.31279 -2.39289,-1.52661 -2.39289,-1.6209 -2.3929,2.77076 -2.39289,-0.49947 -2.39289,4.42854 -2.39289,-2.36196 -2.3929,2.22123 -2.39289,-2.58216 -2.39289,2.76747 -2.39289,-0.95446 -2.3929,0.0936 -2.39289,0.77343 -2.39289,0.40065 -2.3929,-1.55295 -2.39289,2.06169 -2.39289,-1.91497 -2.39289,2.64546 -2.39289,0.65308 -2.3929,-0.80022 -2.39289,-0.62733 -2.392893,5.98083 -2.392893,0.48378 -2.392892,4.00493 -2.392893,-0.59152 -2.392892,3.42445 -2.392893,0.68603 -2.392893,2.88729 -2.392892,-0.52427 -2.392893,0.66118 -2.392892,4.372248 -2.392893,3.474406 -2.392892,-1.34824 -2.392893,1.415815 -2.392892,0.883802 -2.392893,9.465237 -2.392893,1.658887 -2.392892,2.703651 -2.392893,2.930602 -2.392892,1.535867 z"
             id="m8b8423b7c1"
             style="stroke:#b15928;stroke-linecap:butt;stroke-linejoin:round;stroke-opacity:0.2"
             inkscape:connector-curvature="0" />
        </defs>
        <g
           clip-path="url(#p71885cdefc)"
           id="g25"
           style="stroke-linecap:butt;stroke-linejoin:round">
          <use
             style="fill:#b15928;fill-opacity:0.2;stroke:#b15928;stroke-linecap:butt;stroke-linejoin:round;stroke-opacity:0.2"
             x="0"
             xlink:href="#m8b8423b7c1"
             y="237.60001"
             id="use23"
             width="100%"
             height="100%" />
        </g>
      </g>
      <g
         id="matplotlib.axis_1"
         style="stroke-linecap:butt;stroke-linejoin:round">
        <g
           id="xtick_1"
           style="stroke-linecap:butt;stroke-linejoin:round">
          <g
             id="line2d_1"
             style="stroke-linecap:butt;stroke-linejoin:round">
            <defs
               id="defs29">
              <path
                 d="M 0,0 V 3.5"
                 id="m43b31794f0"
                 style="stroke:#000000;stroke-width:0.80000001;stroke-linecap:butt;stroke-linejoin:round"
                 inkscape:connector-curvature="0" />
            </defs>
            <g
               id="g33"
               style="stroke-linecap:butt;stroke-linejoin:round">
              <use
                 style="stroke:#000000;stroke-width:0.80000001;stroke-linecap:butt;stroke-linejoin:round"
                 x="53.874817"
                 xlink:href="#m43b31794f0"
                 y="211.464"
                 id="use31"
                 width="100%"
                 height="100%" />
            </g>
          </g>
          <g
             id="text_1"
             style="stroke-linecap:butt;stroke-linejoin:round">
            <!-- 0 -->
            <defs
               id="defs37">
              <path
                 d="m 31.78125,66.40625 q -7.609375,0 -11.453125,-7.5 Q 16.5,51.421875 16.5,36.375 q 0,-14.984375 3.828125,-22.484375 3.84375,-7.5 11.453125,-7.5 7.671875,0 11.5,7.5 3.84375,7.5 3.84375,22.484375 0,15.046875 -3.84375,22.53125 -3.828125,7.5 -11.5,7.5 z m 0,7.8125 q 12.265625,0 18.734375,-9.703125 6.46875,-9.6875 6.46875,-28.140625 0,-18.40625 -6.46875,-28.109375 -6.46875,-9.6875 -18.734375,-9.6875 -12.25,0 -18.71875,9.6875 Q 6.59375,17.96875 6.59375,36.375 q 0,18.453125 6.46875,28.140625 6.46875,9.703125 18.71875,9.703125 z"
                 id="DejaVuSans-48"
                 inkscape:connector-curvature="0"
                 style="stroke-linecap:butt;stroke-linejoin:round" />
            </defs>
            <g
               transform="matrix(0.1,0,0,-0.1,50.693568,226.06244)"
               id="g41"
               style="stroke-linecap:butt;stroke-linejoin:round">
              <use
                 xlink:href="#DejaVuSans-48"
                 id="use39"
                 style="stroke-linecap:butt;stroke-linejoin:round"
                 x="0"
                 y="0"
                 width="100%"
                 height="100%" />
            </g>
          </g>
        </g>
        <g
           id="xtick_2"
           style="stroke-linecap:butt;stroke-linejoin:round">
          <g
             id="line2d_2"
             style="stroke-linecap:butt;stroke-linejoin:round">
            <g
               id="g47"
               style="stroke-linecap:butt;stroke-linejoin:round">
              <use
                 style="stroke:#000000;stroke-width:0.80000001;stroke-linecap:butt;stroke-linejoin:round"
                 x="101.73267"
                 xlink:href="#m43b31794f0"
                 y="211.464"
                 id="use45"
                 width="100%"
                 height="100%" />
            </g>
          </g>
          <g
             id="text_2"
             style="stroke-linecap:butt;stroke-linejoin:round">
            <!-- 20 -->
            <defs
               id="defs51">
              <path
                 d="M 19.1875,8.296875 H 53.609375 V 0 H 7.328125 v 8.296875 q 5.609375,5.8125 15.296875,15.59375 9.703125,9.796875 12.1875,12.640625 4.734375,5.3125 6.609375,9 1.890625,3.6875 1.890625,7.25 0,5.8125 -4.078125,9.46875 -4.078125,3.671875 -10.625,3.671875 -4.640625,0 -9.796875,-1.609375 -5.140625,-1.609375 -11,-4.890625 v 9.96875 Q 13.765625,71.78125 18.9375,73 q 5.1875,1.21875 9.484375,1.21875 11.328125,0 18.0625,-5.671875 6.734375,-5.65625 6.734375,-15.125 0,-4.5 -1.6875,-8.53125 Q 49.859375,40.875 45.40625,35.40625 44.1875,33.984375 37.640625,27.21875 31.109375,20.453125 19.1875,8.296875 Z"
                 id="DejaVuSans-50"
                 inkscape:connector-curvature="0"
                 style="stroke-linecap:butt;stroke-linejoin:round" />
            </defs>
            <g
               transform="matrix(0.1,0,0,-0.1,95.370169,226.06244)"
               id="g57"
               style="stroke-linecap:butt;stroke-linejoin:round">
              <use
                 xlink:href="#DejaVuSans-50"
                 id="use53"
                 style="stroke-linecap:butt;stroke-linejoin:round"
                 x="0"
                 y="0"
                 width="100%"
                 height="100%" />
              <use
                 x="63.623047"
                 xlink:href="#DejaVuSans-48"
                 id="use55"
                 style="stroke-linecap:butt;stroke-linejoin:round"
                 y="0"
                 width="100%"
                 height="100%" />
            </g>
          </g>
        </g>
        <g
           id="xtick_3"
           style="stroke-linecap:butt;stroke-linejoin:round">
          <g
             id="line2d_3"
             style="stroke-linecap:butt;stroke-linejoin:round">
            <g
               id="g63"
               style="stroke-linecap:butt;stroke-linejoin:round">
              <use
                 style="stroke:#000000;stroke-width:0.80000001;stroke-linecap:butt;stroke-linejoin:round"
                 x="149.59052"
                 xlink:href="#m43b31794f0"
                 y="211.464"
                 id="use61"
                 width="100%"
                 height="100%" />
            </g>
          </g>
          <g
             id="text_3"
             style="stroke-linecap:butt;stroke-linejoin:round">
            <!-- 40 -->
            <defs
               id="defs67">
              <path
                 d="M 37.796875,64.3125 12.890625,25.390625 h 24.90625 z m -2.59375,8.59375 h 12.40625 V 25.390625 h 10.40625 V 17.1875 H 47.609375 V 0 h -9.8125 V 17.1875 H 4.890625 v 9.515625 z"
                 id="DejaVuSans-52"
                 inkscape:connector-curvature="0"
                 style="stroke-linecap:butt;stroke-linejoin:round" />
            </defs>
            <g
               transform="matrix(0.1,0,0,-0.1,143.22802,226.06244)"
               id="g73"
               style="stroke-linecap:butt;stroke-linejoin:round">
              <use
                 xlink:href="#DejaVuSans-52"
                 id="use69"
                 style="stroke-linecap:butt;stroke-linejoin:round"
                 x="0"
                 y="0"
                 width="100%"
                 height="100%" />
              <use
                 x="63.623047"
                 xlink:href="#DejaVuSans-48"
                 id="use71"
                 style="stroke-linecap:butt;stroke-linejoin:round"
                 y="0"
                 width="100%"
                 height="100%" />
            </g>
          </g>
        </g>
        <g
           id="xtick_4"
           style="stroke-linecap:butt;stroke-linejoin:round">
          <g
             id="line2d_4"
             style="stroke-linecap:butt;stroke-linejoin:round">
            <g
               id="g79"
               style="stroke-linecap:butt;stroke-linejoin:round">
              <use
                 style="stroke:#000000;stroke-width:0.80000001;stroke-linecap:butt;stroke-linejoin:round"
                 x="197.44838"
                 xlink:href="#m43b31794f0"
                 y="211.464"
                 id="use77"
                 width="100%"
                 height="100%" />
            </g>
          </g>
          <g
             id="text_4"
             style="stroke-linecap:butt;stroke-linejoin:round">
            <!-- 60 -->
            <defs
               id="defs83">
              <path
                 d="m 33.015625,40.375 q -6.640625,0 -10.53125,-4.546875 -3.875,-4.53125 -3.875,-12.4375 0,-7.859375 3.875,-12.4375 3.890625,-4.5625 10.53125,-4.5625 6.640625,0 10.515625,4.5625 3.875,4.578125 3.875,12.4375 0,7.90625 -3.875,12.4375 Q 39.65625,40.375 33.015625,40.375 Z M 52.59375,71.296875 V 62.3125 q -3.71875,1.75 -7.5,2.671875 -3.78125,0.9375 -7.5,0.9375 -9.765625,0 -14.921875,-6.59375 -5.140625,-6.59375 -5.875,-19.921875 2.875,4.25 7.21875,6.515625 4.359375,2.265625 9.578125,2.265625 10.984375,0 17.359375,-6.671875 6.375,-6.65625 6.375,-18.125 0,-11.234375 -6.640625,-18.03125 -6.640625,-6.78125 -17.671875,-6.78125 -12.65625,0 -19.34375,9.6875 -6.6875,9.703125 -6.6875,28.109375 0,17.28125 8.203125,27.5625 8.203125,10.28125 22.015625,10.28125 3.71875,0 7.5,-0.734375 3.78125,-0.734375 7.890625,-2.1875 z"
                 id="DejaVuSans-54"
                 inkscape:connector-curvature="0"
                 style="stroke-linecap:butt;stroke-linejoin:round" />
            </defs>
            <g
               transform="matrix(0.1,0,0,-0.1,191.08587,226.06244)"
               id="g89"
               style="stroke-linecap:butt;stroke-linejoin:round">
              <use
                 xlink:href="#DejaVuSans-54"
                 id="use85"
                 style="stroke-linecap:butt;stroke-linejoin:round"
                 x="0"
                 y="0"
                 width="100%"
                 height="100%" />
              <use
                 x="63.623047"
                 xlink:href="#DejaVuSans-48"
                 id="use87"
                 style="stroke-linecap:butt;stroke-linejoin:round"
                 y="0"
                 width="100%"
                 height="100%" />
            </g>
          </g>
        </g>
        <g
           id="xtick_5"
           style="stroke-linecap:butt;stroke-linejoin:round">
          <g
             id="line2d_5"
             style="stroke-linecap:butt;stroke-linejoin:round">
            <g
               id="g95"
               style="stroke-linecap:butt;stroke-linejoin:round">
              <use
                 style="stroke:#000000;stroke-width:0.80000001;stroke-linecap:butt;stroke-linejoin:round"
                 x="245.30623"
                 xlink:href="#m43b31794f0"
                 y="211.464"
                 id="use93"
                 width="100%"
                 height="100%" />
            </g>
          </g>
          <g
             id="text_5"
             style="stroke-linecap:butt;stroke-linejoin:round">
            <!-- 80 -->
            <defs
               id="defs99">
              <path
                 d="m 31.78125,34.625 q -7.03125,0 -11.0625,-3.765625 -4.015625,-3.765625 -4.015625,-10.34375 0,-6.59375 4.015625,-10.359375 4.03125,-3.765625 11.0625,-3.765625 7.03125,0 11.078125,3.78125 4.0625,3.796875 4.0625,10.34375 0,6.578125 -4.03125,10.34375 Q 38.875,34.625 31.78125,34.625 Z m -9.859375,4.1875 Q 15.578125,40.375 12.03125,44.71875 8.5,49.078125 8.5,55.328125 q 0,8.734375 6.21875,13.8125 6.234375,5.078125 17.0625,5.078125 10.890625,0 17.09375,-5.078125 6.203125,-5.078125 6.203125,-13.8125 0,-6.25 -3.546875,-10.609375 Q 48,40.375 41.703125,38.8125 q 7.125,-1.65625 11.09375,-6.5 3.984375,-4.828125 3.984375,-11.796875 0,-10.609375 -6.46875,-16.28125 -6.46875,-5.65625 -18.53125,-5.65625 -12.046875,0 -18.53125,5.65625 -6.46875,5.671875 -6.46875,16.28125 0,6.96875 4,11.796875 4.015625,4.84375 11.140625,6.5 z M 18.3125,54.390625 q 0,-5.65625 3.53125,-8.828125 3.546875,-3.171875 9.9375,-3.171875 6.359375,0 9.9375,3.171875 3.59375,3.171875 3.59375,8.828125 0,5.671875 -3.59375,8.84375 -3.578125,3.171875 -9.9375,3.171875 -6.390625,0 -9.9375,-3.171875 Q 18.3125,60.0625 18.3125,54.390625 Z"
                 id="DejaVuSans-56"
                 inkscape:connector-curvature="0"
                 style="stroke-linecap:butt;stroke-linejoin:round" />
            </defs>
            <g
               transform="matrix(0.1,0,0,-0.1,238.94372,226.06244)"
               id="g105"
               style="stroke-linecap:butt;stroke-linejoin:round">
              <use
                 xlink:href="#DejaVuSans-56"
                 id="use101"
                 style="stroke-linecap:butt;stroke-linejoin:round"
                 x="0"
                 y="0"
                 width="100%"
                 height="100%" />
              <use
                 x="63.623047"
                 xlink:href="#DejaVuSans-48"
                 id="use103"
                 style="stroke-linecap:butt;stroke-linejoin:round"
                 y="0"
                 width="100%"
                 height="100%" />
            </g>
          </g>
        </g>
        <g
           id="xtick_6"
           style="stroke-linecap:butt;stroke-linejoin:round">
          <g
             id="line2d_6"
             style="stroke-linecap:butt;stroke-linejoin:round">
            <g
               id="g111"
               style="stroke-linecap:butt;stroke-linejoin:round">
              <use
                 style="stroke:#000000;stroke-width:0.80000001;stroke-linecap:butt;stroke-linejoin:round"
                 x="293.16406"
                 xlink:href="#m43b31794f0"
                 y="211.464"
                 id="use109"
                 width="100%"
                 height="100%" />
            </g>
          </g>
          <g
             id="text_6"
             style="stroke-linecap:butt;stroke-linejoin:round">
            <!-- 100 -->
            <defs
               id="defs115">
              <path
                 d="m 12.40625,8.296875 h 16.109375 v 55.625 L 10.984375,60.40625 v 8.984375 l 17.4375,3.515625 H 38.28125 V 8.296875 H 54.390625 V 0 H 12.40625 Z"
                 id="DejaVuSans-49"
                 inkscape:connector-curvature="0"
                 style="stroke-linecap:butt;stroke-linejoin:round" />
            </defs>
            <g
               transform="matrix(0.1,0,0,-0.1,283.62032,226.06244)"
               id="g123"
               style="stroke-linecap:butt;stroke-linejoin:round">
              <use
                 xlink:href="#DejaVuSans-49"
                 id="use117"
                 style="stroke-linecap:butt;stroke-linejoin:round"
                 x="0"
                 y="0"
                 width="100%"
                 height="100%" />
              <use
                 x="63.623047"
                 xlink:href="#DejaVuSans-48"
                 id="use119"
                 style="stroke-linecap:butt;stroke-linejoin:round"
                 y="0"
                 width="100%"
                 height="100%" />
              <use
                 x="127.24609"
                 xlink:href="#DejaVuSans-48"
                 id="use121"
                 style="stroke-linecap:butt;stroke-linejoin:round"
                 y="0"
                 width="100%"
                 height="100%" />
            </g>
          </g>
        </g>
        <g
           id="text_7"
           style="stroke-linecap:butt;stroke-linejoin:round">
          <!-- Item -->
          <defs
             id="defs131">
            <path
               d="m 9.8125,72.90625 h 9.859375 V 0 H 9.8125 Z"
               id="DejaVuSans-73"
               inkscape:connector-curvature="0"
               style="stroke-linecap:butt;stroke-linejoin:round" />
            <path
               d="M 18.3125,70.21875 V 54.6875 h 18.5 v -6.984375 h -18.5 v -29.6875 q 0,-6.6875 1.828125,-8.59375 1.828125,-1.90625 7.453125,-1.90625 H 36.8125 V 0 H 27.59375 Q 17.1875,0 13.234375,3.875 9.28125,7.765625 9.28125,18.015625 v 29.6875 H 2.6875 V 54.6875 h 6.59375 v 15.53125 z"
               id="DejaVuSans-116"
               inkscape:connector-curvature="0"
               style="stroke-linecap:butt;stroke-linejoin:round" />
            <path
               d="m 56.203125,29.59375 v -4.390625 h -41.3125 q 0.59375,-9.28125 5.59375,-14.140625 5,-4.859375 13.9375,-4.859375 5.171875,0 10.03125,1.265625 4.859375,1.265625 9.65625,3.8125 v -8.5 q -4.84375,-2.046875 -9.921875,-3.125 -5.078125,-1.078125 -10.296875,-1.078125 -13.09375,0 -20.734375,7.609375 -7.640625,7.625 -7.640625,20.625 0,13.421875 7.25,21.296875 Q 20.015625,56 32.328125,56 q 11.03125,0 17.453125,-7.109375 6.421875,-7.09375 6.421875,-19.296875 z m -8.984375,2.640625 q -0.09375,7.359375 -4.125,11.75 -4.03125,4.40625 -10.671875,4.40625 -7.515625,0 -12.03125,-4.25 -4.515625,-4.25 -5.203125,-11.96875 z"
               id="DejaVuSans-101"
               inkscape:connector-curvature="0"
               style="stroke-linecap:butt;stroke-linejoin:round" />
            <path
               d="M 52,44.1875 Q 55.375,50.25 60.0625,53.125 64.75,56 71.09375,56 q 8.546875,0 13.1875,-5.984375 4.640625,-5.96875 4.640625,-17 V 0 h -9.03125 v 32.71875 q 0,7.859375 -2.796875,11.65625 -2.78125,3.8125 -8.484375,3.8125 -6.984375,0 -11.046875,-4.640625 -4.046875,-4.625 -4.046875,-12.640625 V 0 h -9.03125 v 32.71875 q 0,7.90625 -2.78125,11.6875 -2.78125,3.78125 -8.59375,3.78125 -6.890625,0 -10.953125,-4.65625 -4.046875,-4.65625 -4.046875,-12.625 V 0 h -9.03125 v 54.6875 h 9.03125 v -8.5 q 3.078125,5.03125 7.375,7.421875 Q 29.78125,56 35.6875,56 41.65625,56 45.828125,52.96875 50,49.953125 52,44.1875 Z"
               id="DejaVuSans-109"
               inkscape:connector-curvature="0"
               style="stroke-linecap:butt;stroke-linejoin:round" />
          </defs>
          <g
             transform="matrix(0.1,0,0,-0.1,160.94097,239.74056)"
             id="g141"
             style="stroke-linecap:butt;stroke-linejoin:round">
            <use
               xlink:href="#DejaVuSans-73"
               id="use133"
               style="stroke-linecap:butt;stroke-linejoin:round"
               x="0"
               y="0"
               width="100%"
               height="100%" />
            <use
               x="29.492188"
               xlink:href="#DejaVuSans-116"
               id="use135"
               style="stroke-linecap:butt;stroke-linejoin:round"
               y="0"
               width="100%"
               height="100%" />
            <use
               x="68.701172"
               xlink:href="#DejaVuSans-101"
               id="use137"
               style="stroke-linecap:butt;stroke-linejoin:round"
               y="0"
               width="100%"
               height="100%" />
            <use
               x="130.22461"
               xlink:href="#DejaVuSans-109"
               id="use139"
               style="stroke-linecap:butt;stroke-linejoin:round"
               y="0"
               width="100%"
               height="100%" />
          </g>
        </g>
      </g>
      <g
         id="matplotlib.axis_2"
         style="stroke-linecap:butt;stroke-linejoin:round">
        <g
           id="ytick_1"
           style="stroke-linecap:butt;stroke-linejoin:round">
          <g
             id="line2d_7"
             style="stroke-linecap:butt;stroke-linejoin:round">
            <defs
               id="defs146">
              <path
                 d="M 0,0 H -3.5"
                 id="m4b3b0076d8"
                 style="stroke:#000000;stroke-width:0.80000001;stroke-linecap:butt;stroke-linejoin:round"
                 inkscape:connector-curvature="0" />
            </defs>
            <g
               id="g150"
               style="stroke-linecap:butt;stroke-linejoin:round">
              <use
                 style="stroke:#000000;stroke-width:0.80000001;stroke-linecap:butt;stroke-linejoin:round"
                 x="42.029999"
                 xlink:href="#m4b3b0076d8"
                 y="180.09892"
                 id="use148"
                 width="100%"
                 height="100%" />
            </g>
          </g>
          <g
             id="text_8"
             style="stroke-linecap:butt;stroke-linejoin:round">
            <!-- 18 -->
            <g
               transform="matrix(0.1,0,0,-0.1,22.305,183.89814)"
               id="g157"
               style="stroke-linecap:butt;stroke-linejoin:round">
              <use
                 xlink:href="#DejaVuSans-49"
                 id="use153"
                 style="stroke-linecap:butt;stroke-linejoin:round"
                 x="0"
                 y="0"
                 width="100%"
                 height="100%" />
              <use
                 x="63.623047"
                 xlink:href="#DejaVuSans-56"
                 id="use155"
                 style="stroke-linecap:butt;stroke-linejoin:round"
                 y="0"
                 width="100%"
                 height="100%" />
            </g>
          </g>
        </g>
        <g
           id="ytick_2"
           style="stroke-linecap:butt;stroke-linejoin:round">
          <g
             id="line2d_8"
             style="stroke-linecap:butt;stroke-linejoin:round">
            <g
               id="g163"
               style="stroke-linecap:butt;stroke-linejoin:round">
              <use
                 style="stroke:#000000;stroke-width:0.80000001;stroke-linecap:butt;stroke-linejoin:round"
                 x="42.029999"
                 xlink:href="#m4b3b0076d8"
                 y="142.9077"
                 id="use161"
                 width="100%"
                 height="100%" />
            </g>
          </g>
          <g
             id="text_9"
             style="stroke-linecap:butt;stroke-linejoin:round">
            <!-- 19 -->
            <defs
               id="defs167">
              <path
                 d="M 10.984375,1.515625 V 10.5 Q 14.703125,8.734375 18.5,7.8125 q 3.8125,-0.921875 7.484375,-0.921875 9.765625,0 14.90625,6.5625 5.15625,6.5625 5.890625,19.953125 -2.828125,-4.203125 -7.1875,-6.453125 -4.34375,-2.25 -9.609375,-2.25 -10.9375,0 -17.3125,6.609375 -6.375,6.625 -6.375,18.109375 0,11.21875 6.640625,18 6.640625,6.796875 17.671875,6.796875 12.65625,0 19.3125,-9.703125 6.671875,-9.6875 6.671875,-28.140625 0,-17.234375 -8.1875,-27.515625 -8.171875,-10.28125 -21.984375,-10.28125 -3.71875,0 -7.53125,0.734375 -3.796875,0.734375 -7.90625,2.203125 z m 19.625,30.90625 q 6.640625,0 10.515625,4.53125 3.890625,4.546875 3.890625,12.46875 0,7.859375 -3.890625,12.421875 -3.875,4.5625 -10.515625,4.5625 -6.640625,0 -10.515625,-4.5625 -3.875,-4.5625 -3.875,-12.421875 0,-7.921875 3.875,-12.46875 3.875,-4.53125 10.515625,-4.53125 z"
                 id="DejaVuSans-57"
                 inkscape:connector-curvature="0"
                 style="stroke-linecap:butt;stroke-linejoin:round" />
            </defs>
            <g
               transform="matrix(0.1,0,0,-0.1,22.305,146.70692)"
               id="g173"
               style="stroke-linecap:butt;stroke-linejoin:round">
              <use
                 xlink:href="#DejaVuSans-49"
                 id="use169"
                 style="stroke-linecap:butt;stroke-linejoin:round"
                 x="0"
                 y="0"
                 width="100%"
                 height="100%" />
              <use
                 x="63.623047"
                 xlink:href="#DejaVuSans-57"
                 id="use171"
                 style="stroke-linecap:butt;stroke-linejoin:round"
                 y="0"
                 width="100%"
                 height="100%" />
            </g>
          </g>
        </g>
        <g
           id="ytick_3"
           style="stroke-linecap:butt;stroke-linejoin:round">
          <g
             id="line2d_9"
             style="stroke-linecap:butt;stroke-linejoin:round">
            <g
               id="g179"
               style="stroke-linecap:butt;stroke-linejoin:round">
              <use
                 style="stroke:#000000;stroke-width:0.80000001;stroke-linecap:butt;stroke-linejoin:round"
                 x="42.029999"
                 xlink:href="#m4b3b0076d8"
                 y="105.71648"
                 id="use177"
                 width="100%"
                 height="100%" />
            </g>
          </g>
          <g
             id="text_10"
             style="stroke-linecap:butt;stroke-linejoin:round">
            <!-- 20 -->
            <g
               transform="matrix(0.1,0,0,-0.1,22.305,109.5157)"
               id="g186"
               style="stroke-linecap:butt;stroke-linejoin:round">
              <use
                 xlink:href="#DejaVuSans-50"
                 id="use182"
                 style="stroke-linecap:butt;stroke-linejoin:round"
                 x="0"
                 y="0"
                 width="100%"
                 height="100%" />
              <use
                 x="63.623047"
                 xlink:href="#DejaVuSans-48"
                 id="use184"
                 style="stroke-linecap:butt;stroke-linejoin:round"
                 y="0"
                 width="100%"
                 height="100%" />
            </g>
          </g>
        </g>
        <g
           id="ytick_4"
           style="stroke-linecap:butt;stroke-linejoin:round">
          <g
             id="line2d_10"
             style="stroke-linecap:butt;stroke-linejoin:round">
            <g
               id="g192"
               style="stroke-linecap:butt;stroke-linejoin:round">
              <use
                 style="stroke:#000000;stroke-width:0.80000001;stroke-linecap:butt;stroke-linejoin:round"
                 x="42.029999"
                 xlink:href="#m4b3b0076d8"
                 y="68.525269"
                 id="use190"
                 width="100%"
                 height="100%" />
            </g>
          </g>
          <g
             id="text_11"
             style="stroke-linecap:butt;stroke-linejoin:round">
            <!-- 21 -->
            <g
               transform="matrix(0.1,0,0,-0.1,22.305,72.324484)"
               id="g199"
               style="stroke-linecap:butt;stroke-linejoin:round">
              <use
                 xlink:href="#DejaVuSans-50"
                 id="use195"
                 style="stroke-linecap:butt;stroke-linejoin:round"
                 x="0"
                 y="0"
                 width="100%"
                 height="100%" />
              <use
                 x="63.623047"
                 xlink:href="#DejaVuSans-49"
                 id="use197"
                 style="stroke-linecap:butt;stroke-linejoin:round"
                 y="0"
                 width="100%"
                 height="100%" />
            </g>
          </g>
        </g>
        <g
           id="ytick_5"
           style="stroke-linecap:butt;stroke-linejoin:round">
          <g
             id="line2d_11"
             style="stroke-linecap:butt;stroke-linejoin:round">
            <g
               id="g205"
               style="stroke-linecap:butt;stroke-linejoin:round">
              <use
                 style="stroke:#000000;stroke-width:0.80000001;stroke-linecap:butt;stroke-linejoin:round"
                 x="42.029999"
                 xlink:href="#m4b3b0076d8"
                 y="31.334045"
                 id="use203"
                 width="100%"
                 height="100%" />
            </g>
          </g>
          <g
             id="text_12"
             style="stroke-linecap:butt;stroke-linejoin:round">
            <!-- 22 -->
            <g
               transform="matrix(0.1,0,0,-0.1,22.305,35.133264)"
               id="g212"
               style="stroke-linecap:butt;stroke-linejoin:round">
              <use
                 xlink:href="#DejaVuSans-50"
                 id="use208"
                 style="stroke-linecap:butt;stroke-linejoin:round"
                 x="0"
                 y="0"
                 width="100%"
                 height="100%" />
              <use
                 x="63.623047"
                 xlink:href="#DejaVuSans-50"
                 id="use210"
                 style="stroke-linecap:butt;stroke-linejoin:round"
                 y="0"
                 width="100%"
                 height="100%" />
            </g>
          </g>
        </g>
        <g
           id="text_13"
           style="stroke-linecap:butt;stroke-linejoin:round">
          <!-- Difficulty -->
          <defs
             id="defs223">
            <path
               d="M 19.671875,64.796875 V 8.109375 H 31.59375 q 15.09375,0 22.09375,6.828125 7,6.84375 7,21.59375 0,14.640625 -7,21.453125 -7,6.8125 -22.09375,6.8125 z M 9.8125,72.90625 h 20.265625 q 21.1875,0 31.09375,-8.8125 9.921875,-8.8125 9.921875,-27.5625 0,-18.859375 -9.96875,-27.703125 Q 51.171875,0 30.078125,0 H 9.8125 Z"
               id="DejaVuSans-68"
               inkscape:connector-curvature="0"
               style="stroke-linecap:butt;stroke-linejoin:round" />
            <path
               d="M 9.421875,54.6875 H 18.40625 V 0 H 9.421875 Z m 0,21.296875 H 18.40625 V 64.59375 H 9.421875 Z"
               id="DejaVuSans-105"
               inkscape:connector-curvature="0"
               style="stroke-linecap:butt;stroke-linejoin:round" />
            <path
               d="M 37.109375,75.984375 V 68.5 h -8.59375 q -4.828125,0 -6.71875,-1.953125 -1.875,-1.953125 -1.875,-7.03125 V 54.6875 H 34.71875 V 47.703125 H 19.921875 V 0 h -9.03125 V 47.703125 H 2.296875 V 54.6875 h 8.59375 V 58.5 q 0,9.125 4.25,13.296875 4.25,4.1875 13.46875,4.1875 z"
               id="DejaVuSans-102"
               inkscape:connector-curvature="0"
               style="stroke-linecap:butt;stroke-linejoin:round" />
            <path
               d="M 48.78125,52.59375 V 44.1875 q -3.8125,2.109375 -7.640625,3.15625 -3.828125,1.046875 -7.734375,1.046875 -8.75,0 -13.59375,-5.546875 -4.828125,-5.53125 -4.828125,-15.546875 0,-10.015625 4.828125,-15.5625 4.84375,-5.53125 13.59375,-5.53125 3.90625,0 7.734375,1.046875 3.828125,1.046875 7.640625,3.15625 v -8.3125 q -3.765625,-1.75 -7.796875,-2.625 -4.015625,-0.890625 -8.5625,-0.890625 -12.359375,0 -19.640625,7.765625 -7.265625,7.765625 -7.265625,20.953125 0,13.375 7.34375,21.03125 Q 20.21875,56 33.015625,56 q 4.140625,0 8.09375,-0.859375 3.953125,-0.84375 7.671875,-2.546875 z"
               id="DejaVuSans-99"
               inkscape:connector-curvature="0"
               style="stroke-linecap:butt;stroke-linejoin:round" />
            <path
               d="M 8.5,21.578125 V 54.6875 h 8.984375 V 21.921875 q 0,-7.765625 3.015625,-11.65625 3.03125,-3.875 9.09375,-3.875 7.265625,0 11.484375,4.640625 4.234375,4.640625 4.234375,12.65625 v 31 h 8.984375 V 0 H 45.3125 V 8.40625 Q 42.046875,3.421875 37.71875,1 33.40625,-1.421875 27.6875,-1.421875 18.265625,-1.421875 13.375,4.4375 8.5,10.296875 8.5,21.578125 Z M 31.109375,56 Z"
               id="DejaVuSans-117"
               inkscape:connector-curvature="0"
               style="stroke-linecap:butt;stroke-linejoin:round" />
            <path
               d="M 9.421875,75.984375 H 18.40625 V 0 H 9.421875 Z"
               id="DejaVuSans-108"
               inkscape:connector-curvature="0"
               style="stroke-linecap:butt;stroke-linejoin:round" />
            <path
               d="M 32.171875,-5.078125 Q 28.375,-14.84375 24.75,-17.8125 q -3.609375,-2.984375 -9.65625,-2.984375 h -7.1875 v 7.515625 h 5.28125 q 3.703125,0 5.75,1.765625 2.0625,1.75 4.546875,8.296875 L 25.09375,0.875 2.984375,54.6875 H 12.5 L 29.59375,11.921875 46.6875,54.6875 h 9.515625 z"
               id="DejaVuSans-121"
               inkscape:connector-curvature="0"
               style="stroke-linecap:butt;stroke-linejoin:round" />
          </defs>
          <g
             transform="matrix(0,-0.1,-0.1,0,16.225312,142.363)"
             id="g245"
             style="stroke-linecap:butt;stroke-linejoin:round">
            <use
               xlink:href="#DejaVuSans-68"
               id="use225"
               style="stroke-linecap:butt;stroke-linejoin:round"
               x="0"
               y="0"
               width="100%"
               height="100%" />
            <use
               x="77.001953"
               xlink:href="#DejaVuSans-105"
               id="use227"
               style="stroke-linecap:butt;stroke-linejoin:round"
               y="0"
               width="100%"
               height="100%" />
            <use
               x="104.78516"
               xlink:href="#DejaVuSans-102"
               id="use229"
               style="stroke-linecap:butt;stroke-linejoin:round"
               y="0"
               width="100%"
               height="100%" />
            <use
               x="139.99023"
               xlink:href="#DejaVuSans-102"
               id="use231"
               style="stroke-linecap:butt;stroke-linejoin:round"
               y="0"
               width="100%"
               height="100%" />
            <use
               x="175.19531"
               xlink:href="#DejaVuSans-105"
               id="use233"
               style="stroke-linecap:butt;stroke-linejoin:round"
               y="0"
               width="100%"
               height="100%" />
            <use
               x="202.97852"
               xlink:href="#DejaVuSans-99"
               id="use235"
               style="stroke-linecap:butt;stroke-linejoin:round"
               y="0"
               width="100%"
               height="100%" />
            <use
               x="257.95898"
               xlink:href="#DejaVuSans-117"
               id="use237"
               style="stroke-linecap:butt;stroke-linejoin:round"
               y="0"
               width="100%"
               height="100%" />
            <use
               x="321.33789"
               xlink:href="#DejaVuSans-108"
               id="use239"
               style="stroke-linecap:butt;stroke-linejoin:round"
               y="0"
               width="100%"
               height="100%" />
            <use
               x="349.12109"
               xlink:href="#DejaVuSans-116"
               id="use241"
               style="stroke-linecap:butt;stroke-linejoin:round"
               y="0"
               width="100%"
               height="100%" />
            <use
               x="388.33008"
               xlink:href="#DejaVuSans-121"
               id="use243"
               style="stroke-linecap:butt;stroke-linejoin:round"
               y="0"
               width="100%"
               height="100%" />
          </g>
        </g>
      </g>
      <g
         id="line2d_12"
         style="stroke-linecap:butt;stroke-linejoin:round">
        <path
           clip-path="url(#p71885cdefc)"
           d="m 53.874818,90.525497 2.392893,-18.642969 2.392892,0.598117 2.392893,-1.172409 2.392892,-1.204947 2.392893,0.549399 2.392893,-7.591044 2.392892,0.918183 2.392893,0.539783 2.392892,2.946527 2.392893,-1.461571 2.392892,-2.411958 2.392893,1.016096 2.392892,2.687048 2.392893,-1.34709 2.392893,1.278244 2.392892,-1.413824 2.392893,2.227338 2.392892,-2.058 2.392893,1.192403 2.392893,-3.83673 2.39289,2.556699 2.3929,2.340592 2.39289,1.076221 2.39289,-0.390706 2.39289,3.484475 2.39289,-0.02481 2.3929,3.168849 2.39289,1.739067 2.39289,0.794992 2.3929,2.21102 2.39289,2.665473 2.39289,-1.077475 2.39289,4.582065 2.3929,-0.425071 2.39289,4.227803 2.39289,-2.453928 2.39289,2.241161 2.3929,-0.851895 2.39289,3.661553 2.39289,3.22391 2.39289,1.551027 2.3929,2.047542 2.39289,-0.904029 2.39289,0.479153 2.39289,3.769499 2.3929,1.63215 2.39289,3.11218 2.39289,-0.61895 2.39289,3.50362 2.3929,-1.39889 2.39289,0.0726 2.39289,2.68692 2.39289,0.20017 2.3929,2.83333 2.39289,-2.33896 2.39289,3.1619 2.39289,0.74979 2.3929,4.19963 2.39289,1.88374 2.39289,-1.43939 2.39289,1.81036 2.3929,3.20391 2.39289,1.32217 2.39289,-1.69011 2.39289,1.40829 2.3929,2.00034 2.39289,4.04105 2.39289,1.92661 2.39289,0.17614 2.3929,1.49978 2.39289,2.62207 2.39289,1.78961 2.39289,4.62945 2.3929,0.50355 2.39289,-4.24457 2.39289,2.99183 2.39289,-1.40609 2.3929,0.3594 2.39289,1.22739 2.39289,0.72431 2.3929,1.1252 2.39289,0.81905 2.39289,-0.90574 2.39289,3.24457 2.3929,-1.20096 2.39289,1.82104 2.39289,-0.61784 2.39289,5.16047 2.3929,-0.40505 2.39289,3.04425 2.39289,-1.67405 2.39289,-6.78617 2.3929,-2.90506 2.39289,1.45692 2.39289,2.39353 2.39289,0.0886 2.3929,2.43475 2.39289,0.44242 2.39289,-7.77422"
           style="fill:none;stroke:#1f78b4;stroke-width:1.5;stroke-linecap:square;stroke-linejoin:round"
           id="path249"
           inkscape:connector-curvature="0" />
      </g>
      <g
         id="line2d_13"
         style="stroke-linecap:butt;stroke-linejoin:round">
        <path
           clip-path="url(#p71885cdefc)"
           d="m 53.874818,183.50355 2.392893,-20.50253 2.392892,-1.26145 2.392893,-3.03197 2.392892,-3.06451 2.392893,-1.31016 2.392893,-9.4506 2.392892,-0.94138 2.392893,-1.31978 2.392892,1.08697 2.392893,-3.32114 2.392892,-4.27151 2.392893,-0.84347 2.392892,0.82749 2.392893,-3.20665 2.392893,-0.58132 2.392892,-3.27339 2.392893,0.36778 2.392892,-3.91756 2.392893,-0.66716 2.392893,-5.69629 2.39289,0.69714 2.3929,0.48103 2.39289,-0.78334 2.39289,-2.25026 2.39289,1.62491 2.39289,-1.88437 2.3929,1.30929 2.39289,-0.1205 2.39289,-1.06457 2.3929,0.35146 2.39289,0.80591 2.39289,-2.93703 2.39289,2.7225 2.3929,-2.28463 2.39289,2.36824 2.39289,-4.31349 2.39289,0.3816 2.3929,-2.71145 2.39289,1.80199 2.39289,1.36435 2.39289,-0.30854 2.3929,0.18799 2.39289,-2.7636 2.39289,-1.3804 2.39289,1.90994 2.3929,-0.22742 2.39289,1.25263 2.39289,-2.47852 2.39289,1.64406 2.3929,-3.25845 2.39289,-1.787 2.39289,0.82735 2.39289,-1.65939 2.3929,0.97378 2.39289,-4.19853 2.39289,1.30235 2.39289,-1.10978 2.3929,2.34007 2.39289,0.0242 2.39289,-3.29895 2.39289,-0.0492 2.3929,1.34435 2.39289,-0.5374 2.39289,-3.549665 2.39289,-0.451266 2.3929,0.140779 2.39289,2.181492 2.39289,0.067 2.39289,-1.68341 2.3929,-0.359787 2.39289,0.762507 2.39289,-0.0699 2.39289,2.76988 2.3929,-1.356 2.39289,-6.104136 2.39289,1.132267 2.39289,-3.265643 2.3929,-1.500169 2.39289,-0.632163 2.39289,-1.135259 2.3929,-0.734359 2.39289,-1.040506 2.39289,-2.765306 2.39289,1.385013 2.3929,-3.060518 2.39289,-0.03852 2.39289,-2.477402 2.39289,3.300905 2.3929,-2.264608 2.39289,1.184683 2.39289,-3.533602 2.39289,-8.645732 2.3929,-4.764627 2.39289,-0.402637 2.39289,0.533971 2.39289,-1.770983 2.3929,0.575187 2.39289,-1.417141 2.39289,-9.633779"
           style="fill:none;stroke:#b15928;stroke-width:1.5;stroke-linecap:square;stroke-linejoin:round"
           id="path252"
           inkscape:connector-curvature="0" />
      </g>
      <g
         id="line2d_14"
         style="stroke-linecap:butt;stroke-linejoin:round" />
      <g
         id="line2d_15"
         style="stroke-linecap:butt;stroke-linejoin:round" />
      <g
         id="line2d_16"
         style="stroke-linecap:butt;stroke-linejoin:round" />
      <g
         id="line2d_17"
         style="stroke-linecap:butt;stroke-linejoin:round">
        <path
           clip-path="url(#p71885cdefc)"
           d="m 53.874818,203.148 2.392893,-23.5114 2.392892,-1.03759 2.392893,-1.7253 2.392892,-5.58761 2.392893,-1.41782 2.392893,-9.16376 2.392892,-0.55813 2.392893,-1.44178 2.392892,-0.46283 2.392893,-3.12844 2.392892,-3.99219 2.392893,-0.91628 2.392892,-1.68153 2.392893,-1.66091 2.392893,-1.80839 2.392892,-1.66913 2.392893,-3.8979 2.392892,-2.559 2.392893,-1.14266 2.392893,-3.29698 2.39289,-0.66168 2.3929,-0.93465 2.39289,-1.18277 2.39289,-1.61458 2.39289,-0.0397 2.39289,-1.42633 2.3929,-0.6659 2.39289,-0.54383 2.39289,-0.42732 2.3929,-0.61415 2.39289,-0.83988 2.39289,-0.36075 2.39289,-0.13927 2.3929,-0.086 2.39289,-0.10335 2.39289,-2.54874 2.39289,-0.2613 2.3929,-2.13552 2.39289,-0.68617 2.39289,-0.30157 2.39289,-0.078 2.3929,-0.272 2.39289,-2.12386 2.39289,-0.0161 2.39289,-6.1e-4 2.3929,-0.31094 2.39289,-0.22703 2.39289,-1.26498 2.39289,-1.76267 2.3929,-0.84112 2.39289,-1.62295 2.39289,-1.34573 2.39289,-0.83044 2.3929,-0.69215 2.39289,-2.32128 2.39289,-0.72593 2.39289,-0.17531 2.3929,-0.19774 2.39289,-0.51491 2.39289,-2.248051 2.39289,-0.948114 2.3929,-0.446382 2.39289,-1.23098 2.39289,-0.710092 2.39289,-1.304111 2.3929,-0.674167 2.39289,-0.365836 2.39289,-0.173577 2.39289,-0.09344 2.3929,-0.459493 2.39289,-0.501868 2.39289,-0.159292 2.39289,-0.0089 2.3929,-0.522983 2.39289,-4.500737 2.39289,-0.615637 2.39289,-1.089428 2.3929,-2.570518 2.39289,-1.339339 2.39289,-3.376146 2.3929,-1.077361 2.39289,-1.676993 2.39289,-0.34873 2.39289,-0.02389 2.3929,-3.453472 2.39289,-0.590523 2.39289,-1.389645 2.39289,-0.256624 2.3929,-1.0409 2.39289,-1.021517 2.39289,-0.971535 2.39289,-11.124556 2.3929,-4.069045 2.39289,-0.455416 2.39289,-1.678656 2.39289,-0.558118 2.3929,-0.98955 2.39289,-0.541845 2.39289,-10.155634"
           style="fill:none;stroke:#bfbf00;stroke-width:1.5;stroke-linecap:square;stroke-linejoin:round"
           id="path258"
           inkscape:connector-curvature="0" />
      </g>
      <g
         id="patch_3"
         style="stroke-linecap:butt;stroke-linejoin:round">
        <path
           d="M 42.03,211.464 V 28.512"
           style="fill:none;stroke:#000000;stroke-width:0.80000001;stroke-linecap:square;stroke-linejoin:miter"
           id="path261"
           inkscape:connector-curvature="0" />
      </g>
      <g
         id="patch_4"
         style="stroke-linecap:butt;stroke-linejoin:round">
        <path
           d="M 302.616,211.464 V 28.512"
           style="fill:none;stroke:#000000;stroke-width:0.80000001;stroke-linecap:square;stroke-linejoin:miter"
           id="path264"
           inkscape:connector-curvature="0" />
      </g>
      <g
         id="patch_5"
         style="stroke-linecap:butt;stroke-linejoin:round">
        <path
           d="M 42.03,211.464 H 302.616"
           style="fill:none;stroke:#000000;stroke-width:0.80000001;stroke-linecap:square;stroke-linejoin:miter"
           id="path267"
           inkscape:connector-curvature="0" />
      </g>
      <g
         id="patch_6"
         style="stroke-linecap:butt;stroke-linejoin:round">
        <path
           d="M 42.03,28.512 H 302.616"
           style="fill:none;stroke:#000000;stroke-width:0.80000001;stroke-linecap:square;stroke-linejoin:miter"
           id="path270"
           inkscape:connector-curvature="0" />
      </g>
    </g>
  </g>
  <defs
     id="defs504">
    <clipPath
       id="p71885cdefc"
       style="stroke-linecap:butt;stroke-linejoin:round">
      <rect
         height="182.952"
         width="260.586"
         x="42.029999"
         y="28.511999"
         id="rect501"
         style="stroke-linecap:butt;stroke-linejoin:round" />
    </clipPath>
  </defs>
</svg>
